<?xml version="1.0" encoding="UTF-8" standalone="no"?>
<!DOCTYPE svg PUBLIC "-//W3C//DTD SVG 1.1//EN"
 "http://www.w3.org/Graphics/SVG/1.1/DTD/svg11.dtd">
<!-- Generated by graphviz version 10.0.1 (20240210.2158)
 -->
<!-- Title: RoutageVoilier/include/Bassin.hpp Pages: 1 -->
<svg width="1110pt" height="264pt"
 viewBox="0.00 0.00 1110.09 264.00" xmlns="http://www.w3.org/2000/svg" xmlns:xlink="http://www.w3.org/1999/xlink">
<g id="graph0" class="graph" transform="scale(1 1) rotate(0) translate(4 260)">
<title>RoutageVoilier/include/Bassin.hpp</title>
<!-- Node1 -->
<g id="Node000001" class="node">
<title>Node1</title>
<g id="a_Node000001"><a xlink:title=" ">
<polygon fill="#999999" stroke="#666666" points="634.39,-256 521.64,-256 521.64,-224 634.39,-224 634.39,-256"/>
<text text-anchor="start" x="529.64" y="-242.5" font-family="Helvetica,sans-Serif" font-size="10.00">RoutageVoilier/include</text>
<text text-anchor="middle" x="578.02" y="-230.5" font-family="Helvetica,sans-Serif" font-size="10.00">/Bassin.hpp</text>
</a>
</g>
</g>
<!-- Node2 -->
<g id="Node000002" class="node">
<title>Node2</title>
<g id="a_Node000002"><a xlink:title=" ">
<polygon fill="#e0e0e0" stroke="#999999" points="59.77,-20 6.27,-20 6.27,0 59.77,0 59.77,-20"/>
<text text-anchor="middle" x="33.02" y="-6.5" font-family="Helvetica,sans-Serif" font-size="10.00">iostream</text>
</a>
</g>
</g>
<!-- Node1&#45;&gt;Node2 -->
<g id="edge1_Node000001_Node000002" class="edge">
<title>Node1&#45;&gt;Node2</title>
<g id="a_edge1_Node000001_Node000002"><a xlink:title=" ">
<path fill="none" stroke="#63b8ff" d="M521.3,-234.59C456,-228.48 346.05,-214.98 255.02,-188 137.9,-153.29 70.51,-178.48 4.02,-76 -5.71,-61.01 4.81,-42.21 15.8,-28.69"/>
<polygon fill="#63b8ff" stroke="#63b8ff" points="18.23,-31.23 22.24,-21.42 12.99,-26.58 18.23,-31.23"/>
</a>
</g>
</g>
<!-- Node3 -->
<g id="Node000003" class="node">
<title>Node3</title>
<g id="a_Node000003"><a xlink:title=" ">
<polygon fill="#e0e0e0" stroke="#999999" points="357.02,-20 317.02,-20 317.02,0 357.02,0 357.02,-20"/>
<text text-anchor="middle" x="337.02" y="-6.5" font-family="Helvetica,sans-Serif" font-size="10.00">string</text>
</a>
</g>
</g>
<!-- Node1&#45;&gt;Node3 -->
<g id="edge2_Node000001_Node000003" class="edge">
<title>Node1&#45;&gt;Node3</title>
<g id="a_edge2_Node000001_Node000003"><a xlink:title=" ">
<path fill="none" stroke="#63b8ff" d="M521.41,-224.55C493.91,-216.15 461.05,-204.04 434.02,-188 369.87,-149.94 339.44,-144.11 309.02,-76 301.99,-60.27 311.07,-42.26 320.71,-29.2"/>
<polygon fill="#63b8ff" stroke="#63b8ff" points="323.4,-31.44 326.99,-21.47 317.97,-27.03 323.4,-31.44"/>
</a>
</g>
</g>
<!-- Node4 -->
<g id="Node000004" class="node">
<title>Node4</title>
<g id="a_Node000004"><a xlink:title=" ">
<polygon fill="#e0e0e0" stroke="#999999" points="205.77,-20 164.27,-20 164.27,0 205.77,0 205.77,-20"/>
<text text-anchor="middle" x="185.02" y="-6.5" font-family="Helvetica,sans-Serif" font-size="10.00">vector</text>
</a>
</g>
</g>
<!-- Node1&#45;&gt;Node4 -->
<g id="edge3_Node000001_Node000004" class="edge">
<title>Node1&#45;&gt;Node4</title>
<g id="a_edge3_Node000001_Node000004"><a xlink:title=" ">
<path fill="none" stroke="#63b8ff" d="M521.3,-236.97C425.74,-230.07 235.33,-200.54 156.02,-76 146.42,-60.93 156.92,-42.14 167.88,-28.64"/>
<polygon fill="#63b8ff" stroke="#63b8ff" points="170.29,-31.2 174.29,-21.39 165.04,-26.57 170.29,-31.2"/>
</a>
</g>
</g>
<!-- Node5 -->
<g id="Node000005" class="node">
<title>Node5</title>
<g id="a_Node000005"><a xlink:title=" ">
<polygon fill="#e0e0e0" stroke="#999999" points="473.27,-20 428.77,-20 428.77,0 473.27,0 473.27,-20"/>
<text text-anchor="middle" x="451.02" y="-6.5" font-family="Helvetica,sans-Serif" font-size="10.00">cstdlib</text>
</a>
</g>
</g>
<!-- Node1&#45;&gt;Node5 -->
<g id="edge4_Node000001_Node000005" class="edge">
<title>Node1&#45;&gt;Node5</title>
<g id="a_edge4_Node000001_Node000005"><a xlink:title=" ">
<path fill="none" stroke="#63b8ff" d="M528.16,-223.65C487.21,-207.99 432.29,-179.18 409.02,-132 403.3,-120.41 400.46,-84.62 412.02,-56 416.28,-45.44 424.1,-35.64 431.62,-27.89"/>
<polygon fill="#63b8ff" stroke="#63b8ff" points="433.59,-30.85 438.39,-21.41 428.75,-25.8 433.59,-30.85"/>
</a>
</g>
</g>
<!-- Node6 -->
<g id="Node000006" class="node">
<title>Node6</title>
<g id="a_Node000006"><a xlink:title=" ">
<polygon fill="#e0e0e0" stroke="#999999" points="748.52,-20 705.52,-20 705.52,0 748.52,0 748.52,-20"/>
<text text-anchor="middle" x="727.02" y="-6.5" font-family="Helvetica,sans-Serif" font-size="10.00">cmath</text>
</a>
</g>
</g>
<!-- Node1&#45;&gt;Node6 -->
<g id="edge5_Node000001_Node000006" class="edge">
<title>Node1&#45;&gt;Node6</title>
<g id="a_edge5_Node000001_Node000006"><a xlink:title=" ">
<path fill="none" stroke="#63b8ff" d="M634.64,-230.85C661.39,-223.97 691.28,-211.31 709.02,-188 744.33,-141.59 737.35,-67.35 731.25,-31.59"/>
<polygon fill="#63b8ff" stroke="#63b8ff" points="734.69,-30.94 729.4,-21.76 727.81,-32.23 734.69,-30.94"/>
</a>
</g>
</g>
<!-- Node7 -->
<g id="Node000007" class="node">
<title>Node7</title>
<g id="a_Node000007"><a xlink:title=" ">
<polygon fill="#e0e0e0" stroke="#999999" points="1093.14,-20 1044.89,-20 1044.89,0 1093.14,0 1093.14,-20"/>
<text text-anchor="middle" x="1069.02" y="-6.5" font-family="Helvetica,sans-Serif" font-size="10.00">fstream</text>
</a>
</g>
</g>
<!-- Node1&#45;&gt;Node7 -->
<g id="edge6_Node000001_Node000007" class="edge">
<title>Node1&#45;&gt;Node7</title>
<g id="a_edge6_Node000001_Node000007"><a xlink:title=" ">
<path fill="none" stroke="#63b8ff" d="M634.86,-231.58C688.53,-223.72 770.87,-209.46 840.02,-188 959.41,-150.95 1029.45,-180.52 1098.02,-76 1107.82,-61.06 1097.29,-42.25 1086.28,-28.72"/>
<polygon fill="#63b8ff" stroke="#63b8ff" points="1089.07,-26.6 1079.82,-21.44 1083.83,-31.24 1089.07,-26.6"/>
</a>
</g>
</g>
<!-- Node8 -->
<g id="Node000008" class="node">
<title>Node8</title>
<g id="a_Node000008"><a xlink:title=" ">
<polygon fill="#e0e0e0" stroke="#999999" points="942.64,-20 891.39,-20 891.39,0 942.64,0 942.64,-20"/>
<text text-anchor="middle" x="917.02" y="-6.5" font-family="Helvetica,sans-Serif" font-size="10.00">sstream</text>
</a>
</g>
</g>
<!-- Node1&#45;&gt;Node8 -->
<g id="edge7_Node000001_Node000008" class="edge">
<title>Node1&#45;&gt;Node8</title>
<g id="a_edge7_Node000001_Node000008"><a xlink:title=" ">
<path fill="none" stroke="#63b8ff" d="M634.63,-233.48C720.37,-221.68 880.24,-185.39 947.02,-76 956.38,-60.66 945.59,-41.91 934.43,-28.49"/>
<polygon fill="#63b8ff" stroke="#63b8ff" points="937.21,-26.35 927.9,-21.29 932.02,-31.05 937.21,-26.35"/>
</a>
</g>
</g>
<!-- Node9 -->
<g id="Node000009" class="node">
<title>Node9</title>
<g id="a_Node000009"><a xlink:title=" ">
<polygon fill="#e0e0e0" stroke="#999999" points="678.89,-20 623.14,-20 623.14,0 678.89,0 678.89,-20"/>
<text text-anchor="middle" x="651.02" y="-6.5" font-family="Helvetica,sans-Serif" font-size="10.00">algorithm</text>
</a>
</g>
</g>
<!-- Node1&#45;&gt;Node9 -->
<g id="edge8_Node000001_Node000009" class="edge">
<title>Node1&#45;&gt;Node9</title>
<g id="a_edge8_Node000001_Node000009"><a xlink:title=" ">
<path fill="none" stroke="#63b8ff" d="M634.68,-224.39C653,-216.7 671.33,-205.15 682.02,-188 692.21,-171.65 734.27,-234.43 680.02,-56 677.12,-46.48 671.58,-37.05 666.1,-29.3"/>
<polygon fill="#63b8ff" stroke="#63b8ff" points="668.94,-27.25 660.1,-21.42 663.37,-31.5 668.94,-27.25"/>
</a>
</g>
</g>
<!-- Node10 -->
<g id="Node000010" class="node">
<title>Node10</title>
<g id="a_Node000010"><a xlink:href="_vecteur_8hpp.html" target="_top" xlink:title=" ">
<polygon fill="white" stroke="#666666" points="623.27,-76 554.77,-76 554.77,-56 623.27,-56 623.27,-76"/>
<text text-anchor="middle" x="589.02" y="-62.5" font-family="Helvetica,sans-Serif" font-size="10.00">Vecteur.hpp</text>
</a>
</g>
</g>
<!-- Node1&#45;&gt;Node10 -->
<g id="edge9_Node000001_Node000010" class="edge">
<title>Node1&#45;&gt;Node10</title>
<g id="a_edge9_Node000001_Node000010"><a xlink:title=" ">
<path fill="none" stroke="#63b8ff" d="M623.12,-223.58C639.29,-215.61 655.79,-204.1 665.02,-188 687.05,-149.54 641.31,-105.83 611.67,-82.93"/>
<polygon fill="#63b8ff" stroke="#63b8ff" points="614.04,-80.33 603.93,-77.16 609.86,-85.94 614.04,-80.33"/>
</a>
</g>
</g>
<!-- Node11 -->
<g id="Node000011" class="node">
<title>Node11</title>
<g id="a_Node000011"><a xlink:href="_bi__vecteur_8hpp.html" target="_top" xlink:title=" ">
<polygon fill="white" stroke="#666666" points="508.89,-132 429.14,-132 429.14,-112 508.89,-112 508.89,-132"/>
<text text-anchor="middle" x="469.02" y="-118.5" font-family="Helvetica,sans-Serif" font-size="10.00">Bi_vecteur.hpp</text>
</a>
</g>
</g>
<!-- Node1&#45;&gt;Node11 -->
<g id="edge18_Node000001_Node000011" class="edge">
<title>Node1&#45;&gt;Node11</title>
<g id="a_edge18_Node000001_Node000011"><a xlink:title=" ">
<path fill="none" stroke="#63b8ff" d="M545.69,-223.64C530.02,-214.92 511.86,-202.79 499.02,-188 487.67,-174.93 479.8,-156.86 474.97,-143.08"/>
<polygon fill="#63b8ff" stroke="#63b8ff" points="478.36,-142.2 471.97,-133.76 471.7,-144.35 478.36,-142.2"/>
</a>
</g>
</g>
<!-- Node12 -->
<g id="Node000012" class="node">
<title>Node12</title>
<g id="a_Node000012"><a xlink:href="_foncteur_8hpp.html" target="_top" xlink:title=" ">
<polygon fill="white" stroke="#666666" points="656.52,-188 583.52,-188 583.52,-168 656.52,-168 656.52,-188"/>
<text text-anchor="middle" x="620.02" y="-174.5" font-family="Helvetica,sans-Serif" font-size="10.00">Foncteur.hpp</text>
</a>
</g>
</g>
<!-- Node1&#45;&gt;Node12 -->
<g id="edge28_Node000001_Node000012" class="edge">
<title>Node1&#45;&gt;Node12</title>
<g id="a_edge28_Node000001_Node000012"><a xlink:title=" ">
<path fill="none" stroke="#63b8ff" d="M588.83,-223.55C594.36,-215.65 601.14,-205.97 606.96,-197.66"/>
<polygon fill="#63b8ff" stroke="#63b8ff" points="609.7,-199.85 612.56,-189.65 603.96,-195.83 609.7,-199.85"/>
</a>
</g>
</g>
<!-- Node13 -->
<g id="Node000013" class="node">
<title>Node13</title>
<g id="a_Node000013"><a xlink:href="_grille_8hpp.html" target="_top" xlink:title=" ">
<polygon fill="white" stroke="#666666" points="565.64,-188 508.39,-188 508.39,-168 565.64,-168 565.64,-188"/>
<text text-anchor="middle" x="537.02" y="-174.5" font-family="Helvetica,sans-Serif" font-size="10.00">Grille.hpp</text>
</a>
</g>
</g>
<!-- Node1&#45;&gt;Node13 -->
<g id="edge39_Node000001_Node000013" class="edge">
<title>Node1&#45;&gt;Node13</title>
<g id="a_edge39_Node000001_Node000013"><a xlink:title=" ">
<path fill="none" stroke="#63b8ff" d="M567.46,-223.55C562.06,-215.65 555.45,-205.97 549.77,-197.66"/>
<polygon fill="#63b8ff" stroke="#63b8ff" points="552.83,-195.94 544.3,-189.66 547.05,-199.89 552.83,-195.94"/>
</a>
</g>
</g>
<!-- Node10&#45;&gt;Node2 -->
<g id="edge10_Node000010_Node000002" class="edge">
<title>Node10&#45;&gt;Node2</title>
<g id="a_edge10_Node000010_Node000002"><a xlink:title=" ">
<path fill="none" stroke="#63b8ff" d="M554.66,-61.66C456.39,-52.12 174.63,-24.75 71.46,-14.73"/>
<polygon fill="#63b8ff" stroke="#63b8ff" points="71.87,-11.26 61.58,-13.77 71.19,-18.22 71.87,-11.26"/>
</a>
</g>
</g>
<!-- Node10&#45;&gt;Node3 -->
<g id="edge11_Node000010_Node000003" class="edge">
<title>Node10&#45;&gt;Node3</title>
<g id="a_edge11_Node000010_Node000003"><a xlink:title=" ">
<path fill="none" stroke="#63b8ff" d="M554.51,-57.6C505.3,-47.06 415.69,-27.86 368.32,-17.71"/>
<polygon fill="#63b8ff" stroke="#63b8ff" points="369.22,-14.32 358.71,-15.65 367.76,-21.17 369.22,-14.32"/>
</a>
</g>
</g>
<!-- Node10&#45;&gt;Node4 -->
<g id="edge12_Node000010_Node000004" class="edge">
<title>Node10&#45;&gt;Node4</title>
<g id="a_edge12_Node000010_Node000004"><a xlink:title=" ">
<path fill="none" stroke="#63b8ff" d="M554.57,-60.4C477.41,-50.08 291.62,-25.25 216.92,-15.26"/>
<polygon fill="#63b8ff" stroke="#63b8ff" points="217.79,-11.85 207.41,-13.99 216.86,-18.79 217.79,-11.85"/>
</a>
</g>
</g>
<!-- Node10&#45;&gt;Node5 -->
<g id="edge13_Node000010_Node000005" class="edge">
<title>Node10&#45;&gt;Node5</title>
<g id="a_edge13_Node000010_Node000005"><a xlink:title=" ">
<path fill="none" stroke="#63b8ff" d="M564.98,-55.59C542.51,-46.8 508.78,-33.6 483.84,-23.84"/>
<polygon fill="#63b8ff" stroke="#63b8ff" points="485.41,-20.7 474.82,-20.31 482.86,-27.22 485.41,-20.7"/>
</a>
</g>
</g>
<!-- Node10&#45;&gt;Node6 -->
<g id="edge14_Node000010_Node000006" class="edge">
<title>Node10&#45;&gt;Node6</title>
<g id="a_edge14_Node000010_Node000006"><a xlink:title=" ">
<path fill="none" stroke="#63b8ff" d="M613.06,-55.59C635.66,-46.75 669.66,-33.44 694.64,-23.67"/>
<polygon fill="#63b8ff" stroke="#63b8ff" points="695.63,-27.04 703.67,-20.14 693.08,-20.52 695.63,-27.04"/>
</a>
</g>
</g>
<!-- Node10&#45;&gt;Node7 -->
<g id="edge15_Node000010_Node000007" class="edge">
<title>Node10&#45;&gt;Node7</title>
<g id="a_edge15_Node000010_Node000007"><a xlink:title=" ">
<path fill="none" stroke="#63b8ff" d="M623.54,-61.12C711.5,-51.22 943.4,-25.13 1032.99,-15.05"/>
<polygon fill="#63b8ff" stroke="#63b8ff" points="1033.36,-18.53 1042.91,-13.94 1032.58,-11.58 1033.36,-18.53"/>
</a>
</g>
</g>
<!-- Node10&#45;&gt;Node8 -->
<g id="edge16_Node000010_Node000008" class="edge">
<title>Node10&#45;&gt;Node8</title>
<g id="a_edge16_Node000010_Node000008"><a xlink:title=" ">
<path fill="none" stroke="#63b8ff" d="M623.5,-59.32C685.59,-49.1 815.69,-27.68 879.75,-17.14"/>
<polygon fill="#63b8ff" stroke="#63b8ff" points="880.12,-20.62 889.42,-15.54 878.98,-13.71 880.12,-20.62"/>
</a>
</g>
</g>
<!-- Node10&#45;&gt;Node9 -->
<g id="edge17_Node000010_Node000009" class="edge">
<title>Node10&#45;&gt;Node9</title>
<g id="a_edge17_Node000010_Node000009"><a xlink:title=" ">
<path fill="none" stroke="#63b8ff" d="M599.82,-55.59C608.62,-47.93 621.27,-36.91 631.79,-27.75"/>
<polygon fill="#63b8ff" stroke="#63b8ff" points="633.96,-30.5 639.2,-21.29 629.36,-25.22 633.96,-30.5"/>
</a>
</g>
</g>
<!-- Node11&#45;&gt;Node2 -->
<g id="edge19_Node000011_Node000002" class="edge">
<title>Node11&#45;&gt;Node2</title>
<g id="a_edge19_Node000011_Node000002"><a xlink:title=" ">
<path fill="none" stroke="#63b8ff" d="M431.47,-111.53C349.29,-90.79 154.23,-41.58 71.34,-20.67"/>
<polygon fill="#63b8ff" stroke="#63b8ff" points="72.2,-17.28 61.65,-18.22 70.49,-24.06 72.2,-17.28"/>
</a>
</g>
</g>
<!-- Node11&#45;&gt;Node3 -->
<g id="edge20_Node000011_Node000003" class="edge">
<title>Node11&#45;&gt;Node3</title>
<g id="a_edge20_Node000011_Node000003"><a xlink:title=" ">
<path fill="none" stroke="#63b8ff" d="M457.76,-111.62C435.36,-92.95 384.92,-50.92 356.84,-27.52"/>
<polygon fill="#63b8ff" stroke="#63b8ff" points="359.33,-25.04 349.41,-21.32 354.85,-30.41 359.33,-25.04"/>
</a>
</g>
</g>
<!-- Node11&#45;&gt;Node4 -->
<g id="edge21_Node000011_Node000004" class="edge">
<title>Node11&#45;&gt;Node4</title>
<g id="a_edge21_Node000011_Node000004"><a xlink:title=" ">
<path fill="none" stroke="#63b8ff" d="M444.8,-111.62C393.5,-91.75 273.86,-45.41 216.62,-23.24"/>
<polygon fill="#63b8ff" stroke="#63b8ff" points="218.05,-20.04 207.46,-19.69 215.52,-26.57 218.05,-20.04"/>
</a>
</g>
</g>
<!-- Node11&#45;&gt;Node5 -->
<g id="edge22_Node000011_Node000005" class="edge">
<title>Node11&#45;&gt;Node5</title>
<g id="a_edge22_Node000011_Node000005"><a xlink:title=" ">
<path fill="none" stroke="#63b8ff" d="M467.48,-111.62C464.6,-94.01 458.32,-55.59 454.4,-31.65"/>
<polygon fill="#63b8ff" stroke="#63b8ff" points="457.86,-31.15 452.79,-21.85 450.95,-32.28 457.86,-31.15"/>
</a>
</g>
</g>
<!-- Node11&#45;&gt;Node6 -->
<g id="edge23_Node000011_Node000006" class="edge">
<title>Node11&#45;&gt;Node6</title>
<g id="a_edge23_Node000011_Node000006"><a xlink:title=" ">
<path fill="none" stroke="#63b8ff" d="M509.17,-113.78C542.98,-106.81 592.08,-94.55 632.02,-76 659.98,-63.02 688.74,-42.08 707.18,-27.48"/>
<polygon fill="#63b8ff" stroke="#63b8ff" points="709.3,-30.27 714.89,-21.26 704.91,-24.82 709.3,-30.27"/>
</a>
</g>
</g>
<!-- Node11&#45;&gt;Node7 -->
<g id="edge24_Node000011_Node000007" class="edge">
<title>Node11&#45;&gt;Node7</title>
<g id="a_edge24_Node000011_Node000007"><a xlink:title=" ">
<path fill="none" stroke="#63b8ff" d="M509.24,-113.7C558.13,-104.81 643.13,-89.35 716.02,-76 832.29,-54.7 970.07,-29.28 1033.64,-17.54"/>
<polygon fill="#63b8ff" stroke="#63b8ff" points="1033.94,-21.04 1043.14,-15.78 1032.67,-14.16 1033.94,-21.04"/>
</a>
</g>
</g>
<!-- Node11&#45;&gt;Node8 -->
<g id="edge25_Node000011_Node000008" class="edge">
<title>Node11&#45;&gt;Node8</title>
<g id="a_edge25_Node000011_Node000008"><a xlink:title=" ">
<path fill="none" stroke="#63b8ff" d="M509.21,-111.96C548.49,-103.05 609.95,-88.94 663.02,-76 740.39,-57.13 830.66,-33.69 880.04,-20.74"/>
<polygon fill="#63b8ff" stroke="#63b8ff" points="880.86,-24.15 889.64,-18.22 879.08,-17.38 880.86,-24.15"/>
</a>
</g>
</g>
<!-- Node11&#45;&gt;Node9 -->
<g id="edge26_Node000011_Node000009" class="edge">
<title>Node11&#45;&gt;Node9</title>
<g id="a_edge26_Node000011_Node000009"><a xlink:title=" ">
<path fill="none" stroke="#63b8ff" d="M478.26,-111.59C492.04,-97.96 519.22,-72.54 546.02,-56 566.9,-43.11 592.14,-32.16 612.63,-24.3"/>
<polygon fill="#63b8ff" stroke="#63b8ff" points="613.61,-27.67 621.75,-20.89 611.16,-21.11 613.61,-27.67"/>
</a>
</g>
</g>
<!-- Node11&#45;&gt;Node10 -->
<g id="edge27_Node000011_Node000010" class="edge">
<title>Node11&#45;&gt;Node10</title>
<g id="a_edge27_Node000011_Node000010"><a xlink:title=" ">
<path fill="none" stroke="#63b8ff" d="M489.92,-111.59C508.65,-103.17 536.37,-90.69 557.74,-81.07"/>
<polygon fill="#63b8ff" stroke="#63b8ff" points="558.89,-84.4 566.57,-77.1 556.02,-78.01 558.89,-84.4"/>
</a>
</g>
</g>
<!-- Node12&#45;&gt;Node2 -->
<g id="edge29_Node000012_Node000002" class="edge">
<title>Node12&#45;&gt;Node2</title>
<g id="a_edge29_Node000012_Node000002"><a xlink:title=" ">
<path fill="none" stroke="#63b8ff" d="M583.2,-169.51C580.44,-168.99 577.68,-168.48 575.02,-168 474.47,-149.98 446.68,-158.46 348.02,-132 240.33,-103.12 118.67,-50.31 63.32,-25.11"/>
<polygon fill="#63b8ff" stroke="#63b8ff" points="65.09,-22.07 54.54,-21.08 62.17,-28.43 65.09,-22.07"/>
</a>
</g>
</g>
<!-- Node12&#45;&gt;Node3 -->
<g id="edge30_Node000012_Node000003" class="edge">
<title>Node12&#45;&gt;Node3</title>
<g id="a_edge30_Node000012_Node000003"><a xlink:title=" ">
<path fill="none" stroke="#63b8ff" d="M583.06,-169.41C527.15,-157.83 426.8,-136.59 420.02,-132 382.54,-106.61 357.1,-58.17 345.04,-30.91"/>
<polygon fill="#63b8ff" stroke="#63b8ff" points="348.28,-29.58 341.16,-21.74 341.84,-32.31 348.28,-29.58"/>
</a>
</g>
</g>
<!-- Node12&#45;&gt;Node4 -->
<g id="edge31_Node000012_Node000004" class="edge">
<title>Node12&#45;&gt;Node4</title>
<g id="a_edge31_Node000012_Node000004"><a xlink:title=" ">
<path fill="none" stroke="#63b8ff" d="M583.14,-169.63C519.36,-156.88 395.16,-132.05 395.02,-132 321.59,-104.36 243.71,-52.79 206.83,-26.81"/>
<polygon fill="#63b8ff" stroke="#63b8ff" points="208.96,-24.03 198.78,-21.08 204.9,-29.73 208.96,-24.03"/>
</a>
</g>
</g>
<!-- Node12&#45;&gt;Node5 -->
<g id="edge32_Node000012_Node000005" class="edge">
<title>Node12&#45;&gt;Node5</title>
<g id="a_edge32_Node000012_Node000005"><a xlink:title=" ">
<path fill="none" stroke="#63b8ff" d="M610.45,-167.6C583.03,-140.66 503.87,-62.92 468.48,-28.15"/>
<polygon fill="#63b8ff" stroke="#63b8ff" points="471.15,-25.87 461.56,-21.36 466.24,-30.86 471.15,-25.87"/>
</a>
</g>
</g>
<!-- Node12&#45;&gt;Node6 -->
<g id="edge33_Node000012_Node000006" class="edge">
<title>Node12&#45;&gt;Node6</title>
<g id="a_edge33_Node000012_Node000006"><a xlink:title=" ">
<path fill="none" stroke="#63b8ff" d="M630.7,-167.75C640.23,-159.14 654.14,-145.63 664.02,-132 687.9,-99.04 708.11,-55.79 718.82,-30.93"/>
<polygon fill="#63b8ff" stroke="#63b8ff" points="722.04,-32.3 722.7,-21.73 715.59,-29.58 722.04,-32.3"/>
</a>
</g>
</g>
<!-- Node12&#45;&gt;Node7 -->
<g id="edge34_Node000012_Node000007" class="edge">
<title>Node12&#45;&gt;Node7</title>
<g id="a_edge34_Node000012_Node000007"><a xlink:title=" ">
<path fill="none" stroke="#63b8ff" d="M656.98,-175.97C744.34,-173.06 961.08,-162.85 1026.02,-132 1058.1,-116.76 1069.28,-108.75 1083.02,-76 1089.16,-61.34 1084.65,-43.65 1079.17,-30.43"/>
<polygon fill="#63b8ff" stroke="#63b8ff" points="1082.4,-29.08 1074.98,-21.52 1076.06,-32.06 1082.4,-29.08"/>
</a>
</g>
</g>
<!-- Node12&#45;&gt;Node8 -->
<g id="edge35_Node000012_Node000008" class="edge">
<title>Node12&#45;&gt;Node8</title>
<g id="a_edge35_Node000012_Node000008"><a xlink:title=" ">
<path fill="none" stroke="#63b8ff" d="M656.94,-175.97C726.63,-173.29 874.01,-163.91 912.02,-132 938.69,-109.62 936.25,-90.42 931.02,-56 929.76,-47.72 927.27,-38.86 924.73,-31.22"/>
<polygon fill="#63b8ff" stroke="#63b8ff" points="928.06,-30.12 921.39,-21.88 921.47,-32.48 928.06,-30.12"/>
</a>
</g>
</g>
<!-- Node12&#45;&gt;Node9 -->
<g id="edge36_Node000012_Node000009" class="edge">
<title>Node12&#45;&gt;Node9</title>
<g id="a_edge36_Node000012_Node000009"><a xlink:title=" ">
<path fill="none" stroke="#63b8ff" d="M625.77,-167.71C636.1,-150.43 657.39,-111.86 665.02,-76 668.25,-60.79 664.2,-43.58 659.64,-30.69"/>
<polygon fill="#63b8ff" stroke="#63b8ff" points="663,-29.67 656.06,-21.66 656.49,-32.25 663,-29.67"/>
</a>
</g>
</g>
<!-- Node12&#45;&gt;Node10 -->
<g id="edge37_Node000012_Node000010" class="edge">
<title>Node12&#45;&gt;Node10</title>
<g id="a_edge37_Node000012_Node000010"><a xlink:title=" ">
<path fill="none" stroke="#63b8ff" d="M617.38,-167.62C612.39,-149.92 601.49,-111.24 594.75,-87.32"/>
<polygon fill="#63b8ff" stroke="#63b8ff" points="598.15,-86.49 592.07,-77.81 591.41,-88.39 598.15,-86.49"/>
</a>
</g>
</g>
<!-- Node12&#45;&gt;Node11 -->
<g id="edge38_Node000012_Node000011" class="edge">
<title>Node12&#45;&gt;Node11</title>
<g id="a_edge38_Node000012_Node000011"><a xlink:title=" ">
<path fill="none" stroke="#63b8ff" d="M593.72,-167.59C569.51,-158.94 533.34,-146 506.18,-136.29"/>
<polygon fill="#63b8ff" stroke="#63b8ff" points="507.55,-133.06 496.95,-132.99 505.19,-139.65 507.55,-133.06"/>
</a>
</g>
</g>
<!-- Node13&#45;&gt;Node2 -->
<g id="edge40_Node000013_Node000002" class="edge">
<title>Node13&#45;&gt;Node2</title>
<g id="a_edge40_Node000013_Node000002"><a xlink:title=" ">
<path fill="none" stroke="#63b8ff" d="M508.01,-176.71C403.71,-175.38 52.23,-168.22 19.02,-132 -6.37,-104.31 10.21,-56.8 22.75,-30.29"/>
<polygon fill="#63b8ff" stroke="#63b8ff" points="25.7,-32.2 27.06,-21.7 19.45,-29.07 25.7,-32.2"/>
</a>
</g>
</g>
<!-- Node13&#45;&gt;Node3 -->
<g id="edge41_Node000013_Node000003" class="edge">
<title>Node13&#45;&gt;Node3</title>
<g id="a_edge41_Node000013_Node000003"><a xlink:title=" ">
<path fill="none" stroke="#63b8ff" d="M508.3,-175.3C455.44,-171.52 346.05,-160.37 323.02,-132 299.57,-103.11 314.97,-56.77 326.89,-30.61"/>
<polygon fill="#63b8ff" stroke="#63b8ff" points="329.95,-32.34 331.16,-21.81 323.65,-29.29 329.95,-32.34"/>
</a>
</g>
</g>
<!-- Node13&#45;&gt;Node4 -->
<g id="edge42_Node000013_Node000004" class="edge">
<title>Node13&#45;&gt;Node4</title>
<g id="a_edge42_Node000013_Node000004"><a xlink:title=" ">
<path fill="none" stroke="#63b8ff" d="M507.97,-175.6C425.31,-171.33 193.29,-157.17 171.02,-132 146.24,-103.99 162.37,-56.94 174.72,-30.52"/>
<polygon fill="#63b8ff" stroke="#63b8ff" points="177.82,-32.15 179.14,-21.63 171.55,-29.03 177.82,-32.15"/>
</a>
</g>
</g>
<!-- Node13&#45;&gt;Node5 -->
<g id="edge43_Node000013_Node000005" class="edge">
<title>Node13&#45;&gt;Node5</title>
<g id="a_edge43_Node000013_Node000005"><a xlink:title=" ">
<path fill="none" stroke="#63b8ff" d="M508.05,-174.84C480.25,-171.04 439.67,-160.61 420.02,-132 398.43,-100.56 421.13,-55.21 437.46,-29.9"/>
<polygon fill="#63b8ff" stroke="#63b8ff" points="440.35,-31.87 443.07,-21.63 434.56,-27.94 440.35,-31.87"/>
</a>
</g>
</g>
<!-- Node13&#45;&gt;Node6 -->
<g id="edge44_Node000013_Node000006" class="edge">
<title>Node13&#45;&gt;Node6</title>
<g id="a_edge44_Node000013_Node000006"><a xlink:title=" ">
<path fill="none" stroke="#63b8ff" d="M555.8,-167.57C571.55,-159.25 594.24,-146.24 612.02,-132 652.15,-99.84 691.9,-54.13 712.51,-29.1"/>
<polygon fill="#63b8ff" stroke="#63b8ff" points="715.12,-31.45 718.71,-21.48 709.69,-27.03 715.12,-31.45"/>
</a>
</g>
</g>
<!-- Node13&#45;&gt;Node7 -->
<g id="edge45_Node000013_Node000007" class="edge">
<title>Node13&#45;&gt;Node7</title>
<g id="a_edge45_Node000013_Node000007"><a xlink:title=" ">
<path fill="none" stroke="#63b8ff" d="M566,-167.96C656.62,-139.68 934.49,-52.98 1033.51,-22.08"/>
<polygon fill="#63b8ff" stroke="#63b8ff" points="1034.46,-25.45 1042.96,-19.13 1032.37,-18.77 1034.46,-25.45"/>
</a>
</g>
</g>
<!-- Node13&#45;&gt;Node8 -->
<g id="edge46_Node000013_Node000008" class="edge">
<title>Node13&#45;&gt;Node8</title>
<g id="a_edge46_Node000013_Node000008"><a xlink:title=" ">
<path fill="none" stroke="#63b8ff" d="M558.54,-167.6C622.29,-139.75 810.37,-57.59 885.5,-24.77"/>
<polygon fill="#63b8ff" stroke="#63b8ff" points="886.59,-28.11 894.35,-20.9 883.78,-21.7 886.59,-28.11"/>
</a>
</g>
</g>
<!-- Node13&#45;&gt;Node9 -->
<g id="edge47_Node000013_Node000009" class="edge">
<title>Node13&#45;&gt;Node9</title>
<g id="a_edge47_Node000013_Node000009"><a xlink:title=" ">
<path fill="none" stroke="#63b8ff" d="M548.81,-167.72C568.85,-151.34 609.55,-115.28 632.02,-76 639.89,-62.23 644.74,-44.93 647.57,-31.64"/>
<polygon fill="#63b8ff" stroke="#63b8ff" points="651,-32.33 649.41,-21.85 644.12,-31.03 651,-32.33"/>
</a>
</g>
</g>
<!-- Node13&#45;&gt;Node10 -->
<g id="edge48_Node000013_Node000010" class="edge">
<title>Node13&#45;&gt;Node10</title>
<g id="a_edge48_Node000013_Node000010"><a xlink:title=" ">
<path fill="none" stroke="#63b8ff" d="M541.45,-167.62C549.89,-149.76 568.44,-110.53 579.72,-86.67"/>
<polygon fill="#63b8ff" stroke="#63b8ff" points="582.84,-88.26 583.95,-77.72 576.51,-85.27 582.84,-88.26"/>
</a>
</g>
</g>
<!-- Node13&#45;&gt;Node11 -->
<g id="edge49_Node000013_Node000011" class="edge">
<title>Node13&#45;&gt;Node11</title>
<g id="a_edge49_Node000013_Node000011"><a xlink:title=" ">
<path fill="none" stroke="#63b8ff" d="M525.17,-167.59C515.33,-159.77 501.08,-148.46 489.41,-139.19"/>
<polygon fill="#63b8ff" stroke="#63b8ff" points="491.92,-136.72 481.91,-133.24 487.57,-142.2 491.92,-136.72"/>
</a>
</g>
</g>
</g>
</svg>
