<?xml version="1.0" encoding="UTF-8" standalone="no"?>
<!DOCTYPE svg PUBLIC "-//W3C//DTD SVG 1.1//EN"
 "http://www.w3.org/Graphics/SVG/1.1/DTD/svg11.dtd">
<!-- Generated by graphviz version 10.0.1 (20240210.2158)
 -->
<!-- Title: RoutageVoilier/include/Bassin.hpp Pages: 1 -->
<svg width="572pt" height="584pt"
 viewBox="0.00 0.00 572.00 584.00" xmlns="http://www.w3.org/2000/svg" xmlns:xlink="http://www.w3.org/1999/xlink">
<g id="graph0" class="graph" transform="scale(1 1) rotate(0) translate(4 580)">
<title>RoutageVoilier/include/Bassin.hpp</title>
<!-- Node1 -->
<g id="Node000001" class="node">
<title>Node1</title>
<g id="a_Node000001"><a xlink:title=" ">
<polygon fill="#999999" stroke="#666666" points="256.38,-576 143.62,-576 143.62,-544 256.38,-544 256.38,-576"/>
<text text-anchor="start" x="151.62" y="-562.5" font-family="Helvetica,sans-Serif" font-size="10.00">RoutageVoilier/include</text>
<text text-anchor="middle" x="200" y="-550.5" font-family="Helvetica,sans-Serif" font-size="10.00">/Bassin.hpp</text>
</a>
</g>
</g>
<!-- Node2 -->
<g id="Node000002" class="node">
<title>Node2</title>
<g id="a_Node000002"><a xlink:href="_dynamique_8hpp.html" target="_top" xlink:title=" ">
<polygon fill="white" stroke="#666666" points="330.38,-304 217.62,-304 217.62,-272 330.38,-272 330.38,-304"/>
<text text-anchor="start" x="225.62" y="-290.5" font-family="Helvetica,sans-Serif" font-size="10.00">RoutageVoilier/include</text>
<text text-anchor="middle" x="274" y="-278.5" font-family="Helvetica,sans-Serif" font-size="10.00">/Dynamique.hpp</text>
</a>
</g>
</g>
<!-- Node1&#45;&gt;Node2 -->
<g id="edge1_Node000001_Node000002" class="edge">
<title>Node1&#45;&gt;Node2</title>
<g id="a_edge1_Node000001_Node000002"><a xlink:title=" ">
<path fill="none" stroke="#63b8ff" d="M213.91,-533.6C217.91,-525.58 221.99,-516.57 225,-508 251.03,-433.93 266.44,-340.78 271.82,-304.48"/>
<polygon fill="#63b8ff" stroke="#63b8ff" points="210.82,-531.95 209.33,-542.44 217.04,-535.17 210.82,-531.95"/>
</a>
</g>
</g>
<!-- Node6 -->
<g id="Node000006" class="node">
<title>Node6</title>
<g id="a_Node000006"><a xlink:href="main_8cpp.html" target="_top" xlink:title=" ">
<polygon fill="white" stroke="#666666" points="367.75,-32 272.25,-32 272.25,0 367.75,0 367.75,-32"/>
<text text-anchor="start" x="280.25" y="-18.5" font-family="Helvetica,sans-Serif" font-size="10.00">RoutageVoilier/src</text>
<text text-anchor="middle" x="320" y="-6.5" font-family="Helvetica,sans-Serif" font-size="10.00">/main.cpp</text>
</a>
</g>
</g>
<!-- Node1&#45;&gt;Node6 -->
<g id="edge28_Node000001_Node000006" class="edge">
<title>Node1&#45;&gt;Node6</title>
<g id="a_edge28_Node000001_Node000006"><a xlink:title=" ">
<path fill="none" stroke="#63b8ff" d="M132.23,-543.46C74.22,-525.67 0,-490.18 0,-425 0,-425 0,-425 0,-151 0,-34.46 182.82,-17.54 272.09,-16.22"/>
<polygon fill="#63b8ff" stroke="#63b8ff" points="131.19,-546.8 141.77,-546.26 133.16,-540.09 131.19,-546.8"/>
</a>
</g>
</g>
<!-- Node7 -->
<g id="Node000007" class="node">
<title>Node7</title>
<g id="a_Node000007"><a xlink:href="_simulateur_8hpp.html" target="_top" xlink:title=" ">
<polygon fill="white" stroke="#666666" points="536.38,-236 423.62,-236 423.62,-204 536.38,-204 536.38,-236"/>
<text text-anchor="start" x="431.62" y="-222.5" font-family="Helvetica,sans-Serif" font-size="10.00">RoutageVoilier/include</text>
<text text-anchor="middle" x="480" y="-210.5" font-family="Helvetica,sans-Serif" font-size="10.00">/Simulateur.hpp</text>
</a>
</g>
</g>
<!-- Node1&#45;&gt;Node7 -->
<g id="edge27_Node000001_Node000007" class="edge">
<title>Node1&#45;&gt;Node7</title>
<g id="a_edge27_Node000001_Node000007"><a xlink:title=" ">
<path fill="none" stroke="#63b8ff" d="M267.8,-545.44C363.32,-524.36 526,-480.33 526,-425 526,-425 526,-425 526,-355 526,-309.99 502.49,-260.86 489.09,-236.49"/>
<polygon fill="#63b8ff" stroke="#63b8ff" points="267.29,-541.97 258.26,-547.51 268.78,-548.81 267.29,-541.97"/>
</a>
</g>
</g>
<!-- Node8 -->
<g id="Node000008" class="node">
<title>Node8</title>
<g id="a_Node000008"><a xlink:href="_fonction__externes_8hpp.html" target="_top" xlink:title=" ">
<polygon fill="white" stroke="#666666" points="216,-508 98,-508 98,-476 216,-476 216,-508"/>
<text text-anchor="start" x="106" y="-494.5" font-family="Helvetica,sans-Serif" font-size="10.00">RoutageVoilier/include</text>
<text text-anchor="middle" x="157" y="-482.5" font-family="Helvetica,sans-Serif" font-size="10.00">/Fonction_externes.hpp</text>
</a>
</g>
</g>
<!-- Node1&#45;&gt;Node8 -->
<g id="edge13_Node000001_Node000008" class="edge">
<title>Node1&#45;&gt;Node8</title>
<g id="a_edge13_Node000001_Node000008"><a xlink:title=" ">
<path fill="none" stroke="#63b8ff" d="M183.91,-534.3C178.21,-525.55 171.96,-515.96 166.92,-508.22"/>
<polygon fill="#63b8ff" stroke="#63b8ff" points="180.81,-535.96 189.2,-542.42 186.67,-532.14 180.81,-535.96"/>
</a>
</g>
</g>
<!-- Node3 -->
<g id="Node000003" class="node">
<title>Node3</title>
<g id="a_Node000003"><a xlink:href="_flux_8hpp.html" target="_top" xlink:title=" ">
<polygon fill="white" stroke="#666666" points="330.38,-236 217.62,-236 217.62,-204 330.38,-204 330.38,-236"/>
<text text-anchor="start" x="225.62" y="-222.5" font-family="Helvetica,sans-Serif" font-size="10.00">RoutageVoilier/include</text>
<text text-anchor="middle" x="274" y="-210.5" font-family="Helvetica,sans-Serif" font-size="10.00">/Flux.hpp</text>
</a>
</g>
</g>
<!-- Node2&#45;&gt;Node3 -->
<g id="edge2_Node000002_Node000003" class="edge">
<title>Node2&#45;&gt;Node3</title>
<g id="a_edge2_Node000002_Node000003"><a xlink:title=" ">
<path fill="none" stroke="#63b8ff" d="M274,-260.31C274,-252.12 274,-243.38 274,-236.22"/>
<polygon fill="#63b8ff" stroke="#63b8ff" points="270.5,-260.18 274,-270.18 277.5,-260.18 270.5,-260.18"/>
</a>
</g>
</g>
<!-- Node4 -->
<g id="Node000004" class="node">
<title>Node4</title>
<g id="a_Node000004"><a xlink:href="_h_j_b_8hpp.html" target="_top" xlink:title=" ">
<polygon fill="white" stroke="#666666" points="292.38,-168 179.62,-168 179.62,-136 292.38,-136 292.38,-168"/>
<text text-anchor="start" x="187.62" y="-154.5" font-family="Helvetica,sans-Serif" font-size="10.00">RoutageVoilier/include</text>
<text text-anchor="middle" x="236" y="-142.5" font-family="Helvetica,sans-Serif" font-size="10.00">/HJB.hpp</text>
</a>
</g>
</g>
<!-- Node2&#45;&gt;Node4 -->
<g id="edge8_Node000002_Node000004" class="edge">
<title>Node2&#45;&gt;Node4</title>
<g id="a_edge8_Node000002_Node000004"><a xlink:title=" ">
<path fill="none" stroke="#63b8ff" d="M234.43,-265.01C224.27,-257.27 214.62,-247.55 209,-236 198.06,-213.52 212.44,-185.54 224.04,-168.48"/>
<polygon fill="#63b8ff" stroke="#63b8ff" points="232.37,-267.84 242.57,-270.7 236.38,-262.1 232.37,-267.84"/>
</a>
</g>
</g>
<!-- Node5 -->
<g id="Node000005" class="node">
<title>Node5</title>
<g id="a_Node000005"><a xlink:href="route__optimale_8hpp.html" target="_top" xlink:title=" ">
<polygon fill="white" stroke="#666666" points="220.38,-100 107.62,-100 107.62,-68 220.38,-68 220.38,-100"/>
<text text-anchor="start" x="115.62" y="-86.5" font-family="Helvetica,sans-Serif" font-size="10.00">RoutageVoilier/include</text>
<text text-anchor="middle" x="164" y="-74.5" font-family="Helvetica,sans-Serif" font-size="10.00">/route_optimale.hpp</text>
</a>
</g>
</g>
<!-- Node2&#45;&gt;Node5 -->
<g id="edge11_Node000002_Node000005" class="edge">
<title>Node2&#45;&gt;Node5</title>
<g id="a_edge11_Node000002_Node000005"><a xlink:title=" ">
<path fill="none" stroke="#63b8ff" d="M235.25,-265.64C223.12,-257.56 210.45,-247.49 201,-236 167.74,-195.56 163.64,-129.69 163.61,-100.16"/>
<polygon fill="#63b8ff" stroke="#63b8ff" points="233.18,-268.47 243.5,-270.87 236.93,-262.56 233.18,-268.47"/>
</a>
</g>
</g>
<!-- Node2&#45;&gt;Node6 -->
<g id="edge12_Node000002_Node000006" class="edge">
<title>Node2&#45;&gt;Node6</title>
<g id="a_edge12_Node000002_Node000006"><a xlink:title=" ">
<path fill="none" stroke="#63b8ff" d="M313.57,-265.01C323.73,-257.27 333.38,-247.55 339,-236 372.89,-166.33 341.09,-69.45 326.46,-32.32"/>
<polygon fill="#63b8ff" stroke="#63b8ff" points="311.62,-262.1 305.43,-270.7 315.63,-267.84 311.62,-262.1"/>
</a>
</g>
</g>
<!-- Node2&#45;&gt;Node7 -->
<g id="edge9_Node000002_Node000007" class="edge">
<title>Node2&#45;&gt;Node7</title>
<g id="a_edge9_Node000002_Node000007"><a xlink:title=" ">
<path fill="none" stroke="#63b8ff" d="M333.05,-268.08C364.29,-258.07 402.17,-245.94 431.65,-236.49"/>
<polygon fill="#63b8ff" stroke="#63b8ff" points="332.19,-264.68 323.74,-271.06 334.33,-271.35 332.19,-264.68"/>
</a>
</g>
</g>
<!-- Node3&#45;&gt;Node4 -->
<g id="edge3_Node000003_Node000004" class="edge">
<title>Node3&#45;&gt;Node4</title>
<g id="a_edge3_Node000003_Node000004"><a xlink:title=" ">
<path fill="none" stroke="#63b8ff" d="M259.46,-193.74C254.5,-185.14 249.12,-175.79 244.77,-168.22"/>
<polygon fill="#63b8ff" stroke="#63b8ff" points="256.41,-195.46 264.43,-202.38 262.47,-191.97 256.41,-195.46"/>
</a>
</g>
</g>
<!-- Node3&#45;&gt;Node6 -->
<g id="edge7_Node000003_Node000006" class="edge">
<title>Node3&#45;&gt;Node6</title>
<g id="a_edge7_Node000003_Node000006"><a xlink:title=" ">
<path fill="none" stroke="#63b8ff" d="M289.66,-193.79C293.98,-185.8 298.23,-176.77 301,-168 316.12,-120.13 319.26,-60.14 319.88,-32.39"/>
<polygon fill="#63b8ff" stroke="#63b8ff" points="286.74,-191.84 284.81,-202.26 292.82,-195.31 286.74,-191.84"/>
</a>
</g>
</g>
<!-- Node4&#45;&gt;Node5 -->
<g id="edge4_Node000004_Node000005" class="edge">
<title>Node4&#45;&gt;Node5</title>
<g id="a_edge4_Node000004_Node000005"><a xlink:title=" ">
<path fill="none" stroke="#63b8ff" d="M210.9,-127.99C200.87,-118.79 189.59,-108.46 180.61,-100.22"/>
<polygon fill="#63b8ff" stroke="#63b8ff" points="208.45,-130.49 218.19,-134.67 213.18,-125.33 208.45,-130.49"/>
</a>
</g>
</g>
<!-- Node4&#45;&gt;Node6 -->
<g id="edge6_Node000004_Node000006" class="edge">
<title>Node4&#45;&gt;Node6</title>
<g id="a_edge6_Node000004_Node000006"><a xlink:title=" ">
<path fill="none" stroke="#63b8ff" d="M251.72,-125.92C268.99,-98.37 296.18,-55.01 310.48,-32.19"/>
<polygon fill="#63b8ff" stroke="#63b8ff" points="248.79,-124.01 246.44,-134.35 254.72,-127.73 248.79,-124.01"/>
</a>
</g>
</g>
<!-- Node5&#45;&gt;Node6 -->
<g id="edge5_Node000005_Node000006" class="edge">
<title>Node5&#45;&gt;Node6</title>
<g id="a_edge5_Node000005_Node000006"><a xlink:title=" ">
<path fill="none" stroke="#63b8ff" d="M210.9,-63.16C234.12,-53.33 261.74,-41.65 283.38,-32.49"/>
<polygon fill="#63b8ff" stroke="#63b8ff" points="209.81,-59.82 201.97,-66.94 212.54,-66.26 209.81,-59.82"/>
</a>
</g>
</g>
<!-- Node7&#45;&gt;Node6 -->
<g id="edge10_Node000007_Node000006" class="edge">
<title>Node7&#45;&gt;Node6</title>
<g id="a_edge10_Node000007_Node000006"><a xlink:title=" ">
<path fill="none" stroke="#63b8ff" d="M473.2,-192.64C463.68,-160.08 443.66,-104.52 410,-68 395.88,-52.68 376.08,-40.77 358.64,-32.33"/>
<polygon fill="#63b8ff" stroke="#63b8ff" points="469.77,-193.37 475.83,-202.06 476.51,-191.49 469.77,-193.37"/>
</a>
</g>
</g>
<!-- Node8&#45;&gt;Node2 -->
<g id="edge14_Node000008_Node000002" class="edge">
<title>Node8&#45;&gt;Node2</title>
<g id="a_edge14_Node000008_Node000002"><a xlink:title=" ">
<path fill="none" stroke="#63b8ff" d="M166.96,-465.39C179.52,-434.46 202.81,-381.4 230,-340 238.47,-327.1 249.91,-313.94 258.99,-304.22"/>
<polygon fill="#63b8ff" stroke="#63b8ff" points="163.85,-463.74 163.39,-474.32 170.35,-466.34 163.85,-463.74"/>
</a>
</g>
</g>
<!-- Node8&#45;&gt;Node4 -->
<g id="edge15_Node000008_Node000004" class="edge">
<title>Node8&#45;&gt;Node4</title>
<g id="a_edge15_Node000008_Node000004"><a xlink:title=" ">
<path fill="none" stroke="#63b8ff" d="M143.63,-465.59C131.01,-439.19 114,-396.34 114,-357 114,-357 114,-357 114,-287 114,-232.1 170.69,-189.78 206.78,-168.4"/>
<polygon fill="#63b8ff" stroke="#63b8ff" points="140.46,-467.07 148.04,-474.48 146.73,-463.96 140.46,-467.07"/>
</a>
</g>
</g>
<!-- Node8&#45;&gt;Node5 -->
<g id="edge25_Node000008_Node000005" class="edge">
<title>Node8&#45;&gt;Node5</title>
<g id="a_edge25_Node000008_Node000005"><a xlink:title=" ">
<path fill="none" stroke="#63b8ff" d="M131.82,-467.42C108.04,-442.49 76,-400.77 76,-357 76,-357 76,-357 76,-219 76,-168.9 119.51,-123.01 145.34,-100.17"/>
<polygon fill="#63b8ff" stroke="#63b8ff" points="129.24,-469.79 138.76,-474.44 134.22,-464.87 129.24,-469.79"/>
</a>
</g>
</g>
<!-- Node8&#45;&gt;Node6 -->
<g id="edge26_Node000008_Node000006" class="edge">
<title>Node8&#45;&gt;Node6</title>
<g id="a_edge26_Node000008_Node000006"><a xlink:title=" ">
<path fill="none" stroke="#63b8ff" d="M119.32,-469.59C84.46,-446.66 38,-406.77 38,-357 38,-357 38,-357 38,-151 38,-48.69 191.3,-24.4 271.84,-18.7"/>
<polygon fill="#63b8ff" stroke="#63b8ff" points="117.2,-472.39 127.52,-474.79 120.95,-466.47 117.2,-472.39"/>
</a>
</g>
</g>
<!-- Node8&#45;&gt;Node7 -->
<g id="edge16_Node000008_Node000007" class="edge">
<title>Node8&#45;&gt;Node7</title>
<g id="a_edge16_Node000008_Node000007"><a xlink:title=" ">
<path fill="none" stroke="#63b8ff" d="M227.44,-486.01C298.36,-479.59 401.37,-466.04 431,-440 491.44,-386.89 486.25,-276.97 481.99,-236.44"/>
<polygon fill="#63b8ff" stroke="#63b8ff" points="227.52,-482.49 217.86,-486.85 228.13,-489.46 227.52,-482.49"/>
</a>
</g>
</g>
<!-- Node9 -->
<g id="Node000009" class="node">
<title>Node9</title>
<g id="a_Node000009"><a xlink:href="_voilier_8hpp.html" target="_top" xlink:title=" ">
<polygon fill="white" stroke="#666666" points="422.38,-440 309.62,-440 309.62,-408 422.38,-408 422.38,-440"/>
<text text-anchor="start" x="317.62" y="-426.5" font-family="Helvetica,sans-Serif" font-size="10.00">RoutageVoilier/include</text>
<text text-anchor="middle" x="366" y="-414.5" font-family="Helvetica,sans-Serif" font-size="10.00">/Voilier.hpp</text>
</a>
</g>
</g>
<!-- Node8&#45;&gt;Node9 -->
<g id="edge17_Node000008_Node000009" class="edge">
<title>Node8&#45;&gt;Node9</title>
<g id="a_edge17_Node000008_Node000009"><a xlink:title=" ">
<path fill="none" stroke="#63b8ff" d="M216.91,-472.08C248.6,-462.07 287.04,-449.94 316.94,-440.49"/>
<polygon fill="#63b8ff" stroke="#63b8ff" points="215.93,-468.72 207.44,-475.07 218.03,-475.4 215.93,-468.72"/>
</a>
</g>
</g>
<!-- Node9&#45;&gt;Node2 -->
<g id="edge22_Node000009_Node000002" class="edge">
<title>Node9&#45;&gt;Node2</title>
<g id="a_edge22_Node000009_Node000002"><a xlink:title=" ">
<path fill="none" stroke="#63b8ff" d="M330.52,-401.14C319.8,-393.1 308.82,-383.18 301,-372 286.42,-351.13 279.35,-321.91 276.21,-304.28"/>
<polygon fill="#63b8ff" stroke="#63b8ff" points="328.37,-403.91 338.55,-406.84 332.42,-398.2 328.37,-403.91"/>
</a>
</g>
</g>
<!-- Node9&#45;&gt;Node6 -->
<g id="edge24_Node000009_Node000006" class="edge">
<title>Node9&#45;&gt;Node6</title>
<g id="a_edge24_Node000009_Node000006"><a xlink:title=" ">
<path fill="none" stroke="#63b8ff" d="M433.61,-407.09C490.96,-389.11 564,-353.54 564,-289 564,-289 564,-289 564,-151 564,-62.56 439.32,-32.09 368.21,-21.9"/>
<polygon fill="#63b8ff" stroke="#63b8ff" points="432.76,-403.69 424.19,-409.92 434.77,-410.4 432.76,-403.69"/>
</a>
</g>
</g>
<!-- Node9&#45;&gt;Node7 -->
<g id="edge23_Node000009_Node000007" class="edge">
<title>Node9&#45;&gt;Node7</title>
<g id="a_edge23_Node000009_Node000007"><a xlink:title=" ">
<path fill="none" stroke="#63b8ff" d="M401.75,-400.95C412.38,-392.94 423.25,-383.1 431,-372 461.3,-328.62 473.71,-265.37 478.02,-236.46"/>
<polygon fill="#63b8ff" stroke="#63b8ff" points="399.9,-397.97 393.78,-406.62 403.96,-403.67 399.9,-397.97"/>
</a>
</g>
</g>
<!-- Node10 -->
<g id="Node000010" class="node">
<title>Node10</title>
<g id="a_Node000010"><a xlink:href="_commande_8hpp.html" target="_top" xlink:title=" ">
<polygon fill="white" stroke="#666666" points="422.38,-372 309.62,-372 309.62,-340 422.38,-340 422.38,-372"/>
<text text-anchor="start" x="317.62" y="-358.5" font-family="Helvetica,sans-Serif" font-size="10.00">RoutageVoilier/include</text>
<text text-anchor="middle" x="366" y="-346.5" font-family="Helvetica,sans-Serif" font-size="10.00">/Commande.hpp</text>
</a>
</g>
</g>
<!-- Node9&#45;&gt;Node10 -->
<g id="edge18_Node000009_Node000010" class="edge">
<title>Node9&#45;&gt;Node10</title>
<g id="a_edge18_Node000009_Node000010"><a xlink:title=" ">
<path fill="none" stroke="#63b8ff" d="M366,-396.31C366,-388.12 366,-379.38 366,-372.22"/>
<polygon fill="#63b8ff" stroke="#63b8ff" points="362.5,-396.18 366,-406.18 369.5,-396.18 362.5,-396.18"/>
</a>
</g>
</g>
<!-- Node10&#45;&gt;Node2 -->
<g id="edge19_Node000010_Node000002" class="edge">
<title>Node10&#45;&gt;Node2</title>
<g id="a_edge19_Node000010_Node000002"><a xlink:title=" ">
<path fill="none" stroke="#63b8ff" d="M335.54,-333.15C322.44,-323.75 307.45,-313 295.54,-304.45"/>
<polygon fill="#63b8ff" stroke="#63b8ff" points="333.27,-335.82 343.43,-338.81 337.35,-330.14 333.27,-335.82"/>
</a>
</g>
</g>
<!-- Node10&#45;&gt;Node6 -->
<g id="edge21_Node000010_Node000006" class="edge">
<title>Node10&#45;&gt;Node6</title>
<g id="a_edge21_Node000010_Node000006"><a xlink:title=" ">
<path fill="none" stroke="#63b8ff" d="M370.96,-328.37C379.45,-276.13 392.54,-157.53 356,-68 350.68,-54.96 341.48,-42.01 333.71,-32.42"/>
<polygon fill="#63b8ff" stroke="#63b8ff" points="367.53,-327.67 369.29,-338.11 374.43,-328.85 367.53,-327.67"/>
</a>
</g>
</g>
<!-- Node10&#45;&gt;Node7 -->
<g id="edge20_Node000010_Node000007" class="edge">
<title>Node10&#45;&gt;Node7</title>
<g id="a_edge20_Node000010_Node000007"><a xlink:title=" ">
<path fill="none" stroke="#63b8ff" d="M386.03,-331.1C399.99,-314.49 419.07,-291.84 436,-272 446.32,-259.9 458.09,-246.26 466.86,-236.14"/>
<polygon fill="#63b8ff" stroke="#63b8ff" points="383.57,-328.59 379.82,-338.5 388.93,-333.09 383.57,-328.59"/>
</a>
</g>
</g>
</g>
</svg>
