<?xml version="1.0" encoding="UTF-8" standalone="no"?>
<!DOCTYPE svg PUBLIC "-//W3C//DTD SVG 1.1//EN"
 "http://www.w3.org/Graphics/SVG/1.1/DTD/svg11.dtd">
<!-- Generated by graphviz version 10.0.1 (20240210.2158)
 -->
<!-- Title: RoutageVoilier/include/Bi_vecteur.hpp Pages: 1 -->
<svg width="962pt" height="720pt"
 viewBox="0.00 0.00 962.38 720.00" xmlns="http://www.w3.org/2000/svg" xmlns:xlink="http://www.w3.org/1999/xlink">
<g id="graph0" class="graph" transform="scale(1 1) rotate(0) translate(4 716)">
<title>RoutageVoilier/include/Bi_vecteur.hpp</title>
<!-- Node1 -->
<g id="Node000001" class="node">
<title>Node1</title>
<g id="a_Node000001"><a xlink:title=" ">
<polygon fill="#999999" stroke="#666666" points="482.38,-712 369.62,-712 369.62,-680 482.38,-680 482.38,-712"/>
<text text-anchor="start" x="377.62" y="-698.5" font-family="Helvetica,sans-Serif" font-size="10.00">RoutageVoilier/include</text>
<text text-anchor="middle" x="426" y="-686.5" font-family="Helvetica,sans-Serif" font-size="10.00">/Bi_vecteur.hpp</text>
</a>
</g>
</g>
<!-- Node2 -->
<g id="Node000002" class="node">
<title>Node2</title>
<g id="a_Node000002"><a xlink:href="_bassin_8hpp.html" target="_top" xlink:title=" ">
<polygon fill="white" stroke="#666666" points="482.38,-576 369.62,-576 369.62,-544 482.38,-544 482.38,-576"/>
<text text-anchor="start" x="377.62" y="-562.5" font-family="Helvetica,sans-Serif" font-size="10.00">RoutageVoilier/include</text>
<text text-anchor="middle" x="426" y="-550.5" font-family="Helvetica,sans-Serif" font-size="10.00">/Bassin.hpp</text>
</a>
</g>
</g>
<!-- Node1&#45;&gt;Node2 -->
<g id="edge1_Node000001_Node000002" class="edge">
<title>Node1&#45;&gt;Node2</title>
<g id="a_edge1_Node000001_Node000002"><a xlink:title=" ">
<path fill="none" stroke="#63b8ff" d="M426,-668.45C426,-640.84 426,-598.6 426,-576.19"/>
<polygon fill="#63b8ff" stroke="#63b8ff" points="422.5,-668.11 426,-678.11 429.5,-668.11 422.5,-668.11"/>
</a>
</g>
</g>
<!-- Node7 -->
<g id="Node000007" class="node">
<title>Node7</title>
<g id="a_Node000007"><a xlink:href="main_8cpp.html" target="_top" xlink:title=" ">
<polygon fill="white" stroke="#666666" points="419.75,-32 324.25,-32 324.25,0 419.75,0 419.75,-32"/>
<text text-anchor="start" x="332.25" y="-18.5" font-family="Helvetica,sans-Serif" font-size="10.00">RoutageVoilier/src</text>
<text text-anchor="middle" x="372" y="-6.5" font-family="Helvetica,sans-Serif" font-size="10.00">/main.cpp</text>
</a>
</g>
</g>
<!-- Node1&#45;&gt;Node7 -->
<g id="edge51_Node000001_Node000007" class="edge">
<title>Node1&#45;&gt;Node7</title>
<g id="a_edge51_Node000001_Node000007"><a xlink:title=" ">
<path fill="none" stroke="#63b8ff" d="M358.18,-687.87C237.95,-673.32 0,-635.17 0,-561 0,-561 0,-561 0,-151 0,-108.39 12.86,-92.11 48,-68 91.96,-37.84 244.96,-24.52 323.96,-19.53"/>
<polygon fill="#63b8ff" stroke="#63b8ff" points="357.58,-691.32 367.93,-689.02 358.41,-684.37 357.58,-691.32"/>
</a>
</g>
</g>
<!-- Node9 -->
<g id="Node000009" class="node">
<title>Node9</title>
<g id="a_Node000009"><a xlink:href="_fonction__externes_8hpp.html" target="_top" xlink:title=" ">
<polygon fill="white" stroke="#666666" points="694,-508 576,-508 576,-476 694,-476 694,-508"/>
<text text-anchor="start" x="584" y="-494.5" font-family="Helvetica,sans-Serif" font-size="10.00">RoutageVoilier/include</text>
<text text-anchor="middle" x="635" y="-482.5" font-family="Helvetica,sans-Serif" font-size="10.00">/Fonction_externes.hpp</text>
</a>
</g>
</g>
<!-- Node1&#45;&gt;Node9 -->
<g id="edge39_Node000001_Node000009" class="edge">
<title>Node1&#45;&gt;Node9</title>
<g id="a_edge39_Node000001_Node000009"><a xlink:title=" ">
<path fill="none" stroke="#63b8ff" d="M494.08,-684.44C540.78,-675.77 597.08,-661.98 613,-644 647.24,-605.32 642.08,-537.95 637.68,-508.05"/>
<polygon fill="#63b8ff" stroke="#63b8ff" points="493.46,-681 484.24,-686.22 494.7,-687.89 493.46,-681"/>
</a>
</g>
</g>
<!-- Node10 -->
<g id="Node000010" class="node">
<title>Node10</title>
<g id="a_Node000010"><a xlink:href="_voilier_8hpp.html" target="_top" xlink:title=" ">
<polygon fill="white" stroke="#666666" points="330.38,-440 217.62,-440 217.62,-408 330.38,-408 330.38,-440"/>
<text text-anchor="start" x="225.62" y="-426.5" font-family="Helvetica,sans-Serif" font-size="10.00">RoutageVoilier/include</text>
<text text-anchor="middle" x="274" y="-414.5" font-family="Helvetica,sans-Serif" font-size="10.00">/Voilier.hpp</text>
</a>
</g>
</g>
<!-- Node1&#45;&gt;Node10 -->
<g id="edge50_Node000001_Node000010" class="edge">
<title>Node1&#45;&gt;Node10</title>
<g id="a_edge50_Node000001_Node000010"><a xlink:title=" ">
<path fill="none" stroke="#63b8ff" d="M411.78,-669.73C380.77,-614.65 307.84,-485.12 282.7,-440.46"/>
<polygon fill="#63b8ff" stroke="#63b8ff" points="408.69,-671.39 416.65,-678.39 414.79,-667.96 408.69,-671.39"/>
</a>
</g>
</g>
<!-- Node12 -->
<g id="Node000012" class="node">
<title>Node12</title>
<g id="a_Node000012"><a xlink:href="_foncteur_8hpp.html" target="_top" xlink:title=" ">
<polygon fill="white" stroke="#666666" points="314.38,-644 201.62,-644 201.62,-612 314.38,-612 314.38,-644"/>
<text text-anchor="start" x="209.62" y="-630.5" font-family="Helvetica,sans-Serif" font-size="10.00">RoutageVoilier/include</text>
<text text-anchor="middle" x="258" y="-618.5" font-family="Helvetica,sans-Serif" font-size="10.00">/Foncteur.hpp</text>
</a>
</g>
</g>
<!-- Node1&#45;&gt;Node12 -->
<g id="edge30_Node000001_Node000012" class="edge">
<title>Node1&#45;&gt;Node12</title>
<g id="a_edge30_Node000001_Node000012"><a xlink:title=" ">
<path fill="none" stroke="#63b8ff" d="M376.17,-675.42C351.02,-665.54 320.95,-653.73 297.43,-644.49"/>
<polygon fill="#63b8ff" stroke="#63b8ff" points="374.62,-678.57 385.2,-678.97 377.18,-672.06 374.62,-678.57"/>
</a>
</g>
</g>
<!-- Node14 -->
<g id="Node000014" class="node">
<title>Node14</title>
<g id="a_Node000014"><a xlink:href="_grille_8hpp.html" target="_top" xlink:title=" ">
<polygon fill="white" stroke="#666666" points="604.38,-644 491.62,-644 491.62,-612 604.38,-612 604.38,-644"/>
<text text-anchor="start" x="499.62" y="-630.5" font-family="Helvetica,sans-Serif" font-size="10.00">RoutageVoilier/include</text>
<text text-anchor="middle" x="548" y="-618.5" font-family="Helvetica,sans-Serif" font-size="10.00">/Grille.hpp</text>
</a>
</g>
</g>
<!-- Node1&#45;&gt;Node14 -->
<g id="edge40_Node000001_Node000014" class="edge">
<title>Node1&#45;&gt;Node14</title>
<g id="a_edge40_Node000001_Node000014"><a xlink:title=" ">
<path fill="none" stroke="#63b8ff" d="M464.69,-674.07C482.5,-664.44 503.24,-653.21 519.58,-644.38"/>
<polygon fill="#63b8ff" stroke="#63b8ff" points="463.06,-670.97 455.93,-678.81 466.4,-677.13 463.06,-670.97"/>
</a>
</g>
</g>
<!-- Node15 -->
<g id="Node000015" class="node">
<title>Node15</title>
<g id="a_Node000015"><a xlink:href="_route_8hpp.html" target="_top" xlink:title=" ">
<polygon fill="white" stroke="#666666" points="954.38,-304 841.62,-304 841.62,-272 954.38,-272 954.38,-304"/>
<text text-anchor="start" x="849.62" y="-290.5" font-family="Helvetica,sans-Serif" font-size="10.00">RoutageVoilier/include</text>
<text text-anchor="middle" x="898" y="-278.5" font-family="Helvetica,sans-Serif" font-size="10.00">/Route.hpp</text>
</a>
</g>
</g>
<!-- Node1&#45;&gt;Node15 -->
<g id="edge47_Node000001_Node000015" class="edge">
<title>Node1&#45;&gt;Node15</title>
<g id="a_edge47_Node000001_Node000015"><a xlink:title=" ">
<path fill="none" stroke="#63b8ff" d="M494.24,-688.91C619.86,-675.79 875,-639.49 875,-561 875,-561 875,-561 875,-423 875,-379.33 887.01,-328.8 893.67,-304.13"/>
<polygon fill="#63b8ff" stroke="#63b8ff" points="493.96,-685.42 484.37,-689.91 494.68,-692.38 493.96,-685.42"/>
</a>
</g>
</g>
<!-- Node3 -->
<g id="Node000003" class="node">
<title>Node3</title>
<g id="a_Node000003"><a xlink:href="_dynamique_8hpp.html" target="_top" xlink:title=" ">
<polygon fill="white" stroke="#666666" points="596.38,-304 483.62,-304 483.62,-272 596.38,-272 596.38,-304"/>
<text text-anchor="start" x="491.62" y="-290.5" font-family="Helvetica,sans-Serif" font-size="10.00">RoutageVoilier/include</text>
<text text-anchor="middle" x="540" y="-278.5" font-family="Helvetica,sans-Serif" font-size="10.00">/Dynamique.hpp</text>
</a>
</g>
</g>
<!-- Node2&#45;&gt;Node3 -->
<g id="edge2_Node000002_Node000003" class="edge">
<title>Node2&#45;&gt;Node3</title>
<g id="a_edge2_Node000002_Node000003"><a xlink:title=" ">
<path fill="none" stroke="#63b8ff" d="M437.07,-533.47C440.58,-525.33 444.47,-516.3 448,-508 480.47,-431.73 518.67,-340.22 533.58,-304.42"/>
<polygon fill="#63b8ff" stroke="#63b8ff" points="433.94,-531.88 433.18,-542.45 440.37,-534.66 433.94,-531.88"/>
</a>
</g>
</g>
<!-- Node2&#45;&gt;Node7 -->
<g id="edge29_Node000002_Node000007" class="edge">
<title>Node2&#45;&gt;Node7</title>
<g id="a_edge29_Node000002_Node000007"><a xlink:title=" ">
<path fill="none" stroke="#63b8ff" d="M412.76,-533.78C378.21,-467.07 288,-286.59 288,-221 288,-221 288,-221 288,-151 288,-101.58 329.53,-55.41 354.19,-32.35"/>
<polygon fill="#63b8ff" stroke="#63b8ff" points="409.56,-535.23 417.29,-542.48 415.77,-532 409.56,-535.23"/>
</a>
</g>
</g>
<!-- Node8 -->
<g id="Node000008" class="node">
<title>Node8</title>
<g id="a_Node000008"><a xlink:href="_simulateur_8hpp.html" target="_top" xlink:title=" ">
<polygon fill="white" stroke="#666666" points="428.38,-236 315.62,-236 315.62,-204 428.38,-204 428.38,-236"/>
<text text-anchor="start" x="323.62" y="-222.5" font-family="Helvetica,sans-Serif" font-size="10.00">RoutageVoilier/include</text>
<text text-anchor="middle" x="372" y="-210.5" font-family="Helvetica,sans-Serif" font-size="10.00">/Simulateur.hpp</text>
</a>
</g>
</g>
<!-- Node2&#45;&gt;Node8 -->
<g id="edge28_Node000002_Node000008" class="edge">
<title>Node2&#45;&gt;Node8</title>
<g id="a_edge28_Node000002_Node000008"><a xlink:title=" ">
<path fill="none" stroke="#63b8ff" d="M421.74,-532.33C410.98,-464.99 382.97,-289.64 374.48,-236.49"/>
<polygon fill="#63b8ff" stroke="#63b8ff" points="418.27,-532.78 423.3,-542.1 425.18,-531.68 418.27,-532.78"/>
</a>
</g>
</g>
<!-- Node2&#45;&gt;Node9 -->
<g id="edge14_Node000002_Node000009" class="edge">
<title>Node2&#45;&gt;Node9</title>
<g id="a_edge14_Node000002_Node000009"><a xlink:title=" ">
<path fill="none" stroke="#63b8ff" d="M485.91,-540.08C517.6,-530.07 556.04,-517.94 585.94,-508.49"/>
<polygon fill="#63b8ff" stroke="#63b8ff" points="484.93,-536.72 476.44,-543.07 487.03,-543.4 484.93,-536.72"/>
</a>
</g>
</g>
<!-- Node4 -->
<g id="Node000004" class="node">
<title>Node4</title>
<g id="a_Node000004"><a xlink:href="_flux_8hpp.html" target="_top" xlink:title=" ">
<polygon fill="white" stroke="#666666" points="710.38,-236 597.62,-236 597.62,-204 710.38,-204 710.38,-236"/>
<text text-anchor="start" x="605.62" y="-222.5" font-family="Helvetica,sans-Serif" font-size="10.00">RoutageVoilier/include</text>
<text text-anchor="middle" x="654" y="-210.5" font-family="Helvetica,sans-Serif" font-size="10.00">/Flux.hpp</text>
</a>
</g>
</g>
<!-- Node3&#45;&gt;Node4 -->
<g id="edge3_Node000003_Node000004" class="edge">
<title>Node3&#45;&gt;Node4</title>
<g id="a_edge3_Node000003_Node000004"><a xlink:title=" ">
<path fill="none" stroke="#63b8ff" d="M576.62,-265.8C593.15,-256.23 612.32,-245.13 627.44,-236.38"/>
<polygon fill="#63b8ff" stroke="#63b8ff" points="574.94,-262.73 568.04,-270.77 578.45,-268.79 574.94,-262.73"/>
</a>
</g>
</g>
<!-- Node5 -->
<g id="Node000005" class="node">
<title>Node5</title>
<g id="a_Node000005"><a xlink:href="_h_j_b_8hpp.html" target="_top" xlink:title=" ">
<polygon fill="white" stroke="#666666" points="756.38,-168 643.62,-168 643.62,-136 756.38,-136 756.38,-168"/>
<text text-anchor="start" x="651.62" y="-154.5" font-family="Helvetica,sans-Serif" font-size="10.00">RoutageVoilier/include</text>
<text text-anchor="middle" x="700" y="-142.5" font-family="Helvetica,sans-Serif" font-size="10.00">/HJB.hpp</text>
</a>
</g>
</g>
<!-- Node3&#45;&gt;Node5 -->
<g id="edge9_Node000003_Node000005" class="edge">
<title>Node3&#45;&gt;Node5</title>
<g id="a_edge9_Node000003_Node000005"><a xlink:title=" ">
<path fill="none" stroke="#63b8ff" d="M550.21,-261.29C558.44,-243.31 571.51,-219.78 589,-204 606.4,-188.3 629.46,-176.65 650.05,-168.48"/>
<polygon fill="#63b8ff" stroke="#63b8ff" points="547.09,-259.69 546.33,-270.26 553.51,-262.47 547.09,-259.69"/>
</a>
</g>
</g>
<!-- Node6 -->
<g id="Node000006" class="node">
<title>Node6</title>
<g id="a_Node000006"><a xlink:href="route__optimale_8hpp.html" target="_top" xlink:title=" ">
<polygon fill="white" stroke="#666666" points="588.38,-100 475.62,-100 475.62,-68 588.38,-68 588.38,-100"/>
<text text-anchor="start" x="483.62" y="-86.5" font-family="Helvetica,sans-Serif" font-size="10.00">RoutageVoilier/include</text>
<text text-anchor="middle" x="532" y="-74.5" font-family="Helvetica,sans-Serif" font-size="10.00">/route_optimale.hpp</text>
</a>
</g>
</g>
<!-- Node3&#45;&gt;Node6 -->
<g id="edge12_Node000003_Node000006" class="edge">
<title>Node3&#45;&gt;Node6</title>
<g id="a_edge12_Node000003_Node000006"><a xlink:title=" ">
<path fill="none" stroke="#63b8ff" d="M526.7,-261.76C523.15,-253.74 519.8,-244.7 518,-236 509.01,-192.47 512.06,-180.05 518,-136 519.64,-123.81 523.4,-110.4 526.61,-100.4"/>
<polygon fill="#63b8ff" stroke="#63b8ff" points="523.44,-263.03 530.9,-270.55 529.75,-260.02 523.44,-263.03"/>
</a>
</g>
</g>
<!-- Node3&#45;&gt;Node7 -->
<g id="edge13_Node000003_Node000007" class="edge">
<title>Node3&#45;&gt;Node7</title>
<g id="a_edge13_Node000003_Node000007"><a xlink:title=" ">
<path fill="none" stroke="#63b8ff" d="M524.49,-262.08C490.34,-207.19 409.46,-77.21 381.62,-32.46"/>
<polygon fill="#63b8ff" stroke="#63b8ff" points="521.43,-263.78 529.69,-270.42 527.38,-260.09 521.43,-263.78"/>
</a>
</g>
</g>
<!-- Node3&#45;&gt;Node8 -->
<g id="edge10_Node000003_Node000008" class="edge">
<title>Node3&#45;&gt;Node8</title>
<g id="a_edge10_Node000003_Node000008"><a xlink:title=" ">
<path fill="none" stroke="#63b8ff" d="M490.17,-267.42C465.02,-257.54 434.95,-245.73 411.43,-236.49"/>
<polygon fill="#63b8ff" stroke="#63b8ff" points="488.62,-270.57 499.2,-270.97 491.18,-264.06 488.62,-270.57"/>
</a>
</g>
</g>
<!-- Node4&#45;&gt;Node5 -->
<g id="edge4_Node000004_Node000005" class="edge">
<title>Node4&#45;&gt;Node5</title>
<g id="a_edge4_Node000004_Node000005"><a xlink:title=" ">
<path fill="none" stroke="#63b8ff" d="M671.21,-194.3C677.31,-185.55 684,-175.96 689.39,-168.22"/>
<polygon fill="#63b8ff" stroke="#63b8ff" points="668.38,-192.25 665.53,-202.45 674.12,-196.25 668.38,-192.25"/>
</a>
</g>
</g>
<!-- Node4&#45;&gt;Node7 -->
<g id="edge8_Node000004_Node000007" class="edge">
<title>Node4&#45;&gt;Node7</title>
<g id="a_edge8_Node000004_Node000007"><a xlink:title=" ">
<path fill="none" stroke="#63b8ff" d="M644.26,-192.98C628.15,-149.93 597.62,-68.54 597,-68 570.98,-45.35 478.11,-30.09 420.13,-22.53"/>
<polygon fill="#63b8ff" stroke="#63b8ff" points="640.99,-194.2 647.77,-202.34 647.54,-191.75 640.99,-194.2"/>
</a>
</g>
</g>
<!-- Node5&#45;&gt;Node6 -->
<g id="edge5_Node000005_Node000006" class="edge">
<title>Node5&#45;&gt;Node6</title>
<g id="a_edge5_Node000005_Node000006"><a xlink:title=" ">
<path fill="none" stroke="#63b8ff" d="M650.17,-131.42C625.02,-121.54 594.95,-109.73 571.43,-100.49"/>
<polygon fill="#63b8ff" stroke="#63b8ff" points="648.62,-134.57 659.2,-134.97 651.18,-128.06 648.62,-134.57"/>
</a>
</g>
</g>
<!-- Node5&#45;&gt;Node7 -->
<g id="edge7_Node000005_Node000007" class="edge">
<title>Node5&#45;&gt;Node7</title>
<g id="a_edge7_Node000005_Node000007"><a xlink:title=" ">
<path fill="none" stroke="#63b8ff" d="M685.63,-126.19C673.31,-107.23 653.81,-82.04 630,-68 564.31,-29.28 474.54,-19.37 420.05,-17.17"/>
<polygon fill="#63b8ff" stroke="#63b8ff" points="682.5,-127.78 690.76,-134.42 688.44,-124.08 682.5,-127.78"/>
</a>
</g>
</g>
<!-- Node6&#45;&gt;Node7 -->
<g id="edge6_Node000006_Node000007" class="edge">
<title>Node6&#45;&gt;Node7</title>
<g id="a_edge6_Node000006_Node000007"><a xlink:title=" ">
<path fill="none" stroke="#63b8ff" d="M483.9,-63.16C460.08,-53.33 431.75,-41.65 409.55,-32.49"/>
<polygon fill="#63b8ff" stroke="#63b8ff" points="482.51,-66.37 493.09,-66.95 485.18,-59.9 482.51,-66.37"/>
</a>
</g>
</g>
<!-- Node8&#45;&gt;Node7 -->
<g id="edge11_Node000008_Node000007" class="edge">
<title>Node8&#45;&gt;Node7</title>
<g id="a_edge11_Node000008_Node000007"><a xlink:title=" ">
<path fill="none" stroke="#63b8ff" d="M372,-192.38C372,-149.53 372,-66.6 372,-32.36"/>
<polygon fill="#63b8ff" stroke="#63b8ff" points="368.5,-192.3 372,-202.3 375.5,-192.3 368.5,-192.3"/>
</a>
</g>
</g>
<!-- Node9&#45;&gt;Node3 -->
<g id="edge15_Node000009_Node000003" class="edge">
<title>Node9&#45;&gt;Node3</title>
<g id="a_edge15_Node000009_Node000003"><a xlink:title=" ">
<path fill="none" stroke="#63b8ff" d="M622.5,-465.78C618.47,-457.57 614.01,-448.42 610,-440 586.5,-390.71 559.54,-331.89 547.04,-304.49"/>
<polygon fill="#63b8ff" stroke="#63b8ff" points="619.25,-467.09 626.81,-474.51 625.52,-463.99 619.25,-467.09"/>
</a>
</g>
</g>
<!-- Node9&#45;&gt;Node5 -->
<g id="edge16_Node000009_Node000005" class="edge">
<title>Node9&#45;&gt;Node5</title>
<g id="a_edge16_Node000009_Node000005"><a xlink:title=" ">
<path fill="none" stroke="#63b8ff" d="M657.89,-467.29C664.62,-459.18 671.41,-449.7 676,-440 715.67,-356.26 709.39,-328.16 719,-236 720.47,-221.85 721.52,-218 719,-204 716.75,-191.54 711.65,-178.15 707.3,-168.22"/>
<polygon fill="#63b8ff" stroke="#63b8ff" points="655.38,-464.83 651.42,-474.66 660.65,-469.45 655.38,-464.83"/>
</a>
</g>
</g>
<!-- Node9&#45;&gt;Node6 -->
<g id="edge26_Node000009_Node000006" class="edge">
<title>Node9&#45;&gt;Node6</title>
<g id="a_edge26_Node000009_Node000006"><a xlink:title=" ">
<path fill="none" stroke="#63b8ff" d="M643.09,-464.5C645.11,-456.69 646.99,-448.07 648,-440 653.53,-395.9 654.04,-384.03 648,-340 643.74,-308.91 645.54,-298.67 629,-272 616.39,-251.68 602.49,-255.75 589,-236 558.65,-191.58 541.76,-128.85 535.21,-100.27"/>
<polygon fill="#63b8ff" stroke="#63b8ff" points="639.72,-463.54 640.41,-474.11 646.47,-465.42 639.72,-463.54"/>
</a>
</g>
</g>
<!-- Node9&#45;&gt;Node7 -->
<g id="edge27_Node000009_Node000007" class="edge">
<title>Node9&#45;&gt;Node7</title>
<g id="a_edge27_Node000009_Node000007"><a xlink:title=" ">
<path fill="none" stroke="#63b8ff" d="M666.49,-468.48C676.68,-460.26 687.52,-450.4 696,-440 765.89,-354.33 814,-331.56 814,-221 814,-221 814,-221 814,-151 814,-69.41 534.7,-32.86 420.14,-21.3"/>
<polygon fill="#63b8ff" stroke="#63b8ff" points="664.35,-465.72 658.61,-474.62 668.65,-471.24 664.35,-465.72"/>
</a>
</g>
</g>
<!-- Node9&#45;&gt;Node8 -->
<g id="edge17_Node000009_Node000008" class="edge">
<title>Node9&#45;&gt;Node8</title>
<g id="a_edge17_Node000009_Node000008"><a xlink:title=" ">
<path fill="none" stroke="#63b8ff" d="M640.11,-464.25C647.17,-418.5 654.01,-325.07 605,-272 581.57,-246.64 489.81,-232.68 428.67,-226.03"/>
<polygon fill="#63b8ff" stroke="#63b8ff" points="636.66,-463.62 638.46,-474.07 643.57,-464.79 636.66,-463.62"/>
</a>
</g>
</g>
<!-- Node9&#45;&gt;Node10 -->
<g id="edge18_Node000009_Node000010" class="edge">
<title>Node9&#45;&gt;Node10</title>
<g id="a_edge18_Node000009_Node000010"><a xlink:title=" ">
<path fill="none" stroke="#63b8ff" d="M564.72,-478.15C496.47,-465.67 394.14,-446.97 330.86,-435.39"/>
<polygon fill="#63b8ff" stroke="#63b8ff" points="563.84,-481.55 574.3,-479.9 565.1,-474.66 563.84,-481.55"/>
</a>
</g>
</g>
<!-- Node10&#45;&gt;Node3 -->
<g id="edge23_Node000010_Node000003" class="edge">
<title>Node10&#45;&gt;Node3</title>
<g id="a_edge23_Node000010_Node000003"><a xlink:title=" ">
<path fill="none" stroke="#63b8ff" d="M288.99,-397.99C301.46,-379.31 320.86,-354.59 344,-340 386.24,-313.38 441.92,-300.6 483.14,-294.5"/>
<polygon fill="#63b8ff" stroke="#63b8ff" points="286.07,-396.06 283.62,-406.37 291.97,-399.84 286.07,-396.06"/>
</a>
</g>
</g>
<!-- Node10&#45;&gt;Node7 -->
<g id="edge25_Node000010_Node000007" class="edge">
<title>Node10&#45;&gt;Node7</title>
<g id="a_edge25_Node000010_Node000007"><a xlink:title=" ">
<path fill="none" stroke="#63b8ff" d="M206.15,-412.78C179.9,-405.54 151.72,-393.15 133,-372 107.92,-343.66 114,-326.84 114,-289 114,-289 114,-289 114,-151 114,-57.5 249.1,-29.15 323.77,-20.62"/>
<polygon fill="#63b8ff" stroke="#63b8ff" points="205.24,-416.16 215.79,-415.22 206.95,-409.37 205.24,-416.16"/>
</a>
</g>
</g>
<!-- Node10&#45;&gt;Node8 -->
<g id="edge24_Node000010_Node000008" class="edge">
<title>Node10&#45;&gt;Node8</title>
<g id="a_edge24_Node000010_Node000008"><a xlink:title=" ">
<path fill="none" stroke="#63b8ff" d="M282.07,-397.14C287.56,-380.52 295.38,-358.65 304,-340 321.87,-301.34 348,-258.56 362.1,-236.33"/>
<polygon fill="#63b8ff" stroke="#63b8ff" points="278.87,-395.66 279.12,-406.25 285.53,-397.81 278.87,-395.66"/>
</a>
</g>
</g>
<!-- Node11 -->
<g id="Node000011" class="node">
<title>Node11</title>
<g id="a_Node000011"><a xlink:href="_commande_8hpp.html" target="_top" xlink:title=" ">
<polygon fill="white" stroke="#666666" points="254.38,-372 141.62,-372 141.62,-340 254.38,-340 254.38,-372"/>
<text text-anchor="start" x="149.62" y="-358.5" font-family="Helvetica,sans-Serif" font-size="10.00">RoutageVoilier/include</text>
<text text-anchor="middle" x="198" y="-346.5" font-family="Helvetica,sans-Serif" font-size="10.00">/Commande.hpp</text>
</a>
</g>
</g>
<!-- Node10&#45;&gt;Node11 -->
<g id="edge19_Node000010_Node000011" class="edge">
<title>Node10&#45;&gt;Node11</title>
<g id="a_edge19_Node000010_Node000011"><a xlink:title=" ">
<path fill="none" stroke="#63b8ff" d="M247.89,-400.32C237.3,-391.13 225.35,-380.75 215.79,-372.45"/>
<polygon fill="#63b8ff" stroke="#63b8ff" points="245.39,-402.79 255.23,-406.7 249.97,-397.5 245.39,-402.79"/>
</a>
</g>
</g>
<!-- Node11&#45;&gt;Node3 -->
<g id="edge20_Node000011_Node000003" class="edge">
<title>Node11&#45;&gt;Node3</title>
<g id="a_edge20_Node000011_Node000003"><a xlink:title=" ">
<path fill="none" stroke="#63b8ff" d="M265.98,-341.88C329.61,-329.6 423.59,-311.46 483.29,-299.94"/>
<polygon fill="#63b8ff" stroke="#63b8ff" points="265.5,-338.41 256.34,-343.74 266.83,-345.28 265.5,-338.41"/>
</a>
</g>
</g>
<!-- Node11&#45;&gt;Node7 -->
<g id="edge22_Node000011_Node000007" class="edge">
<title>Node11&#45;&gt;Node7</title>
<g id="a_edge22_Node000011_Node000007"><a xlink:title=" ">
<path fill="none" stroke="#63b8ff" d="M200.2,-328.54C202.25,-301.53 205,-258.37 205,-221 205,-221 205,-221 205,-151 205,-89.48 274.8,-51.5 324.14,-32.33"/>
<polygon fill="#63b8ff" stroke="#63b8ff" points="196.73,-327.99 199.44,-338.23 203.71,-328.54 196.73,-327.99"/>
</a>
</g>
</g>
<!-- Node11&#45;&gt;Node8 -->
<g id="edge21_Node000011_Node000008" class="edge">
<title>Node11&#45;&gt;Node8</title>
<g id="a_edge21_Node000011_Node000008"><a xlink:title=" ">
<path fill="none" stroke="#63b8ff" d="M226.84,-332.79C262.21,-305.55 321.26,-260.08 352.01,-236.4"/>
<polygon fill="#63b8ff" stroke="#63b8ff" points="224.95,-329.83 219.16,-338.71 229.22,-335.38 224.95,-329.83"/>
</a>
</g>
</g>
<!-- Node12&#45;&gt;Node2 -->
<g id="edge31_Node000012_Node000002" class="edge">
<title>Node12&#45;&gt;Node2</title>
<g id="a_edge31_Node000012_Node000002"><a xlink:title=" ">
<path fill="none" stroke="#63b8ff" d="M307.83,-607.42C332.98,-597.54 363.05,-585.73 386.57,-576.49"/>
<polygon fill="#63b8ff" stroke="#63b8ff" points="306.82,-604.06 298.8,-610.97 309.38,-610.57 306.82,-604.06"/>
</a>
</g>
</g>
<!-- Node12&#45;&gt;Node3 -->
<g id="edge33_Node000012_Node000003" class="edge">
<title>Node12&#45;&gt;Node3</title>
<g id="a_edge33_Node000012_Node000003"><a xlink:title=" ">
<path fill="none" stroke="#63b8ff" d="M278.19,-602.8C332.78,-537.37 482.18,-358.3 527.07,-304.49"/>
<polygon fill="#63b8ff" stroke="#63b8ff" points="275.54,-600.52 271.82,-610.44 280.91,-605 275.54,-600.52"/>
</a>
</g>
</g>
<!-- Node12&#45;&gt;Node7 -->
<g id="edge38_Node000012_Node000007" class="edge">
<title>Node12&#45;&gt;Node7</title>
<g id="a_edge38_Node000012_Node000007"><a xlink:title=" ">
<path fill="none" stroke="#63b8ff" d="M190.38,-615.27C125.72,-599.72 38,-565.29 38,-493 38,-493 38,-493 38,-151 38,-107.93 52.53,-92.43 88,-68 125.54,-42.14 253.25,-27.27 323.94,-20.84"/>
<polygon fill="#63b8ff" stroke="#63b8ff" points="189.34,-618.62 199.87,-617.45 190.9,-611.8 189.34,-618.62"/>
</a>
</g>
</g>
<!-- Node12&#45;&gt;Node10 -->
<g id="edge37_Node000012_Node000010" class="edge">
<title>Node12&#45;&gt;Node10</title>
<g id="a_edge37_Node000012_Node000010"><a xlink:title=" ">
<path fill="none" stroke="#63b8ff" d="M260.11,-600.38C263.5,-557.53 270.07,-474.6 272.78,-440.36"/>
<polygon fill="#63b8ff" stroke="#63b8ff" points="256.62,-600.06 259.32,-610.31 263.6,-600.62 256.62,-600.06"/>
</a>
</g>
</g>
<!-- Node12&#45;&gt;Node11 -->
<g id="edge32_Node000012_Node000011" class="edge">
<title>Node12&#45;&gt;Node11</title>
<g id="a_edge32_Node000012_Node000011"><a xlink:title=" ">
<path fill="none" stroke="#63b8ff" d="M249.99,-600.67C239.3,-564.68 220.39,-497.99 209,-440 204.4,-416.61 201.18,-389.12 199.46,-372.39"/>
<polygon fill="#63b8ff" stroke="#63b8ff" points="246.62,-601.61 252.84,-610.19 253.32,-599.6 246.62,-601.61"/>
</a>
</g>
</g>
<!-- Node13 -->
<g id="Node000013" class="node">
<title>Node13</title>
<g id="a_Node000013"><a xlink:href="_polaire_8hpp.html" target="_top" xlink:title=" ">
<polygon fill="white" stroke="#666666" points="178.38,-508 65.62,-508 65.62,-476 178.38,-476 178.38,-508"/>
<text text-anchor="start" x="73.62" y="-494.5" font-family="Helvetica,sans-Serif" font-size="10.00">RoutageVoilier/include</text>
<text text-anchor="middle" x="122" y="-482.5" font-family="Helvetica,sans-Serif" font-size="10.00">/Polaire.hpp</text>
</a>
</g>
</g>
<!-- Node12&#45;&gt;Node13 -->
<g id="edge34_Node000012_Node000013" class="edge">
<title>Node12&#45;&gt;Node13</title>
<g id="a_edge34_Node000012_Node000013"><a xlink:title=" ">
<path fill="none" stroke="#63b8ff" d="M226.52,-604.82C215.2,-596.3 202.62,-586.17 192,-576 169.27,-554.22 146.41,-525.54 133.26,-508.22"/>
<polygon fill="#63b8ff" stroke="#63b8ff" points="224.31,-607.54 234.43,-610.66 228.47,-601.91 224.31,-607.54"/>
</a>
</g>
</g>
<!-- Node13&#45;&gt;Node7 -->
<g id="edge36_Node000013_Node000007" class="edge">
<title>Node13&#45;&gt;Node7</title>
<g id="a_edge36_Node000013_Node000007"><a xlink:title=" ">
<path fill="none" stroke="#63b8ff" d="M107.66,-465.62C94.16,-439.31 76,-396.56 76,-357 76,-357 76,-357 76,-151 76,-43.54 239.91,-21.81 323.78,-17.72"/>
<polygon fill="#63b8ff" stroke="#63b8ff" points="104.42,-466.98 112.2,-474.17 110.6,-463.7 104.42,-466.98"/>
</a>
</g>
</g>
<!-- Node13&#45;&gt;Node10 -->
<g id="edge35_Node000013_Node000010" class="edge">
<title>Node13&#45;&gt;Node10</title>
<g id="a_edge35_Node000013_Node000010"><a xlink:title=" ">
<path fill="none" stroke="#63b8ff" d="M168,-471.03C190.57,-461.23 217.33,-449.61 238.32,-440.49"/>
<polygon fill="#63b8ff" stroke="#63b8ff" points="166.8,-467.73 159.03,-474.92 169.59,-474.15 166.8,-467.73"/>
</a>
</g>
</g>
<!-- Node14&#45;&gt;Node2 -->
<g id="edge41_Node000014_Node000002" class="edge">
<title>Node14&#45;&gt;Node2</title>
<g id="a_edge41_Node000014_Node000002"><a xlink:title=" ">
<path fill="none" stroke="#63b8ff" d="M509.31,-606.07C491.5,-596.44 470.76,-585.21 454.42,-576.38"/>
<polygon fill="#63b8ff" stroke="#63b8ff" points="507.6,-609.13 518.07,-610.81 510.94,-602.97 507.6,-609.13"/>
</a>
</g>
</g>
<!-- Node14&#45;&gt;Node3 -->
<g id="edge42_Node000014_Node000003" class="edge">
<title>Node14&#45;&gt;Node3</title>
<g id="a_edge42_Node000014_Node000003"><a xlink:title=" ">
<path fill="none" stroke="#63b8ff" d="M548,-600.52C548,-573.49 548,-530.32 548,-493 548,-493 548,-493 548,-423 548,-379.89 543.82,-329.11 541.5,-304.26"/>
<polygon fill="#63b8ff" stroke="#63b8ff" points="544.5,-600.21 548,-610.21 551.5,-600.21 544.5,-600.21"/>
</a>
</g>
</g>
<!-- Node14&#45;&gt;Node4 -->
<g id="edge43_Node000014_Node000004" class="edge">
<title>Node14&#45;&gt;Node4</title>
<g id="a_edge43_Node000014_Node000004"><a xlink:title=" ">
<path fill="none" stroke="#63b8ff" d="M593.54,-606.48C630.61,-587.01 680.38,-553.89 703,-508 749.94,-412.79 686.9,-280.66 662.72,-236.25"/>
<polygon fill="#63b8ff" stroke="#63b8ff" points="592.13,-603.27 584.8,-610.93 595.3,-609.51 592.13,-603.27"/>
</a>
</g>
</g>
<!-- Node14&#45;&gt;Node5 -->
<g id="edge45_Node000014_Node000005" class="edge">
<title>Node14&#45;&gt;Node5</title>
<g id="a_edge45_Node000014_Node000005"><a xlink:title=" ">
<path fill="none" stroke="#63b8ff" d="M616.05,-621.79C694.87,-611.62 814,-581.59 814,-493 814,-493 814,-493 814,-423 814,-318.69 740.9,-208.3 711.77,-168.46"/>
<polygon fill="#63b8ff" stroke="#63b8ff" points="615.75,-618.31 606.24,-622.97 616.59,-625.26 615.75,-618.31"/>
</a>
</g>
</g>
<!-- Node14&#45;&gt;Node8 -->
<g id="edge46_Node000014_Node000008" class="edge">
<title>Node14&#45;&gt;Node8</title>
<g id="a_edge46_Node000014_Node000008"><a xlink:title=" ">
<path fill="none" stroke="#63b8ff" d="M537.31,-601.17C512.91,-542.42 450.99,-394.41 396,-272 390.55,-259.86 384.11,-246.23 379.28,-236.11"/>
<polygon fill="#63b8ff" stroke="#63b8ff" points="534.03,-602.4 541.09,-610.29 540.49,-599.72 534.03,-602.4"/>
</a>
</g>
</g>
<!-- Node14&#45;&gt;Node9 -->
<g id="edge44_Node000014_Node000009" class="edge">
<title>Node14&#45;&gt;Node9</title>
<g id="a_edge44_Node000014_Node000009"><a xlink:title=" ">
<path fill="none" stroke="#63b8ff" d="M564.05,-602.28C581.92,-574.75 610.26,-531.11 625.14,-508.19"/>
<polygon fill="#63b8ff" stroke="#63b8ff" points="561.31,-600.07 558.8,-610.36 567.19,-603.88 561.31,-600.07"/>
</a>
</g>
</g>
<!-- Node15&#45;&gt;Node7 -->
<g id="edge49_Node000015_Node000007" class="edge">
<title>Node15&#45;&gt;Node7</title>
<g id="a_edge49_Node000015_Node000007"><a xlink:title=" ">
<path fill="none" stroke="#63b8ff" d="M898.14,-260.44C896.81,-213.44 886.67,-116.07 828,-68 796.88,-42.5 530.96,-25.49 420.16,-19.45"/>
<polygon fill="#63b8ff" stroke="#63b8ff" points="894.64,-260.3 898.29,-270.24 901.64,-260.19 894.64,-260.3"/>
</a>
</g>
</g>
<!-- Node15&#45;&gt;Node8 -->
<g id="edge48_Node000015_Node000008" class="edge">
<title>Node15&#45;&gt;Node8</title>
<g id="a_edge48_Node000015_Node000008"><a xlink:title=" ">
<path fill="none" stroke="#63b8ff" d="M829.82,-278.45C724.93,-265.28 525.94,-240.32 428.55,-228.1"/>
<polygon fill="#63b8ff" stroke="#63b8ff" points="829.35,-281.91 839.71,-279.69 830.22,-274.97 829.35,-281.91"/>
</a>
</g>
</g>
</g>
</svg>
