<?xml version="1.0" encoding="UTF-8" standalone="no"?>
<!DOCTYPE svg PUBLIC "-//W3C//DTD SVG 1.1//EN"
 "http://www.w3.org/Graphics/SVG/1.1/DTD/svg11.dtd">
<!-- Generated by graphviz version 10.0.1 (20240210.2158)
 -->
<!-- Title: RoutageVoilier/include/Commande_discrete.hpp Pages: 1 -->
<svg width="198pt" height="312pt"
 viewBox="0.00 0.00 197.99 312.00" xmlns="http://www.w3.org/2000/svg" xmlns:xlink="http://www.w3.org/1999/xlink">
<g id="graph0" class="graph" transform="scale(1 1) rotate(0) translate(4 308)">
<title>RoutageVoilier/include/Commande_discrete.hpp</title>
<!-- Node1 -->
<g id="Node000001" class="node">
<title>Node1</title>
<g id="a_Node000001"><a xlink:title=" ">
<polygon fill="#999999" stroke="#666666" points="178.12,-304 51.12,-304 51.12,-272 178.12,-272 178.12,-304"/>
<text text-anchor="start" x="59.12" y="-290.5" font-family="Helvetica,sans-Serif" font-size="10.00">RoutageVoilier/include</text>
<text text-anchor="middle" x="114.62" y="-278.5" font-family="Helvetica,sans-Serif" font-size="10.00">/Commande_discrete.hpp</text>
</a>
</g>
</g>
<!-- Node2 -->
<g id="Node000002" class="node">
<title>Node2</title>
<g id="a_Node000002"><a xlink:href="_flux_8hpp.html" target="_top" xlink:title=" ">
<polygon fill="white" stroke="#666666" points="128.99,-236 16.24,-236 16.24,-204 128.99,-204 128.99,-236"/>
<text text-anchor="start" x="24.24" y="-222.5" font-family="Helvetica,sans-Serif" font-size="10.00">RoutageVoilier/include</text>
<text text-anchor="middle" x="72.62" y="-210.5" font-family="Helvetica,sans-Serif" font-size="10.00">/Flux.hpp</text>
</a>
</g>
</g>
<!-- Node1&#45;&gt;Node2 -->
<g id="edge1_Node000001_Node000002" class="edge">
<title>Node1&#45;&gt;Node2</title>
<g id="a_edge1_Node000001_Node000002"><a xlink:title=" ">
<path fill="none" stroke="#63b8ff" d="M98.72,-262.02C93.2,-253.34 87.17,-243.88 82.3,-236.22"/>
<polygon fill="#63b8ff" stroke="#63b8ff" points="95.74,-263.86 104.06,-270.42 101.65,-260.1 95.74,-263.86"/>
</a>
</g>
</g>
<!-- Node4 -->
<g id="Node000004" class="node">
<title>Node4</title>
<g id="a_Node000004"><a xlink:href="route__optimale_8hpp.html" target="_top" xlink:title=" ">
<polygon fill="white" stroke="#666666" points="189.99,-100 77.24,-100 77.24,-68 189.99,-68 189.99,-100"/>
<text text-anchor="start" x="85.24" y="-86.5" font-family="Helvetica,sans-Serif" font-size="10.00">RoutageVoilier/include</text>
<text text-anchor="middle" x="133.62" y="-74.5" font-family="Helvetica,sans-Serif" font-size="10.00">/route_optimale.hpp</text>
</a>
</g>
</g>
<!-- Node1&#45;&gt;Node4 -->
<g id="edge7_Node000001_Node000004" class="edge">
<title>Node1&#45;&gt;Node4</title>
<g id="a_edge7_Node000001_Node000004"><a xlink:title=" ">
<path fill="none" stroke="#63b8ff" d="M128.68,-261.46C132.33,-253.53 135.76,-244.62 137.62,-236 148.09,-187.29 140.81,-127.71 136.36,-100.22"/>
<polygon fill="#63b8ff" stroke="#63b8ff" points="125.67,-259.65 124.35,-270.16 131.94,-262.76 125.67,-259.65"/>
</a>
</g>
</g>
<!-- Node3 -->
<g id="Node000003" class="node">
<title>Node3</title>
<g id="a_Node000003"><a xlink:href="_h_j_b_8hpp.html" target="_top" xlink:title=" ">
<polygon fill="white" stroke="#666666" points="128.99,-168 16.24,-168 16.24,-136 128.99,-136 128.99,-168"/>
<text text-anchor="start" x="24.24" y="-154.5" font-family="Helvetica,sans-Serif" font-size="10.00">RoutageVoilier/include</text>
<text text-anchor="middle" x="72.62" y="-142.5" font-family="Helvetica,sans-Serif" font-size="10.00">/HJB.hpp</text>
</a>
</g>
</g>
<!-- Node2&#45;&gt;Node3 -->
<g id="edge2_Node000002_Node000003" class="edge">
<title>Node2&#45;&gt;Node3</title>
<g id="a_edge2_Node000002_Node000003"><a xlink:title=" ">
<path fill="none" stroke="#63b8ff" d="M72.62,-192.31C72.62,-184.12 72.62,-175.38 72.62,-168.22"/>
<polygon fill="#63b8ff" stroke="#63b8ff" points="69.12,-192.18 72.62,-202.18 76.12,-192.18 69.12,-192.18"/>
</a>
</g>
</g>
<!-- Node5 -->
<g id="Node000005" class="node">
<title>Node5</title>
<g id="a_Node000005"><a xlink:href="main_8cpp.html" target="_top" xlink:title=" ">
<polygon fill="white" stroke="#666666" points="97.37,-32 1.87,-32 1.87,0 97.37,0 97.37,-32"/>
<text text-anchor="start" x="9.87" y="-18.5" font-family="Helvetica,sans-Serif" font-size="10.00">RoutageVoilier/src</text>
<text text-anchor="middle" x="49.62" y="-6.5" font-family="Helvetica,sans-Serif" font-size="10.00">/main.cpp</text>
</a>
</g>
</g>
<!-- Node2&#45;&gt;Node5 -->
<g id="edge6_Node000002_Node000005" class="edge">
<title>Node2&#45;&gt;Node5</title>
<g id="a_edge6_Node000002_Node000005"><a xlink:title=" ">
<path fill="none" stroke="#63b8ff" d="M33.05,-197.01C22.88,-189.27 13.24,-179.55 7.62,-168 -15.12,-121.26 19.45,-60.21 38.47,-32.22"/>
<polygon fill="#63b8ff" stroke="#63b8ff" points="30.99,-199.84 41.19,-202.7 35,-194.1 30.99,-199.84"/>
</a>
</g>
</g>
<!-- Node3&#45;&gt;Node4 -->
<g id="edge3_Node000003_Node000004" class="edge">
<title>Node3&#45;&gt;Node4</title>
<g id="a_edge3_Node000003_Node000004"><a xlink:title=" ">
<path fill="none" stroke="#63b8ff" d="M94.4,-127.43C102.77,-118.38 112.09,-108.29 119.54,-100.22"/>
<polygon fill="#63b8ff" stroke="#63b8ff" points="92.01,-124.86 87.79,-134.58 97.15,-129.61 92.01,-124.86"/>
</a>
</g>
</g>
<!-- Node3&#45;&gt;Node5 -->
<g id="edge5_Node000003_Node000005" class="edge">
<title>Node3&#45;&gt;Node5</title>
<g id="a_edge5_Node000003_Node000005"><a xlink:title=" ">
<path fill="none" stroke="#63b8ff" d="M68.06,-124.45C63.32,-96.84 56.07,-54.6 52.22,-32.19"/>
<polygon fill="#63b8ff" stroke="#63b8ff" points="64.58,-124.87 69.72,-134.14 71.48,-123.69 64.58,-124.87"/>
</a>
</g>
</g>
<!-- Node4&#45;&gt;Node5 -->
<g id="edge4_Node000004_Node000005" class="edge">
<title>Node4&#45;&gt;Node5</title>
<g id="a_edge4_Node000004_Node000005"><a xlink:title=" ">
<path fill="none" stroke="#63b8ff" d="M105.1,-60.6C93.32,-51.34 79.95,-40.83 69.28,-32.45"/>
<polygon fill="#63b8ff" stroke="#63b8ff" points="102.92,-63.33 112.94,-66.76 107.24,-57.83 102.92,-63.33"/>
</a>
</g>
</g>
</g>
</svg>
