<?xml version="1.0" encoding="UTF-8" standalone="no"?>
<!DOCTYPE svg PUBLIC "-//W3C//DTD SVG 1.1//EN"
 "http://www.w3.org/Graphics/SVG/1.1/DTD/svg11.dtd">
<!-- Generated by graphviz version 10.0.1 (20240210.2158)
 -->
<!-- Title: RoutageVoilier/include/Commande.hpp Pages: 1 -->
<svg width="383pt" height="380pt"
 viewBox="0.00 0.00 382.64 380.00" xmlns="http://www.w3.org/2000/svg" xmlns:xlink="http://www.w3.org/1999/xlink">
<g id="graph0" class="graph" transform="scale(1 1) rotate(0) translate(4 376)">
<title>RoutageVoilier/include/Commande.hpp</title>
<!-- Node1 -->
<g id="Node000001" class="node">
<title>Node1</title>
<g id="a_Node000001"><a xlink:title=" ">
<polygon fill="#999999" stroke="#666666" points="347.02,-372 234.27,-372 234.27,-340 347.02,-340 347.02,-372"/>
<text text-anchor="start" x="242.27" y="-358.5" font-family="Helvetica,sans-Serif" font-size="10.00">RoutageVoilier/include</text>
<text text-anchor="middle" x="290.64" y="-346.5" font-family="Helvetica,sans-Serif" font-size="10.00">/Commande.hpp</text>
</a>
</g>
</g>
<!-- Node2 -->
<g id="Node000002" class="node">
<title>Node2</title>
<g id="a_Node000002"><a xlink:href="_dynamique_8hpp.html" target="_top" xlink:title=" ">
<polygon fill="white" stroke="#666666" points="174.02,-304 61.27,-304 61.27,-272 174.02,-272 174.02,-304"/>
<text text-anchor="start" x="69.27" y="-290.5" font-family="Helvetica,sans-Serif" font-size="10.00">RoutageVoilier/include</text>
<text text-anchor="middle" x="117.64" y="-278.5" font-family="Helvetica,sans-Serif" font-size="10.00">/Dynamique.hpp</text>
</a>
</g>
</g>
<!-- Node1&#45;&gt;Node2 -->
<g id="edge1_Node000001_Node000002" class="edge">
<title>Node1&#45;&gt;Node2</title>
<g id="a_edge1_Node000001_Node000002"><a xlink:title=" ">
<path fill="none" stroke="#63b8ff" d="M239.33,-335.42C213.43,-325.54 182.46,-313.73 158.25,-304.49"/>
<polygon fill="#63b8ff" stroke="#63b8ff" points="238.08,-338.69 248.67,-338.99 240.57,-332.15 238.08,-338.69"/>
</a>
</g>
</g>
<!-- Node6 -->
<g id="Node000006" class="node">
<title>Node6</title>
<g id="a_Node000006"><a xlink:href="main_8cpp.html" target="_top" xlink:title=" ">
<polygon fill="white" stroke="#666666" points="234.39,-32 138.89,-32 138.89,0 234.39,0 234.39,-32"/>
<text text-anchor="start" x="146.89" y="-18.5" font-family="Helvetica,sans-Serif" font-size="10.00">RoutageVoilier/src</text>
<text text-anchor="middle" x="186.64" y="-6.5" font-family="Helvetica,sans-Serif" font-size="10.00">/main.cpp</text>
</a>
</g>
</g>
<!-- Node1&#45;&gt;Node6 -->
<g id="edge14_Node000001_Node000006" class="edge">
<title>Node1&#45;&gt;Node6</title>
<g id="a_edge14_Node000001_Node000006"><a xlink:title=" ">
<path fill="none" stroke="#63b8ff" d="M316.43,-331.93C341.12,-307.18 374.64,-265.4 374.64,-221 374.64,-221 374.64,-221 374.64,-151 374.64,-82.26 290.27,-45.48 234.57,-28.69"/>
<polygon fill="#63b8ff" stroke="#63b8ff" points="314.29,-329.13 309.54,-338.6 319.16,-334.16 314.29,-329.13"/>
</a>
</g>
</g>
<!-- Node7 -->
<g id="Node000007" class="node">
<title>Node7</title>
<g id="a_Node000007"><a xlink:href="_simulateur_8hpp.html" target="_top" xlink:title=" ">
<polygon fill="white" stroke="#666666" points="347.02,-236 234.27,-236 234.27,-204 347.02,-204 347.02,-236"/>
<text text-anchor="start" x="242.27" y="-222.5" font-family="Helvetica,sans-Serif" font-size="10.00">RoutageVoilier/include</text>
<text text-anchor="middle" x="290.64" y="-210.5" font-family="Helvetica,sans-Serif" font-size="10.00">/Simulateur.hpp</text>
</a>
</g>
</g>
<!-- Node1&#45;&gt;Node7 -->
<g id="edge13_Node000001_Node000007" class="edge">
<title>Node1&#45;&gt;Node7</title>
<g id="a_edge13_Node000001_Node000007"><a xlink:title=" ">
<path fill="none" stroke="#63b8ff" d="M290.64,-328.45C290.64,-300.84 290.64,-258.6 290.64,-236.19"/>
<polygon fill="#63b8ff" stroke="#63b8ff" points="287.14,-328.11 290.64,-338.11 294.14,-328.11 287.14,-328.11"/>
</a>
</g>
</g>
<!-- Node3 -->
<g id="Node000003" class="node">
<title>Node3</title>
<g id="a_Node000003"><a xlink:href="_flux_8hpp.html" target="_top" xlink:title=" ">
<polygon fill="white" stroke="#666666" points="216.02,-236 103.27,-236 103.27,-204 216.02,-204 216.02,-236"/>
<text text-anchor="start" x="111.27" y="-222.5" font-family="Helvetica,sans-Serif" font-size="10.00">RoutageVoilier/include</text>
<text text-anchor="middle" x="159.64" y="-210.5" font-family="Helvetica,sans-Serif" font-size="10.00">/Flux.hpp</text>
</a>
</g>
</g>
<!-- Node2&#45;&gt;Node3 -->
<g id="edge2_Node000002_Node000003" class="edge">
<title>Node2&#45;&gt;Node3</title>
<g id="a_edge2_Node000002_Node000003"><a xlink:title=" ">
<path fill="none" stroke="#63b8ff" d="M133.54,-262.02C139.06,-253.34 145.09,-243.88 149.95,-236.22"/>
<polygon fill="#63b8ff" stroke="#63b8ff" points="130.61,-260.1 128.2,-270.42 136.52,-263.86 130.61,-260.1"/>
</a>
</g>
</g>
<!-- Node4 -->
<g id="Node000004" class="node">
<title>Node4</title>
<g id="a_Node000004"><a xlink:href="_h_j_b_8hpp.html" target="_top" xlink:title=" ">
<polygon fill="white" stroke="#666666" points="178.02,-168 65.27,-168 65.27,-136 178.02,-136 178.02,-168"/>
<text text-anchor="start" x="73.27" y="-154.5" font-family="Helvetica,sans-Serif" font-size="10.00">RoutageVoilier/include</text>
<text text-anchor="middle" x="121.64" y="-142.5" font-family="Helvetica,sans-Serif" font-size="10.00">/HJB.hpp</text>
</a>
</g>
</g>
<!-- Node2&#45;&gt;Node4 -->
<g id="edge8_Node000002_Node000004" class="edge">
<title>Node2&#45;&gt;Node4</title>
<g id="a_edge8_Node000002_Node000004"><a xlink:title=" ">
<path fill="none" stroke="#63b8ff" d="M103.58,-261.46C99.92,-253.53 96.5,-244.62 94.64,-236 91.65,-222.1 91.21,-217.8 94.64,-204 97.83,-191.17 104.91,-178.01 111.02,-168.27"/>
<polygon fill="#63b8ff" stroke="#63b8ff" points="100.32,-262.76 107.9,-270.16 106.59,-259.65 100.32,-262.76"/>
</a>
</g>
</g>
<!-- Node5 -->
<g id="Node000005" class="node">
<title>Node5</title>
<g id="a_Node000005"><a xlink:href="route__optimale_8hpp.html" target="_top" xlink:title=" ">
<polygon fill="white" stroke="#666666" points="140.02,-100 27.27,-100 27.27,-68 140.02,-68 140.02,-100"/>
<text text-anchor="start" x="35.27" y="-86.5" font-family="Helvetica,sans-Serif" font-size="10.00">RoutageVoilier/include</text>
<text text-anchor="middle" x="83.64" y="-74.5" font-family="Helvetica,sans-Serif" font-size="10.00">/route_optimale.hpp</text>
</a>
</g>
</g>
<!-- Node2&#45;&gt;Node5 -->
<g id="edge11_Node000002_Node000005" class="edge">
<title>Node2&#45;&gt;Node5</title>
<g id="a_edge11_Node000002_Node000005"><a xlink:title=" ">
<path fill="none" stroke="#63b8ff" d="M100.23,-262.49C85.05,-239.4 64.28,-203.18 56.64,-168 53.62,-154.1 53.21,-149.8 56.64,-136 59.83,-123.17 66.91,-110.01 73.02,-100.27"/>
<polygon fill="#63b8ff" stroke="#63b8ff" points="97.2,-264.26 105.7,-270.58 103,-260.34 97.2,-264.26"/>
</a>
</g>
</g>
<!-- Node2&#45;&gt;Node6 -->
<g id="edge12_Node000002_Node000006" class="edge">
<title>Node2&#45;&gt;Node6</title>
<g id="a_edge12_Node000002_Node000006"><a xlink:title=" ">
<path fill="none" stroke="#63b8ff" d="M88.9,-264.08C80.16,-255.96 71.16,-246.27 64.64,-236 23.17,-170.63 -27.47,-130.19 18.64,-68 45.97,-31.15 99.23,-20 138.48,-17.07"/>
<polygon fill="#63b8ff" stroke="#63b8ff" points="86.51,-266.63 96.32,-270.63 91.14,-261.38 86.51,-266.63"/>
</a>
</g>
</g>
<!-- Node2&#45;&gt;Node7 -->
<g id="edge9_Node000002_Node000007" class="edge">
<title>Node2&#45;&gt;Node7</title>
<g id="a_edge9_Node000002_Node000007"><a xlink:title=" ">
<path fill="none" stroke="#63b8ff" d="M168.96,-267.42C194.85,-257.54 225.82,-245.73 250.04,-236.49"/>
<polygon fill="#63b8ff" stroke="#63b8ff" points="167.71,-264.15 159.62,-270.99 170.21,-270.69 167.71,-264.15"/>
</a>
</g>
</g>
<!-- Node3&#45;&gt;Node4 -->
<g id="edge3_Node000003_Node000004" class="edge">
<title>Node3&#45;&gt;Node4</title>
<g id="a_edge3_Node000003_Node000004"><a xlink:title=" ">
<path fill="none" stroke="#63b8ff" d="M145.1,-193.74C140.15,-185.14 134.76,-175.79 130.41,-168.22"/>
<polygon fill="#63b8ff" stroke="#63b8ff" points="142.05,-195.46 150.07,-202.38 148.12,-191.97 142.05,-195.46"/>
</a>
</g>
</g>
<!-- Node3&#45;&gt;Node6 -->
<g id="edge7_Node000003_Node000006" class="edge">
<title>Node3&#45;&gt;Node6</title>
<g id="a_edge7_Node000003_Node000006"><a xlink:title=" ">
<path fill="none" stroke="#63b8ff" d="M175.98,-193.98C180.33,-186 184.43,-176.92 186.64,-168 198.65,-119.66 192.83,-59.9 189.04,-32.3"/>
<polygon fill="#63b8ff" stroke="#63b8ff" points="173.07,-192.03 171.03,-202.42 179.11,-195.57 173.07,-192.03"/>
</a>
</g>
</g>
<!-- Node4&#45;&gt;Node5 -->
<g id="edge4_Node000004_Node000005" class="edge">
<title>Node4&#45;&gt;Node5</title>
<g id="a_edge4_Node000004_Node000005"><a xlink:title=" ">
<path fill="none" stroke="#63b8ff" d="M107.1,-125.74C102.15,-117.14 96.76,-107.79 92.41,-100.22"/>
<polygon fill="#63b8ff" stroke="#63b8ff" points="104.05,-127.46 112.07,-134.38 110.12,-123.97 104.05,-127.46"/>
</a>
</g>
</g>
<!-- Node4&#45;&gt;Node6 -->
<g id="edge6_Node000004_Node000006" class="edge">
<title>Node4&#45;&gt;Node6</title>
<g id="a_edge6_Node000004_Node000006"><a xlink:title=" ">
<path fill="none" stroke="#63b8ff" d="M135.31,-125.87C139.67,-117.68 144.45,-108.5 148.64,-100 160.14,-76.69 172.5,-49.18 179.9,-32.42"/>
<polygon fill="#63b8ff" stroke="#63b8ff" points="132.27,-124.14 130.62,-134.61 138.44,-127.45 132.27,-124.14"/>
</a>
</g>
</g>
<!-- Node5&#45;&gt;Node6 -->
<g id="edge5_Node000005_Node000006" class="edge">
<title>Node5&#45;&gt;Node6</title>
<g id="a_edge5_Node000005_Node000006"><a xlink:title=" ">
<path fill="none" stroke="#63b8ff" d="M117.15,-61.53C131.99,-52.02 149.11,-41.05 162.64,-32.38"/>
<polygon fill="#63b8ff" stroke="#63b8ff" points="115.6,-58.37 109.07,-66.71 119.37,-64.26 115.6,-58.37"/>
</a>
</g>
</g>
<!-- Node7&#45;&gt;Node6 -->
<g id="edge10_Node000007_Node000006" class="edge">
<title>Node7&#45;&gt;Node6</title>
<g id="a_edge10_Node000007_Node000006"><a xlink:title=" ">
<path fill="none" stroke="#63b8ff" d="M277.64,-193.75C255.8,-151.32 212.37,-66.97 194.55,-32.36"/>
<polygon fill="#63b8ff" stroke="#63b8ff" points="274.44,-195.18 282.13,-202.47 280.67,-191.98 274.44,-195.18"/>
</a>
</g>
</g>
</g>
</svg>
