<?xml version="1.0" encoding="UTF-8" standalone="no"?>
<!DOCTYPE svg PUBLIC "-//W3C//DTD SVG 1.1//EN"
 "http://www.w3.org/Graphics/SVG/1.1/DTD/svg11.dtd">
<!-- Generated by graphviz version 10.0.1 (20240210.2158)
 -->
<!-- Title: RoutageVoilier/include/Dynamique.hpp Pages: 1 -->
<svg width="365pt" height="312pt"
 viewBox="0.00 0.00 364.75 312.00" xmlns="http://www.w3.org/2000/svg" xmlns:xlink="http://www.w3.org/1999/xlink">
<g id="graph0" class="graph" transform="scale(1 1) rotate(0) translate(4 308)">
<title>RoutageVoilier/include/Dynamique.hpp</title>
<!-- Node1 -->
<g id="Node000001" class="node">
<title>Node1</title>
<g id="a_Node000001"><a xlink:title=" ">
<polygon fill="#999999" stroke="#666666" points="234.75,-304 122,-304 122,-272 234.75,-272 234.75,-304"/>
<text text-anchor="start" x="130" y="-290.5" font-family="Helvetica,sans-Serif" font-size="10.00">RoutageVoilier/include</text>
<text text-anchor="middle" x="178.38" y="-278.5" font-family="Helvetica,sans-Serif" font-size="10.00">/Dynamique.hpp</text>
</a>
</g>
</g>
<!-- Node2 -->
<g id="Node000002" class="node">
<title>Node2</title>
<g id="a_Node000002"><a xlink:href="_flux_8hpp.html" target="_top" xlink:title=" ">
<polygon fill="white" stroke="#666666" points="112.75,-236 0,-236 0,-204 112.75,-204 112.75,-236"/>
<text text-anchor="start" x="8" y="-222.5" font-family="Helvetica,sans-Serif" font-size="10.00">RoutageVoilier/include</text>
<text text-anchor="middle" x="56.38" y="-210.5" font-family="Helvetica,sans-Serif" font-size="10.00">/Flux.hpp</text>
</a>
</g>
</g>
<!-- Node1&#45;&gt;Node2 -->
<g id="edge1_Node000001_Node000002" class="edge">
<title>Node1&#45;&gt;Node2</title>
<g id="a_edge1_Node000001_Node000002"><a xlink:title=" ">
<path fill="none" stroke="#63b8ff" d="M139.68,-266.07C121.88,-256.44 101.13,-245.21 84.8,-236.38"/>
<polygon fill="#63b8ff" stroke="#63b8ff" points="137.98,-269.13 148.44,-270.81 141.31,-262.97 137.98,-269.13"/>
</a>
</g>
</g>
<!-- Node3 -->
<g id="Node000003" class="node">
<title>Node3</title>
<g id="a_Node000003"><a xlink:href="_h_j_b_8hpp.html" target="_top" xlink:title=" ">
<polygon fill="white" stroke="#666666" points="150.75,-168 38,-168 38,-136 150.75,-136 150.75,-168"/>
<text text-anchor="start" x="46" y="-154.5" font-family="Helvetica,sans-Serif" font-size="10.00">RoutageVoilier/include</text>
<text text-anchor="middle" x="94.38" y="-142.5" font-family="Helvetica,sans-Serif" font-size="10.00">/HJB.hpp</text>
</a>
</g>
</g>
<!-- Node1&#45;&gt;Node3 -->
<g id="edge7_Node000001_Node000003" class="edge">
<title>Node1&#45;&gt;Node3</title>
<g id="a_edge7_Node000001_Node000003"><a xlink:title=" ">
<path fill="none" stroke="#63b8ff" d="M162.65,-261.92C145.38,-234.37 118.2,-191.01 103.9,-168.19"/>
<polygon fill="#63b8ff" stroke="#63b8ff" points="159.66,-263.73 167.94,-270.35 165.59,-260.01 159.66,-263.73"/>
</a>
</g>
</g>
<!-- Node4 -->
<g id="Node000004" class="node">
<title>Node4</title>
<g id="a_Node000004"><a xlink:href="route__optimale_8hpp.html" target="_top" xlink:title=" ">
<polygon fill="white" stroke="#666666" points="188.75,-100 76,-100 76,-68 188.75,-68 188.75,-100"/>
<text text-anchor="start" x="84" y="-86.5" font-family="Helvetica,sans-Serif" font-size="10.00">RoutageVoilier/include</text>
<text text-anchor="middle" x="132.38" y="-74.5" font-family="Helvetica,sans-Serif" font-size="10.00">/route_optimale.hpp</text>
</a>
</g>
</g>
<!-- Node1&#45;&gt;Node4 -->
<g id="edge10_Node000001_Node000004" class="edge">
<title>Node1&#45;&gt;Node4</title>
<g id="a_edge10_Node000001_Node000004"><a xlink:title=" ">
<path fill="none" stroke="#63b8ff" d="M177.9,-260.19C176.7,-229.51 172.67,-178.07 159.38,-136 155.39,-123.39 148.34,-110.22 142.44,-100.43"/>
<polygon fill="#63b8ff" stroke="#63b8ff" points="174.4,-260.21 178.21,-270.1 181.4,-260 174.4,-260.21"/>
</a>
</g>
</g>
<!-- Node5 -->
<g id="Node000005" class="node">
<title>Node5</title>
<g id="a_Node000005"><a xlink:href="main_8cpp.html" target="_top" xlink:title=" ">
<polygon fill="white" stroke="#666666" points="180.12,-32 84.62,-32 84.62,0 180.12,0 180.12,-32"/>
<text text-anchor="start" x="92.62" y="-18.5" font-family="Helvetica,sans-Serif" font-size="10.00">RoutageVoilier/src</text>
<text text-anchor="middle" x="132.38" y="-6.5" font-family="Helvetica,sans-Serif" font-size="10.00">/main.cpp</text>
</a>
</g>
</g>
<!-- Node1&#45;&gt;Node5 -->
<g id="edge11_Node000001_Node000005" class="edge">
<title>Node1&#45;&gt;Node5</title>
<g id="a_edge11_Node000001_Node000005"><a xlink:title=" ">
<path fill="none" stroke="#63b8ff" d="M188.84,-261.12C204.34,-218.47 228.42,-131.82 197.38,-68 190.03,-52.91 175.83,-40.96 162.56,-32.43"/>
<polygon fill="#63b8ff" stroke="#63b8ff" points="185.64,-259.68 185.37,-270.27 192.19,-262.15 185.64,-259.68"/>
</a>
</g>
</g>
<!-- Node6 -->
<g id="Node000006" class="node">
<title>Node6</title>
<g id="a_Node000006"><a xlink:href="_simulateur_8hpp.html" target="_top" xlink:title=" ">
<polygon fill="white" stroke="#666666" points="356.75,-168 244,-168 244,-136 356.75,-136 356.75,-168"/>
<text text-anchor="start" x="252" y="-154.5" font-family="Helvetica,sans-Serif" font-size="10.00">RoutageVoilier/include</text>
<text text-anchor="middle" x="300.38" y="-142.5" font-family="Helvetica,sans-Serif" font-size="10.00">/Simulateur.hpp</text>
</a>
</g>
</g>
<!-- Node1&#45;&gt;Node6 -->
<g id="edge8_Node000001_Node000006" class="edge">
<title>Node1&#45;&gt;Node6</title>
<g id="a_edge8_Node000001_Node000006"><a xlink:title=" ">
<path fill="none" stroke="#63b8ff" d="M202.78,-263.99C211.66,-255.38 221.64,-245.41 230.38,-236 251.53,-213.2 274.49,-185.31 288.15,-168.36"/>
<polygon fill="#63b8ff" stroke="#63b8ff" points="200.58,-261.26 195.79,-270.71 205.43,-266.3 200.58,-261.26"/>
</a>
</g>
</g>
<!-- Node2&#45;&gt;Node3 -->
<g id="edge2_Node000002_Node000003" class="edge">
<title>Node2&#45;&gt;Node3</title>
<g id="a_edge2_Node000002_Node000003"><a xlink:title=" ">
<path fill="none" stroke="#63b8ff" d="M70.92,-193.74C75.87,-185.14 81.25,-175.79 85.61,-168.22"/>
<polygon fill="#63b8ff" stroke="#63b8ff" points="67.9,-191.97 65.94,-202.38 73.97,-195.46 67.9,-191.97"/>
</a>
</g>
</g>
<!-- Node2&#45;&gt;Node5 -->
<g id="edge6_Node000002_Node000005" class="edge">
<title>Node2&#45;&gt;Node5</title>
<g id="a_edge6_Node000002_Node000005"><a xlink:title=" ">
<path fill="none" stroke="#63b8ff" d="M40.03,-193.98C35.69,-186 31.59,-176.92 29.38,-168 25.95,-154.2 26.44,-149.92 29.38,-136 36.19,-103.68 38.39,-93.51 59.38,-68 71.36,-53.43 88.5,-41.17 103.16,-32.32"/>
<polygon fill="#63b8ff" stroke="#63b8ff" points="36.91,-195.57 44.99,-202.42 42.94,-192.03 36.91,-195.57"/>
</a>
</g>
</g>
<!-- Node3&#45;&gt;Node4 -->
<g id="edge3_Node000003_Node000004" class="edge">
<title>Node3&#45;&gt;Node4</title>
<g id="a_edge3_Node000003_Node000004"><a xlink:title=" ">
<path fill="none" stroke="#63b8ff" d="M108.92,-125.74C113.87,-117.14 119.25,-107.79 123.61,-100.22"/>
<polygon fill="#63b8ff" stroke="#63b8ff" points="105.9,-123.97 103.94,-134.38 111.97,-127.46 105.9,-123.97"/>
</a>
</g>
</g>
<!-- Node3&#45;&gt;Node5 -->
<g id="edge5_Node000003_Node000005" class="edge">
<title>Node3&#45;&gt;Node5</title>
<g id="a_edge5_Node000003_Node000005"><a xlink:title=" ">
<path fill="none" stroke="#63b8ff" d="M76.33,-125.84C66.62,-109.01 58.32,-86.62 67.38,-68 74.72,-52.91 88.92,-40.96 102.19,-32.43"/>
<polygon fill="#63b8ff" stroke="#63b8ff" points="73.33,-127.63 81.61,-134.23 79.25,-123.91 73.33,-127.63"/>
</a>
</g>
</g>
<!-- Node4&#45;&gt;Node5 -->
<g id="edge4_Node000004_Node000005" class="edge">
<title>Node4&#45;&gt;Node5</title>
<g id="a_edge4_Node000004_Node000005"><a xlink:title=" ">
<path fill="none" stroke="#63b8ff" d="M132.38,-56.31C132.38,-48.12 132.38,-39.38 132.38,-32.22"/>
<polygon fill="#63b8ff" stroke="#63b8ff" points="128.88,-56.18 132.38,-66.18 135.88,-56.18 128.88,-56.18"/>
</a>
</g>
</g>
<!-- Node6&#45;&gt;Node5 -->
<g id="edge9_Node000006_Node000005" class="edge">
<title>Node6&#45;&gt;Node5</title>
<g id="a_edge9_Node000006_Node000005"><a xlink:title=" ">
<path fill="none" stroke="#63b8ff" d="M283.69,-126.46C270.69,-108.63 251.36,-84.8 230.38,-68 212.26,-53.5 189.37,-41.31 170.27,-32.49"/>
<polygon fill="#63b8ff" stroke="#63b8ff" points="280.71,-128.3 289.36,-134.42 286.41,-124.24 280.71,-128.3"/>
</a>
</g>
</g>
</g>
</svg>
