<?xml version="1.0" encoding="UTF-8" standalone="no"?>
<!DOCTYPE svg PUBLIC "-//W3C//DTD SVG 1.1//EN"
 "http://www.w3.org/Graphics/SVG/1.1/DTD/svg11.dtd">
<!-- Generated by graphviz version 10.0.1 (20240210.2158)
 -->
<!-- Title: RoutageVoilier/include/Flux.hpp Pages: 1 -->
<svg width="201pt" height="244pt"
 viewBox="0.00 0.00 200.75 244.00" xmlns="http://www.w3.org/2000/svg" xmlns:xlink="http://www.w3.org/1999/xlink">
<g id="graph0" class="graph" transform="scale(1 1) rotate(0) translate(4 240)">
<title>RoutageVoilier/include/Flux.hpp</title>
<!-- Node1 -->
<g id="Node000001" class="node">
<title>Node1</title>
<g id="a_Node000001"><a xlink:title=" ">
<polygon fill="#999999" stroke="#666666" points="192.75,-236 80,-236 80,-204 192.75,-204 192.75,-236"/>
<text text-anchor="start" x="88" y="-222.5" font-family="Helvetica,sans-Serif" font-size="10.00">RoutageVoilier/include</text>
<text text-anchor="middle" x="136.38" y="-210.5" font-family="Helvetica,sans-Serif" font-size="10.00">/Flux.hpp</text>
</a>
</g>
</g>
<!-- Node2 -->
<g id="Node000002" class="node">
<title>Node2</title>
<g id="a_Node000002"><a xlink:href="_h_j_b_8hpp.html" target="_top" xlink:title=" ">
<polygon fill="white" stroke="#666666" points="150.75,-168 38,-168 38,-136 150.75,-136 150.75,-168"/>
<text text-anchor="start" x="46" y="-154.5" font-family="Helvetica,sans-Serif" font-size="10.00">RoutageVoilier/include</text>
<text text-anchor="middle" x="94.38" y="-142.5" font-family="Helvetica,sans-Serif" font-size="10.00">/HJB.hpp</text>
</a>
</g>
</g>
<!-- Node1&#45;&gt;Node2 -->
<g id="edge1_Node000001_Node000002" class="edge">
<title>Node1&#45;&gt;Node2</title>
<g id="a_edge1_Node000001_Node000002"><a xlink:title=" ">
<path fill="none" stroke="#63b8ff" d="M120.48,-194.02C114.96,-185.34 108.93,-175.88 104.06,-168.22"/>
<polygon fill="#63b8ff" stroke="#63b8ff" points="117.5,-195.86 125.82,-202.42 123.41,-192.1 117.5,-195.86"/>
</a>
</g>
</g>
<!-- Node4 -->
<g id="Node000004" class="node">
<title>Node4</title>
<g id="a_Node000004"><a xlink:href="main_8cpp.html" target="_top" xlink:title=" ">
<polygon fill="white" stroke="#666666" points="188.12,-32 92.62,-32 92.62,0 188.12,0 188.12,-32"/>
<text text-anchor="start" x="100.62" y="-18.5" font-family="Helvetica,sans-Serif" font-size="10.00">RoutageVoilier/src</text>
<text text-anchor="middle" x="140.38" y="-6.5" font-family="Helvetica,sans-Serif" font-size="10.00">/main.cpp</text>
</a>
</g>
</g>
<!-- Node1&#45;&gt;Node4 -->
<g id="edge5_Node000001_Node000004" class="edge">
<title>Node1&#45;&gt;Node4</title>
<g id="a_edge5_Node000001_Node000004"><a xlink:title=" ">
<path fill="none" stroke="#63b8ff" d="M150.44,-193.46C154.09,-185.53 157.52,-176.62 159.38,-168 169.93,-118.92 154.35,-59.52 145.62,-32.15"/>
<polygon fill="#63b8ff" stroke="#63b8ff" points="147.43,-191.65 146.11,-202.16 153.7,-194.76 147.43,-191.65"/>
</a>
</g>
</g>
<!-- Node3 -->
<g id="Node000003" class="node">
<title>Node3</title>
<g id="a_Node000003"><a xlink:href="route__optimale_8hpp.html" target="_top" xlink:title=" ">
<polygon fill="white" stroke="#666666" points="112.75,-100 0,-100 0,-68 112.75,-68 112.75,-100"/>
<text text-anchor="start" x="8" y="-86.5" font-family="Helvetica,sans-Serif" font-size="10.00">RoutageVoilier/include</text>
<text text-anchor="middle" x="56.38" y="-74.5" font-family="Helvetica,sans-Serif" font-size="10.00">/route_optimale.hpp</text>
</a>
</g>
</g>
<!-- Node2&#45;&gt;Node3 -->
<g id="edge2_Node000002_Node000003" class="edge">
<title>Node2&#45;&gt;Node3</title>
<g id="a_edge2_Node000002_Node000003"><a xlink:title=" ">
<path fill="none" stroke="#63b8ff" d="M79.83,-125.74C74.88,-117.14 69.5,-107.79 65.14,-100.22"/>
<polygon fill="#63b8ff" stroke="#63b8ff" points="76.78,-127.46 84.81,-134.38 82.85,-123.97 76.78,-127.46"/>
</a>
</g>
</g>
<!-- Node2&#45;&gt;Node4 -->
<g id="edge4_Node000002_Node000004" class="edge">
<title>Node2&#45;&gt;Node4</title>
<g id="a_edge4_Node000002_Node000004"><a xlink:title=" ">
<path fill="none" stroke="#63b8ff" d="M109.3,-125.97C113.66,-117.89 118.12,-108.75 121.38,-100 129.88,-77.14 135.31,-49.27 138.1,-32.34"/>
<polygon fill="#63b8ff" stroke="#63b8ff" points="106.33,-124.11 104.48,-134.55 112.43,-127.54 106.33,-124.11"/>
</a>
</g>
</g>
<!-- Node3&#45;&gt;Node4 -->
<g id="edge3_Node000003_Node000004" class="edge">
<title>Node3&#45;&gt;Node4</title>
<g id="a_edge3_Node000003_Node000004"><a xlink:title=" ">
<path fill="none" stroke="#63b8ff" d="M84.89,-60.6C96.67,-51.34 110.04,-40.83 120.71,-32.45"/>
<polygon fill="#63b8ff" stroke="#63b8ff" points="82.75,-57.83 77.05,-66.76 87.07,-63.33 82.75,-57.83"/>
</a>
</g>
</g>
</g>
</svg>
