<?xml version="1.0" encoding="UTF-8" standalone="no"?>
<!DOCTYPE svg PUBLIC "-//W3C//DTD SVG 1.1//EN"
 "http://www.w3.org/Graphics/SVG/1.1/DTD/svg11.dtd">
<!-- Generated by graphviz version 10.0.1 (20240210.2158)
 -->
<!-- Title: print_grille Pages: 1 -->
<svg width="268pt" height="65pt"
 viewBox="0.00 0.00 268.25 65.00" xmlns="http://www.w3.org/2000/svg" xmlns:xlink="http://www.w3.org/1999/xlink">
<g id="graph0" class="graph" transform="scale(1 1) rotate(0) translate(4 61)">
<title>print_grille</title>
<!-- Node1 -->
<g id="Node000001" class="node">
<title>Node1</title>
<g id="a_Node000001"><a xlink:title=" ">
<polygon fill="#999999" stroke="#666666" points="60.25,-20 0,-20 0,0 60.25,0 60.25,-20"/>
<text text-anchor="middle" x="30.12" y="-6.5" font-family="Helvetica,sans-Serif" font-size="10.00">print_grille</text>
</a>
</g>
</g>
<!-- Node2 -->
<g id="Node000002" class="node">
<title>Node2</title>
<g id="a_Node000002"><a xlink:href="class_grille.html#a55235882a3d7897067449ef76fb64287" target="_top" xlink:title=" ">
<polygon fill="white" stroke="#666666" points="155.75,-39 96.25,-39 96.25,-19 155.75,-19 155.75,-39"/>
<text text-anchor="middle" x="126" y="-25.5" font-family="Helvetica,sans-Serif" font-size="10.00">Grille::find</text>
</a>
</g>
</g>
<!-- Node1&#45;&gt;Node2 -->
<g id="edge1_Node000001_Node000002" class="edge">
<title>Node1&#45;&gt;Node2</title>
<g id="a_edge1_Node000001_Node000002"><a xlink:title=" ">
<path fill="none" stroke="#63b8ff" d="M60.57,-15.96C68.24,-17.51 76.65,-19.21 84.78,-20.86"/>
<polygon fill="#63b8ff" stroke="#63b8ff" points="84,-24.27 94.5,-22.83 85.39,-17.41 84,-24.27"/>
</a>
</g>
</g>
<!-- Node3 -->
<g id="Node000003" class="node">
<title>Node3</title>
<g id="a_Node000003"><a xlink:href="_fonction__externes_8hpp.html#a8bf9651680a69ef9b57e88861dbc2b7c" target="_top" xlink:title=" ">
<polygon fill="white" stroke="#666666" points="260.25,-39 191.75,-39 191.75,-19 260.25,-19 260.25,-39"/>
<text text-anchor="middle" x="226" y="-25.5" font-family="Helvetica,sans-Serif" font-size="10.00">interpolation</text>
</a>
</g>
</g>
<!-- Node1&#45;&gt;Node3 -->
<g id="edge5_Node000001_Node000003" class="edge">
<title>Node1&#45;&gt;Node3</title>
<g id="a_edge5_Node000001_Node000003"><a xlink:title=" ">
<path fill="none" stroke="#63b8ff" d="M60.73,-7.79C86.08,-6.42 123.48,-5.65 155.75,-10 164.7,-11.21 174.13,-13.25 183.04,-15.56"/>
<polygon fill="#63b8ff" stroke="#63b8ff" points="181.97,-18.89 192.54,-18.19 183.83,-12.15 181.97,-18.89"/>
</a>
</g>
</g>
<!-- Node2&#45;&gt;Node3 -->
<g id="edge2_Node000002_Node000003" class="edge">
<title>Node2&#45;&gt;Node3</title>
<g id="a_edge2_Node000002_Node000003"><a xlink:title=" ">
<path fill="none" stroke="#63b8ff" d="M156.14,-22.77C163.65,-22.35 171.92,-22.19 180.04,-22.27"/>
<polygon fill="#63b8ff" stroke="#63b8ff" points="179.73,-25.76 189.81,-22.51 179.9,-18.77 179.73,-25.76"/>
</a>
</g>
</g>
<!-- Node3&#45;&gt;Node2 -->
<g id="edge3_Node000003_Node000002" class="edge">
<title>Node3&#45;&gt;Node2</title>
<g id="a_edge3_Node000003_Node000002"><a xlink:title=" ">
<path fill="none" stroke="#63b8ff" d="M191.32,-35.45C183.63,-35.76 175.39,-35.83 167.45,-35.66"/>
<polygon fill="#63b8ff" stroke="#63b8ff" points="167.78,-32.17 157.65,-35.29 167.51,-39.16 167.78,-32.17"/>
</a>
</g>
</g>
<!-- Node3&#45;&gt;Node3 -->
<g id="edge4_Node000003_Node000003" class="edge">
<title>Node3&#45;&gt;Node3</title>
<g id="a_edge4_Node000003_Node000003"><a xlink:title=" ">
<path fill="none" stroke="#63b8ff" d="M210.11,-39.34C203.32,-47.98 208.62,-57 226,-57 235.51,-57 241.4,-54.3 243.67,-50.44"/>
<polygon fill="#63b8ff" stroke="#63b8ff" points="247.17,-50.15 242.13,-40.83 240.26,-51.26 247.17,-50.15"/>
</a>
</g>
</g>
</g>
</svg>
