<?xml version="1.0" encoding="UTF-8" standalone="no"?>
<!DOCTYPE svg PUBLIC "-//W3C//DTD SVG 1.1//EN"
 "http://www.w3.org/Graphics/SVG/1.1/DTD/svg11.dtd">
<!-- Generated by graphviz version 10.0.1 (20240210.2158)
 -->
<!-- Title: sgn Pages: 1 -->
<svg width="240pt" height="46pt"
 viewBox="0.00 0.00 239.75 46.00" xmlns="http://www.w3.org/2000/svg" xmlns:xlink="http://www.w3.org/1999/xlink">
<g id="graph0" class="graph" transform="scale(1 1) rotate(0) translate(4 42)">
<title>sgn</title>
<!-- Node1 -->
<g id="Node000001" class="node">
<title>Node1</title>
<g id="a_Node000001"><a xlink:title=" ">
<polygon fill="#999999" stroke="#666666" points="31.75,-20 0,-20 0,0 31.75,0 31.75,-20"/>
<text text-anchor="middle" x="15.88" y="-6.5" font-family="Helvetica,sans-Serif" font-size="10.00">sgn</text>
</a>
</g>
</g>
<!-- Node2 -->
<g id="Node000002" class="node">
<title>Node2</title>
<g id="a_Node000002"><a xlink:href="_fonction__externes_8hpp.html#a8bf9651680a69ef9b57e88861dbc2b7c" target="_top" xlink:title=" ">
<polygon fill="white" stroke="#666666" points="136.25,-20 67.75,-20 67.75,0 136.25,0 136.25,-20"/>
<text text-anchor="middle" x="102" y="-6.5" font-family="Helvetica,sans-Serif" font-size="10.00">interpolation</text>
</a>
</g>
</g>
<!-- Node1&#45;&gt;Node2 -->
<g id="edge1_Node000001_Node000002" class="edge">
<title>Node1&#45;&gt;Node2</title>
<g id="a_edge1_Node000001_Node000002"><a xlink:title=" ">
<path fill="none" stroke="#63b8ff" d="M31.91,-10C38.75,-10 47.24,-10 55.89,-10"/>
<polygon fill="#63b8ff" stroke="#63b8ff" points="55.74,-13.5 65.74,-10 55.74,-6.5 55.74,-13.5"/>
</a>
</g>
</g>
<!-- Node2&#45;&gt;Node2 -->
<g id="edge4_Node000002_Node000002" class="edge">
<title>Node2&#45;&gt;Node2</title>
<g id="a_edge4_Node000002_Node000002"><a xlink:title=" ">
<path fill="none" stroke="#63b8ff" d="M88.32,-20.34C82.47,-28.98 87.03,-38 102,-38 109.95,-38 114.97,-35.45 117.05,-31.77"/>
<polygon fill="#63b8ff" stroke="#63b8ff" points="120.52,-31.36 115.86,-21.84 113.57,-32.19 120.52,-31.36"/>
</a>
</g>
</g>
<!-- Node3 -->
<g id="Node000003" class="node">
<title>Node3</title>
<g id="a_Node000003"><a xlink:href="class_grille.html#a55235882a3d7897067449ef76fb64287" target="_top" xlink:title=" ">
<polygon fill="white" stroke="#666666" points="231.75,-20 172.25,-20 172.25,0 231.75,0 231.75,-20"/>
<text text-anchor="middle" x="202" y="-6.5" font-family="Helvetica,sans-Serif" font-size="10.00">Grille::find</text>
</a>
</g>
</g>
<!-- Node2&#45;&gt;Node3 -->
<g id="edge2_Node000002_Node000003" class="edge">
<title>Node2&#45;&gt;Node3</title>
<g id="a_edge2_Node000002_Node000003"><a xlink:title=" ">
<path fill="none" stroke="#63b8ff" d="M136.73,-3.55C144.39,-3.24 152.61,-3.17 160.52,-3.34"/>
<polygon fill="#63b8ff" stroke="#63b8ff" points="160.15,-6.83 170.28,-3.71 160.42,0.16 160.15,-6.83"/>
</a>
</g>
</g>
<!-- Node3&#45;&gt;Node2 -->
<g id="edge3_Node000003_Node000002" class="edge">
<title>Node3&#45;&gt;Node2</title>
<g id="a_edge3_Node000003_Node000002"><a xlink:title=" ">
<path fill="none" stroke="#63b8ff" d="M171.79,-16.23C164.3,-16.65 156.06,-16.81 147.97,-16.73"/>
<polygon fill="#63b8ff" stroke="#63b8ff" points="148.32,-13.24 138.24,-16.49 148.15,-20.24 148.32,-13.24"/>
</a>
</g>
</g>
</g>
</svg>
