<?xml version="1.0" encoding="UTF-8" standalone="no"?>
<!DOCTYPE svg PUBLIC "-//W3C//DTD SVG 1.1//EN"
 "http://www.w3.org/Graphics/SVG/1.1/DTD/svg11.dtd">
<!-- Generated by graphviz version 10.0.1 (20240210.2158)
 -->
<!-- Title: interpolation Pages: 1 -->
<svg width="277pt" height="46pt"
 viewBox="0.00 0.00 276.50 46.00" xmlns="http://www.w3.org/2000/svg" xmlns:xlink="http://www.w3.org/1999/xlink">
<g id="graph0" class="graph" transform="scale(1 1) rotate(0) translate(4 42)">
<title>interpolation</title>
<!-- Node1 -->
<g id="Node000001" class="node">
<title>Node1</title>
<g id="a_Node000001"><a xlink:title=" ">
<polygon fill="#999999" stroke="#666666" points="68.5,-20 0,-20 0,0 68.5,0 68.5,-20"/>
<text text-anchor="middle" x="34.25" y="-6.5" font-family="Helvetica,sans-Serif" font-size="10.00">interpolation</text>
</a>
</g>
</g>
<!-- Node2 -->
<g id="Node000002" class="node">
<title>Node2</title>
<g id="a_Node000002"><a xlink:href="_fonction__externes_8hpp.html#a8bf9651680a69ef9b57e88861dbc2b7c" target="_top" xlink:title=" ">
<polygon fill="white" stroke="#666666" points="173,-20 104.5,-20 104.5,0 173,0 173,-20"/>
<text text-anchor="middle" x="138.75" y="-6.5" font-family="Helvetica,sans-Serif" font-size="10.00">interpolation</text>
</a>
</g>
</g>
<!-- Node1&#45;&gt;Node2 -->
<g id="edge1_Node000001_Node000002" class="edge">
<title>Node1&#45;&gt;Node2</title>
<g id="a_edge1_Node000001_Node000002"><a xlink:title=" ">
<path fill="none" stroke="#63b8ff" d="M68.81,-10C76.42,-10 84.63,-10 92.63,-10"/>
<polygon fill="#63b8ff" stroke="#63b8ff" points="92.6,-13.5 102.6,-10 92.6,-6.5 92.6,-13.5"/>
</a>
</g>
</g>
<!-- Node2&#45;&gt;Node2 -->
<g id="edge4_Node000002_Node000002" class="edge">
<title>Node2&#45;&gt;Node2</title>
<g id="a_edge4_Node000002_Node000002"><a xlink:title=" ">
<path fill="none" stroke="#63b8ff" d="M122.86,-20.34C116.07,-28.98 121.37,-38 138.75,-38 148.26,-38 154.15,-35.3 156.42,-31.44"/>
<polygon fill="#63b8ff" stroke="#63b8ff" points="159.92,-31.15 154.88,-21.83 153.01,-32.26 159.92,-31.15"/>
</a>
</g>
</g>
<!-- Node3 -->
<g id="Node000003" class="node">
<title>Node3</title>
<g id="a_Node000003"><a xlink:href="class_grille.html#a55235882a3d7897067449ef76fb64287" target="_top" xlink:title=" ">
<polygon fill="white" stroke="#666666" points="268.5,-20 209,-20 209,0 268.5,0 268.5,-20"/>
<text text-anchor="middle" x="238.75" y="-6.5" font-family="Helvetica,sans-Serif" font-size="10.00">Grille::find</text>
</a>
</g>
</g>
<!-- Node2&#45;&gt;Node3 -->
<g id="edge2_Node000002_Node000003" class="edge">
<title>Node2&#45;&gt;Node3</title>
<g id="a_edge2_Node000002_Node000003"><a xlink:title=" ">
<path fill="none" stroke="#63b8ff" d="M173.48,-3.55C181.14,-3.24 189.36,-3.17 197.27,-3.34"/>
<polygon fill="#63b8ff" stroke="#63b8ff" points="196.9,-6.83 207.03,-3.71 197.17,0.16 196.9,-6.83"/>
</a>
</g>
</g>
<!-- Node3&#45;&gt;Node2 -->
<g id="edge3_Node000003_Node000002" class="edge">
<title>Node3&#45;&gt;Node2</title>
<g id="a_edge3_Node000003_Node000002"><a xlink:title=" ">
<path fill="none" stroke="#63b8ff" d="M208.54,-16.23C201.05,-16.65 192.81,-16.81 184.72,-16.73"/>
<polygon fill="#63b8ff" stroke="#63b8ff" points="185.07,-13.24 174.99,-16.49 184.9,-20.24 185.07,-13.24"/>
</a>
</g>
</g>
</g>
</svg>
