<?xml version="1.0" encoding="UTF-8" standalone="no"?>
<!DOCTYPE svg PUBLIC "-//W3C//DTD SVG 1.1//EN"
 "http://www.w3.org/Graphics/SVG/1.1/DTD/svg11.dtd">
<!-- Generated by graphviz version 10.0.1 (20240210.2158)
 -->
<!-- Title: RoutageVoilier/include/Fonction_externes.hpp Pages: 1 -->
<svg width="534pt" height="516pt"
 viewBox="0.00 0.00 534.00 516.00" xmlns="http://www.w3.org/2000/svg" xmlns:xlink="http://www.w3.org/1999/xlink">
<g id="graph0" class="graph" transform="scale(1 1) rotate(0) translate(4 512)">
<title>RoutageVoilier/include/Fonction_externes.hpp</title>
<!-- Node1 -->
<g id="Node000001" class="node">
<title>Node1</title>
<g id="a_Node000001"><a xlink:title=" ">
<polygon fill="#999999" stroke="#666666" points="315,-508 197,-508 197,-476 315,-476 315,-508"/>
<text text-anchor="start" x="205" y="-494.5" font-family="Helvetica,sans-Serif" font-size="10.00">RoutageVoilier/include</text>
<text text-anchor="middle" x="256" y="-482.5" font-family="Helvetica,sans-Serif" font-size="10.00">/Fonction_externes.hpp</text>
</a>
</g>
</g>
<!-- Node2 -->
<g id="Node000002" class="node">
<title>Node2</title>
<g id="a_Node000002"><a xlink:href="_dynamique_8hpp.html" target="_top" xlink:title=" ">
<polygon fill="white" stroke="#666666" points="331.38,-304 218.62,-304 218.62,-272 331.38,-272 331.38,-304"/>
<text text-anchor="start" x="226.62" y="-290.5" font-family="Helvetica,sans-Serif" font-size="10.00">RoutageVoilier/include</text>
<text text-anchor="middle" x="275" y="-278.5" font-family="Helvetica,sans-Serif" font-size="10.00">/Dynamique.hpp</text>
</a>
</g>
</g>
<!-- Node1&#45;&gt;Node2 -->
<g id="edge1_Node000001_Node000002" class="edge">
<title>Node1&#45;&gt;Node2</title>
<g id="a_edge1_Node000001_Node000002"><a xlink:title=" ">
<path fill="none" stroke="#63b8ff" d="M270.06,-465.46C273.72,-457.53 277.15,-448.62 279,-440 289.48,-391.29 282.2,-331.71 277.75,-304.22"/>
<polygon fill="#63b8ff" stroke="#63b8ff" points="267.05,-463.65 265.74,-474.16 273.32,-466.76 267.05,-463.65"/>
</a>
</g>
</g>
<!-- Node4 -->
<g id="Node000004" class="node">
<title>Node4</title>
<g id="a_Node000004"><a xlink:href="_h_j_b_8hpp.html" target="_top" xlink:title=" ">
<polygon fill="white" stroke="#666666" points="384.38,-168 271.62,-168 271.62,-136 384.38,-136 384.38,-168"/>
<text text-anchor="start" x="279.62" y="-154.5" font-family="Helvetica,sans-Serif" font-size="10.00">RoutageVoilier/include</text>
<text text-anchor="middle" x="328" y="-142.5" font-family="Helvetica,sans-Serif" font-size="10.00">/HJB.hpp</text>
</a>
</g>
</g>
<!-- Node1&#45;&gt;Node4 -->
<g id="edge13_Node000001_Node000004" class="edge">
<title>Node1&#45;&gt;Node4</title>
<g id="a_edge13_Node000001_Node000004"><a xlink:title=" ">
<path fill="none" stroke="#63b8ff" d="M326.18,-473.38C381.72,-454.74 450,-419.17 450,-357 450,-357 450,-357 450,-287 450,-232.1 393.31,-189.78 357.22,-168.4"/>
<polygon fill="#63b8ff" stroke="#63b8ff" points="325.15,-470.04 316.7,-476.43 327.29,-476.7 325.15,-470.04"/>
</a>
</g>
</g>
<!-- Node5 -->
<g id="Node000005" class="node">
<title>Node5</title>
<g id="a_Node000005"><a xlink:href="route__optimale_8hpp.html" target="_top" xlink:title=" ">
<polygon fill="white" stroke="#666666" points="451.38,-100 338.62,-100 338.62,-68 451.38,-68 451.38,-100"/>
<text text-anchor="start" x="346.62" y="-86.5" font-family="Helvetica,sans-Serif" font-size="10.00">RoutageVoilier/include</text>
<text text-anchor="middle" x="395" y="-74.5" font-family="Helvetica,sans-Serif" font-size="10.00">/route_optimale.hpp</text>
</a>
</g>
</g>
<!-- Node1&#45;&gt;Node5 -->
<g id="edge23_Node000001_Node000005" class="edge">
<title>Node1&#45;&gt;Node5</title>
<g id="a_edge23_Node000001_Node000005"><a xlink:title=" ">
<path fill="none" stroke="#63b8ff" d="M326.26,-486C406.26,-476.03 526,-446.21 526,-357 526,-357 526,-357 526,-219 526,-162.72 466.17,-121.31 427.38,-100.37"/>
<polygon fill="#63b8ff" stroke="#63b8ff" points="326.29,-482.47 316.76,-487.1 327.09,-489.42 326.29,-482.47"/>
</a>
</g>
</g>
<!-- Node6 -->
<g id="Node000006" class="node">
<title>Node6</title>
<g id="a_Node000006"><a xlink:href="main_8cpp.html" target="_top" xlink:title=" ">
<polygon fill="white" stroke="#666666" points="272.75,-32 177.25,-32 177.25,0 272.75,0 272.75,-32"/>
<text text-anchor="start" x="185.25" y="-18.5" font-family="Helvetica,sans-Serif" font-size="10.00">RoutageVoilier/src</text>
<text text-anchor="middle" x="225" y="-6.5" font-family="Helvetica,sans-Serif" font-size="10.00">/main.cpp</text>
</a>
</g>
</g>
<!-- Node1&#45;&gt;Node6 -->
<g id="edge24_Node000001_Node000006" class="edge">
<title>Node1&#45;&gt;Node6</title>
<g id="a_edge24_Node000001_Node000006"><a xlink:title=" ">
<path fill="none" stroke="#63b8ff" d="M185.24,-484.14C109.47,-472.43 0,-440.98 0,-357 0,-357 0,-357 0,-151 0,-69.28 110.93,-36.25 177.01,-23.83"/>
<polygon fill="#63b8ff" stroke="#63b8ff" points="184.73,-487.6 195.13,-485.57 185.73,-480.67 184.73,-487.6"/>
</a>
</g>
</g>
<!-- Node7 -->
<g id="Node000007" class="node">
<title>Node7</title>
<g id="a_Node000007"><a xlink:href="_simulateur_8hpp.html" target="_top" xlink:title=" ">
<polygon fill="white" stroke="#666666" points="140.38,-236 27.62,-236 27.62,-204 140.38,-204 140.38,-236"/>
<text text-anchor="start" x="35.62" y="-222.5" font-family="Helvetica,sans-Serif" font-size="10.00">RoutageVoilier/include</text>
<text text-anchor="middle" x="84" y="-210.5" font-family="Helvetica,sans-Serif" font-size="10.00">/Simulateur.hpp</text>
</a>
</g>
</g>
<!-- Node1&#45;&gt;Node7 -->
<g id="edge14_Node000001_Node000007" class="edge">
<title>Node1&#45;&gt;Node7</title>
<g id="a_edge14_Node000001_Node000007"><a xlink:title=" ">
<path fill="none" stroke="#63b8ff" d="M203.18,-471.02C185.08,-462.86 165.29,-452.4 149,-440 117.16,-415.77 106.95,-408.24 90,-372 68.77,-326.61 75.88,-264.9 80.86,-236.48"/>
<polygon fill="#63b8ff" stroke="#63b8ff" points="201.66,-474.17 212.22,-474.95 204.45,-467.75 201.66,-474.17"/>
</a>
</g>
</g>
<!-- Node8 -->
<g id="Node000008" class="node">
<title>Node8</title>
<g id="a_Node000008"><a xlink:href="_voilier_8hpp.html" target="_top" xlink:title=" ">
<polygon fill="white" stroke="#666666" points="270.38,-440 157.62,-440 157.62,-408 270.38,-408 270.38,-440"/>
<text text-anchor="start" x="165.62" y="-426.5" font-family="Helvetica,sans-Serif" font-size="10.00">RoutageVoilier/include</text>
<text text-anchor="middle" x="214" y="-414.5" font-family="Helvetica,sans-Serif" font-size="10.00">/Voilier.hpp</text>
</a>
</g>
</g>
<!-- Node1&#45;&gt;Node8 -->
<g id="edge15_Node000001_Node000008" class="edge">
<title>Node1&#45;&gt;Node8</title>
<g id="a_edge15_Node000001_Node000008"><a xlink:title=" ">
<path fill="none" stroke="#63b8ff" d="M240.1,-466.02C234.58,-457.34 228.56,-447.88 223.69,-440.22"/>
<polygon fill="#63b8ff" stroke="#63b8ff" points="237.12,-467.86 245.45,-474.42 243.03,-464.1 237.12,-467.86"/>
</a>
</g>
</g>
<!-- Node3 -->
<g id="Node000003" class="node">
<title>Node3</title>
<g id="a_Node000003"><a xlink:href="_flux_8hpp.html" target="_top" xlink:title=" ">
<polygon fill="white" stroke="#666666" points="346.38,-236 233.62,-236 233.62,-204 346.38,-204 346.38,-236"/>
<text text-anchor="start" x="241.62" y="-222.5" font-family="Helvetica,sans-Serif" font-size="10.00">RoutageVoilier/include</text>
<text text-anchor="middle" x="290" y="-210.5" font-family="Helvetica,sans-Serif" font-size="10.00">/Flux.hpp</text>
</a>
</g>
</g>
<!-- Node2&#45;&gt;Node3 -->
<g id="edge2_Node000002_Node000003" class="edge">
<title>Node2&#45;&gt;Node3</title>
<g id="a_edge2_Node000002_Node000003"><a xlink:title=" ">
<path fill="none" stroke="#63b8ff" d="M281,-260.6C282.88,-252.32 284.9,-243.46 286.54,-236.22"/>
<polygon fill="#63b8ff" stroke="#63b8ff" points="277.62,-259.69 278.81,-270.22 284.44,-261.24 277.62,-259.69"/>
</a>
</g>
</g>
<!-- Node2&#45;&gt;Node4 -->
<g id="edge8_Node000002_Node000004" class="edge">
<title>Node2&#45;&gt;Node4</title>
<g id="a_edge8_Node000002_Node000004"><a xlink:title=" ">
<path fill="none" stroke="#63b8ff" d="M324.64,-266.04C336.72,-258.43 348.13,-248.54 355,-236 367.1,-213.95 352.15,-185.59 340.15,-168.38"/>
<polygon fill="#63b8ff" stroke="#63b8ff" points="323.11,-262.88 316.19,-270.9 326.61,-268.95 323.11,-262.88"/>
</a>
</g>
</g>
<!-- Node2&#45;&gt;Node5 -->
<g id="edge11_Node000002_Node000005" class="edge">
<title>Node2&#45;&gt;Node5</title>
<g id="a_edge11_Node000002_Node000005"><a xlink:title=" ">
<path fill="none" stroke="#63b8ff" d="M330.29,-266.74C345.19,-259.04 360.16,-248.93 371,-236 404.08,-196.54 400.81,-130.17 397.28,-100.34"/>
<polygon fill="#63b8ff" stroke="#63b8ff" points="328.89,-263.53 321.41,-271.02 331.94,-269.83 328.89,-263.53"/>
</a>
</g>
</g>
<!-- Node2&#45;&gt;Node6 -->
<g id="edge12_Node000002_Node000006" class="edge">
<title>Node2&#45;&gt;Node6</title>
<g id="a_edge12_Node000002_Node000006"><a xlink:title=" ">
<path fill="none" stroke="#63b8ff" d="M245.05,-264.04C236.99,-256.12 229.31,-246.56 225,-236 195.89,-164.72 212.83,-69.18 221.19,-32.36"/>
<polygon fill="#63b8ff" stroke="#63b8ff" points="242.58,-266.52 252.34,-270.64 247.28,-261.33 242.58,-266.52"/>
</a>
</g>
</g>
<!-- Node2&#45;&gt;Node7 -->
<g id="edge9_Node000002_Node000007" class="edge">
<title>Node2&#45;&gt;Node7</title>
<g id="a_edge9_Node000002_Node000007"><a xlink:title=" ">
<path fill="none" stroke="#63b8ff" d="M219.49,-267.82C190.67,-257.86 155.92,-245.85 128.83,-236.49"/>
<polygon fill="#63b8ff" stroke="#63b8ff" points="218.19,-271.07 228.79,-271.03 220.48,-264.46 218.19,-271.07"/>
</a>
</g>
</g>
<!-- Node3&#45;&gt;Node4 -->
<g id="edge3_Node000003_Node000004" class="edge">
<title>Node3&#45;&gt;Node4</title>
<g id="a_edge3_Node000003_Node000004"><a xlink:title=" ">
<path fill="none" stroke="#63b8ff" d="M304.54,-193.74C309.5,-185.14 314.88,-175.79 319.23,-168.22"/>
<polygon fill="#63b8ff" stroke="#63b8ff" points="301.53,-191.97 299.57,-202.38 307.59,-195.46 301.53,-191.97"/>
</a>
</g>
</g>
<!-- Node3&#45;&gt;Node6 -->
<g id="edge7_Node000003_Node000006" class="edge">
<title>Node3&#45;&gt;Node6</title>
<g id="a_edge7_Node000003_Node000006"><a xlink:title=" ">
<path fill="none" stroke="#63b8ff" d="M275.19,-193.92C270.83,-185.84 266.35,-176.71 263,-168 244.58,-120.05 232.57,-60.1 227.6,-32.37"/>
<polygon fill="#63b8ff" stroke="#63b8ff" points="272.05,-195.49 279.99,-202.51 278.16,-192.07 272.05,-195.49"/>
</a>
</g>
</g>
<!-- Node4&#45;&gt;Node5 -->
<g id="edge4_Node000004_Node000005" class="edge">
<title>Node4&#45;&gt;Node5</title>
<g id="a_edge4_Node000004_Node000005"><a xlink:title=" ">
<path fill="none" stroke="#63b8ff" d="M351.64,-127.71C360.91,-118.59 371.27,-108.37 379.54,-100.22"/>
<polygon fill="#63b8ff" stroke="#63b8ff" points="349.29,-125.12 344.62,-134.63 354.2,-130.11 349.29,-125.12"/>
</a>
</g>
</g>
<!-- Node4&#45;&gt;Node6 -->
<g id="edge6_Node000004_Node000006" class="edge">
<title>Node4&#45;&gt;Node6</title>
<g id="a_edge6_Node000004_Node000006"><a xlink:title=" ">
<path fill="none" stroke="#63b8ff" d="M309.28,-126.64C288.13,-99.13 254.37,-55.21 236.68,-32.19"/>
<polygon fill="#63b8ff" stroke="#63b8ff" points="306.39,-128.63 315.26,-134.43 311.94,-124.37 306.39,-128.63"/>
</a>
</g>
</g>
<!-- Node5&#45;&gt;Node6 -->
<g id="edge5_Node000005_Node000006" class="edge">
<title>Node5&#45;&gt;Node6</title>
<g id="a_edge5_Node000005_Node000006"><a xlink:title=" ">
<path fill="none" stroke="#63b8ff" d="M344.58,-63.42C319.13,-53.54 288.7,-41.73 264.9,-32.49"/>
<polygon fill="#63b8ff" stroke="#63b8ff" points="343.14,-66.62 353.73,-66.98 345.68,-60.1 343.14,-66.62"/>
</a>
</g>
</g>
<!-- Node7&#45;&gt;Node6 -->
<g id="edge10_Node000007_Node000006" class="edge">
<title>Node7&#45;&gt;Node6</title>
<g id="a_edge10_Node000007_Node000006"><a xlink:title=" ">
<path fill="none" stroke="#63b8ff" d="M91.45,-193.21C101.64,-161.23 122.35,-106.28 154,-68 165.9,-53.61 182.75,-41.28 197.05,-32.34"/>
<polygon fill="#63b8ff" stroke="#63b8ff" points="88.21,-191.84 88.62,-202.43 94.9,-193.9 88.21,-191.84"/>
</a>
</g>
</g>
<!-- Node8&#45;&gt;Node2 -->
<g id="edge20_Node000008_Node000002" class="edge">
<title>Node8&#45;&gt;Node2</title>
<g id="a_edge20_Node000008_Node000002"><a xlink:title=" ">
<path fill="none" stroke="#63b8ff" d="M228.07,-397.61C232.39,-389.51 237.04,-380.45 241,-372 251.83,-348.87 262.74,-321.31 269.18,-304.49"/>
<polygon fill="#63b8ff" stroke="#63b8ff" points="225.08,-395.78 223.39,-406.24 231.23,-399.12 225.08,-395.78"/>
</a>
</g>
</g>
<!-- Node8&#45;&gt;Node6 -->
<g id="edge22_Node000008_Node000006" class="edge">
<title>Node8&#45;&gt;Node6</title>
<g id="a_edge22_Node000008_Node000006"><a xlink:title=" ">
<path fill="none" stroke="#63b8ff" d="M281.91,-418.74C363.06,-409.55 488,-380.54 488,-289 488,-289 488,-289 488,-151 488,-112.07 489.02,-93.95 460,-68 432.85,-43.72 333.52,-28.84 273.03,-21.83"/>
<polygon fill="#63b8ff" stroke="#63b8ff" points="281.86,-415.23 272.28,-419.76 282.59,-422.19 281.86,-415.23"/>
</a>
</g>
</g>
<!-- Node8&#45;&gt;Node7 -->
<g id="edge21_Node000008_Node000007" class="edge">
<title>Node8&#45;&gt;Node7</title>
<g id="a_edge21_Node000008_Node000007"><a xlink:title=" ">
<path fill="none" stroke="#63b8ff" d="M150.02,-402.72C135.22,-395.23 120.93,-385.22 111,-372 80.14,-330.9 80.47,-265.94 82.49,-236.47"/>
<polygon fill="#63b8ff" stroke="#63b8ff" points="148.38,-405.82 158.92,-406.87 151.33,-399.47 148.38,-405.82"/>
</a>
</g>
</g>
<!-- Node9 -->
<g id="Node000009" class="node">
<title>Node9</title>
<g id="a_Node000009"><a xlink:href="_commande_8hpp.html" target="_top" xlink:title=" ">
<polygon fill="white" stroke="#666666" points="232.38,-372 119.62,-372 119.62,-340 232.38,-340 232.38,-372"/>
<text text-anchor="start" x="127.62" y="-358.5" font-family="Helvetica,sans-Serif" font-size="10.00">RoutageVoilier/include</text>
<text text-anchor="middle" x="176" y="-346.5" font-family="Helvetica,sans-Serif" font-size="10.00">/Commande.hpp</text>
</a>
</g>
</g>
<!-- Node8&#45;&gt;Node9 -->
<g id="edge16_Node000008_Node000009" class="edge">
<title>Node8&#45;&gt;Node9</title>
<g id="a_edge16_Node000008_Node000009"><a xlink:title=" ">
<path fill="none" stroke="#63b8ff" d="M199.46,-397.74C194.5,-389.14 189.12,-379.79 184.77,-372.22"/>
<polygon fill="#63b8ff" stroke="#63b8ff" points="196.41,-399.46 204.43,-406.38 202.47,-395.97 196.41,-399.46"/>
</a>
</g>
</g>
<!-- Node9&#45;&gt;Node2 -->
<g id="edge17_Node000009_Node000002" class="edge">
<title>Node9&#45;&gt;Node2</title>
<g id="a_edge17_Node000009_Node000002"><a xlink:title=" ">
<path fill="none" stroke="#63b8ff" d="M208.62,-333.25C222.79,-323.81 239.05,-312.97 251.93,-304.38"/>
<polygon fill="#63b8ff" stroke="#63b8ff" points="206.85,-330.23 200.47,-338.69 210.73,-336.05 206.85,-330.23"/>
</a>
</g>
</g>
<!-- Node9&#45;&gt;Node6 -->
<g id="edge19_Node000009_Node000006" class="edge">
<title>Node9&#45;&gt;Node6</title>
<g id="a_edge19_Node000009_Node000006"><a xlink:title=" ">
<path fill="none" stroke="#63b8ff" d="M173.49,-328.55C171.14,-301.54 168,-258.39 168,-221 168,-221 168,-221 168,-151 168,-104.74 197.13,-56.14 213.74,-32.19"/>
<polygon fill="#63b8ff" stroke="#63b8ff" points="169.98,-328.59 174.36,-338.24 176.95,-327.96 169.98,-328.59"/>
</a>
</g>
</g>
<!-- Node9&#45;&gt;Node7 -->
<g id="edge18_Node000009_Node000007" class="edge">
<title>Node9&#45;&gt;Node7</title>
<g id="a_edge18_Node000009_Node000007"><a xlink:title=" ">
<path fill="none" stroke="#63b8ff" d="M159.03,-330.28C140.13,-302.75 110.16,-259.11 94.43,-236.19"/>
<polygon fill="#63b8ff" stroke="#63b8ff" points="156.04,-332.12 164.59,-338.38 161.82,-328.16 156.04,-332.12"/>
</a>
</g>
</g>
</g>
</svg>
