<?xml version="1.0" encoding="UTF-8" standalone="no"?>
<!DOCTYPE svg PUBLIC "-//W3C//DTD SVG 1.1//EN"
 "http://www.w3.org/Graphics/SVG/1.1/DTD/svg11.dtd">
<!-- Generated by graphviz version 10.0.1 (20240210.2158)
 -->
<!-- Title: RoutageVoilier/include/Fonction_csv.hpp Pages: 1 -->
<svg width="496pt" height="584pt"
 viewBox="0.00 0.00 496.00 584.00" xmlns="http://www.w3.org/2000/svg" xmlns:xlink="http://www.w3.org/1999/xlink">
<g id="graph0" class="graph" transform="scale(1 1) rotate(0) translate(4 580)">
<title>RoutageVoilier/include/Fonction_csv.hpp</title>
<!-- Node1 -->
<g id="Node000001" class="node">
<title>Node1</title>
<g id="a_Node000001"><a xlink:title=" ">
<polygon fill="#999999" stroke="#666666" points="239.38,-576 126.62,-576 126.62,-544 239.38,-544 239.38,-576"/>
<text text-anchor="start" x="134.62" y="-562.5" font-family="Helvetica,sans-Serif" font-size="10.00">RoutageVoilier/include</text>
<text text-anchor="middle" x="183" y="-550.5" font-family="Helvetica,sans-Serif" font-size="10.00">/Fonction_csv.hpp</text>
</a>
</g>
</g>
<!-- Node2 -->
<g id="Node000002" class="node">
<title>Node2</title>
<g id="a_Node000002"><a xlink:href="_polaire_8hpp.html" target="_top" xlink:title=" ">
<polygon fill="white" stroke="#666666" points="403.38,-508 290.62,-508 290.62,-476 403.38,-476 403.38,-508"/>
<text text-anchor="start" x="298.62" y="-494.5" font-family="Helvetica,sans-Serif" font-size="10.00">RoutageVoilier/include</text>
<text text-anchor="middle" x="347" y="-482.5" font-family="Helvetica,sans-Serif" font-size="10.00">/Polaire.hpp</text>
</a>
</g>
</g>
<!-- Node1&#45;&gt;Node2 -->
<g id="edge1_Node000001_Node000002" class="edge">
<title>Node1&#45;&gt;Node2</title>
<g id="a_edge1_Node000001_Node000002"><a xlink:title=" ">
<path fill="none" stroke="#63b8ff" d="M231.97,-539.29C256.46,-529.44 285.65,-517.69 308.51,-508.49"/>
<polygon fill="#63b8ff" stroke="#63b8ff" points="230.83,-535.98 222.85,-542.96 233.44,-542.47 230.83,-535.98"/>
</a>
</g>
</g>
<!-- Node9 -->
<g id="Node000009" class="node">
<title>Node9</title>
<g id="a_Node000009"><a xlink:href="main_8cpp.html" target="_top" xlink:title=" ">
<polygon fill="white" stroke="#666666" points="291.75,-32 196.25,-32 196.25,0 291.75,0 291.75,-32"/>
<text text-anchor="start" x="204.25" y="-18.5" font-family="Helvetica,sans-Serif" font-size="10.00">RoutageVoilier/src</text>
<text text-anchor="middle" x="244" y="-6.5" font-family="Helvetica,sans-Serif" font-size="10.00">/main.cpp</text>
</a>
</g>
</g>
<!-- Node1&#45;&gt;Node9 -->
<g id="edge22_Node000001_Node000009" class="edge">
<title>Node1&#45;&gt;Node9</title>
<g id="a_edge22_Node000001_Node000009"><a xlink:title=" ">
<path fill="none" stroke="#63b8ff" d="M115.99,-539.91C63.75,-520.44 0,-484.5 0,-425 0,-425 0,-425 0,-151 0,-110.97 4.52,-93.96 35,-68 80.07,-29.61 149.44,-19.21 195.75,-16.85"/>
<polygon fill="#63b8ff" stroke="#63b8ff" points="114.58,-543.12 125.18,-543.19 116.94,-536.53 114.58,-543.12"/>
</a>
</g>
</g>
<!-- Node3 -->
<g id="Node000003" class="node">
<title>Node3</title>
<g id="a_Node000003"><a xlink:href="_voilier_8hpp.html" target="_top" xlink:title=" ">
<polygon fill="white" stroke="#666666" points="403.38,-440 290.62,-440 290.62,-408 403.38,-408 403.38,-440"/>
<text text-anchor="start" x="298.62" y="-426.5" font-family="Helvetica,sans-Serif" font-size="10.00">RoutageVoilier/include</text>
<text text-anchor="middle" x="347" y="-414.5" font-family="Helvetica,sans-Serif" font-size="10.00">/Voilier.hpp</text>
</a>
</g>
</g>
<!-- Node2&#45;&gt;Node3 -->
<g id="edge2_Node000002_Node000003" class="edge">
<title>Node2&#45;&gt;Node3</title>
<g id="a_edge2_Node000002_Node000003"><a xlink:title=" ">
<path fill="none" stroke="#63b8ff" d="M347,-464.31C347,-456.12 347,-447.38 347,-440.22"/>
<polygon fill="#63b8ff" stroke="#63b8ff" points="343.5,-464.18 347,-474.18 350.5,-464.18 343.5,-464.18"/>
</a>
</g>
</g>
<!-- Node2&#45;&gt;Node9 -->
<g id="edge21_Node000002_Node000009" class="edge">
<title>Node2&#45;&gt;Node9</title>
<g id="a_edge21_Node000002_Node000009"><a xlink:title=" ">
<path fill="none" stroke="#63b8ff" d="M393.45,-470.43C434.53,-448.72 488,-410.24 488,-357 488,-357 488,-357 488,-151 488,-62.56 363.32,-32.09 292.21,-21.9"/>
<polygon fill="#63b8ff" stroke="#63b8ff" points="391.99,-467.25 384.66,-474.9 395.16,-473.49 391.99,-467.25"/>
</a>
</g>
</g>
<!-- Node4 -->
<g id="Node000004" class="node">
<title>Node4</title>
<g id="a_Node000004"><a xlink:href="_commande_8hpp.html" target="_top" xlink:title=" ">
<polygon fill="white" stroke="#666666" points="300.38,-372 187.62,-372 187.62,-340 300.38,-340 300.38,-372"/>
<text text-anchor="start" x="195.62" y="-358.5" font-family="Helvetica,sans-Serif" font-size="10.00">RoutageVoilier/include</text>
<text text-anchor="middle" x="244" y="-346.5" font-family="Helvetica,sans-Serif" font-size="10.00">/Commande.hpp</text>
</a>
</g>
</g>
<!-- Node3&#45;&gt;Node4 -->
<g id="edge3_Node000003_Node000004" class="edge">
<title>Node3&#45;&gt;Node4</title>
<g id="a_edge3_Node000003_Node000004"><a xlink:title=" ">
<path fill="none" stroke="#63b8ff" d="M313.49,-401.53C298.65,-392.02 281.53,-381.05 268,-372.38"/>
<polygon fill="#63b8ff" stroke="#63b8ff" points="311.27,-404.26 321.58,-406.71 315.05,-398.37 311.27,-404.26"/>
</a>
</g>
</g>
<!-- Node5 -->
<g id="Node000005" class="node">
<title>Node5</title>
<g id="a_Node000005"><a xlink:href="_dynamique_8hpp.html" target="_top" xlink:title=" ">
<polygon fill="white" stroke="#666666" points="300.38,-304 187.62,-304 187.62,-272 300.38,-272 300.38,-304"/>
<text text-anchor="start" x="195.62" y="-290.5" font-family="Helvetica,sans-Serif" font-size="10.00">RoutageVoilier/include</text>
<text text-anchor="middle" x="244" y="-278.5" font-family="Helvetica,sans-Serif" font-size="10.00">/Dynamique.hpp</text>
</a>
</g>
</g>
<!-- Node3&#45;&gt;Node5 -->
<g id="edge18_Node000003_Node000005" class="edge">
<title>Node3&#45;&gt;Node5</title>
<g id="a_edge18_Node000003_Node000005"><a xlink:title=" ">
<path fill="none" stroke="#63b8ff" d="M338.82,-397.23C332.49,-379.89 322.52,-357.15 309,-340 297.9,-325.92 282.14,-313.43 268.92,-304.33"/>
<polygon fill="#63b8ff" stroke="#63b8ff" points="335.39,-398 341.96,-406.3 342,-395.71 335.39,-398"/>
</a>
</g>
</g>
<!-- Node3&#45;&gt;Node9 -->
<g id="edge20_Node000003_Node000009" class="edge">
<title>Node3&#45;&gt;Node9</title>
<g id="a_edge20_Node000003_Node000009"><a xlink:title=" ">
<path fill="none" stroke="#63b8ff" d="M379.1,-400.79C409.33,-376.99 450,-336.2 450,-289 450,-289 450,-289 450,-151 450,-76.02 352.91,-40.83 292.04,-26.14"/>
<polygon fill="#63b8ff" stroke="#63b8ff" points="377.17,-397.87 371.32,-406.7 381.4,-403.44 377.17,-397.87"/>
</a>
</g>
</g>
<!-- Node10 -->
<g id="Node000010" class="node">
<title>Node10</title>
<g id="a_Node000010"><a xlink:href="_simulateur_8hpp.html" target="_top" xlink:title=" ">
<polygon fill="white" stroke="#666666" points="422.38,-236 309.62,-236 309.62,-204 422.38,-204 422.38,-236"/>
<text text-anchor="start" x="317.62" y="-222.5" font-family="Helvetica,sans-Serif" font-size="10.00">RoutageVoilier/include</text>
<text text-anchor="middle" x="366" y="-210.5" font-family="Helvetica,sans-Serif" font-size="10.00">/Simulateur.hpp</text>
</a>
</g>
</g>
<!-- Node3&#45;&gt;Node10 -->
<g id="edge19_Node000003_Node000010" class="edge">
<title>Node3&#45;&gt;Node10</title>
<g id="a_edge19_Node000003_Node000010"><a xlink:title=" ">
<path fill="none" stroke="#63b8ff" d="M349.5,-396.38C353.53,-353.53 361.33,-270.6 364.56,-236.36"/>
<polygon fill="#63b8ff" stroke="#63b8ff" points="346.02,-396.03 348.57,-406.31 352.99,-396.68 346.02,-396.03"/>
</a>
</g>
</g>
<!-- Node4&#45;&gt;Node5 -->
<g id="edge4_Node000004_Node000005" class="edge">
<title>Node4&#45;&gt;Node5</title>
<g id="a_edge4_Node000004_Node000005"><a xlink:title=" ">
<path fill="none" stroke="#63b8ff" d="M244,-328.31C244,-320.12 244,-311.38 244,-304.22"/>
<polygon fill="#63b8ff" stroke="#63b8ff" points="240.5,-328.18 244,-338.18 247.5,-328.18 240.5,-328.18"/>
</a>
</g>
</g>
<!-- Node4&#45;&gt;Node9 -->
<g id="edge17_Node000004_Node000009" class="edge">
<title>Node4&#45;&gt;Node9</title>
<g id="a_edge17_Node000004_Node000009"><a xlink:title=" ">
<path fill="none" stroke="#63b8ff" d="M176.19,-340.66C116.16,-323.51 38,-288.28 38,-221 38,-221 38,-221 38,-151 38,-113.16 30.8,-95.3 57,-68 93,-30.49 153.66,-19.68 196.1,-17"/>
<polygon fill="#63b8ff" stroke="#63b8ff" points="175.14,-344 185.7,-343.25 176.98,-337.24 175.14,-344"/>
</a>
</g>
</g>
<!-- Node4&#45;&gt;Node10 -->
<g id="edge16_Node000004_Node000010" class="edge">
<title>Node4&#45;&gt;Node10</title>
<g id="a_edge16_Node000004_Node000010"><a xlink:title=" ">
<path fill="none" stroke="#63b8ff" d="M276.06,-332.92C287.12,-324.53 299.18,-314.46 309,-304 328.98,-282.71 347.15,-253.88 357.37,-236.4"/>
<polygon fill="#63b8ff" stroke="#63b8ff" points="274.27,-329.89 268.3,-338.64 278.42,-335.53 274.27,-329.89"/>
</a>
</g>
</g>
<!-- Node6 -->
<g id="Node000006" class="node">
<title>Node6</title>
<g id="a_Node000006"><a xlink:href="_flux_8hpp.html" target="_top" xlink:title=" ">
<polygon fill="white" stroke="#666666" points="254.38,-236 141.62,-236 141.62,-204 254.38,-204 254.38,-236"/>
<text text-anchor="start" x="149.62" y="-222.5" font-family="Helvetica,sans-Serif" font-size="10.00">RoutageVoilier/include</text>
<text text-anchor="middle" x="198" y="-210.5" font-family="Helvetica,sans-Serif" font-size="10.00">/Flux.hpp</text>
</a>
</g>
</g>
<!-- Node5&#45;&gt;Node6 -->
<g id="edge5_Node000005_Node000006" class="edge">
<title>Node5&#45;&gt;Node6</title>
<g id="a_edge5_Node000005_Node000006"><a xlink:title=" ">
<path fill="none" stroke="#63b8ff" d="M226.79,-262.3C220.69,-253.55 214,-243.96 208.61,-236.22"/>
<polygon fill="#63b8ff" stroke="#63b8ff" points="223.88,-264.25 232.47,-270.45 229.62,-260.25 223.88,-264.25"/>
</a>
</g>
</g>
<!-- Node7 -->
<g id="Node000007" class="node">
<title>Node7</title>
<g id="a_Node000007"><a xlink:href="_h_j_b_8hpp.html" target="_top" xlink:title=" ">
<polygon fill="white" stroke="#666666" points="216.38,-168 103.62,-168 103.62,-136 216.38,-136 216.38,-168"/>
<text text-anchor="start" x="111.62" y="-154.5" font-family="Helvetica,sans-Serif" font-size="10.00">RoutageVoilier/include</text>
<text text-anchor="middle" x="160" y="-142.5" font-family="Helvetica,sans-Serif" font-size="10.00">/HJB.hpp</text>
</a>
</g>
</g>
<!-- Node5&#45;&gt;Node7 -->
<g id="edge11_Node000005_Node000007" class="edge">
<title>Node5&#45;&gt;Node7</title>
<g id="a_edge11_Node000005_Node000007"><a xlink:title=" ">
<path fill="none" stroke="#63b8ff" d="M177.18,-270.61C159.87,-263.01 143.24,-251.97 133,-236 119.34,-214.7 134.99,-185.87 147.53,-168.4"/>
<polygon fill="#63b8ff" stroke="#63b8ff" points="175.42,-273.67 186,-274.13 178.02,-267.17 175.42,-273.67"/>
</a>
</g>
</g>
<!-- Node8 -->
<g id="Node000008" class="node">
<title>Node8</title>
<g id="a_Node000008"><a xlink:href="route__optimale_8hpp.html" target="_top" xlink:title=" ">
<polygon fill="white" stroke="#666666" points="178.38,-100 65.62,-100 65.62,-68 178.38,-68 178.38,-100"/>
<text text-anchor="start" x="73.62" y="-86.5" font-family="Helvetica,sans-Serif" font-size="10.00">RoutageVoilier/include</text>
<text text-anchor="middle" x="122" y="-74.5" font-family="Helvetica,sans-Serif" font-size="10.00">/route_optimale.hpp</text>
</a>
</g>
</g>
<!-- Node5&#45;&gt;Node8 -->
<g id="edge14_Node000005_Node000008" class="edge">
<title>Node5&#45;&gt;Node8</title>
<g id="a_edge14_Node000005_Node000008"><a xlink:title=" ">
<path fill="none" stroke="#63b8ff" d="M176.55,-269.25C157.35,-261.56 137.7,-250.82 123,-236 90.5,-203.23 83.87,-180.79 95,-136 98.19,-123.17 105.27,-110.01 111.38,-100.27"/>
<polygon fill="#63b8ff" stroke="#63b8ff" points="175.12,-272.45 185.71,-272.68 177.57,-265.89 175.12,-272.45"/>
</a>
</g>
</g>
<!-- Node5&#45;&gt;Node9 -->
<g id="edge15_Node000005_Node000009" class="edge">
<title>Node5&#45;&gt;Node9</title>
<g id="a_edge15_Node000005_Node000009"><a xlink:title=" ">
<path fill="none" stroke="#63b8ff" d="M255.6,-261.32C258.63,-253.37 261.47,-244.47 263,-236 276.64,-160.32 257.04,-68.1 248.07,-32.26"/>
<polygon fill="#63b8ff" stroke="#63b8ff" points="252.44,-259.8 251.88,-270.38 258.91,-262.46 252.44,-259.8"/>
</a>
</g>
</g>
<!-- Node5&#45;&gt;Node10 -->
<g id="edge12_Node000005_Node000010" class="edge">
<title>Node5&#45;&gt;Node10</title>
<g id="a_edge12_Node000005_Node000010"><a xlink:title=" ">
<path fill="none" stroke="#63b8ff" d="M282.69,-266.07C300.5,-256.44 321.24,-245.21 337.58,-236.38"/>
<polygon fill="#63b8ff" stroke="#63b8ff" points="281.06,-262.97 273.93,-270.81 284.4,-269.13 281.06,-262.97"/>
</a>
</g>
</g>
<!-- Node6&#45;&gt;Node7 -->
<g id="edge6_Node000006_Node000007" class="edge">
<title>Node6&#45;&gt;Node7</title>
<g id="a_edge6_Node000006_Node000007"><a xlink:title=" ">
<path fill="none" stroke="#63b8ff" d="M183.46,-193.74C178.5,-185.14 173.12,-175.79 168.77,-168.22"/>
<polygon fill="#63b8ff" stroke="#63b8ff" points="180.41,-195.46 188.43,-202.38 186.47,-191.97 180.41,-195.46"/>
</a>
</g>
</g>
<!-- Node6&#45;&gt;Node9 -->
<g id="edge10_Node000006_Node000009" class="edge">
<title>Node6&#45;&gt;Node9</title>
<g id="a_edge10_Node000006_Node000009"><a xlink:title=" ">
<path fill="none" stroke="#63b8ff" d="M213.66,-193.79C217.98,-185.8 222.23,-176.77 225,-168 240.12,-120.13 243.26,-60.14 243.88,-32.39"/>
<polygon fill="#63b8ff" stroke="#63b8ff" points="210.74,-191.84 208.81,-202.26 216.82,-195.31 210.74,-191.84"/>
</a>
</g>
</g>
<!-- Node7&#45;&gt;Node8 -->
<g id="edge7_Node000007_Node000008" class="edge">
<title>Node7&#45;&gt;Node8</title>
<g id="a_edge7_Node000007_Node000008"><a xlink:title=" ">
<path fill="none" stroke="#63b8ff" d="M145.46,-125.74C140.5,-117.14 135.12,-107.79 130.77,-100.22"/>
<polygon fill="#63b8ff" stroke="#63b8ff" points="142.41,-127.46 150.43,-134.38 148.47,-123.97 142.41,-127.46"/>
</a>
</g>
</g>
<!-- Node7&#45;&gt;Node9 -->
<g id="edge9_Node000007_Node000009" class="edge">
<title>Node7&#45;&gt;Node9</title>
<g id="a_edge9_Node000007_Node000009"><a xlink:title=" ">
<path fill="none" stroke="#63b8ff" d="M175.72,-125.92C192.99,-98.37 220.18,-55.01 234.48,-32.19"/>
<polygon fill="#63b8ff" stroke="#63b8ff" points="172.79,-124.01 170.44,-134.35 178.72,-127.73 172.79,-124.01"/>
</a>
</g>
</g>
<!-- Node8&#45;&gt;Node9 -->
<g id="edge8_Node000008_Node000009" class="edge">
<title>Node8&#45;&gt;Node9</title>
<g id="a_edge8_Node000008_Node000009"><a xlink:title=" ">
<path fill="none" stroke="#63b8ff" d="M160.69,-62.07C178.5,-52.44 199.24,-41.21 215.58,-32.38"/>
<polygon fill="#63b8ff" stroke="#63b8ff" points="159.06,-58.97 151.93,-66.81 162.4,-65.13 159.06,-58.97"/>
</a>
</g>
</g>
<!-- Node10&#45;&gt;Node9 -->
<g id="edge13_Node000010_Node000009" class="edge">
<title>Node10&#45;&gt;Node9</title>
<g id="a_edge13_Node000010_Node000009"><a xlink:title=" ">
<path fill="none" stroke="#63b8ff" d="M357.25,-193.05C345.96,-161.71 324.37,-108.19 296,-68 286.52,-54.57 273.26,-41.63 262.5,-32.14"/>
<polygon fill="#63b8ff" stroke="#63b8ff" points="353.94,-194.2 360.56,-202.48 360.55,-191.88 353.94,-194.2"/>
</a>
</g>
</g>
</g>
</svg>
