<?xml version="1.0" encoding="UTF-8" standalone="no"?>
<!DOCTYPE svg PUBLIC "-//W3C//DTD SVG 1.1//EN"
 "http://www.w3.org/Graphics/SVG/1.1/DTD/svg11.dtd">
<!-- Generated by graphviz version 10.0.1 (20240210.2158)
 -->
<!-- Title: RoutageVoilier/include/Fonction_csv.hpp Pages: 1 -->
<svg width="514pt" height="152pt"
 viewBox="0.00 0.00 513.62 152.00" xmlns="http://www.w3.org/2000/svg" xmlns:xlink="http://www.w3.org/1999/xlink">
<g id="graph0" class="graph" transform="scale(1 1) rotate(0) translate(4 148)">
<title>RoutageVoilier/include/Fonction_csv.hpp</title>
<!-- Node1 -->
<g id="Node000001" class="node">
<title>Node1</title>
<g id="a_Node000001"><a xlink:title=" ">
<polygon fill="#999999" stroke="#666666" points="300.12,-144 187.38,-144 187.38,-112 300.12,-112 300.12,-144"/>
<text text-anchor="start" x="195.38" y="-130.5" font-family="Helvetica,sans-Serif" font-size="10.00">RoutageVoilier/include</text>
<text text-anchor="middle" x="243.75" y="-118.5" font-family="Helvetica,sans-Serif" font-size="10.00">/Fonction_csv.hpp</text>
</a>
</g>
</g>
<!-- Node2 -->
<g id="Node000002" class="node">
<title>Node2</title>
<g id="a_Node000002"><a xlink:title=" ">
<polygon fill="#e0e0e0" stroke="#999999" points="53.5,-20 0,-20 0,0 53.5,0 53.5,-20"/>
<text text-anchor="middle" x="26.75" y="-6.5" font-family="Helvetica,sans-Serif" font-size="10.00">iostream</text>
</a>
</g>
</g>
<!-- Node1&#45;&gt;Node2 -->
<g id="edge1_Node000001_Node000002" class="edge">
<title>Node1&#45;&gt;Node2</title>
<g id="a_edge1_Node000001_Node000002"><a xlink:title=" ">
<path fill="none" stroke="#63b8ff" d="M214.74,-111.64C195.69,-101.53 170.22,-88.01 147.75,-76 115.69,-58.87 78.9,-39.09 54.39,-25.9"/>
<polygon fill="#63b8ff" stroke="#63b8ff" points="56.17,-22.88 45.7,-21.22 52.85,-29.04 56.17,-22.88"/>
</a>
</g>
</g>
<!-- Node3 -->
<g id="Node000003" class="node">
<title>Node3</title>
<g id="a_Node000003"><a xlink:title=" ">
<polygon fill="#e0e0e0" stroke="#999999" points="111.75,-20 71.75,-20 71.75,0 111.75,0 111.75,-20"/>
<text text-anchor="middle" x="91.75" y="-6.5" font-family="Helvetica,sans-Serif" font-size="10.00">string</text>
</a>
</g>
</g>
<!-- Node1&#45;&gt;Node3 -->
<g id="edge2_Node000001_Node000003" class="edge">
<title>Node1&#45;&gt;Node3</title>
<g id="a_edge2_Node000001_Node000003"><a xlink:title=" ">
<path fill="none" stroke="#63b8ff" d="M223.51,-111.61C210.21,-101.5 192.44,-87.97 176.75,-76 154.94,-59.36 130.01,-40.29 112.82,-27.13"/>
<polygon fill="#63b8ff" stroke="#63b8ff" points="115.4,-24.7 105.33,-21.4 111.15,-30.26 115.4,-24.7"/>
</a>
</g>
</g>
<!-- Node4 -->
<g id="Node000004" class="node">
<title>Node4</title>
<g id="a_Node000004"><a xlink:title=" ">
<polygon fill="#e0e0e0" stroke="#999999" points="171.5,-20 130,-20 130,0 171.5,0 171.5,-20"/>
<text text-anchor="middle" x="150.75" y="-6.5" font-family="Helvetica,sans-Serif" font-size="10.00">vector</text>
</a>
</g>
</g>
<!-- Node1&#45;&gt;Node4 -->
<g id="edge3_Node000001_Node000004" class="edge">
<title>Node1&#45;&gt;Node4</title>
<g id="a_edge3_Node000001_Node000004"><a xlink:title=" ">
<path fill="none" stroke="#63b8ff" d="M227.57,-111.56C217.65,-101.77 204.94,-88.6 194.75,-76 182.71,-61.12 170.64,-43 162.19,-29.68"/>
<polygon fill="#63b8ff" stroke="#63b8ff" points="165.33,-28.09 157.07,-21.46 159.39,-31.8 165.33,-28.09"/>
</a>
</g>
</g>
<!-- Node5 -->
<g id="Node000005" class="node">
<title>Node5</title>
<g id="a_Node000005"><a xlink:title=" ">
<polygon fill="#e0e0e0" stroke="#999999" points="234,-20 189.5,-20 189.5,0 234,0 234,-20"/>
<text text-anchor="middle" x="211.75" y="-6.5" font-family="Helvetica,sans-Serif" font-size="10.00">cstdlib</text>
</a>
</g>
</g>
<!-- Node1&#45;&gt;Node5 -->
<g id="edge4_Node000001_Node000005" class="edge">
<title>Node1&#45;&gt;Node5</title>
<g id="a_edge4_Node000001_Node000005"><a xlink:title=" ">
<path fill="none" stroke="#63b8ff" d="M225.62,-111.51C216.25,-102.28 205.76,-89.71 200.75,-76 195.4,-61.35 198.86,-43.88 203.27,-30.74"/>
<polygon fill="#63b8ff" stroke="#63b8ff" points="206.5,-32.1 206.82,-21.51 199.96,-29.59 206.5,-32.1"/>
</a>
</g>
</g>
<!-- Node6 -->
<g id="Node000006" class="node">
<title>Node6</title>
<g id="a_Node000006"><a xlink:title=" ">
<polygon fill="#e0e0e0" stroke="#999999" points="295.25,-20 252.25,-20 252.25,0 295.25,0 295.25,-20"/>
<text text-anchor="middle" x="273.75" y="-6.5" font-family="Helvetica,sans-Serif" font-size="10.00">cmath</text>
</a>
</g>
</g>
<!-- Node1&#45;&gt;Node6 -->
<g id="edge5_Node000001_Node000006" class="edge">
<title>Node1&#45;&gt;Node6</title>
<g id="a_edge5_Node000001_Node000006"><a xlink:title=" ">
<path fill="none" stroke="#63b8ff" d="M261.88,-111.51C271.25,-102.28 281.74,-89.71 286.75,-76 292.19,-61.12 288.02,-43.44 283,-30.29"/>
<polygon fill="#63b8ff" stroke="#63b8ff" points="286.37,-29.25 279.19,-21.46 279.94,-32.03 286.37,-29.25"/>
</a>
</g>
</g>
<!-- Node7 -->
<g id="Node000007" class="node">
<title>Node7</title>
<g id="a_Node000007"><a xlink:title=" ">
<polygon fill="#e0e0e0" stroke="#999999" points="361.88,-20 313.62,-20 313.62,0 361.88,0 361.88,-20"/>
<text text-anchor="middle" x="337.75" y="-6.5" font-family="Helvetica,sans-Serif" font-size="10.00">fstream</text>
</a>
</g>
</g>
<!-- Node1&#45;&gt;Node7 -->
<g id="edge6_Node000001_Node000007" class="edge">
<title>Node1&#45;&gt;Node7</title>
<g id="a_edge6_Node000001_Node000007"><a xlink:title=" ">
<path fill="none" stroke="#63b8ff" d="M265.12,-111.64C277.16,-102.27 291.91,-89.52 302.75,-76 313.9,-62.1 323.27,-44.12 329.49,-30.59"/>
<polygon fill="#63b8ff" stroke="#63b8ff" points="332.51,-32.42 333.35,-21.85 326.11,-29.59 332.51,-32.42"/>
</a>
</g>
</g>
<!-- Node8 -->
<g id="Node000008" class="node">
<title>Node8</title>
<g id="a_Node000008"><a xlink:title=" ">
<polygon fill="#e0e0e0" stroke="#999999" points="431.38,-20 380.12,-20 380.12,0 431.38,0 431.38,-20"/>
<text text-anchor="middle" x="405.75" y="-6.5" font-family="Helvetica,sans-Serif" font-size="10.00">sstream</text>
</a>
</g>
</g>
<!-- Node1&#45;&gt;Node8 -->
<g id="edge7_Node000001_Node000008" class="edge">
<title>Node1&#45;&gt;Node8</title>
<g id="a_edge7_Node000001_Node000008"><a xlink:title=" ">
<path fill="none" stroke="#63b8ff" d="M269.41,-111.57C285.32,-101.78 306.04,-88.61 323.75,-76 345.64,-60.41 369.62,-41.12 385.96,-27.63"/>
<polygon fill="#63b8ff" stroke="#63b8ff" points="388.01,-30.47 393.46,-21.39 383.54,-25.09 388.01,-30.47"/>
</a>
</g>
</g>
<!-- Node9 -->
<g id="Node000009" class="node">
<title>Node9</title>
<g id="a_Node000009"><a xlink:title=" ">
<polygon fill="#e0e0e0" stroke="#999999" points="505.62,-20 449.88,-20 449.88,0 505.62,0 505.62,-20"/>
<text text-anchor="middle" x="477.75" y="-6.5" font-family="Helvetica,sans-Serif" font-size="10.00">algorithm</text>
</a>
</g>
</g>
<!-- Node1&#45;&gt;Node9 -->
<g id="edge8_Node000001_Node000009" class="edge">
<title>Node1&#45;&gt;Node9</title>
<g id="a_edge8_Node000001_Node000009"><a xlink:title=" ">
<path fill="none" stroke="#63b8ff" d="M276.65,-111.61C297.87,-101.62 326.03,-88.22 350.75,-76 384.95,-59.1 423.96,-39.01 449.62,-25.69"/>
<polygon fill="#63b8ff" stroke="#63b8ff" points="451.15,-28.84 458.4,-21.12 447.92,-22.63 451.15,-28.84"/>
</a>
</g>
</g>
<!-- Node10 -->
<g id="Node000010" class="node">
<title>Node10</title>
<g id="a_Node000010"><a xlink:href="_vecteur_8hpp.html" target="_top" xlink:title=" ">
<polygon fill="white" stroke="#666666" points="278,-76 209.5,-76 209.5,-56 278,-56 278,-76"/>
<text text-anchor="middle" x="243.75" y="-62.5" font-family="Helvetica,sans-Serif" font-size="10.00">Vecteur.hpp</text>
</a>
</g>
</g>
<!-- Node1&#45;&gt;Node10 -->
<g id="edge9_Node000001_Node000010" class="edge">
<title>Node1&#45;&gt;Node10</title>
<g id="a_edge9_Node000001_Node000010"><a xlink:title=" ">
<path fill="none" stroke="#63b8ff" d="M243.75,-111.55C243.75,-104.34 243.75,-95.66 243.75,-87.88"/>
<polygon fill="#63b8ff" stroke="#63b8ff" points="247.25,-87.92 243.75,-77.92 240.25,-87.92 247.25,-87.92"/>
</a>
</g>
</g>
<!-- Node10&#45;&gt;Node2 -->
<g id="edge10_Node000010_Node000002" class="edge">
<title>Node10&#45;&gt;Node2</title>
<g id="a_edge10_Node000010_Node000002"><a xlink:title=" ">
<path fill="none" stroke="#63b8ff" d="M209.05,-56.39C174.82,-47.89 120.71,-34.44 64.72,-20.49"/>
<polygon fill="#63b8ff" stroke="#63b8ff" points="65.89,-17.17 55.34,-18.15 64.2,-23.97 65.89,-17.17"/>
</a>
</g>
</g>
<!-- Node10&#45;&gt;Node3 -->
<g id="edge11_Node000010_Node000003" class="edge">
<title>Node10&#45;&gt;Node3</title>
<g id="a_edge11_Node000010_Node000003"><a xlink:title=" ">
<path fill="none" stroke="#63b8ff" d="M217.27,-55.59C190.96,-46.25 150.62,-31.91 122.8,-22.03"/>
<polygon fill="#63b8ff" stroke="#63b8ff" points="124.11,-18.78 113.52,-18.73 121.77,-25.38 124.11,-18.78"/>
</a>
</g>
</g>
<!-- Node10&#45;&gt;Node4 -->
<g id="edge12_Node000010_Node000004" class="edge">
<title>Node10&#45;&gt;Node4</title>
<g id="a_edge12_Node000010_Node000004"><a xlink:title=" ">
<path fill="none" stroke="#63b8ff" d="M227.55,-55.59C213.5,-47.44 192.92,-35.48 176.59,-26"/>
<polygon fill="#63b8ff" stroke="#63b8ff" points="178.79,-23.23 168.38,-21.24 175.28,-29.29 178.79,-23.23"/>
</a>
</g>
</g>
<!-- Node10&#45;&gt;Node5 -->
<g id="edge13_Node000010_Node000005" class="edge">
<title>Node10&#45;&gt;Node5</title>
<g id="a_edge13_Node000010_Node000005"><a xlink:title=" ">
<path fill="none" stroke="#63b8ff" d="M238.18,-55.59C234,-48.55 228.15,-38.67 223.01,-30"/>
<polygon fill="#63b8ff" stroke="#63b8ff" points="226.14,-28.42 218.03,-21.6 220.12,-31.99 226.14,-28.42"/>
</a>
</g>
</g>
<!-- Node10&#45;&gt;Node6 -->
<g id="edge14_Node000010_Node000006" class="edge">
<title>Node10&#45;&gt;Node6</title>
<g id="a_edge14_Node000010_Node000006"><a xlink:title=" ">
<path fill="none" stroke="#63b8ff" d="M248.98,-55.59C252.85,-48.63 258.26,-38.89 263.03,-30.29"/>
<polygon fill="#63b8ff" stroke="#63b8ff" points="266.05,-32.06 267.85,-21.62 259.93,-28.66 266.05,-32.06"/>
</a>
</g>
</g>
<!-- Node10&#45;&gt;Node7 -->
<g id="edge15_Node000010_Node000007" class="edge">
<title>Node10&#45;&gt;Node7</title>
<g id="a_edge15_Node000010_Node000007"><a xlink:title=" ">
<path fill="none" stroke="#63b8ff" d="M260.12,-55.59C274.32,-47.44 295.13,-35.48 311.63,-26"/>
<polygon fill="#63b8ff" stroke="#63b8ff" points="313.01,-29.25 319.94,-21.23 309.52,-23.18 313.01,-29.25"/>
</a>
</g>
</g>
<!-- Node10&#45;&gt;Node8 -->
<g id="edge16_Node000010_Node000008" class="edge">
<title>Node10&#45;&gt;Node8</title>
<g id="a_edge16_Node000010_Node000008"><a xlink:title=" ">
<path fill="none" stroke="#63b8ff" d="M271.97,-55.59C298.9,-46.62 339.61,-33.05 369.05,-23.23"/>
<polygon fill="#63b8ff" stroke="#63b8ff" points="369.91,-26.64 378.29,-20.15 367.7,-19.99 369.91,-26.64"/>
</a>
</g>
</g>
<!-- Node10&#45;&gt;Node9 -->
<g id="edge17_Node000010_Node000009" class="edge">
<title>Node10&#45;&gt;Node9</title>
<g id="a_edge17_Node000010_Node000009"><a xlink:title=" ">
<path fill="none" stroke="#63b8ff" d="M278.3,-57.26C315.44,-48.91 376.48,-35.09 438.33,-20.55"/>
<polygon fill="#63b8ff" stroke="#63b8ff" points="439.07,-23.97 448,-18.27 437.47,-17.15 439.07,-23.97"/>
</a>
</g>
</g>
</g>
</svg>
