<?xml version="1.0" encoding="UTF-8" standalone="no"?>
<!DOCTYPE svg PUBLIC "-//W3C//DTD SVG 1.1//EN"
 "http://www.w3.org/Graphics/SVG/1.1/DTD/svg11.dtd">
<!-- Generated by graphviz version 10.0.1 (20240210.2158)
 -->
<!-- Title: RoutageVoilier/include/Fonction_externes.hpp Pages: 1 -->
<svg width="1576pt" height="320pt"
 viewBox="0.00 0.00 1576.00 320.00" xmlns="http://www.w3.org/2000/svg" xmlns:xlink="http://www.w3.org/1999/xlink">
<g id="graph0" class="graph" transform="scale(1 1) rotate(0) translate(4 316)">
<title>RoutageVoilier/include/Fonction_externes.hpp</title>
<!-- Node1 -->
<g id="Node000001" class="node">
<title>Node1</title>
<g id="a_Node000001"><a xlink:title=" ">
<polygon fill="#999999" stroke="#666666" points="908,-312 790,-312 790,-280 908,-280 908,-312"/>
<text text-anchor="start" x="798" y="-298.5" font-family="Helvetica,sans-Serif" font-size="10.00">RoutageVoilier/include</text>
<text text-anchor="middle" x="849" y="-286.5" font-family="Helvetica,sans-Serif" font-size="10.00">/Fonction_externes.hpp</text>
</a>
</g>
</g>
<!-- Node2 -->
<g id="Node000002" class="node">
<title>Node2</title>
<g id="a_Node000002"><a xlink:title=" ">
<polygon fill="#e0e0e0" stroke="#999999" points="121.75,-20 68.25,-20 68.25,0 121.75,0 121.75,-20"/>
<text text-anchor="middle" x="95" y="-6.5" font-family="Helvetica,sans-Serif" font-size="10.00">iostream</text>
</a>
</g>
</g>
<!-- Node1&#45;&gt;Node2 -->
<g id="edge1_Node000001_Node000002" class="edge">
<title>Node1&#45;&gt;Node2</title>
<g id="a_edge1_Node000001_Node000002"><a xlink:title=" ">
<path fill="none" stroke="#63b8ff" d="M789.64,-293.14C596.74,-286.34 0,-258.82 0,-179 0,-179 0,-179 0,-121 0,-78.97 40.21,-45.07 68.31,-26.51"/>
<polygon fill="#63b8ff" stroke="#63b8ff" points="70.15,-29.49 76.74,-21.19 66.41,-23.57 70.15,-29.49"/>
</a>
</g>
</g>
<!-- Node3 -->
<g id="Node000003" class="node">
<title>Node3</title>
<g id="a_Node000003"><a xlink:title=" ">
<polygon fill="#e0e0e0" stroke="#999999" points="343,-20 303,-20 303,0 343,0 343,-20"/>
<text text-anchor="middle" x="323" y="-6.5" font-family="Helvetica,sans-Serif" font-size="10.00">string</text>
</a>
</g>
</g>
<!-- Node1&#45;&gt;Node3 -->
<g id="edge2_Node000001_Node000003" class="edge">
<title>Node1&#45;&gt;Node3</title>
<g id="a_edge2_Node000001_Node000003"><a xlink:title=" ">
<path fill="none" stroke="#63b8ff" d="M789.65,-290.78C627.66,-278.46 190,-239.59 190,-179 190,-179 190,-179 190,-121 190,-68.39 252.56,-36.2 291.87,-21.17"/>
<polygon fill="#63b8ff" stroke="#63b8ff" points="292.89,-24.52 301.09,-17.82 290.49,-17.95 292.89,-24.52"/>
</a>
</g>
</g>
<!-- Node4 -->
<g id="Node000004" class="node">
<title>Node4</title>
<g id="a_Node000004"><a xlink:title=" ">
<polygon fill="#e0e0e0" stroke="#999999" points="552.75,-20 511.25,-20 511.25,0 552.75,0 552.75,-20"/>
<text text-anchor="middle" x="532" y="-6.5" font-family="Helvetica,sans-Serif" font-size="10.00">vector</text>
</a>
</g>
</g>
<!-- Node1&#45;&gt;Node4 -->
<g id="edge3_Node000001_Node000004" class="edge">
<title>Node1&#45;&gt;Node4</title>
<g id="a_edge3_Node000001_Node000004"><a xlink:title=" ">
<path fill="none" stroke="#63b8ff" d="M789.63,-282.22C760.72,-274.22 726.38,-261.94 699,-244 617.22,-190.43 603.33,-162.09 557,-76 549.19,-61.49 542.61,-44.01 538.17,-30.83"/>
<polygon fill="#63b8ff" stroke="#63b8ff" points="541.58,-30.02 535.17,-21.59 534.92,-32.18 541.58,-30.02"/>
</a>
</g>
</g>
<!-- Node5 -->
<g id="Node000005" class="node">
<title>Node5</title>
<g id="a_Node000005"><a xlink:title=" ">
<polygon fill="#e0e0e0" stroke="#999999" points="687.25,-20 642.75,-20 642.75,0 687.25,0 687.25,-20"/>
<text text-anchor="middle" x="665" y="-6.5" font-family="Helvetica,sans-Serif" font-size="10.00">cstdlib</text>
</a>
</g>
</g>
<!-- Node1&#45;&gt;Node5 -->
<g id="edge4_Node000001_Node000005" class="edge">
<title>Node1&#45;&gt;Node5</title>
<g id="a_edge4_Node000001_Node000005"><a xlink:title=" ">
<path fill="none" stroke="#63b8ff" d="M795.62,-279.57C772.99,-271.36 747.24,-259.67 727,-244 677.59,-205.75 662.46,-191.05 642,-132 630.94,-100.08 632.81,-88.77 641,-56 643.25,-47.01 647.67,-37.85 652.11,-30.16"/>
<polygon fill="#63b8ff" stroke="#63b8ff" points="655.05,-32.06 657.38,-21.72 649.11,-28.35 655.05,-32.06"/>
</a>
</g>
</g>
<!-- Node6 -->
<g id="Node000006" class="node">
<title>Node6</title>
<g id="a_Node000006"><a xlink:title=" ">
<polygon fill="#e0e0e0" stroke="#999999" points="873.5,-20 830.5,-20 830.5,0 873.5,0 873.5,-20"/>
<text text-anchor="middle" x="852" y="-6.5" font-family="Helvetica,sans-Serif" font-size="10.00">cmath</text>
</a>
</g>
</g>
<!-- Node1&#45;&gt;Node6 -->
<g id="edge5_Node000001_Node000006" class="edge">
<title>Node1&#45;&gt;Node6</title>
<g id="a_edge5_Node000001_Node000006"><a xlink:title=" ">
<path fill="none" stroke="#63b8ff" d="M895.58,-279.53C962.87,-254.06 1077.17,-197.43 1057,-112 1050.61,-84.92 1050.67,-73.46 1029,-56 987.35,-22.46 923.76,-13.58 885.21,-11.43"/>
<polygon fill="#63b8ff" stroke="#63b8ff" points="885.52,-7.94 875.38,-11.01 885.23,-14.93 885.52,-7.94"/>
</a>
</g>
</g>
<!-- Node7 -->
<g id="Node000007" class="node">
<title>Node7</title>
<g id="a_Node000007"><a xlink:title=" ">
<polygon fill="#e0e0e0" stroke="#999999" points="1026.12,-20 977.88,-20 977.88,0 1026.12,0 1026.12,-20"/>
<text text-anchor="middle" x="1002" y="-6.5" font-family="Helvetica,sans-Serif" font-size="10.00">fstream</text>
</a>
</g>
</g>
<!-- Node1&#45;&gt;Node7 -->
<g id="edge6_Node000001_Node000007" class="edge">
<title>Node1&#45;&gt;Node7</title>
<g id="a_edge6_Node000001_Node000007"><a xlink:title=" ">
<path fill="none" stroke="#63b8ff" d="M908.04,-283.5C958.52,-270.13 1027.81,-242.52 1059,-188 1088.25,-136.87 1099.98,-107.29 1071,-56 1063.39,-42.54 1049.91,-32.42 1036.86,-25.23"/>
<polygon fill="#63b8ff" stroke="#63b8ff" points="1038.48,-22.12 1027.97,-20.75 1035.33,-28.37 1038.48,-22.12"/>
</a>
</g>
</g>
<!-- Node8 -->
<g id="Node000008" class="node">
<title>Node8</title>
<g id="a_Node000008"><a xlink:title=" ">
<polygon fill="#e0e0e0" stroke="#999999" points="1194.62,-20 1143.38,-20 1143.38,0 1194.62,0 1194.62,-20"/>
<text text-anchor="middle" x="1169" y="-6.5" font-family="Helvetica,sans-Serif" font-size="10.00">sstream</text>
</a>
</g>
</g>
<!-- Node1&#45;&gt;Node8 -->
<g id="edge7_Node000001_Node000008" class="edge">
<title>Node1&#45;&gt;Node8</title>
<g id="a_edge7_Node000001_Node000008"><a xlink:title=" ">
<path fill="none" stroke="#63b8ff" d="M908.34,-290.52C1067.52,-277.7 1492,-237.99 1492,-179 1492,-179 1492,-179 1492,-121 1492,-61.17 1290.9,-27.27 1206.05,-15.63"/>
<polygon fill="#63b8ff" stroke="#63b8ff" points="1206.76,-12.2 1196.39,-14.34 1205.83,-19.13 1206.76,-12.2"/>
</a>
</g>
</g>
<!-- Node9 -->
<g id="Node000009" class="node">
<title>Node9</title>
<g id="a_Node000009"><a xlink:title=" ">
<polygon fill="#e0e0e0" stroke="#999999" points="926.88,-244 877.12,-244 877.12,-224 926.88,-224 926.88,-244"/>
<text text-anchor="middle" x="902" y="-230.5" font-family="Helvetica,sans-Serif" font-size="10.00">iomanip</text>
</a>
</g>
</g>
<!-- Node1&#45;&gt;Node9 -->
<g id="edge8_Node000001_Node000009" class="edge">
<title>Node1&#45;&gt;Node9</title>
<g id="a_edge8_Node000001_Node000009"><a xlink:title=" ">
<path fill="none" stroke="#63b8ff" d="M862.65,-279.55C869.86,-271.39 878.74,-261.33 886.24,-252.84"/>
<polygon fill="#63b8ff" stroke="#63b8ff" points="888.69,-255.35 892.69,-245.54 883.44,-250.72 888.69,-255.35"/>
</a>
</g>
</g>
<!-- Node10 -->
<g id="Node000010" class="node">
<title>Node10</title>
<g id="a_Node000010"><a xlink:title=" ">
<polygon fill="#e0e0e0" stroke="#999999" points="1386.88,-20 1331.12,-20 1331.12,0 1386.88,0 1386.88,-20"/>
<text text-anchor="middle" x="1359" y="-6.5" font-family="Helvetica,sans-Serif" font-size="10.00">algorithm</text>
</a>
</g>
</g>
<!-- Node1&#45;&gt;Node10 -->
<g id="edge9_Node000001_Node000010" class="edge">
<title>Node1&#45;&gt;Node10</title>
<g id="a_edge9_Node000001_Node000010"><a xlink:title=" ">
<path fill="none" stroke="#63b8ff" d="M908.45,-291.65C1080.71,-281.17 1568,-245.62 1568,-179 1568,-179 1568,-179 1568,-121 1568,-45.27 1459.22,-21.56 1398.62,-14.22"/>
<polygon fill="#63b8ff" stroke="#63b8ff" points="1399.01,-10.75 1388.69,-13.13 1398.25,-17.7 1399.01,-10.75"/>
</a>
</g>
</g>
<!-- Node11 -->
<g id="Node000011" class="node">
<title>Node11</title>
<g id="a_Node000011"><a xlink:href="_vecteur_8hpp.html" target="_top" xlink:title=" ">
<polygon fill="white" stroke="#666666" points="818.25,-76 749.75,-76 749.75,-56 818.25,-56 818.25,-76"/>
<text text-anchor="middle" x="784" y="-62.5" font-family="Helvetica,sans-Serif" font-size="10.00">Vecteur.hpp</text>
</a>
</g>
</g>
<!-- Node1&#45;&gt;Node11 -->
<g id="edge10_Node000001_Node000011" class="edge">
<title>Node1&#45;&gt;Node11</title>
<g id="a_edge10_Node000001_Node000011"><a xlink:title=" ">
<path fill="none" stroke="#63b8ff" d="M894.1,-279.58C910.27,-271.61 926.77,-260.1 936,-244 952.79,-214.69 946.86,-199.98 936,-168 925.91,-138.29 917.91,-131.08 893,-112 874.13,-97.54 849.95,-86.94 829.16,-79.67"/>
<polygon fill="#63b8ff" stroke="#63b8ff" points="830.36,-76.38 819.76,-76.55 828.15,-83.03 830.36,-76.38"/>
</a>
</g>
</g>
<!-- Node12 -->
<g id="Node000012" class="node">
<title>Node12</title>
<g id="a_Node000012"><a xlink:href="_grille_8hpp.html" target="_top" xlink:title=" ">
<polygon fill="white" stroke="#666666" points="926.62,-188 869.38,-188 869.38,-168 926.62,-168 926.62,-188"/>
<text text-anchor="middle" x="898" y="-174.5" font-family="Helvetica,sans-Serif" font-size="10.00">Grille.hpp</text>
</a>
</g>
</g>
<!-- Node1&#45;&gt;Node12 -->
<g id="edge19_Node000001_Node000012" class="edge">
<title>Node1&#45;&gt;Node12</title>
<g id="a_edge19_Node000001_Node000012"><a xlink:title=" ">
<path fill="none" stroke="#63b8ff" d="M851.62,-279.55C854.47,-264.82 859.74,-242.25 868,-224 872.14,-214.84 878.07,-205.47 883.56,-197.67"/>
<polygon fill="#63b8ff" stroke="#63b8ff" points="886.33,-199.81 889.45,-189.68 880.7,-195.66 886.33,-199.81"/>
</a>
</g>
</g>
<!-- Node13 -->
<g id="Node000013" class="node">
<title>Node13</title>
<g id="a_Node000013"><a xlink:href="_bi__vecteur_8hpp.html" target="_top" xlink:title=" ">
<polygon fill="white" stroke="#666666" points="753.88,-132 674.12,-132 674.12,-112 753.88,-112 753.88,-132"/>
<text text-anchor="middle" x="714" y="-118.5" font-family="Helvetica,sans-Serif" font-size="10.00">Bi_vecteur.hpp</text>
</a>
</g>
</g>
<!-- Node1&#45;&gt;Node13 -->
<g id="edge39_Node000001_Node000013" class="edge">
<title>Node1&#45;&gt;Node13</title>
<g id="a_edge39_Node000001_Node000013"><a xlink:title=" ">
<path fill="none" stroke="#63b8ff" d="M804.89,-279.56C785.73,-271.24 764.06,-259.46 748,-244 727.51,-224.27 724.75,-215.37 717,-188 712.94,-173.65 712.27,-156.82 712.57,-143.88"/>
<polygon fill="#63b8ff" stroke="#63b8ff" points="716.06,-144.14 713.04,-133.98 709.07,-143.81 716.06,-144.14"/>
</a>
</g>
</g>
<!-- Node14 -->
<g id="Node000014" class="node">
<title>Node14</title>
<g id="a_Node000014"><a xlink:href="_bassin_8hpp.html" target="_top" xlink:title=" ">
<polygon fill="white" stroke="#666666" points="821.38,-244 756.62,-244 756.62,-224 821.38,-224 821.38,-244"/>
<text text-anchor="middle" x="789" y="-230.5" font-family="Helvetica,sans-Serif" font-size="10.00">Bassin.hpp</text>
</a>
</g>
</g>
<!-- Node1&#45;&gt;Node14 -->
<g id="edge40_Node000001_Node000014" class="edge">
<title>Node1&#45;&gt;Node14</title>
<g id="a_edge40_Node000001_Node000014"><a xlink:title=" ">
<path fill="none" stroke="#63b8ff" d="M833.55,-279.55C825.22,-271.22 814.91,-260.91 806.3,-252.3"/>
<polygon fill="#63b8ff" stroke="#63b8ff" points="809.02,-250.07 799.48,-245.48 804.07,-255.02 809.02,-250.07"/>
</a>
</g>
</g>
<!-- Node11&#45;&gt;Node2 -->
<g id="edge11_Node000011_Node000002" class="edge">
<title>Node11&#45;&gt;Node2</title>
<g id="a_edge11_Node000011_Node000002"><a xlink:title=" ">
<path fill="none" stroke="#63b8ff" d="M749.36,-62.29C632.76,-53.15 255.06,-23.54 133.25,-14"/>
<polygon fill="#63b8ff" stroke="#63b8ff" points="133.7,-10.52 123.46,-13.23 133.16,-17.5 133.7,-10.52"/>
</a>
</g>
</g>
<!-- Node11&#45;&gt;Node3 -->
<g id="edge12_Node000011_Node000003" class="edge">
<title>Node11&#45;&gt;Node3</title>
<g id="a_edge12_Node000011_Node000003"><a xlink:title=" ">
<path fill="none" stroke="#63b8ff" d="M749.35,-60.94C662.73,-50.8 437.78,-24.44 354.56,-14.7"/>
<polygon fill="#63b8ff" stroke="#63b8ff" points="355.19,-11.25 344.85,-13.56 354.37,-18.2 355.19,-11.25"/>
</a>
</g>
</g>
<!-- Node11&#45;&gt;Node4 -->
<g id="edge13_Node000011_Node000004" class="edge">
<title>Node11&#45;&gt;Node4</title>
<g id="a_edge13_Node000011_Node000004"><a xlink:title=" ">
<path fill="none" stroke="#63b8ff" d="M749.49,-57.6C700.65,-47.14 612.03,-28.15 564.38,-17.94"/>
<polygon fill="#63b8ff" stroke="#63b8ff" points="565.19,-14.53 554.68,-15.86 563.72,-21.38 565.19,-14.53"/>
</a>
</g>
</g>
<!-- Node11&#45;&gt;Node5 -->
<g id="edge14_Node000011_Node000005" class="edge">
<title>Node11&#45;&gt;Node5</title>
<g id="a_edge14_Node000011_Node000005"><a xlink:title=" ">
<path fill="none" stroke="#63b8ff" d="M763.27,-55.59C744.79,-47.21 717.46,-34.8 696.31,-25.21"/>
<polygon fill="#63b8ff" stroke="#63b8ff" points="697.82,-22.05 687.27,-21.1 694.93,-28.42 697.82,-22.05"/>
</a>
</g>
</g>
<!-- Node11&#45;&gt;Node6 -->
<g id="edge15_Node000011_Node000006" class="edge">
<title>Node11&#45;&gt;Node6</title>
<g id="a_edge15_Node000011_Node000006"><a xlink:title=" ">
<path fill="none" stroke="#63b8ff" d="M795.84,-55.59C805.69,-47.77 819.93,-36.46 831.61,-27.19"/>
<polygon fill="#63b8ff" stroke="#63b8ff" points="833.45,-30.2 839.11,-21.24 829.1,-24.72 833.45,-30.2"/>
</a>
</g>
</g>
<!-- Node11&#45;&gt;Node7 -->
<g id="edge16_Node000011_Node000007" class="edge">
<title>Node11&#45;&gt;Node7</title>
<g id="a_edge16_Node000011_Node000007"><a xlink:title=" ">
<path fill="none" stroke="#63b8ff" d="M818.54,-56.44C858.95,-46.43 925.51,-29.95 966.38,-19.82"/>
<polygon fill="#63b8ff" stroke="#63b8ff" points="967.09,-23.25 975.96,-17.45 965.41,-16.46 967.09,-23.25"/>
</a>
</g>
</g>
<!-- Node11&#45;&gt;Node8 -->
<g id="edge17_Node000011_Node000008" class="edge">
<title>Node11&#45;&gt;Node8</title>
<g id="a_edge17_Node000011_Node000008"><a xlink:title=" ">
<path fill="none" stroke="#63b8ff" d="M818.51,-60.16C890.86,-50.01 1057.9,-26.58 1132.2,-16.16"/>
<polygon fill="#63b8ff" stroke="#63b8ff" points="1132.39,-19.67 1141.81,-14.81 1131.42,-12.74 1132.39,-19.67"/>
</a>
</g>
</g>
<!-- Node11&#45;&gt;Node10 -->
<g id="edge18_Node000011_Node000010" class="edge">
<title>Node11&#45;&gt;Node10</title>
<g id="a_edge18_Node000011_Node000010"><a xlink:title=" ">
<path fill="none" stroke="#63b8ff" d="M818.67,-61.74C919.66,-52.26 1213.12,-24.7 1319.72,-14.69"/>
<polygon fill="#63b8ff" stroke="#63b8ff" points="1319.76,-18.2 1329.39,-13.78 1319.11,-11.23 1319.76,-18.2"/>
</a>
</g>
</g>
<!-- Node12&#45;&gt;Node2 -->
<g id="edge20_Node000012_Node000002" class="edge">
<title>Node12&#45;&gt;Node2</title>
<g id="a_edge20_Node000012_Node000002"><a xlink:title=" ">
<path fill="none" stroke="#63b8ff" d="M868.99,-173.54C799.02,-165.11 622.43,-143.4 564,-132 465.82,-112.84 442.86,-100.98 346,-76 270.54,-56.54 182.35,-33.67 133.16,-20.91"/>
<polygon fill="#63b8ff" stroke="#63b8ff" points="134.13,-17.54 123.57,-18.42 132.37,-24.32 134.13,-17.54"/>
</a>
</g>
</g>
<!-- Node12&#45;&gt;Node3 -->
<g id="edge21_Node000012_Node000003" class="edge">
<title>Node12&#45;&gt;Node3</title>
<g id="a_edge21_Node000012_Node000003"><a xlink:title=" ">
<path fill="none" stroke="#63b8ff" d="M868.9,-172.86C809.06,-164.23 674.04,-144.11 629,-132 560.68,-113.63 545.8,-101.98 480,-76 435.94,-58.61 385.39,-37.46 353.82,-24.11"/>
<polygon fill="#63b8ff" stroke="#63b8ff" points="355.45,-21 344.88,-20.33 352.72,-27.45 355.45,-21"/>
</a>
</g>
</g>
<!-- Node12&#45;&gt;Node4 -->
<g id="edge22_Node000012_Node000004" class="edge">
<title>Node12&#45;&gt;Node4</title>
<g id="a_edge22_Node000012_Node000004"><a xlink:title=" ">
<path fill="none" stroke="#63b8ff" d="M869.08,-173.39C814.94,-166.31 700.58,-149.75 665,-132 614.25,-106.68 568.54,-56.36 546.29,-29.27"/>
<polygon fill="#63b8ff" stroke="#63b8ff" points="549.12,-27.21 540.13,-21.61 543.67,-31.6 549.12,-27.21"/>
</a>
</g>
</g>
<!-- Node12&#45;&gt;Node5 -->
<g id="edge23_Node000012_Node000005" class="edge">
<title>Node12&#45;&gt;Node5</title>
<g id="a_edge23_Node000012_Node000005"><a xlink:title=" ">
<path fill="none" stroke="#63b8ff" d="M899.44,-167.57C901,-154.36 902.16,-129.94 893,-112 875.51,-77.74 860.99,-74.01 827,-56 785.7,-34.12 732.69,-22 698.77,-16"/>
<polygon fill="#63b8ff" stroke="#63b8ff" points="699.56,-12.58 689.11,-14.38 698.39,-19.49 699.56,-12.58"/>
</a>
</g>
</g>
<!-- Node12&#45;&gt;Node6 -->
<g id="edge24_Node000012_Node000006" class="edge">
<title>Node12&#45;&gt;Node6</title>
<g id="a_edge24_Node000012_Node000006"><a xlink:title=" ">
<path fill="none" stroke="#63b8ff" d="M926.81,-174.42C968.77,-169.22 1040.05,-154.09 1024,-112 1002.18,-54.8 928.47,-28.44 884.94,-17.6"/>
<polygon fill="#63b8ff" stroke="#63b8ff" points="885.8,-14.2 875.27,-15.34 884.21,-21.02 885.8,-14.2"/>
</a>
</g>
</g>
<!-- Node12&#45;&gt;Node7 -->
<g id="edge25_Node000012_Node000007" class="edge">
<title>Node12&#45;&gt;Node7</title>
<g id="a_edge25_Node000012_Node000007"><a xlink:title=" ">
<path fill="none" stroke="#63b8ff" d="M927.11,-177.16C960.57,-175.58 1014.18,-167.26 1040,-132 1063.08,-100.47 1035.91,-54.52 1017.06,-29.28"/>
<polygon fill="#63b8ff" stroke="#63b8ff" points="1019.97,-27.33 1011.06,-21.6 1014.46,-31.64 1019.97,-27.33"/>
</a>
</g>
</g>
<!-- Node12&#45;&gt;Node8 -->
<g id="edge26_Node000012_Node000008" class="edge">
<title>Node12&#45;&gt;Node8</title>
<g id="a_edge26_Node000012_Node000008"><a xlink:title=" ">
<path fill="none" stroke="#63b8ff" d="M927.11,-176.5C989.55,-174.76 1133.19,-166.97 1164,-132 1188.36,-104.35 1181.71,-57.86 1175.09,-31.27"/>
<polygon fill="#63b8ff" stroke="#63b8ff" points="1178.5,-30.47 1172.48,-21.75 1171.75,-32.32 1178.5,-30.47"/>
</a>
</g>
</g>
<!-- Node12&#45;&gt;Node10 -->
<g id="edge27_Node000012_Node000010" class="edge">
<title>Node12&#45;&gt;Node10</title>
<g id="a_edge27_Node000012_Node000010"><a xlink:title=" ">
<path fill="none" stroke="#63b8ff" d="M926.98,-176.99C1010.54,-176.47 1250.22,-171.51 1316,-132 1341.78,-116.51 1344.07,-104.39 1354,-76 1358.99,-61.74 1360.13,-44.67 1360.09,-31.61"/>
<polygon fill="#63b8ff" stroke="#63b8ff" points="1363.59,-31.53 1359.79,-21.64 1356.59,-31.74 1363.59,-31.53"/>
</a>
</g>
</g>
<!-- Node12&#45;&gt;Node11 -->
<g id="edge28_Node000012_Node000011" class="edge">
<title>Node12&#45;&gt;Node11</title>
<g id="a_edge28_Node000012_Node000011"><a xlink:title=" ">
<path fill="none" stroke="#63b8ff" d="M896.47,-167.94C893.76,-154.3 886.9,-128.35 872,-112 859.29,-98.06 841.27,-87.8 824.85,-80.62"/>
<polygon fill="#63b8ff" stroke="#63b8ff" points="826.34,-77.45 815.75,-76.91 823.69,-83.93 826.34,-77.45"/>
</a>
</g>
</g>
<!-- Node12&#45;&gt;Node13 -->
<g id="edge29_Node000012_Node000013" class="edge">
<title>Node12&#45;&gt;Node13</title>
<g id="a_edge29_Node000012_Node000013"><a xlink:title=" ">
<path fill="none" stroke="#63b8ff" d="M869.25,-168.56C839.15,-159.73 791.55,-145.76 756.99,-135.62"/>
<polygon fill="#63b8ff" stroke="#63b8ff" points="758.29,-132.35 747.71,-132.89 756.32,-139.07 758.29,-132.35"/>
</a>
</g>
</g>
<!-- Node13&#45;&gt;Node2 -->
<g id="edge30_Node000013_Node000002" class="edge">
<title>Node13&#45;&gt;Node2</title>
<g id="a_edge30_Node000013_Node000002"><a xlink:title=" ">
<path fill="none" stroke="#63b8ff" d="M673.86,-113.87C561.29,-93.86 243.62,-37.41 133.31,-17.81"/>
<polygon fill="#63b8ff" stroke="#63b8ff" points="134.04,-14.38 123.58,-16.08 132.82,-21.28 134.04,-14.38"/>
</a>
</g>
</g>
<!-- Node13&#45;&gt;Node3 -->
<g id="edge31_Node000013_Node000003" class="edge">
<title>Node13&#45;&gt;Node3</title>
<g id="a_edge31_Node000013_Node000003"><a xlink:title=" ">
<path fill="none" stroke="#63b8ff" d="M680.33,-111.53C605.57,-90.5 426.69,-40.17 354.25,-19.79"/>
<polygon fill="#63b8ff" stroke="#63b8ff" points="355.21,-16.43 344.64,-17.09 353.31,-23.16 355.21,-16.43"/>
</a>
</g>
</g>
<!-- Node13&#45;&gt;Node4 -->
<g id="edge32_Node000013_Node000004" class="edge">
<title>Node13&#45;&gt;Node4</title>
<g id="a_edge32_Node000013_Node000004"><a xlink:title=" ">
<path fill="none" stroke="#63b8ff" d="M698.48,-111.62C666.92,-92.54 595,-49.08 556.85,-26.02"/>
<polygon fill="#63b8ff" stroke="#63b8ff" points="559.14,-23.31 548.77,-21.14 555.52,-29.31 559.14,-23.31"/>
</a>
</g>
</g>
<!-- Node13&#45;&gt;Node5 -->
<g id="edge33_Node000013_Node000005" class="edge">
<title>Node13&#45;&gt;Node5</title>
<g id="a_edge33_Node000013_Node000005"><a xlink:title=" ">
<path fill="none" stroke="#63b8ff" d="M709.82,-111.62C701.87,-93.76 684.39,-54.53 673.76,-30.67"/>
<polygon fill="#63b8ff" stroke="#63b8ff" points="677.05,-29.45 669.78,-21.74 670.66,-32.3 677.05,-29.45"/>
</a>
</g>
</g>
<!-- Node13&#45;&gt;Node6 -->
<g id="edge34_Node000013_Node000006" class="edge">
<title>Node13&#45;&gt;Node6</title>
<g id="a_edge34_Node000013_Node000006"><a xlink:title=" ">
<path fill="none" stroke="#63b8ff" d="M715.51,-111.77C718.22,-97.91 725.21,-71.66 741,-56 762.19,-34.99 794.51,-23.39 818.82,-17.26"/>
<polygon fill="#63b8ff" stroke="#63b8ff" points="819.59,-20.67 828.55,-15.01 818.02,-13.85 819.59,-20.67"/>
</a>
</g>
</g>
<!-- Node13&#45;&gt;Node7 -->
<g id="edge35_Node000013_Node000007" class="edge">
<title>Node13&#45;&gt;Node7</title>
<g id="a_edge35_Node000013_Node000007"><a xlink:title=" ">
<path fill="none" stroke="#63b8ff" d="M738.8,-111.53C790.08,-91.94 907.86,-46.95 966.91,-24.4"/>
<polygon fill="#63b8ff" stroke="#63b8ff" points="968.05,-27.71 976.15,-20.87 965.56,-21.17 968.05,-27.71"/>
</a>
</g>
</g>
<!-- Node13&#45;&gt;Node8 -->
<g id="edge36_Node000013_Node000008" class="edge">
<title>Node13&#45;&gt;Node8</title>
<g id="a_edge36_Node000013_Node000008"><a xlink:title=" ">
<path fill="none" stroke="#63b8ff" d="M753.19,-111.53C839.96,-90.55 1047.34,-40.41 1132.02,-19.94"/>
<polygon fill="#63b8ff" stroke="#63b8ff" points="1132.77,-23.36 1141.66,-17.61 1131.12,-16.56 1132.77,-23.36"/>
</a>
</g>
</g>
<!-- Node13&#45;&gt;Node10 -->
<g id="edge37_Node000013_Node000010" class="edge">
<title>Node13&#45;&gt;Node10</title>
<g id="a_edge37_Node000013_Node000010"><a xlink:title=" ">
<path fill="none" stroke="#63b8ff" d="M754.35,-114.12C870.6,-94.29 1205.27,-37.22 1319.92,-17.66"/>
<polygon fill="#63b8ff" stroke="#63b8ff" points="1320.17,-21.17 1329.44,-16.04 1319,-14.27 1320.17,-21.17"/>
</a>
</g>
</g>
<!-- Node13&#45;&gt;Node11 -->
<g id="edge38_Node000013_Node000011" class="edge">
<title>Node13&#45;&gt;Node11</title>
<g id="a_edge38_Node000013_Node000011"><a xlink:title=" ">
<path fill="none" stroke="#63b8ff" d="M726.19,-111.59C736.33,-103.77 750.99,-92.46 763.01,-83.19"/>
<polygon fill="#63b8ff" stroke="#63b8ff" points="764.97,-86.1 770.75,-77.22 760.69,-80.56 764.97,-86.1"/>
</a>
</g>
</g>
<!-- Node14&#45;&gt;Node2 -->
<g id="edge41_Node000014_Node000002" class="edge">
<title>Node14&#45;&gt;Node2</title>
<g id="a_edge41_Node000014_Node000002"><a xlink:title=" ">
<path fill="none" stroke="#63b8ff" d="M756.17,-227.33C710.17,-219.27 623.97,-203.71 551,-188 344.03,-143.43 218.93,-242.37 88,-76 78.02,-63.32 81.29,-44.67 86.16,-30.6"/>
<polygon fill="#63b8ff" stroke="#63b8ff" points="89.34,-32.07 89.82,-21.49 82.84,-29.47 89.34,-32.07"/>
</a>
</g>
</g>
<!-- Node14&#45;&gt;Node3 -->
<g id="edge42_Node000014_Node000003" class="edge">
<title>Node14&#45;&gt;Node3</title>
<g id="a_edge42_Node000014_Node000003"><a xlink:title=" ">
<path fill="none" stroke="#63b8ff" d="M759.41,-223.52C731.25,-214.48 687.7,-200.42 650,-188 501.3,-139 407.43,-203.1 316,-76 306.68,-63.04 309.71,-44.71 314.34,-30.81"/>
<polygon fill="#63b8ff" stroke="#63b8ff" points="317.47,-32.4 317.82,-21.81 310.95,-29.88 317.47,-32.4"/>
</a>
</g>
</g>
<!-- Node14&#45;&gt;Node4 -->
<g id="edge43_Node000014_Node000004" class="edge">
<title>Node14&#45;&gt;Node4</title>
<g id="a_edge43_Node000014_Node000004"><a xlink:title=" ">
<path fill="none" stroke="#63b8ff" d="M756.42,-224.65C732.82,-217.53 700.99,-205.61 677,-188 615.48,-142.84 564.63,-65.77 543.09,-30.12"/>
<polygon fill="#63b8ff" stroke="#63b8ff" points="546.25,-28.59 538.13,-21.77 540.22,-32.16 546.25,-28.59"/>
</a>
</g>
</g>
<!-- Node14&#45;&gt;Node5 -->
<g id="edge44_Node000014_Node000005" class="edge">
<title>Node14&#45;&gt;Node5</title>
<g id="a_edge44_Node000014_Node000005"><a xlink:title=" ">
<path fill="none" stroke="#63b8ff" d="M765.43,-223.58C733.21,-209.26 676.73,-178.66 653,-132 637.65,-101.83 641.92,-89.3 648,-56 649.55,-47.49 652.63,-38.5 655.75,-30.81"/>
<polygon fill="#63b8ff" stroke="#63b8ff" points="658.91,-32.32 659.71,-21.75 652.5,-29.51 658.91,-32.32"/>
</a>
</g>
</g>
<!-- Node14&#45;&gt;Node6 -->
<g id="edge45_Node000014_Node000006" class="edge">
<title>Node14&#45;&gt;Node6</title>
<g id="a_edge45_Node000014_Node000006"><a xlink:title=" ">
<path fill="none" stroke="#63b8ff" d="M821.44,-225.1C883.86,-209.14 1016.58,-171.22 1040,-132 1057.93,-101.98 1010.89,-61.17 1004,-56 968.71,-29.52 918.01,-18.56 885.04,-14.06"/>
<polygon fill="#63b8ff" stroke="#63b8ff" points="885.61,-10.61 875.26,-12.87 884.76,-17.56 885.61,-10.61"/>
</a>
</g>
</g>
<!-- Node14&#45;&gt;Node7 -->
<g id="edge46_Node000014_Node000007" class="edge">
<title>Node14&#45;&gt;Node7</title>
<g id="a_edge46_Node000014_Node000007"><a xlink:title=" ">
<path fill="none" stroke="#63b8ff" d="M821.75,-229.53C861.26,-224.41 928.96,-212.66 982,-188 1019.72,-170.46 1038.36,-169.19 1057,-132 1063.51,-119.01 1065.32,-80.89 1053,-56 1047.21,-44.29 1036.89,-34.3 1027.05,-26.72"/>
<polygon fill="#63b8ff" stroke="#63b8ff" points="1029.33,-24.05 1019.15,-21.1 1025.27,-29.75 1029.33,-24.05"/>
</a>
</g>
</g>
<!-- Node14&#45;&gt;Node8 -->
<g id="edge47_Node000014_Node000008" class="edge">
<title>Node14&#45;&gt;Node8</title>
<g id="a_edge47_Node000014_Node000008"><a xlink:title=" ">
<path fill="none" stroke="#63b8ff" d="M821.77,-228.95C876.64,-221.79 984.39,-205.91 1018,-188 1087.43,-150.99 1138.62,-67.84 1159.13,-30.18"/>
<polygon fill="#63b8ff" stroke="#63b8ff" points="1161.99,-32.26 1163.59,-21.78 1155.81,-28.98 1161.99,-32.26"/>
</a>
</g>
</g>
<!-- Node14&#45;&gt;Node10 -->
<g id="edge48_Node000014_Node000010" class="edge">
<title>Node14&#45;&gt;Node10</title>
<g id="a_edge48_Node000014_Node000010"><a xlink:title=" ">
<path fill="none" stroke="#63b8ff" d="M821.72,-228.3C956.34,-208.67 1462.37,-131.56 1506,-76 1536.99,-36.54 1451.93,-20.44 1398.55,-14.36"/>
<polygon fill="#63b8ff" stroke="#63b8ff" points="1399.19,-10.91 1388.87,-13.34 1398.45,-17.87 1399.19,-10.91"/>
</a>
</g>
</g>
<!-- Node14&#45;&gt;Node11 -->
<g id="edge49_Node000014_Node000011" class="edge">
<title>Node14&#45;&gt;Node11</title>
<g id="a_edge49_Node000014_Node000011"><a xlink:title=" ">
<path fill="none" stroke="#63b8ff" d="M798.36,-223.63C806.12,-215.14 816.57,-201.88 821,-188 832.47,-152.07 811.91,-109.9 797.13,-86.03"/>
<polygon fill="#63b8ff" stroke="#63b8ff" points="800.09,-84.17 791.7,-77.71 794.23,-88 800.09,-84.17"/>
</a>
</g>
</g>
<!-- Node14&#45;&gt;Node12 -->
<g id="edge62_Node000014_Node000012" class="edge">
<title>Node14&#45;&gt;Node12</title>
<g id="a_edge62_Node000014_Node000012"><a xlink:title=" ">
<path fill="none" stroke="#63b8ff" d="M807.99,-223.59C824.76,-215.28 849.49,-203.03 868.79,-193.47"/>
<polygon fill="#63b8ff" stroke="#63b8ff" points="870.1,-196.73 877.51,-189.15 866.99,-190.45 870.1,-196.73"/>
</a>
</g>
</g>
<!-- Node14&#45;&gt;Node13 -->
<g id="edge50_Node000014_Node000013" class="edge">
<title>Node14&#45;&gt;Node13</title>
<g id="a_edge50_Node000014_Node000013"><a xlink:title=" ">
<path fill="none" stroke="#63b8ff" d="M770.84,-223.61C757.57,-215.81 740.17,-203.51 730,-188 721.22,-174.61 717.26,-156.8 715.47,-143.21"/>
<polygon fill="#63b8ff" stroke="#63b8ff" points="718.99,-143.27 714.51,-133.67 712.03,-143.96 718.99,-143.27"/>
</a>
</g>
</g>
<!-- Node15 -->
<g id="Node000015" class="node">
<title>Node15</title>
<g id="a_Node000015"><a xlink:href="_foncteur_8hpp.html" target="_top" xlink:title=" ">
<polygon fill="white" stroke="#666666" points="812.5,-188 739.5,-188 739.5,-168 812.5,-168 812.5,-188"/>
<text text-anchor="middle" x="776" y="-174.5" font-family="Helvetica,sans-Serif" font-size="10.00">Foncteur.hpp</text>
</a>
</g>
</g>
<!-- Node14&#45;&gt;Node15 -->
<g id="edge51_Node000014_Node000015" class="edge">
<title>Node14&#45;&gt;Node15</title>
<g id="a_edge51_Node000014_Node000015"><a xlink:title=" ">
<path fill="none" stroke="#63b8ff" d="M786.74,-223.59C785.13,-216.93 782.92,-207.75 780.92,-199.44"/>
<polygon fill="#63b8ff" stroke="#63b8ff" points="784.34,-198.67 778.59,-189.77 777.53,-200.31 784.34,-198.67"/>
</a>
</g>
</g>
<!-- Node15&#45;&gt;Node2 -->
<g id="edge52_Node000015_Node000002" class="edge">
<title>Node15&#45;&gt;Node2</title>
<g id="a_edge52_Node000015_Node000002"><a xlink:title=" ">
<path fill="none" stroke="#63b8ff" d="M739.18,-177.42C610.61,-178.05 184.8,-172.68 100,-76 89.49,-64.02 89.03,-45.56 90.74,-31.37"/>
<polygon fill="#63b8ff" stroke="#63b8ff" points="94.15,-32.21 92.36,-21.76 87.25,-31.05 94.15,-32.21"/>
</a>
</g>
</g>
<!-- Node15&#45;&gt;Node3 -->
<g id="edge53_Node000015_Node000003" class="edge">
<title>Node15&#45;&gt;Node3</title>
<g id="a_edge53_Node000015_Node000003"><a xlink:title=" ">
<path fill="none" stroke="#63b8ff" d="M739.1,-174.39C641.42,-166.65 379.98,-140.22 328,-76 317.98,-63.62 317.46,-45.2 319.03,-31.13"/>
<polygon fill="#63b8ff" stroke="#63b8ff" points="322.43,-32.06 320.53,-21.64 315.52,-30.97 322.43,-32.06"/>
</a>
</g>
</g>
<!-- Node15&#45;&gt;Node4 -->
<g id="edge54_Node000015_Node000004" class="edge">
<title>Node15&#45;&gt;Node4</title>
<g id="a_edge54_Node000015_Node000004"><a xlink:title=" ">
<path fill="none" stroke="#63b8ff" d="M739.35,-175.56C700.17,-172.4 637.8,-162.51 594,-132 559.57,-108.01 543.06,-58.99 536.18,-31.27"/>
<polygon fill="#63b8ff" stroke="#63b8ff" points="539.63,-30.65 534.01,-21.68 532.81,-32.2 539.63,-30.65"/>
</a>
</g>
</g>
<!-- Node15&#45;&gt;Node5 -->
<g id="edge55_Node000015_Node000005" class="edge">
<title>Node15&#45;&gt;Node5</title>
<g id="a_edge55_Node000015_Node000005"><a xlink:title=" ">
<path fill="none" stroke="#63b8ff" d="M739.11,-172.69C713.62,-167.58 681.44,-156.4 665,-132 644.63,-101.76 651.88,-56.89 658.67,-31.14"/>
<polygon fill="#63b8ff" stroke="#63b8ff" points="662,-32.22 661.41,-21.64 655.27,-30.27 662,-32.22"/>
</a>
</g>
</g>
<!-- Node15&#45;&gt;Node6 -->
<g id="edge56_Node000015_Node000006" class="edge">
<title>Node15&#45;&gt;Node6</title>
<g id="a_edge56_Node000015_Node000006"><a xlink:title=" ">
<path fill="none" stroke="#63b8ff" d="M781.1,-167.68C790.67,-150.05 811.71,-110.48 827,-76 833.6,-61.11 840.18,-43.88 844.93,-30.91"/>
<polygon fill="#63b8ff" stroke="#63b8ff" points="848.12,-32.39 848.22,-21.8 841.53,-30.02 848.12,-32.39"/>
</a>
</g>
</g>
<!-- Node15&#45;&gt;Node7 -->
<g id="edge57_Node000015_Node000007" class="edge">
<title>Node15&#45;&gt;Node7</title>
<g id="a_edge57_Node000015_Node000007"><a xlink:title=" ">
<path fill="none" stroke="#63b8ff" d="M788.8,-167.6C825.86,-140.38 933.57,-61.26 980.13,-27.06"/>
<polygon fill="#63b8ff" stroke="#63b8ff" points="982.13,-29.93 988.12,-21.19 977.99,-24.29 982.13,-29.93"/>
</a>
</g>
</g>
<!-- Node15&#45;&gt;Node8 -->
<g id="edge58_Node000015_Node000008" class="edge">
<title>Node15&#45;&gt;Node8</title>
<g id="a_edge58_Node000015_Node000008"><a xlink:title=" ">
<path fill="none" stroke="#63b8ff" d="M798.26,-167.6C864.19,-139.75 1058.71,-57.59 1136.4,-24.77"/>
<polygon fill="#63b8ff" stroke="#63b8ff" points="1137.74,-28 1145.59,-20.89 1135.02,-21.55 1137.74,-28"/>
</a>
</g>
</g>
<!-- Node15&#45;&gt;Node10 -->
<g id="edge59_Node000015_Node000010" class="edge">
<title>Node15&#45;&gt;Node10</title>
<g id="a_edge59_Node000015_Node000010"><a xlink:title=" ">
<path fill="none" stroke="#63b8ff" d="M809.02,-167.6C909.53,-138.98 1211.54,-52.99 1319.83,-22.15"/>
<polygon fill="#63b8ff" stroke="#63b8ff" points="1320.76,-25.53 1329.42,-19.42 1318.84,-18.8 1320.76,-25.53"/>
</a>
</g>
</g>
<!-- Node15&#45;&gt;Node11 -->
<g id="edge60_Node000015_Node000011" class="edge">
<title>Node15&#45;&gt;Node11</title>
<g id="a_edge60_Node000015_Node000011"><a xlink:title=" ">
<path fill="none" stroke="#63b8ff" d="M776.68,-167.62C777.96,-150.01 780.76,-111.59 782.5,-87.65"/>
<polygon fill="#63b8ff" stroke="#63b8ff" points="785.98,-88.09 783.21,-77.86 778.99,-87.58 785.98,-88.09"/>
</a>
</g>
</g>
<!-- Node15&#45;&gt;Node13 -->
<g id="edge61_Node000015_Node000013" class="edge">
<title>Node15&#45;&gt;Node13</title>
<g id="a_edge61_Node000015_Node000013"><a xlink:title=" ">
<path fill="none" stroke="#63b8ff" d="M765.2,-167.59C756.4,-159.93 743.75,-148.91 733.23,-139.75"/>
<polygon fill="#63b8ff" stroke="#63b8ff" points="735.66,-137.22 725.82,-133.29 731.06,-142.5 735.66,-137.22"/>
</a>
</g>
</g>
</g>
</svg>
