<?xml version="1.0" encoding="UTF-8" standalone="no"?>
<!DOCTYPE svg PUBLIC "-//W3C//DTD SVG 1.1//EN"
 "http://www.w3.org/Graphics/SVG/1.1/DTD/svg11.dtd">
<!-- Generated by graphviz version 10.0.1 (20240210.2158)
 -->
<!-- Title: RoutageVoilier/include/Foncteur.hpp Pages: 1 -->
<svg width="648pt" height="652pt"
 viewBox="0.00 0.00 648.00 652.00" xmlns="http://www.w3.org/2000/svg" xmlns:xlink="http://www.w3.org/1999/xlink">
<g id="graph0" class="graph" transform="scale(1 1) rotate(0) translate(4 648)">
<title>RoutageVoilier/include/Foncteur.hpp</title>
<!-- Node1 -->
<g id="Node000001" class="node">
<title>Node1</title>
<g id="a_Node000001"><a xlink:title=" ">
<polygon fill="#999999" stroke="#666666" points="471.38,-644 358.62,-644 358.62,-612 471.38,-612 471.38,-644"/>
<text text-anchor="start" x="366.62" y="-630.5" font-family="Helvetica,sans-Serif" font-size="10.00">RoutageVoilier/include</text>
<text text-anchor="middle" x="415" y="-618.5" font-family="Helvetica,sans-Serif" font-size="10.00">/Foncteur.hpp</text>
</a>
</g>
</g>
<!-- Node2 -->
<g id="Node000002" class="node">
<title>Node2</title>
<g id="a_Node000002"><a xlink:href="_bassin_8hpp.html" target="_top" xlink:title=" ">
<polygon fill="white" stroke="#666666" points="298.38,-576 185.62,-576 185.62,-544 298.38,-544 298.38,-576"/>
<text text-anchor="start" x="193.62" y="-562.5" font-family="Helvetica,sans-Serif" font-size="10.00">RoutageVoilier/include</text>
<text text-anchor="middle" x="242" y="-550.5" font-family="Helvetica,sans-Serif" font-size="10.00">/Bassin.hpp</text>
</a>
</g>
</g>
<!-- Node1&#45;&gt;Node2 -->
<g id="edge1_Node000001_Node000002" class="edge">
<title>Node1&#45;&gt;Node2</title>
<g id="a_edge1_Node000001_Node000002"><a xlink:title=" ">
<path fill="none" stroke="#63b8ff" d="M363.69,-607.42C337.79,-597.54 306.82,-585.73 282.61,-576.49"/>
<polygon fill="#63b8ff" stroke="#63b8ff" points="362.43,-610.69 373.03,-610.99 364.93,-604.15 362.43,-610.69"/>
</a>
</g>
</g>
<!-- Node3 -->
<g id="Node000003" class="node">
<title>Node3</title>
<g id="a_Node000003"><a xlink:href="_dynamique_8hpp.html" target="_top" xlink:title=" ">
<polygon fill="white" stroke="#666666" points="292.38,-304 179.62,-304 179.62,-272 292.38,-272 292.38,-304"/>
<text text-anchor="start" x="187.62" y="-290.5" font-family="Helvetica,sans-Serif" font-size="10.00">RoutageVoilier/include</text>
<text text-anchor="middle" x="236" y="-278.5" font-family="Helvetica,sans-Serif" font-size="10.00">/Dynamique.hpp</text>
</a>
</g>
</g>
<!-- Node1&#45;&gt;Node3 -->
<g id="edge31_Node000001_Node000003" class="edge">
<title>Node1&#45;&gt;Node3</title>
<g id="a_edge31_Node000001_Node000003"><a xlink:title=" ">
<path fill="none" stroke="#63b8ff" d="M401.54,-601.58C366.37,-535.18 272.53,-357.97 244.2,-304.49"/>
<polygon fill="#63b8ff" stroke="#63b8ff" points="398.36,-603.06 406.14,-610.26 404.55,-599.79 398.36,-603.06"/>
</a>
</g>
</g>
<!-- Node7 -->
<g id="Node000007" class="node">
<title>Node7</title>
<g id="a_Node000007"><a xlink:href="main_8cpp.html" target="_top" xlink:title=" ">
<polygon fill="white" stroke="#666666" points="405.75,-32 310.25,-32 310.25,0 405.75,0 405.75,-32"/>
<text text-anchor="start" x="318.25" y="-18.5" font-family="Helvetica,sans-Serif" font-size="10.00">RoutageVoilier/src</text>
<text text-anchor="middle" x="358" y="-6.5" font-family="Helvetica,sans-Serif" font-size="10.00">/main.cpp</text>
</a>
</g>
</g>
<!-- Node1&#45;&gt;Node7 -->
<g id="edge36_Node000001_Node000007" class="edge">
<title>Node1&#45;&gt;Node7</title>
<g id="a_edge36_Node000001_Node000007"><a xlink:title=" ">
<path fill="none" stroke="#63b8ff" d="M346.78,-619.26C229,-603.97 0,-564.99 0,-493 0,-493 0,-493 0,-151 0,-107.47 15.78,-92.15 52,-68 93.45,-40.36 234.79,-26.03 310.01,-20.21"/>
<polygon fill="#63b8ff" stroke="#63b8ff" points="346.3,-622.72 356.66,-620.51 347.19,-615.78 346.3,-622.72"/>
</a>
</g>
</g>
<!-- Node10 -->
<g id="Node000010" class="node">
<title>Node10</title>
<g id="a_Node000010"><a xlink:href="_voilier_8hpp.html" target="_top" xlink:title=" ">
<polygon fill="white" stroke="#666666" points="574.38,-440 461.62,-440 461.62,-408 574.38,-408 574.38,-440"/>
<text text-anchor="start" x="469.62" y="-426.5" font-family="Helvetica,sans-Serif" font-size="10.00">RoutageVoilier/include</text>
<text text-anchor="middle" x="518" y="-414.5" font-family="Helvetica,sans-Serif" font-size="10.00">/Voilier.hpp</text>
</a>
</g>
</g>
<!-- Node1&#45;&gt;Node10 -->
<g id="edge35_Node000001_Node000010" class="edge">
<title>Node1&#45;&gt;Node10</title>
<g id="a_edge35_Node000001_Node000010"><a xlink:title=" ">
<path fill="none" stroke="#63b8ff" d="M432.1,-602.41C437.49,-594.19 443.27,-584.86 448,-576 470.78,-533.32 470.11,-519.64 491,-476 496.8,-463.89 503.92,-450.49 509.4,-440.46"/>
<polygon fill="#63b8ff" stroke="#63b8ff" points="429.32,-600.28 426.65,-610.53 435.13,-604.18 429.32,-600.28"/>
</a>
</g>
</g>
<!-- Node11 -->
<g id="Node000011" class="node">
<title>Node11</title>
<g id="a_Node000011"><a xlink:href="_commande_8hpp.html" target="_top" xlink:title=" ">
<polygon fill="white" stroke="#666666" points="536.38,-372 423.62,-372 423.62,-340 536.38,-340 536.38,-372"/>
<text text-anchor="start" x="431.62" y="-358.5" font-family="Helvetica,sans-Serif" font-size="10.00">RoutageVoilier/include</text>
<text text-anchor="middle" x="480" y="-346.5" font-family="Helvetica,sans-Serif" font-size="10.00">/Commande.hpp</text>
</a>
</g>
</g>
<!-- Node1&#45;&gt;Node11 -->
<g id="edge30_Node000001_Node000011" class="edge">
<title>Node1&#45;&gt;Node11</title>
<g id="a_edge30_Node000001_Node000011"><a xlink:title=" ">
<path fill="none" stroke="#63b8ff" d="M416.91,-600.35C420.51,-558.43 430.1,-474.99 453,-408 457.28,-395.49 464.32,-382.32 470.14,-372.5"/>
<polygon fill="#63b8ff" stroke="#63b8ff" points="413.43,-599.97 416.12,-610.22 420.41,-600.53 413.43,-599.97"/>
</a>
</g>
</g>
<!-- Node12 -->
<g id="Node000012" class="node">
<title>Node12</title>
<g id="a_Node000012"><a xlink:href="_polaire_8hpp.html" target="_top" xlink:title=" ">
<polygon fill="white" stroke="#666666" points="612.38,-508 499.62,-508 499.62,-476 612.38,-476 612.38,-508"/>
<text text-anchor="start" x="507.62" y="-494.5" font-family="Helvetica,sans-Serif" font-size="10.00">RoutageVoilier/include</text>
<text text-anchor="middle" x="556" y="-482.5" font-family="Helvetica,sans-Serif" font-size="10.00">/Polaire.hpp</text>
</a>
</g>
</g>
<!-- Node1&#45;&gt;Node12 -->
<g id="edge32_Node000001_Node000012" class="edge">
<title>Node1&#45;&gt;Node12</title>
<g id="a_edge32_Node000001_Node000012"><a xlink:title=" ">
<path fill="none" stroke="#63b8ff" d="M448.91,-605.2C461.11,-596.7 474.66,-586.49 486,-576 509.11,-554.62 531.86,-525.81 544.88,-508.37"/>
<polygon fill="#63b8ff" stroke="#63b8ff" points="447.02,-602.25 440.72,-610.76 450.96,-608.03 447.02,-602.25"/>
</a>
</g>
</g>
<!-- Node2&#45;&gt;Node3 -->
<g id="edge2_Node000002_Node000003" class="edge">
<title>Node2&#45;&gt;Node3</title>
<g id="a_edge2_Node000002_Node000003"><a xlink:title=" ">
<path fill="none" stroke="#63b8ff" d="M241.41,-532.34C240.17,-476.5 237.33,-348.75 236.34,-304.46"/>
<polygon fill="#63b8ff" stroke="#63b8ff" points="237.91,-532.28 241.63,-542.2 244.9,-532.12 237.91,-532.28"/>
</a>
</g>
</g>
<!-- Node2&#45;&gt;Node7 -->
<g id="edge29_Node000002_Node000007" class="edge">
<title>Node2&#45;&gt;Node7</title>
<g id="a_edge29_Node000002_Node000007"><a xlink:title=" ">
<path fill="none" stroke="#63b8ff" d="M174.33,-547.84C145.09,-540.37 111.95,-528.08 87,-508 53.63,-481.14 38,-467.84 38,-425 38,-425 38,-425 38,-151 38,-34.46 220.82,-17.54 310.09,-16.22"/>
<polygon fill="#63b8ff" stroke="#63b8ff" points="173.3,-551.19 183.84,-550.12 174.93,-544.38 173.3,-551.19"/>
</a>
</g>
</g>
<!-- Node8 -->
<g id="Node000008" class="node">
<title>Node8</title>
<g id="a_Node000008"><a xlink:href="_simulateur_8hpp.html" target="_top" xlink:title=" ">
<polygon fill="white" stroke="#666666" points="536.38,-236 423.62,-236 423.62,-204 536.38,-204 536.38,-236"/>
<text text-anchor="start" x="431.62" y="-222.5" font-family="Helvetica,sans-Serif" font-size="10.00">RoutageVoilier/include</text>
<text text-anchor="middle" x="480" y="-210.5" font-family="Helvetica,sans-Serif" font-size="10.00">/Simulateur.hpp</text>
</a>
</g>
</g>
<!-- Node2&#45;&gt;Node8 -->
<g id="edge28_Node000002_Node000008" class="edge">
<title>Node2&#45;&gt;Node8</title>
<g id="a_edge28_Node000002_Node000008"><a xlink:title=" ">
<path fill="none" stroke="#63b8ff" d="M278.44,-537.55C312.45,-514.48 358,-474.36 358,-425 358,-425 358,-425 358,-355 358,-300.1 414.69,-257.78 450.78,-236.4"/>
<polygon fill="#63b8ff" stroke="#63b8ff" points="276.91,-534.37 270.46,-542.77 280.75,-540.22 276.91,-534.37"/>
</a>
</g>
</g>
<!-- Node9 -->
<g id="Node000009" class="node">
<title>Node9</title>
<g id="a_Node000009"><a xlink:href="_fonction__externes_8hpp.html" target="_top" xlink:title=" ">
<polygon fill="white" stroke="#666666" points="214,-508 96,-508 96,-476 214,-476 214,-508"/>
<text text-anchor="start" x="104" y="-494.5" font-family="Helvetica,sans-Serif" font-size="10.00">RoutageVoilier/include</text>
<text text-anchor="middle" x="155" y="-482.5" font-family="Helvetica,sans-Serif" font-size="10.00">/Fonction_externes.hpp</text>
</a>
</g>
</g>
<!-- Node2&#45;&gt;Node9 -->
<g id="edge14_Node000002_Node000009" class="edge">
<title>Node2&#45;&gt;Node9</title>
<g id="a_edge14_Node000002_Node000009"><a xlink:title=" ">
<path fill="none" stroke="#63b8ff" d="M212.83,-536.87C200.54,-527.55 186.52,-516.91 175.37,-508.45"/>
<polygon fill="#63b8ff" stroke="#63b8ff" points="210.53,-539.52 220.62,-542.78 214.76,-533.95 210.53,-539.52"/>
</a>
</g>
</g>
<!-- Node4 -->
<g id="Node000004" class="node">
<title>Node4</title>
<g id="a_Node000004"><a xlink:href="_flux_8hpp.html" target="_top" xlink:title=" ">
<polygon fill="white" stroke="#666666" points="368.38,-236 255.62,-236 255.62,-204 368.38,-204 368.38,-236"/>
<text text-anchor="start" x="263.62" y="-222.5" font-family="Helvetica,sans-Serif" font-size="10.00">RoutageVoilier/include</text>
<text text-anchor="middle" x="312" y="-210.5" font-family="Helvetica,sans-Serif" font-size="10.00">/Flux.hpp</text>
</a>
</g>
</g>
<!-- Node3&#45;&gt;Node4 -->
<g id="edge3_Node000003_Node000004" class="edge">
<title>Node3&#45;&gt;Node4</title>
<g id="a_edge3_Node000003_Node000004"><a xlink:title=" ">
<path fill="none" stroke="#63b8ff" d="M262.11,-264.32C272.7,-255.13 284.65,-244.75 294.21,-236.45"/>
<polygon fill="#63b8ff" stroke="#63b8ff" points="260.03,-261.5 254.77,-270.7 264.61,-266.79 260.03,-261.5"/>
</a>
</g>
</g>
<!-- Node5 -->
<g id="Node000005" class="node">
<title>Node5</title>
<g id="a_Node000005"><a xlink:href="_h_j_b_8hpp.html" target="_top" xlink:title=" ">
<polygon fill="white" stroke="#666666" points="330.38,-168 217.62,-168 217.62,-136 330.38,-136 330.38,-168"/>
<text text-anchor="start" x="225.62" y="-154.5" font-family="Helvetica,sans-Serif" font-size="10.00">RoutageVoilier/include</text>
<text text-anchor="middle" x="274" y="-142.5" font-family="Helvetica,sans-Serif" font-size="10.00">/HJB.hpp</text>
</a>
</g>
</g>
<!-- Node3&#45;&gt;Node5 -->
<g id="edge9_Node000003_Node000005" class="edge">
<title>Node3&#45;&gt;Node5</title>
<g id="a_edge9_Node000003_Node000005"><a xlink:title=" ">
<path fill="none" stroke="#63b8ff" d="M237.11,-260.6C238.38,-244.02 241.12,-222.38 247,-204 251.03,-191.4 258.08,-178.24 263.97,-168.44"/>
<polygon fill="#63b8ff" stroke="#63b8ff" points="233.64,-259.94 236.51,-270.14 240.63,-260.38 233.64,-259.94"/>
</a>
</g>
</g>
<!-- Node6 -->
<g id="Node000006" class="node">
<title>Node6</title>
<g id="a_Node000006"><a xlink:href="route__optimale_8hpp.html" target="_top" xlink:title=" ">
<polygon fill="white" stroke="#666666" points="246.38,-100 133.62,-100 133.62,-68 246.38,-68 246.38,-100"/>
<text text-anchor="start" x="141.62" y="-86.5" font-family="Helvetica,sans-Serif" font-size="10.00">RoutageVoilier/include</text>
<text text-anchor="middle" x="190" y="-74.5" font-family="Helvetica,sans-Serif" font-size="10.00">/route_optimale.hpp</text>
</a>
</g>
</g>
<!-- Node3&#45;&gt;Node6 -->
<g id="edge12_Node000003_Node000006" class="edge">
<title>Node3&#45;&gt;Node6</title>
<g id="a_edge12_Node000003_Node000006"><a xlink:title=" ">
<path fill="none" stroke="#63b8ff" d="M230,-260.66C220.26,-217.89 201.31,-134.67 193.5,-100.36"/>
<polygon fill="#63b8ff" stroke="#63b8ff" points="226.57,-261.37 232.21,-270.34 233.4,-259.81 226.57,-261.37"/>
</a>
</g>
</g>
<!-- Node3&#45;&gt;Node7 -->
<g id="edge13_Node000003_Node000007" class="edge">
<title>Node3&#45;&gt;Node7</title>
<g id="a_edge13_Node000003_Node000007"><a xlink:title=" ">
<path fill="none" stroke="#63b8ff" d="M303.88,-270.42C335.37,-261.21 367.87,-249.01 377,-236 421.83,-172.11 382.91,-70.55 365.44,-32.27"/>
<polygon fill="#63b8ff" stroke="#63b8ff" points="302.94,-267.04 294.27,-273.13 304.85,-273.78 302.94,-267.04"/>
</a>
</g>
</g>
<!-- Node3&#45;&gt;Node8 -->
<g id="edge10_Node000003_Node000008" class="edge">
<title>Node3&#45;&gt;Node8</title>
<g id="a_edge10_Node000003_Node000008"><a xlink:title=" ">
<path fill="none" stroke="#63b8ff" d="M303.47,-268.75C341.13,-258.56 387.52,-246.01 423.29,-236.34"/>
<polygon fill="#63b8ff" stroke="#63b8ff" points="302.79,-265.31 294.05,-271.3 304.62,-272.06 302.79,-265.31"/>
</a>
</g>
</g>
<!-- Node4&#45;&gt;Node5 -->
<g id="edge4_Node000004_Node000005" class="edge">
<title>Node4&#45;&gt;Node5</title>
<g id="a_edge4_Node000004_Node000005"><a xlink:title=" ">
<path fill="none" stroke="#63b8ff" d="M297.46,-193.74C292.5,-185.14 287.12,-175.79 282.77,-168.22"/>
<polygon fill="#63b8ff" stroke="#63b8ff" points="294.41,-195.46 302.43,-202.38 300.47,-191.97 294.41,-195.46"/>
</a>
</g>
</g>
<!-- Node4&#45;&gt;Node7 -->
<g id="edge8_Node000004_Node000007" class="edge">
<title>Node4&#45;&gt;Node7</title>
<g id="a_edge8_Node000004_Node000007"><a xlink:title=" ">
<path fill="none" stroke="#63b8ff" d="M327.66,-193.79C331.98,-185.8 336.23,-176.77 339,-168 354.12,-120.13 357.26,-60.14 357.88,-32.39"/>
<polygon fill="#63b8ff" stroke="#63b8ff" points="324.74,-191.84 322.81,-202.26 330.82,-195.31 324.74,-191.84"/>
</a>
</g>
</g>
<!-- Node5&#45;&gt;Node6 -->
<g id="edge5_Node000005_Node000006" class="edge">
<title>Node5&#45;&gt;Node6</title>
<g id="a_edge5_Node000005_Node000006"><a xlink:title=" ">
<path fill="none" stroke="#63b8ff" d="M245.49,-128.6C233.7,-119.34 220.33,-108.83 209.67,-100.45"/>
<polygon fill="#63b8ff" stroke="#63b8ff" points="243.3,-131.33 253.33,-134.76 247.63,-125.83 243.3,-131.33"/>
</a>
</g>
</g>
<!-- Node5&#45;&gt;Node7 -->
<g id="edge7_Node000005_Node000007" class="edge">
<title>Node5&#45;&gt;Node7</title>
<g id="a_edge7_Node000005_Node000007"><a xlink:title=" ">
<path fill="none" stroke="#63b8ff" d="M289.72,-125.92C306.99,-98.37 334.18,-55.01 348.48,-32.19"/>
<polygon fill="#63b8ff" stroke="#63b8ff" points="286.79,-124.01 284.44,-134.35 292.72,-127.73 286.79,-124.01"/>
</a>
</g>
</g>
<!-- Node6&#45;&gt;Node7 -->
<g id="edge6_Node000006_Node000007" class="edge">
<title>Node6&#45;&gt;Node7</title>
<g id="a_edge6_Node000006_Node000007"><a xlink:title=" ">
<path fill="none" stroke="#63b8ff" d="M239.83,-63.42C264.98,-53.54 295.05,-41.73 318.57,-32.49"/>
<polygon fill="#63b8ff" stroke="#63b8ff" points="238.82,-60.06 230.8,-66.97 241.38,-66.57 238.82,-60.06"/>
</a>
</g>
</g>
<!-- Node8&#45;&gt;Node7 -->
<g id="edge11_Node000008_Node000007" class="edge">
<title>Node8&#45;&gt;Node7</title>
<g id="a_edge11_Node000008_Node000007"><a xlink:title=" ">
<path fill="none" stroke="#63b8ff" d="M471.25,-193.05C459.96,-161.71 438.37,-108.19 410,-68 400.52,-54.57 387.26,-41.63 376.5,-32.14"/>
<polygon fill="#63b8ff" stroke="#63b8ff" points="467.94,-194.2 474.56,-202.48 474.55,-191.88 467.94,-194.2"/>
</a>
</g>
</g>
<!-- Node9&#45;&gt;Node3 -->
<g id="edge15_Node000009_Node000003" class="edge">
<title>Node9&#45;&gt;Node3</title>
<g id="a_edge15_Node000009_Node000003"><a xlink:title=" ">
<path fill="none" stroke="#63b8ff" d="M165.34,-465.21C182.43,-422.6 216.02,-338.82 229.84,-304.36"/>
<polygon fill="#63b8ff" stroke="#63b8ff" points="162.12,-463.83 161.65,-474.41 168.62,-466.43 162.12,-463.83"/>
</a>
</g>
</g>
<!-- Node9&#45;&gt;Node5 -->
<g id="edge16_Node000009_Node000005" class="edge">
<title>Node9&#45;&gt;Node5</title>
<g id="a_edge16_Node000009_Node000005"><a xlink:title=" ">
<path fill="none" stroke="#63b8ff" d="M154.06,-464.53C153.18,-437.5 152,-394.33 152,-357 152,-357 152,-357 152,-287 152,-232.1 208.69,-189.78 244.78,-168.4"/>
<polygon fill="#63b8ff" stroke="#63b8ff" points="150.55,-464.34 154.38,-474.22 157.55,-464.1 150.55,-464.34"/>
</a>
</g>
</g>
<!-- Node9&#45;&gt;Node6 -->
<g id="edge26_Node000009_Node000006" class="edge">
<title>Node9&#45;&gt;Node6</title>
<g id="a_edge26_Node000009_Node000006"><a xlink:title=" ">
<path fill="none" stroke="#63b8ff" d="M142.25,-465.52C130.22,-439.07 114,-396.17 114,-357 114,-357 114,-357 114,-219 114,-170.59 151.99,-123.65 174.25,-100.3"/>
<polygon fill="#63b8ff" stroke="#63b8ff" points="139.02,-466.87 146.45,-474.42 145.35,-463.88 139.02,-466.87"/>
</a>
</g>
</g>
<!-- Node9&#45;&gt;Node7 -->
<g id="edge27_Node000009_Node000007" class="edge">
<title>Node9&#45;&gt;Node7</title>
<g id="a_edge27_Node000009_Node000007"><a xlink:title=" ">
<path fill="none" stroke="#63b8ff" d="M130.83,-467.72C107.6,-442.74 76,-400.73 76,-357 76,-357 76,-357 76,-151 76,-108.16 90.3,-93.12 125,-68 179.85,-28.3 259.68,-18.51 310.21,-16.62"/>
<polygon fill="#63b8ff" stroke="#63b8ff" points="128.12,-469.96 137.58,-474.73 133.16,-465.1 128.12,-469.96"/>
</a>
</g>
</g>
<!-- Node9&#45;&gt;Node8 -->
<g id="edge17_Node000009_Node000008" class="edge">
<title>Node9&#45;&gt;Node8</title>
<g id="a_edge17_Node000009_Node000008"><a xlink:title=" ">
<path fill="none" stroke="#63b8ff" d="M174.64,-466.92C218.72,-413.06 323.31,-286.42 344,-272 367.79,-255.42 397.65,-243.44 423.33,-235.28"/>
<polygon fill="#63b8ff" stroke="#63b8ff" points="172.2,-464.37 168.58,-474.33 177.62,-468.8 172.2,-464.37"/>
</a>
</g>
</g>
<!-- Node9&#45;&gt;Node10 -->
<g id="edge18_Node000009_Node000010" class="edge">
<title>Node9&#45;&gt;Node10</title>
<g id="a_edge18_Node000009_Node000010"><a xlink:title=" ">
<path fill="none" stroke="#63b8ff" d="M225.28,-478.22C294.08,-465.71 397.57,-446.9 461.29,-435.31"/>
<polygon fill="#63b8ff" stroke="#63b8ff" points="224.83,-474.75 215.62,-479.98 226.08,-481.63 224.83,-474.75"/>
</a>
</g>
</g>
<!-- Node10&#45;&gt;Node3 -->
<g id="edge23_Node000010_Node000003" class="edge">
<title>Node10&#45;&gt;Node3</title>
<g id="a_edge23_Node000010_Node000003"><a xlink:title=" ">
<path fill="none" stroke="#63b8ff" d="M475.58,-402.84C418.85,-375.88 319.51,-328.68 268.4,-304.4"/>
<polygon fill="#63b8ff" stroke="#63b8ff" points="473.75,-405.85 484.28,-406.98 476.75,-399.53 473.75,-405.85"/>
</a>
</g>
</g>
<!-- Node10&#45;&gt;Node7 -->
<g id="edge25_Node000010_Node000007" class="edge">
<title>Node10&#45;&gt;Node7</title>
<g id="a_edge25_Node000010_Node000007"><a xlink:title=" ">
<path fill="none" stroke="#63b8ff" d="M543.79,-399.93C568.48,-375.18 602,-333.4 602,-289 602,-289 602,-289 602,-151 602,-62.56 477.32,-32.09 406.21,-21.9"/>
<polygon fill="#63b8ff" stroke="#63b8ff" points="541.65,-397.13 536.9,-406.6 546.52,-402.16 541.65,-397.13"/>
</a>
</g>
</g>
<!-- Node10&#45;&gt;Node8 -->
<g id="edge24_Node000010_Node000008" class="edge">
<title>Node10&#45;&gt;Node8</title>
<g id="a_edge24_Node000010_Node000008"><a xlink:title=" ">
<path fill="none" stroke="#63b8ff" d="M534.34,-397.98C538.69,-390 542.78,-380.92 545,-372 548.43,-358.2 548.52,-353.78 545,-340 534.69,-299.63 507.57,-258.2 491.8,-236.47"/>
<polygon fill="#63b8ff" stroke="#63b8ff" points="531.43,-396.03 529.39,-406.42 537.47,-399.57 531.43,-396.03"/>
</a>
</g>
</g>
<!-- Node10&#45;&gt;Node11 -->
<g id="edge19_Node000010_Node000011" class="edge">
<title>Node10&#45;&gt;Node11</title>
<g id="a_edge19_Node000010_Node000011"><a xlink:title=" ">
<path fill="none" stroke="#63b8ff" d="M503.46,-397.74C498.5,-389.14 493.12,-379.79 488.77,-372.22"/>
<polygon fill="#63b8ff" stroke="#63b8ff" points="500.41,-399.46 508.43,-406.38 506.47,-395.97 500.41,-399.46"/>
</a>
</g>
</g>
<!-- Node11&#45;&gt;Node3 -->
<g id="edge20_Node000011_Node000003" class="edge">
<title>Node11&#45;&gt;Node3</title>
<g id="a_edge20_Node000011_Node000003"><a xlink:title=" ">
<path fill="none" stroke="#63b8ff" d="M412.53,-336.75C374.87,-326.56 328.48,-314.01 292.71,-304.34"/>
<polygon fill="#63b8ff" stroke="#63b8ff" points="411.38,-340.06 421.95,-339.3 413.21,-333.31 411.38,-340.06"/>
</a>
</g>
</g>
<!-- Node11&#45;&gt;Node7 -->
<g id="edge22_Node000011_Node000007" class="edge">
<title>Node11&#45;&gt;Node7</title>
<g id="a_edge22_Node000011_Node000007"><a xlink:title=" ">
<path fill="none" stroke="#63b8ff" d="M502.07,-331.45C526.83,-302.05 561.51,-250.01 545,-204 515.85,-122.75 428.66,-59.99 384.4,-32.38"/>
<polygon fill="#63b8ff" stroke="#63b8ff" points="499.7,-328.84 495.76,-338.68 504.98,-333.44 499.7,-328.84"/>
</a>
</g>
</g>
<!-- Node11&#45;&gt;Node8 -->
<g id="edge21_Node000011_Node000008" class="edge">
<title>Node11&#45;&gt;Node8</title>
<g id="a_edge21_Node000011_Node000008"><a xlink:title=" ">
<path fill="none" stroke="#63b8ff" d="M480,-328.45C480,-300.84 480,-258.6 480,-236.19"/>
<polygon fill="#63b8ff" stroke="#63b8ff" points="476.5,-328.11 480,-338.11 483.5,-328.11 476.5,-328.11"/>
</a>
</g>
</g>
<!-- Node12&#45;&gt;Node7 -->
<g id="edge34_Node000012_Node000007" class="edge">
<title>Node12&#45;&gt;Node7</title>
<g id="a_edge34_Node000012_Node000007"><a xlink:title=" ">
<path fill="none" stroke="#63b8ff" d="M581.79,-467.93C606.48,-443.18 640,-401.4 640,-357 640,-357 640,-357 640,-151 640,-48.69 486.7,-24.4 406.16,-18.7"/>
<polygon fill="#63b8ff" stroke="#63b8ff" points="579.65,-465.13 574.9,-474.6 584.52,-470.16 579.65,-465.13"/>
</a>
</g>
</g>
<!-- Node12&#45;&gt;Node10 -->
<g id="edge33_Node000012_Node000010" class="edge">
<title>Node12&#45;&gt;Node10</title>
<g id="a_edge33_Node000012_Node000010"><a xlink:title=" ">
<path fill="none" stroke="#63b8ff" d="M541.46,-465.74C536.5,-457.14 531.12,-447.79 526.77,-440.22"/>
<polygon fill="#63b8ff" stroke="#63b8ff" points="538.41,-467.46 546.43,-474.38 544.47,-463.97 538.41,-467.46"/>
</a>
</g>
</g>
</g>
</svg>
