<?xml version="1.0" encoding="UTF-8" standalone="no"?>
<!DOCTYPE svg PUBLIC "-//W3C//DTD SVG 1.1//EN"
 "http://www.w3.org/Graphics/SVG/1.1/DTD/svg11.dtd">
<!-- Generated by graphviz version 10.0.1 (20240210.2158)
 -->
<!-- Title: angle_relatif Pages: 1 -->
<svg width="344pt" height="65pt"
 viewBox="0.00 0.00 343.50 65.00" xmlns="http://www.w3.org/2000/svg" xmlns:xlink="http://www.w3.org/1999/xlink">
<g id="graph0" class="graph" transform="scale(1 1) rotate(0) translate(4 61)">
<title>angle_relatif</title>
<!-- Node1 -->
<g id="Node000001" class="node">
<title>Node1</title>
<g id="a_Node000001"><a xlink:title=" ">
<polygon fill="#999999" stroke="#666666" points="67.75,-39 0,-39 0,-19 67.75,-19 67.75,-39"/>
<text text-anchor="middle" x="33.88" y="-25.5" font-family="Helvetica,sans-Serif" font-size="10.00">angle_relatif</text>
</a>
</g>
</g>
<!-- Node1&#45;&gt;Node1 -->
<g id="edge1_Node000001_Node000001" class="edge">
<title>Node1&#45;&gt;Node1</title>
<g id="a_edge1_Node000001_Node000001"><a xlink:title=" ">
<path fill="none" stroke="#63b8ff" d="M20.25,-39.34C14.43,-47.98 18.97,-57 33.88,-57 41.79,-57 46.79,-54.45 48.86,-50.77"/>
<polygon fill="#63b8ff" stroke="#63b8ff" points="52.33,-50.36 47.68,-40.84 45.38,-51.18 52.33,-50.36"/>
</a>
</g>
</g>
<!-- Node2 -->
<g id="Node000002" class="node">
<title>Node2</title>
<g id="a_Node000002"><a xlink:href="_fonction__externes_8hpp.html#a8bf9651680a69ef9b57e88861dbc2b7c" target="_top" xlink:title=" ">
<polygon fill="white" stroke="#666666" points="240,-39 171.5,-39 171.5,-19 240,-19 240,-39"/>
<text text-anchor="middle" x="205.75" y="-25.5" font-family="Helvetica,sans-Serif" font-size="10.00">interpolation</text>
</a>
</g>
</g>
<!-- Node1&#45;&gt;Node2 -->
<g id="edge2_Node000001_Node000002" class="edge">
<title>Node1&#45;&gt;Node2</title>
<g id="a_edge2_Node000001_Node000002"><a xlink:title=" ">
<path fill="none" stroke="#63b8ff" d="M68.03,-29C94.17,-29 130.89,-29 159.69,-29"/>
<polygon fill="#63b8ff" stroke="#63b8ff" points="159.58,-32.5 169.58,-29 159.58,-25.5 159.58,-32.5"/>
</a>
</g>
</g>
<!-- Node4 -->
<g id="Node000004" class="node">
<title>Node4</title>
<g id="a_Node000004"><a xlink:href="_fonction__externes_8hpp.html#a1ab31b90bc584c635ec159468ceed9b2" target="_top" xlink:title=" ">
<polygon fill="white" stroke="#666666" points="135.5,-20 103.75,-20 103.75,0 135.5,0 135.5,-20"/>
<text text-anchor="middle" x="119.62" y="-6.5" font-family="Helvetica,sans-Serif" font-size="10.00">sgn</text>
</a>
</g>
</g>
<!-- Node1&#45;&gt;Node4 -->
<g id="edge6_Node000001_Node000004" class="edge">
<title>Node1&#45;&gt;Node4</title>
<g id="a_edge6_Node000001_Node000004"><a xlink:title=" ">
<path fill="none" stroke="#63b8ff" d="M67.98,-21.49C76.11,-19.64 84.71,-17.69 92.47,-15.93"/>
<polygon fill="#63b8ff" stroke="#63b8ff" points="92.97,-19.41 101.95,-13.78 91.43,-12.58 92.97,-19.41"/>
</a>
</g>
</g>
<!-- Node2&#45;&gt;Node2 -->
<g id="edge5_Node000002_Node000002" class="edge">
<title>Node2&#45;&gt;Node2</title>
<g id="a_edge5_Node000002_Node000002"><a xlink:title=" ">
<path fill="none" stroke="#63b8ff" d="M192.07,-39.34C186.22,-47.98 190.78,-57 205.75,-57 213.7,-57 218.72,-54.45 220.8,-50.77"/>
<polygon fill="#63b8ff" stroke="#63b8ff" points="224.27,-50.36 219.61,-40.84 217.32,-51.19 224.27,-50.36"/>
</a>
</g>
</g>
<!-- Node3 -->
<g id="Node000003" class="node">
<title>Node3</title>
<g id="a_Node000003"><a xlink:href="class_grille.html#a55235882a3d7897067449ef76fb64287" target="_top" xlink:title=" ">
<polygon fill="white" stroke="#666666" points="335.5,-39 276,-39 276,-19 335.5,-19 335.5,-39"/>
<text text-anchor="middle" x="305.75" y="-25.5" font-family="Helvetica,sans-Serif" font-size="10.00">Grille::find</text>
</a>
</g>
</g>
<!-- Node2&#45;&gt;Node3 -->
<g id="edge3_Node000002_Node000003" class="edge">
<title>Node2&#45;&gt;Node3</title>
<g id="a_edge3_Node000002_Node000003"><a xlink:title=" ">
<path fill="none" stroke="#63b8ff" d="M240.48,-22.55C248.14,-22.24 256.36,-22.17 264.27,-22.34"/>
<polygon fill="#63b8ff" stroke="#63b8ff" points="263.9,-25.83 274.03,-22.71 264.17,-18.84 263.9,-25.83"/>
</a>
</g>
</g>
<!-- Node3&#45;&gt;Node2 -->
<g id="edge4_Node000003_Node000002" class="edge">
<title>Node3&#45;&gt;Node2</title>
<g id="a_edge4_Node000003_Node000002"><a xlink:title=" ">
<path fill="none" stroke="#63b8ff" d="M275.54,-35.23C268.05,-35.65 259.81,-35.81 251.72,-35.73"/>
<polygon fill="#63b8ff" stroke="#63b8ff" points="252.07,-32.24 241.99,-35.49 251.9,-39.24 252.07,-32.24"/>
</a>
</g>
</g>
<!-- Node4&#45;&gt;Node2 -->
<g id="edge7_Node000004_Node000002" class="edge">
<title>Node4&#45;&gt;Node2</title>
<g id="a_edge7_Node000004_Node000002"><a xlink:title=" ">
<path fill="none" stroke="#63b8ff" d="M135.66,-13.4C142.58,-14.96 151.18,-16.9 159.94,-18.88"/>
<polygon fill="#63b8ff" stroke="#63b8ff" points="159,-22.26 169.53,-21.04 160.54,-15.43 159,-22.26"/>
</a>
</g>
</g>
</g>
</svg>
