<?xml version="1.0" encoding="UTF-8" standalone="no"?>
<!DOCTYPE svg PUBLIC "-//W3C//DTD SVG 1.1//EN"
 "http://www.w3.org/Graphics/SVG/1.1/DTD/svg11.dtd">
<!-- Generated by graphviz version 10.0.1 (20240210.2158)
 -->
<!-- Title: bi_vecteur_vers_table Pages: 1 -->
<svg width="316pt" height="46pt"
 viewBox="0.00 0.00 316.25 46.00" xmlns="http://www.w3.org/2000/svg" xmlns:xlink="http://www.w3.org/1999/xlink">
<g id="graph0" class="graph" transform="scale(1 1) rotate(0) translate(4 42)">
<title>bi_vecteur_vers_table</title>
<!-- Node1 -->
<g id="Node000001" class="node">
<title>Node1</title>
<g id="a_Node000001"><a xlink:title=" ">
<polygon fill="#999999" stroke="#666666" points="108.25,-20 0,-20 0,0 108.25,0 108.25,-20"/>
<text text-anchor="middle" x="54.12" y="-6.5" font-family="Helvetica,sans-Serif" font-size="10.00">bi_vecteur_vers_table</text>
</a>
</g>
</g>
<!-- Node2 -->
<g id="Node000002" class="node">
<title>Node2</title>
<g id="a_Node000002"><a xlink:href="_fonction__externes_8hpp.html#a8bf9651680a69ef9b57e88861dbc2b7c" target="_top" xlink:title=" ">
<polygon fill="white" stroke="#666666" points="212.75,-20 144.25,-20 144.25,0 212.75,0 212.75,-20"/>
<text text-anchor="middle" x="178.5" y="-6.5" font-family="Helvetica,sans-Serif" font-size="10.00">interpolation</text>
</a>
</g>
</g>
<!-- Node1&#45;&gt;Node2 -->
<g id="edge1_Node000001_Node000002" class="edge">
<title>Node1&#45;&gt;Node2</title>
<g id="a_edge1_Node000001_Node000002"><a xlink:title=" ">
<path fill="none" stroke="#63b8ff" d="M108.44,-10C116.58,-10 124.9,-10 132.83,-10"/>
<polygon fill="#63b8ff" stroke="#63b8ff" points="132.57,-13.5 142.57,-10 132.57,-6.5 132.57,-13.5"/>
</a>
</g>
</g>
<!-- Node2&#45;&gt;Node2 -->
<g id="edge4_Node000002_Node000002" class="edge">
<title>Node2&#45;&gt;Node2</title>
<g id="a_edge4_Node000002_Node000002"><a xlink:title=" ">
<path fill="none" stroke="#63b8ff" d="M162.61,-20.34C155.82,-28.98 161.12,-38 178.5,-38 188.01,-38 193.9,-35.3 196.17,-31.44"/>
<polygon fill="#63b8ff" stroke="#63b8ff" points="199.67,-31.15 194.63,-21.83 192.76,-32.26 199.67,-31.15"/>
</a>
</g>
</g>
<!-- Node3 -->
<g id="Node000003" class="node">
<title>Node3</title>
<g id="a_Node000003"><a xlink:href="class_grille.html#a55235882a3d7897067449ef76fb64287" target="_top" xlink:title=" ">
<polygon fill="white" stroke="#666666" points="308.25,-20 248.75,-20 248.75,0 308.25,0 308.25,-20"/>
<text text-anchor="middle" x="278.5" y="-6.5" font-family="Helvetica,sans-Serif" font-size="10.00">Grille::find</text>
</a>
</g>
</g>
<!-- Node2&#45;&gt;Node3 -->
<g id="edge2_Node000002_Node000003" class="edge">
<title>Node2&#45;&gt;Node3</title>
<g id="a_edge2_Node000002_Node000003"><a xlink:title=" ">
<path fill="none" stroke="#63b8ff" d="M213.23,-3.55C220.89,-3.24 229.11,-3.17 237.02,-3.34"/>
<polygon fill="#63b8ff" stroke="#63b8ff" points="236.65,-6.83 246.78,-3.71 236.92,0.16 236.65,-6.83"/>
</a>
</g>
</g>
<!-- Node3&#45;&gt;Node2 -->
<g id="edge3_Node000003_Node000002" class="edge">
<title>Node3&#45;&gt;Node2</title>
<g id="a_edge3_Node000003_Node000002"><a xlink:title=" ">
<path fill="none" stroke="#63b8ff" d="M248.29,-16.23C240.8,-16.65 232.56,-16.81 224.47,-16.73"/>
<polygon fill="#63b8ff" stroke="#63b8ff" points="224.82,-13.24 214.74,-16.49 224.65,-20.24 224.82,-13.24"/>
</a>
</g>
</g>
</g>
</svg>
