<?xml version="1.0" encoding="UTF-8" standalone="no"?>
<!DOCTYPE svg PUBLIC "-//W3C//DTD SVG 1.1//EN"
 "http://www.w3.org/Graphics/SVG/1.1/DTD/svg11.dtd">
<!-- Generated by graphviz version 10.0.1 (20240210.2158)
 -->
<!-- Title: angle Pages: 1 -->
<svg width="315pt" height="65pt"
 viewBox="0.00 0.00 315.00 65.00" xmlns="http://www.w3.org/2000/svg" xmlns:xlink="http://www.w3.org/1999/xlink">
<g id="graph0" class="graph" transform="scale(1 1) rotate(0) translate(4 61)">
<title>angle</title>
<!-- Node1 -->
<g id="Node000001" class="node">
<title>Node1</title>
<g id="a_Node000001"><a xlink:title=" ">
<polygon fill="#999999" stroke="#666666" points="39.25,-39 0,-39 0,-19 39.25,-19 39.25,-39"/>
<text text-anchor="middle" x="19.62" y="-25.5" font-family="Helvetica,sans-Serif" font-size="10.00">angle</text>
</a>
</g>
</g>
<!-- Node2 -->
<g id="Node000002" class="node">
<title>Node2</title>
<g id="a_Node000002"><a xlink:href="_fonction__externes_8hpp.html#a8bf9651680a69ef9b57e88861dbc2b7c" target="_top" xlink:title=" ">
<polygon fill="white" stroke="#666666" points="211.5,-39 143,-39 143,-19 211.5,-19 211.5,-39"/>
<text text-anchor="middle" x="177.25" y="-25.5" font-family="Helvetica,sans-Serif" font-size="10.00">interpolation</text>
</a>
</g>
</g>
<!-- Node1&#45;&gt;Node2 -->
<g id="edge1_Node000001_Node000002" class="edge">
<title>Node1&#45;&gt;Node2</title>
<g id="a_edge1_Node000001_Node000002"><a xlink:title=" ">
<path fill="none" stroke="#63b8ff" d="M39.71,-29C62.38,-29 100.95,-29 131.33,-29"/>
<polygon fill="#63b8ff" stroke="#63b8ff" points="131,-32.5 141,-29 131,-25.5 131,-32.5"/>
</a>
</g>
</g>
<!-- Node4 -->
<g id="Node000004" class="node">
<title>Node4</title>
<g id="a_Node000004"><a xlink:href="_fonction__externes_8hpp.html#a1ab31b90bc584c635ec159468ceed9b2" target="_top" xlink:title=" ">
<polygon fill="white" stroke="#666666" points="107,-20 75.25,-20 75.25,0 107,0 107,-20"/>
<text text-anchor="middle" x="91.12" y="-6.5" font-family="Helvetica,sans-Serif" font-size="10.00">sgn</text>
</a>
</g>
</g>
<!-- Node1&#45;&gt;Node4 -->
<g id="edge5_Node000001_Node000004" class="edge">
<title>Node1&#45;&gt;Node4</title>
<g id="a_edge5_Node000001_Node000004"><a xlink:title=" ">
<path fill="none" stroke="#63b8ff" d="M39.62,-23.81C47.07,-21.77 55.75,-19.4 63.79,-17.2"/>
<polygon fill="#63b8ff" stroke="#63b8ff" points="64.71,-20.58 73.43,-14.56 62.87,-13.82 64.71,-20.58"/>
</a>
</g>
</g>
<!-- Node2&#45;&gt;Node2 -->
<g id="edge4_Node000002_Node000002" class="edge">
<title>Node2&#45;&gt;Node2</title>
<g id="a_edge4_Node000002_Node000002"><a xlink:title=" ">
<path fill="none" stroke="#63b8ff" d="M163.57,-39.34C157.72,-47.98 162.28,-57 177.25,-57 185.2,-57 190.22,-54.45 192.3,-50.77"/>
<polygon fill="#63b8ff" stroke="#63b8ff" points="195.77,-50.36 191.11,-40.84 188.82,-51.19 195.77,-50.36"/>
</a>
</g>
</g>
<!-- Node3 -->
<g id="Node000003" class="node">
<title>Node3</title>
<g id="a_Node000003"><a xlink:href="class_grille.html#a55235882a3d7897067449ef76fb64287" target="_top" xlink:title=" ">
<polygon fill="white" stroke="#666666" points="307,-39 247.5,-39 247.5,-19 307,-19 307,-39"/>
<text text-anchor="middle" x="277.25" y="-25.5" font-family="Helvetica,sans-Serif" font-size="10.00">Grille::find</text>
</a>
</g>
</g>
<!-- Node2&#45;&gt;Node3 -->
<g id="edge2_Node000002_Node000003" class="edge">
<title>Node2&#45;&gt;Node3</title>
<g id="a_edge2_Node000002_Node000003"><a xlink:title=" ">
<path fill="none" stroke="#63b8ff" d="M211.98,-22.55C219.64,-22.24 227.86,-22.17 235.77,-22.34"/>
<polygon fill="#63b8ff" stroke="#63b8ff" points="235.4,-25.83 245.53,-22.71 235.67,-18.84 235.4,-25.83"/>
</a>
</g>
</g>
<!-- Node3&#45;&gt;Node2 -->
<g id="edge3_Node000003_Node000002" class="edge">
<title>Node3&#45;&gt;Node2</title>
<g id="a_edge3_Node000003_Node000002"><a xlink:title=" ">
<path fill="none" stroke="#63b8ff" d="M247.04,-35.23C239.55,-35.65 231.31,-35.81 223.22,-35.73"/>
<polygon fill="#63b8ff" stroke="#63b8ff" points="223.57,-32.24 213.49,-35.49 223.4,-39.24 223.57,-32.24"/>
</a>
</g>
</g>
<!-- Node4&#45;&gt;Node2 -->
<g id="edge6_Node000004_Node000002" class="edge">
<title>Node4&#45;&gt;Node2</title>
<g id="a_edge6_Node000004_Node000002"><a xlink:title=" ">
<path fill="none" stroke="#63b8ff" d="M107.16,-13.4C114.08,-14.96 122.68,-16.9 131.44,-18.88"/>
<polygon fill="#63b8ff" stroke="#63b8ff" points="130.5,-22.26 141.03,-21.04 132.04,-15.43 130.5,-22.26"/>
</a>
</g>
</g>
</g>
</svg>
