<?xml version="1.0" encoding="UTF-8" standalone="no"?>
<!DOCTYPE svg PUBLIC "-//W3C//DTD SVG 1.1//EN"
 "http://www.w3.org/Graphics/SVG/1.1/DTD/svg11.dtd">
<!-- Generated by graphviz version 10.0.1 (20240210.2158)
 -->
<!-- Title: csv_vers_table Pages: 1 -->
<svg width="416pt" height="47pt"
 viewBox="0.00 0.00 416.25 47.00" xmlns="http://www.w3.org/2000/svg" xmlns:xlink="http://www.w3.org/1999/xlink">
<g id="graph0" class="graph" transform="scale(1 1) rotate(0) translate(4 43)">
<title>csv_vers_table</title>
<!-- Node1 -->
<g id="Node000001" class="node">
<title>Node1</title>
<g id="a_Node000001"><a xlink:title=" ">
<polygon fill="#999999" stroke="#666666" points="79,-20 0,-20 0,0 79,0 79,-20"/>
<text text-anchor="middle" x="39.5" y="-6.5" font-family="Helvetica,sans-Serif" font-size="10.00">csv_vers_table</text>
</a>
</g>
</g>
<!-- Node2 -->
<g id="Node000002" class="node">
<title>Node2</title>
<g id="a_Node000002"><a xlink:href="_fonction__csv_8hpp.html#acb83c881d2df277e9834118afdc4be8e" target="_top" xlink:title=" ">
<polygon fill="white" stroke="#666666" points="208.25,-39 115,-39 115,-19 208.25,-19 208.25,-39"/>
<text text-anchor="middle" x="161.62" y="-25.5" font-family="Helvetica,sans-Serif" font-size="10.00">fichier_vers_string</text>
</a>
</g>
</g>
<!-- Node1&#45;&gt;Node2 -->
<g id="edge1_Node000001_Node000002" class="edge">
<title>Node1&#45;&gt;Node2</title>
<g id="a_edge1_Node000001_Node000002"><a xlink:title=" ">
<path fill="none" stroke="#63b8ff" d="M79.17,-16.12C87,-17.35 95.38,-18.68 103.69,-19.99"/>
<polygon fill="#63b8ff" stroke="#63b8ff" points="102.98,-23.43 113.41,-21.53 104.08,-16.51 102.98,-23.43"/>
</a>
</g>
</g>
<!-- Node3 -->
<g id="Node000003" class="node">
<title>Node3</title>
<g id="a_Node000003"><a xlink:href="_fonction__externes_8hpp.html#a8bf9651680a69ef9b57e88861dbc2b7c" target="_top" xlink:title=" ">
<polygon fill="white" stroke="#666666" points="312.75,-20 244.25,-20 244.25,0 312.75,0 312.75,-20"/>
<text text-anchor="middle" x="278.5" y="-6.5" font-family="Helvetica,sans-Serif" font-size="10.00">interpolation</text>
</a>
</g>
</g>
<!-- Node1&#45;&gt;Node3 -->
<g id="edge6_Node000001_Node000003" class="edge">
<title>Node1&#45;&gt;Node3</title>
<g id="a_edge6_Node000001_Node000003"><a xlink:title=" ">
<path fill="none" stroke="#63b8ff" d="M79.37,-10C121.44,-10 188.44,-10 232.69,-10"/>
<polygon fill="#63b8ff" stroke="#63b8ff" points="232.46,-13.5 242.46,-10 232.46,-6.5 232.46,-13.5"/>
</a>
</g>
</g>
<!-- Node2&#45;&gt;Node3 -->
<g id="edge2_Node000002_Node000003" class="edge">
<title>Node2&#45;&gt;Node3</title>
<g id="a_edge2_Node000002_Node000003"><a xlink:title=" ">
<path fill="none" stroke="#63b8ff" d="M208.69,-21.38C216.57,-20.08 224.75,-18.72 232.61,-17.43"/>
<polygon fill="#63b8ff" stroke="#63b8ff" points="233.02,-20.91 242.31,-15.82 231.87,-14 233.02,-20.91"/>
</a>
</g>
</g>
<!-- Node3&#45;&gt;Node3 -->
<g id="edge5_Node000003_Node000003" class="edge">
<title>Node3&#45;&gt;Node3</title>
<g id="a_edge5_Node000003_Node000003"><a xlink:title=" ">
<path fill="none" stroke="#63b8ff" d="M262.61,-20.34C255.82,-28.98 261.12,-38 278.5,-38 288.01,-38 293.9,-35.3 296.17,-31.44"/>
<polygon fill="#63b8ff" stroke="#63b8ff" points="299.67,-31.15 294.63,-21.83 292.76,-32.26 299.67,-31.15"/>
</a>
</g>
</g>
<!-- Node4 -->
<g id="Node000004" class="node">
<title>Node4</title>
<g id="a_Node000004"><a xlink:href="class_grille.html#a55235882a3d7897067449ef76fb64287" target="_top" xlink:title=" ">
<polygon fill="white" stroke="#666666" points="408.25,-20 348.75,-20 348.75,0 408.25,0 408.25,-20"/>
<text text-anchor="middle" x="378.5" y="-6.5" font-family="Helvetica,sans-Serif" font-size="10.00">Grille::find</text>
</a>
</g>
</g>
<!-- Node3&#45;&gt;Node4 -->
<g id="edge3_Node000003_Node000004" class="edge">
<title>Node3&#45;&gt;Node4</title>
<g id="a_edge3_Node000003_Node000004"><a xlink:title=" ">
<path fill="none" stroke="#63b8ff" d="M313.23,-3.55C320.89,-3.24 329.11,-3.17 337.02,-3.34"/>
<polygon fill="#63b8ff" stroke="#63b8ff" points="336.65,-6.83 346.78,-3.71 336.92,0.16 336.65,-6.83"/>
</a>
</g>
</g>
<!-- Node4&#45;&gt;Node3 -->
<g id="edge4_Node000004_Node000003" class="edge">
<title>Node4&#45;&gt;Node3</title>
<g id="a_edge4_Node000004_Node000003"><a xlink:title=" ">
<path fill="none" stroke="#63b8ff" d="M348.29,-16.23C340.8,-16.65 332.56,-16.81 324.47,-16.73"/>
<polygon fill="#63b8ff" stroke="#63b8ff" points="324.82,-13.24 314.74,-16.49 324.65,-20.24 324.82,-13.24"/>
</a>
</g>
</g>
</g>
</svg>
