<?xml version="1.0" encoding="UTF-8" standalone="no"?>
<!DOCTYPE svg PUBLIC "-//W3C//DTD SVG 1.1//EN"
 "http://www.w3.org/Graphics/SVG/1.1/DTD/svg11.dtd">
<!-- Generated by graphviz version 10.0.1 (20240210.2158)
 -->
<!-- Title: interpolation Pages: 1 -->
<svg width="172pt" height="46pt"
 viewBox="0.00 0.00 172.00 46.00" xmlns="http://www.w3.org/2000/svg" xmlns:xlink="http://www.w3.org/1999/xlink">
<g id="graph0" class="graph" transform="scale(1 1) rotate(0) translate(4 42)">
<title>interpolation</title>
<!-- Node1 -->
<g id="Node000001" class="node">
<title>Node1</title>
<g id="a_Node000001"><a xlink:title=" ">
<polygon fill="#999999" stroke="#666666" points="68.5,-20 0,-20 0,0 68.5,0 68.5,-20"/>
<text text-anchor="middle" x="34.25" y="-6.5" font-family="Helvetica,sans-Serif" font-size="10.00">interpolation</text>
</a>
</g>
</g>
<!-- Node1&#45;&gt;Node1 -->
<g id="edge3_Node000001_Node000001" class="edge">
<title>Node1&#45;&gt;Node1</title>
<g id="a_edge3_Node000001_Node000001"><a xlink:title=" ">
<path fill="none" stroke="#63b8ff" d="M18.36,-20.34C11.57,-28.98 16.87,-38 34.25,-38 43.76,-38 49.65,-35.3 51.92,-31.44"/>
<polygon fill="#63b8ff" stroke="#63b8ff" points="55.42,-31.15 50.38,-21.83 48.51,-32.26 55.42,-31.15"/>
</a>
</g>
</g>
<!-- Node2 -->
<g id="Node000002" class="node">
<title>Node2</title>
<g id="a_Node000002"><a xlink:href="class_grille.html#a55235882a3d7897067449ef76fb64287" target="_top" xlink:title=" ">
<polygon fill="white" stroke="#666666" points="164,-20 104.5,-20 104.5,0 164,0 164,-20"/>
<text text-anchor="middle" x="134.25" y="-6.5" font-family="Helvetica,sans-Serif" font-size="10.00">Grille::find</text>
</a>
</g>
</g>
<!-- Node1&#45;&gt;Node2 -->
<g id="edge1_Node000001_Node000002" class="edge">
<title>Node1&#45;&gt;Node2</title>
<g id="a_edge1_Node000001_Node000002"><a xlink:title=" ">
<path fill="none" stroke="#63b8ff" d="M68.98,-3.55C76.64,-3.24 84.86,-3.17 92.77,-3.34"/>
<polygon fill="#63b8ff" stroke="#63b8ff" points="92.4,-6.83 102.53,-3.71 92.67,0.16 92.4,-6.83"/>
</a>
</g>
</g>
<!-- Node2&#45;&gt;Node1 -->
<g id="edge2_Node000002_Node000001" class="edge">
<title>Node2&#45;&gt;Node1</title>
<g id="a_edge2_Node000002_Node000001"><a xlink:title=" ">
<path fill="none" stroke="#63b8ff" d="M104.04,-16.23C96.55,-16.65 88.31,-16.81 80.22,-16.73"/>
<polygon fill="#63b8ff" stroke="#63b8ff" points="80.57,-13.24 70.49,-16.49 80.4,-20.24 80.57,-13.24"/>
</a>
</g>
</g>
</g>
</svg>
