<?xml version="1.0" encoding="UTF-8" standalone="no"?>
<!DOCTYPE svg PUBLIC "-//W3C//DTD SVG 1.1//EN"
 "http://www.w3.org/Graphics/SVG/1.1/DTD/svg11.dtd">
<!-- Generated by graphviz version 10.0.1 (20240210.2158)
 -->
<!-- Title: RoutageVoilier/include/Grille.hpp Pages: 1 -->
<svg width="560pt" height="208pt"
 viewBox="0.00 0.00 560.25 208.00" xmlns="http://www.w3.org/2000/svg" xmlns:xlink="http://www.w3.org/1999/xlink">
<g id="graph0" class="graph" transform="scale(1 1) rotate(0) translate(4 204)">
<title>RoutageVoilier/include/Grille.hpp</title>
<!-- Node1 -->
<g id="Node000001" class="node">
<title>Node1</title>
<g id="a_Node000001"><a xlink:title=" ">
<polygon fill="#999999" stroke="#666666" points="328.12,-200 215.38,-200 215.38,-168 328.12,-168 328.12,-200"/>
<text text-anchor="start" x="223.38" y="-186.5" font-family="Helvetica,sans-Serif" font-size="10.00">RoutageVoilier/include</text>
<text text-anchor="middle" x="271.75" y="-174.5" font-family="Helvetica,sans-Serif" font-size="10.00">/Grille.hpp</text>
</a>
</g>
</g>
<!-- Node2 -->
<g id="Node000002" class="node">
<title>Node2</title>
<g id="a_Node000002"><a xlink:title=" ">
<polygon fill="#e0e0e0" stroke="#999999" points="53.5,-20 0,-20 0,0 53.5,0 53.5,-20"/>
<text text-anchor="middle" x="26.75" y="-6.5" font-family="Helvetica,sans-Serif" font-size="10.00">iostream</text>
</a>
</g>
</g>
<!-- Node1&#45;&gt;Node2 -->
<g id="edge1_Node000001_Node000002" class="edge">
<title>Node1&#45;&gt;Node2</title>
<g id="a_edge1_Node000001_Node000002"><a xlink:title=" ">
<path fill="none" stroke="#63b8ff" d="M238.48,-167.58C219.31,-158.19 195.06,-145.44 174.75,-132 124.99,-99.06 72.12,-52.7 45.06,-28.02"/>
<polygon fill="#63b8ff" stroke="#63b8ff" points="47.45,-25.47 37.72,-21.28 42.71,-30.63 47.45,-25.47"/>
</a>
</g>
</g>
<!-- Node3 -->
<g id="Node000003" class="node">
<title>Node3</title>
<g id="a_Node000003"><a xlink:title=" ">
<polygon fill="#e0e0e0" stroke="#999999" points="122.75,-20 82.75,-20 82.75,0 122.75,0 122.75,-20"/>
<text text-anchor="middle" x="102.75" y="-6.5" font-family="Helvetica,sans-Serif" font-size="10.00">string</text>
</a>
</g>
</g>
<!-- Node1&#45;&gt;Node3 -->
<g id="edge2_Node000001_Node000003" class="edge">
<title>Node1&#45;&gt;Node3</title>
<g id="a_edge2_Node000001_Node000003"><a xlink:title=" ">
<path fill="none" stroke="#63b8ff" d="M244.92,-167.63C229.9,-158.34 211.33,-145.69 196.75,-132 162.64,-99.98 131.03,-54.85 114.59,-29.73"/>
<polygon fill="#63b8ff" stroke="#63b8ff" points="117.68,-28.07 109.32,-21.56 111.8,-31.86 117.68,-28.07"/>
</a>
</g>
</g>
<!-- Node4 -->
<g id="Node000004" class="node">
<title>Node4</title>
<g id="a_Node000004"><a xlink:title=" ">
<polygon fill="#e0e0e0" stroke="#999999" points="199.5,-20 158,-20 158,0 199.5,0 199.5,-20"/>
<text text-anchor="middle" x="178.75" y="-6.5" font-family="Helvetica,sans-Serif" font-size="10.00">vector</text>
</a>
</g>
</g>
<!-- Node1&#45;&gt;Node4 -->
<g id="edge3_Node000001_Node000004" class="edge">
<title>Node1&#45;&gt;Node4</title>
<g id="a_edge3_Node000001_Node000004"><a xlink:title=" ">
<path fill="none" stroke="#63b8ff" d="M247.54,-167.57C235.04,-158.53 220.43,-146.12 210.75,-132 189.63,-101.18 182.44,-57.17 180,-31.6"/>
<polygon fill="#63b8ff" stroke="#63b8ff" points="183.51,-31.57 179.25,-21.88 176.53,-32.12 183.51,-31.57"/>
</a>
</g>
</g>
<!-- Node5 -->
<g id="Node000005" class="node">
<title>Node5</title>
<g id="a_Node000005"><a xlink:title=" ">
<polygon fill="#e0e0e0" stroke="#999999" points="263,-20 218.5,-20 218.5,0 263,0 263,-20"/>
<text text-anchor="middle" x="240.75" y="-6.5" font-family="Helvetica,sans-Serif" font-size="10.00">cstdlib</text>
</a>
</g>
</g>
<!-- Node1&#45;&gt;Node5 -->
<g id="edge4_Node000001_Node000005" class="edge">
<title>Node1&#45;&gt;Node5</title>
<g id="a_edge4_Node000001_Node000005"><a xlink:title=" ">
<path fill="none" stroke="#63b8ff" d="M256.5,-167.64C238.41,-148.22 209.26,-112.87 197.75,-76 195.1,-67.51 194.44,-64.25 197.75,-56 202.12,-45.1 210.53,-35.34 218.76,-27.72"/>
<polygon fill="#63b8ff" stroke="#63b8ff" points="220.93,-30.47 226.27,-21.33 216.39,-25.15 220.93,-30.47"/>
</a>
</g>
</g>
<!-- Node6 -->
<g id="Node000006" class="node">
<title>Node6</title>
<g id="a_Node000006"><a xlink:title=" ">
<polygon fill="#e0e0e0" stroke="#999999" points="552.25,-20 509.25,-20 509.25,0 552.25,0 552.25,-20"/>
<text text-anchor="middle" x="530.75" y="-6.5" font-family="Helvetica,sans-Serif" font-size="10.00">cmath</text>
</a>
</g>
</g>
<!-- Node1&#45;&gt;Node6 -->
<g id="edge5_Node000001_Node000006" class="edge">
<title>Node1&#45;&gt;Node6</title>
<g id="a_edge5_Node000001_Node000006"><a xlink:title=" ">
<path fill="none" stroke="#63b8ff" d="M328.42,-169.14C355.59,-160.92 387.79,-148.77 413.75,-132 457.74,-103.59 497.48,-55.66 517.36,-29.46"/>
<polygon fill="#63b8ff" stroke="#63b8ff" points="520.13,-31.6 523.29,-21.49 514.51,-27.42 520.13,-31.6"/>
</a>
</g>
</g>
<!-- Node7 -->
<g id="Node000007" class="node">
<title>Node7</title>
<g id="a_Node000007"><a xlink:title=" ">
<polygon fill="#e0e0e0" stroke="#999999" points="336.88,-20 288.62,-20 288.62,0 336.88,0 336.88,-20"/>
<text text-anchor="middle" x="312.75" y="-6.5" font-family="Helvetica,sans-Serif" font-size="10.00">fstream</text>
</a>
</g>
</g>
<!-- Node1&#45;&gt;Node7 -->
<g id="edge6_Node000001_Node000007" class="edge">
<title>Node1&#45;&gt;Node7</title>
<g id="a_edge6_Node000001_Node000007"><a xlink:title=" ">
<path fill="none" stroke="#63b8ff" d="M313.96,-167.56C329.67,-159.51 345.83,-147.94 354.75,-132 373.83,-97.88 346.9,-53.57 328.16,-29.15"/>
<polygon fill="#63b8ff" stroke="#63b8ff" points="330.96,-27.05 321.96,-21.44 325.5,-31.43 330.96,-27.05"/>
</a>
</g>
</g>
<!-- Node8 -->
<g id="Node000008" class="node">
<title>Node8</title>
<g id="a_Node000008"><a xlink:title=" ">
<polygon fill="#e0e0e0" stroke="#999999" points="406.38,-20 355.12,-20 355.12,0 406.38,0 406.38,-20"/>
<text text-anchor="middle" x="380.75" y="-6.5" font-family="Helvetica,sans-Serif" font-size="10.00">sstream</text>
</a>
</g>
</g>
<!-- Node1&#45;&gt;Node8 -->
<g id="edge7_Node000001_Node000008" class="edge">
<title>Node1&#45;&gt;Node8</title>
<g id="a_edge7_Node000001_Node000008"><a xlink:title=" ">
<path fill="none" stroke="#63b8ff" d="M325.35,-167.58C342.99,-159.79 360.85,-148.39 371.75,-132 391.89,-101.7 388.95,-57.2 384.91,-31.46"/>
<polygon fill="#63b8ff" stroke="#63b8ff" points="388.41,-31.18 383.2,-21.96 381.52,-32.42 388.41,-31.18"/>
</a>
</g>
</g>
<!-- Node9 -->
<g id="Node000009" class="node">
<title>Node9</title>
<g id="a_Node000009"><a xlink:title=" ">
<polygon fill="#e0e0e0" stroke="#999999" points="482.62,-20 426.88,-20 426.88,0 482.62,0 482.62,-20"/>
<text text-anchor="middle" x="454.75" y="-6.5" font-family="Helvetica,sans-Serif" font-size="10.00">algorithm</text>
</a>
</g>
</g>
<!-- Node1&#45;&gt;Node9 -->
<g id="edge8_Node000001_Node000009" class="edge">
<title>Node1&#45;&gt;Node9</title>
<g id="a_edge8_Node000001_Node000009"><a xlink:title=" ">
<path fill="none" stroke="#63b8ff" d="M328.39,-167.62C349.82,-159.66 373.23,-148.15 390.75,-132 421.38,-103.78 440.06,-57.49 448.8,-31.1"/>
<polygon fill="#63b8ff" stroke="#63b8ff" points="452.11,-32.24 451.77,-21.65 445.44,-30.15 452.11,-32.24"/>
</a>
</g>
</g>
<!-- Node10 -->
<g id="Node000010" class="node">
<title>Node10</title>
<g id="a_Node000010"><a xlink:href="_vecteur_8hpp.html" target="_top" xlink:title=" ">
<polygon fill="white" stroke="#666666" points="275,-76 206.5,-76 206.5,-56 275,-56 275,-76"/>
<text text-anchor="middle" x="240.75" y="-62.5" font-family="Helvetica,sans-Serif" font-size="10.00">Vecteur.hpp</text>
</a>
</g>
</g>
<!-- Node1&#45;&gt;Node10 -->
<g id="edge9_Node000001_Node000010" class="edge">
<title>Node1&#45;&gt;Node10</title>
<g id="a_edge9_Node000001_Node000010"><a xlink:title=" ">
<path fill="none" stroke="#63b8ff" d="M267.11,-167.88C264.05,-157.75 260.02,-144.12 256.75,-132 252.71,-117.04 248.54,-100.02 245.47,-87.15"/>
<polygon fill="#63b8ff" stroke="#63b8ff" points="248.95,-86.69 243.25,-77.76 242.14,-88.3 248.95,-86.69"/>
</a>
</g>
</g>
<!-- Node11 -->
<g id="Node000011" class="node">
<title>Node11</title>
<g id="a_Node000011"><a xlink:href="_bi__vecteur_8hpp.html" target="_top" xlink:title=" ">
<polygon fill="white" stroke="#666666" points="345.62,-132 265.88,-132 265.88,-112 345.62,-112 345.62,-132"/>
<text text-anchor="middle" x="305.75" y="-118.5" font-family="Helvetica,sans-Serif" font-size="10.00">Bi_vecteur.hpp</text>
</a>
</g>
</g>
<!-- Node1&#45;&gt;Node11 -->
<g id="edge18_Node000001_Node000011" class="edge">
<title>Node1&#45;&gt;Node11</title>
<g id="a_edge18_Node000001_Node000011"><a xlink:title=" ">
<path fill="none" stroke="#63b8ff" d="M280.51,-167.55C284.88,-159.82 290.22,-150.4 294.86,-142.21"/>
<polygon fill="#63b8ff" stroke="#63b8ff" points="297.79,-144.15 299.67,-133.72 291.7,-140.7 297.79,-144.15"/>
</a>
</g>
</g>
<!-- Node10&#45;&gt;Node2 -->
<g id="edge10_Node000010_Node000002" class="edge">
<title>Node10&#45;&gt;Node2</title>
<g id="a_edge10_Node000010_Node000002"><a xlink:title=" ">
<path fill="none" stroke="#63b8ff" d="M206.37,-56.32C167.68,-46.56 105.01,-30.75 64.86,-20.62"/>
<polygon fill="#63b8ff" stroke="#63b8ff" points="65.94,-17.28 55.39,-18.23 64.23,-24.07 65.94,-17.28"/>
</a>
</g>
</g>
<!-- Node10&#45;&gt;Node3 -->
<g id="edge11_Node000010_Node000003" class="edge">
<title>Node10&#45;&gt;Node3</title>
<g id="a_edge11_Node000010_Node000003"><a xlink:title=" ">
<path fill="none" stroke="#63b8ff" d="M216.71,-55.59C193.57,-46.54 158.48,-32.81 133.36,-22.98"/>
<polygon fill="#63b8ff" stroke="#63b8ff" points="134.92,-19.83 124.34,-19.45 132.37,-26.35 134.92,-19.83"/>
</a>
</g>
</g>
<!-- Node10&#45;&gt;Node4 -->
<g id="edge12_Node000010_Node000004" class="edge">
<title>Node10&#45;&gt;Node4</title>
<g id="a_edge12_Node000010_Node000004"><a xlink:title=" ">
<path fill="none" stroke="#63b8ff" d="M229.95,-55.59C221.15,-47.93 208.5,-36.91 197.98,-27.75"/>
<polygon fill="#63b8ff" stroke="#63b8ff" points="200.41,-25.22 190.57,-21.29 195.81,-30.5 200.41,-25.22"/>
</a>
</g>
</g>
<!-- Node10&#45;&gt;Node5 -->
<g id="edge13_Node000010_Node000005" class="edge">
<title>Node10&#45;&gt;Node5</title>
<g id="a_edge13_Node000010_Node000005"><a xlink:title=" ">
<path fill="none" stroke="#63b8ff" d="M240.75,-55.59C240.75,-49.01 240.75,-39.96 240.75,-31.73"/>
<polygon fill="#63b8ff" stroke="#63b8ff" points="244.25,-31.81 240.75,-21.81 237.25,-31.81 244.25,-31.81"/>
</a>
</g>
</g>
<!-- Node10&#45;&gt;Node6 -->
<g id="edge14_Node000010_Node000006" class="edge">
<title>Node10&#45;&gt;Node6</title>
<g id="a_edge14_Node000010_Node000006"><a xlink:title=" ">
<path fill="none" stroke="#63b8ff" d="M275.36,-59.35C323.87,-51.31 414.77,-35.77 491.75,-20 493.76,-19.59 495.82,-19.15 497.89,-18.7"/>
<polygon fill="#63b8ff" stroke="#63b8ff" points="498.46,-22.17 507.45,-16.57 496.93,-15.33 498.46,-22.17"/>
</a>
</g>
</g>
<!-- Node10&#45;&gt;Node7 -->
<g id="edge15_Node000010_Node000007" class="edge">
<title>Node10&#45;&gt;Node7</title>
<g id="a_edge15_Node000010_Node000007"><a xlink:title=" ">
<path fill="none" stroke="#63b8ff" d="M253.29,-55.59C263.72,-47.77 278.8,-36.46 291.16,-27.19"/>
<polygon fill="#63b8ff" stroke="#63b8ff" points="293.24,-30.01 299.14,-21.21 289.04,-24.41 293.24,-30.01"/>
</a>
</g>
</g>
<!-- Node10&#45;&gt;Node8 -->
<g id="edge16_Node000010_Node000008" class="edge">
<title>Node10&#45;&gt;Node8</title>
<g id="a_edge16_Node000010_Node000008"><a xlink:title=" ">
<path fill="none" stroke="#63b8ff" d="M265.14,-55.59C287.38,-47.01 320.52,-34.23 345.62,-24.55"/>
<polygon fill="#63b8ff" stroke="#63b8ff" points="346.69,-27.89 354.76,-21.02 344.17,-21.36 346.69,-27.89"/>
</a>
</g>
</g>
<!-- Node10&#45;&gt;Node9 -->
<g id="edge17_Node000010_Node000009" class="edge">
<title>Node10&#45;&gt;Node9</title>
<g id="a_edge17_Node000010_Node000009"><a xlink:title=" ">
<path fill="none" stroke="#63b8ff" d="M275.13,-56.32C313.5,-46.64 375.44,-31.01 415.63,-20.87"/>
<polygon fill="#63b8ff" stroke="#63b8ff" points="416.29,-24.31 425.13,-18.47 414.58,-17.53 416.29,-24.31"/>
</a>
</g>
</g>
<!-- Node11&#45;&gt;Node2 -->
<g id="edge19_Node000011_Node000002" class="edge">
<title>Node11&#45;&gt;Node2</title>
<g id="a_edge19_Node000011_Node000002"><a xlink:title=" ">
<path fill="none" stroke="#63b8ff" d="M265.51,-111.68C233.78,-103.76 188.7,-91.28 150.75,-76 115.24,-61.7 76.49,-40.4 51.92,-26.11"/>
<polygon fill="#63b8ff" stroke="#63b8ff" points="54.01,-23.28 43.62,-21.23 50.47,-29.32 54.01,-23.28"/>
</a>
</g>
</g>
<!-- Node11&#45;&gt;Node3 -->
<g id="edge20_Node000011_Node000003" class="edge">
<title>Node11&#45;&gt;Node3</title>
<g id="a_edge20_Node000011_Node000003"><a xlink:title=" ">
<path fill="none" stroke="#63b8ff" d="M270.46,-111.5C245.11,-103.88 210.63,-91.83 182.75,-76 159.08,-62.55 135.29,-42.13 119.88,-27.78"/>
<polygon fill="#63b8ff" stroke="#63b8ff" points="122.59,-25.53 112.94,-21.17 117.76,-30.6 122.59,-25.53"/>
</a>
</g>
</g>
<!-- Node11&#45;&gt;Node4 -->
<g id="edge21_Node000011_Node000004" class="edge">
<title>Node11&#45;&gt;Node4</title>
<g id="a_edge21_Node000011_Node000004"><a xlink:title=" ">
<path fill="none" stroke="#63b8ff" d="M265.55,-113.25C242.73,-106.88 215.3,-95.6 197.75,-76 186.82,-63.79 182.16,-45.62 180.18,-31.59"/>
<polygon fill="#63b8ff" stroke="#63b8ff" points="183.67,-31.26 179.17,-21.66 176.7,-31.97 183.67,-31.26"/>
</a>
</g>
</g>
<!-- Node11&#45;&gt;Node5 -->
<g id="edge22_Node000011_Node000005" class="edge">
<title>Node11&#45;&gt;Node5</title>
<g id="a_edge22_Node000011_Node000005"><a xlink:title=" ">
<path fill="none" stroke="#63b8ff" d="M303.93,-111.63C301.08,-98.48 294.73,-74.14 283.75,-56 277.5,-45.68 268.53,-35.81 260.39,-27.95"/>
<polygon fill="#63b8ff" stroke="#63b8ff" points="262.91,-25.51 253.18,-21.31 258.17,-30.66 262.91,-25.51"/>
</a>
</g>
</g>
<!-- Node11&#45;&gt;Node6 -->
<g id="edge23_Node000011_Node000006" class="edge">
<title>Node11&#45;&gt;Node6</title>
<g id="a_edge23_Node000011_Node000006"><a xlink:title=" ">
<path fill="none" stroke="#63b8ff" d="M324.93,-111.62C364.37,-92.34 454.76,-48.15 501.53,-25.29"/>
<polygon fill="#63b8ff" stroke="#63b8ff" points="502.81,-28.56 510.26,-21.02 499.73,-22.27 502.81,-28.56"/>
</a>
</g>
</g>
<!-- Node11&#45;&gt;Node7 -->
<g id="edge24_Node000011_Node000007" class="edge">
<title>Node11&#45;&gt;Node7</title>
<g id="a_edge24_Node000011_Node000007"><a xlink:title=" ">
<path fill="none" stroke="#63b8ff" d="M308.68,-111.81C311.4,-102.8 315.23,-88.62 316.75,-76 318.53,-61.18 317.42,-44.36 315.91,-31.55"/>
<polygon fill="#63b8ff" stroke="#63b8ff" points="319.4,-31.22 314.58,-21.79 312.46,-32.17 319.4,-31.22"/>
</a>
</g>
</g>
<!-- Node11&#45;&gt;Node8 -->
<g id="edge25_Node000011_Node000008" class="edge">
<title>Node11&#45;&gt;Node8</title>
<g id="a_edge25_Node000011_Node000008"><a xlink:title=" ">
<path fill="none" stroke="#63b8ff" d="M312.14,-111.62C324.49,-93.52 351.8,-53.45 368,-29.7"/>
<polygon fill="#63b8ff" stroke="#63b8ff" points="370.78,-31.84 373.52,-21.61 364.99,-27.9 370.78,-31.84"/>
</a>
</g>
</g>
<!-- Node11&#45;&gt;Node9 -->
<g id="edge26_Node000011_Node000009" class="edge">
<title>Node11&#45;&gt;Node9</title>
<g id="a_edge26_Node000011_Node000009"><a xlink:title=" ">
<path fill="none" stroke="#63b8ff" d="M318.45,-111.62C343.96,-92.79 401.67,-50.18 433.2,-26.91"/>
<polygon fill="#63b8ff" stroke="#63b8ff" points="434.89,-30.01 440.86,-21.25 430.74,-24.38 434.89,-30.01"/>
</a>
</g>
</g>
<!-- Node11&#45;&gt;Node10 -->
<g id="edge27_Node000011_Node000010" class="edge">
<title>Node11&#45;&gt;Node10</title>
<g id="a_edge27_Node000011_Node000010"><a xlink:title=" ">
<path fill="none" stroke="#63b8ff" d="M294.43,-111.59C285.11,-103.85 271.67,-92.69 260.57,-83.47"/>
<polygon fill="#63b8ff" stroke="#63b8ff" points="263.04,-80.96 253.11,-77.27 258.56,-86.35 263.04,-80.96"/>
</a>
</g>
</g>
</g>
</svg>
