<?xml version="1.0" encoding="UTF-8" standalone="no"?>
<!DOCTYPE svg PUBLIC "-//W3C//DTD SVG 1.1//EN"
 "http://www.w3.org/Graphics/SVG/1.1/DTD/svg11.dtd">
<!-- Generated by graphviz version 10.0.1 (20240210.2158)
 -->
<!-- Title: RoutageVoilier/include/Grille.hpp Pages: 1 -->
<svg width="800pt" height="652pt"
 viewBox="0.00 0.00 800.00 652.00" xmlns="http://www.w3.org/2000/svg" xmlns:xlink="http://www.w3.org/1999/xlink">
<g id="graph0" class="graph" transform="scale(1 1) rotate(0) translate(4 648)">
<title>RoutageVoilier/include/Grille.hpp</title>
<!-- Node1 -->
<g id="Node000001" class="node">
<title>Node1</title>
<g id="a_Node000001"><a xlink:title=" ">
<polygon fill="#999999" stroke="#666666" points="529.38,-644 416.62,-644 416.62,-612 529.38,-612 529.38,-644"/>
<text text-anchor="start" x="424.62" y="-630.5" font-family="Helvetica,sans-Serif" font-size="10.00">RoutageVoilier/include</text>
<text text-anchor="middle" x="473" y="-618.5" font-family="Helvetica,sans-Serif" font-size="10.00">/Grille.hpp</text>
</a>
</g>
</g>
<!-- Node2 -->
<g id="Node000002" class="node">
<title>Node2</title>
<g id="a_Node000002"><a xlink:href="_bassin_8hpp.html" target="_top" xlink:title=" ">
<polygon fill="white" stroke="#666666" points="402.38,-576 289.62,-576 289.62,-544 402.38,-544 402.38,-576"/>
<text text-anchor="start" x="297.62" y="-562.5" font-family="Helvetica,sans-Serif" font-size="10.00">RoutageVoilier/include</text>
<text text-anchor="middle" x="346" y="-550.5" font-family="Helvetica,sans-Serif" font-size="10.00">/Bassin.hpp</text>
</a>
</g>
</g>
<!-- Node1&#45;&gt;Node2 -->
<g id="edge1_Node000001_Node000002" class="edge">
<title>Node1&#45;&gt;Node2</title>
<g id="a_edge1_Node000001_Node000002"><a xlink:title=" ">
<path fill="none" stroke="#63b8ff" d="M433.24,-606.34C414.59,-596.65 392.75,-585.3 375.59,-576.38"/>
<polygon fill="#63b8ff" stroke="#63b8ff" points="431.39,-609.32 441.88,-610.83 434.62,-603.11 431.39,-609.32"/>
</a>
</g>
</g>
<!-- Node3 -->
<g id="Node000003" class="node">
<title>Node3</title>
<g id="a_Node000003"><a xlink:href="_dynamique_8hpp.html" target="_top" xlink:title=" ">
<polygon fill="white" stroke="#666666" points="471.38,-304 358.62,-304 358.62,-272 471.38,-272 471.38,-304"/>
<text text-anchor="start" x="366.62" y="-290.5" font-family="Helvetica,sans-Serif" font-size="10.00">RoutageVoilier/include</text>
<text text-anchor="middle" x="415" y="-278.5" font-family="Helvetica,sans-Serif" font-size="10.00">/Dynamique.hpp</text>
</a>
</g>
</g>
<!-- Node1&#45;&gt;Node3 -->
<g id="edge30_Node000001_Node000003" class="edge">
<title>Node1&#45;&gt;Node3</title>
<g id="a_edge30_Node000001_Node000003"><a xlink:title=" ">
<path fill="none" stroke="#63b8ff" d="M467.32,-600.59C462.23,-576.52 454.7,-539.95 449,-508 435.42,-431.86 422.2,-340.28 417.15,-304.44"/>
<polygon fill="#63b8ff" stroke="#63b8ff" points="463.85,-601.11 469.36,-610.16 470.7,-599.65 463.85,-601.11"/>
</a>
</g>
</g>
<!-- Node4 -->
<g id="Node000004" class="node">
<title>Node4</title>
<g id="a_Node000004"><a xlink:href="_flux_8hpp.html" target="_top" xlink:title=" ">
<polygon fill="white" stroke="#666666" points="726.38,-236 613.62,-236 613.62,-204 726.38,-204 726.38,-236"/>
<text text-anchor="start" x="621.62" y="-222.5" font-family="Helvetica,sans-Serif" font-size="10.00">RoutageVoilier/include</text>
<text text-anchor="middle" x="670" y="-210.5" font-family="Helvetica,sans-Serif" font-size="10.00">/Flux.hpp</text>
</a>
</g>
</g>
<!-- Node1&#45;&gt;Node4 -->
<g id="edge31_Node000001_Node000004" class="edge">
<title>Node1&#45;&gt;Node4</title>
<g id="a_edge31_Node000001_Node000004"><a xlink:title=" ">
<path fill="none" stroke="#63b8ff" d="M541.04,-627.16C634.72,-623.39 792,-600.98 792,-493 792,-493 792,-493 792,-355 792,-300.1 735.31,-257.78 699.22,-236.4"/>
<polygon fill="#63b8ff" stroke="#63b8ff" points="541.05,-623.65 531.18,-627.48 541.29,-630.65 541.05,-623.65"/>
</a>
</g>
</g>
<!-- Node5 -->
<g id="Node000005" class="node">
<title>Node5</title>
<g id="a_Node000005"><a xlink:href="_h_j_b_8hpp.html" target="_top" xlink:title=" ">
<polygon fill="white" stroke="#666666" points="642.38,-168 529.62,-168 529.62,-136 642.38,-136 642.38,-168"/>
<text text-anchor="start" x="537.62" y="-154.5" font-family="Helvetica,sans-Serif" font-size="10.00">RoutageVoilier/include</text>
<text text-anchor="middle" x="586" y="-142.5" font-family="Helvetica,sans-Serif" font-size="10.00">/HJB.hpp</text>
</a>
</g>
</g>
<!-- Node1&#45;&gt;Node5 -->
<g id="edge33_Node000001_Node000005" class="edge">
<title>Node1&#45;&gt;Node5</title>
<g id="a_edge33_Node000001_Node000005"><a xlink:title=" ">
<path fill="none" stroke="#63b8ff" d="M504.55,-604.65C531.66,-583.35 568.85,-548.55 585,-508 633.91,-385.18 601.56,-218.95 589.79,-168.28"/>
<polygon fill="#63b8ff" stroke="#63b8ff" points="502.46,-601.85 496.63,-610.7 506.71,-607.41 502.46,-601.85"/>
</a>
</g>
</g>
<!-- Node8 -->
<g id="Node000008" class="node">
<title>Node8</title>
<g id="a_Node000008"><a xlink:href="_simulateur_8hpp.html" target="_top" xlink:title=" ">
<polygon fill="white" stroke="#666666" points="178.38,-236 65.62,-236 65.62,-204 178.38,-204 178.38,-236"/>
<text text-anchor="start" x="73.62" y="-222.5" font-family="Helvetica,sans-Serif" font-size="10.00">RoutageVoilier/include</text>
<text text-anchor="middle" x="122" y="-210.5" font-family="Helvetica,sans-Serif" font-size="10.00">/Simulateur.hpp</text>
</a>
</g>
</g>
<!-- Node1&#45;&gt;Node8 -->
<g id="edge34_Node000001_Node000008" class="edge">
<title>Node1&#45;&gt;Node8</title>
<g id="a_edge34_Node000001_Node000008"><a xlink:title=" ">
<path fill="none" stroke="#63b8ff" d="M404.97,-621.95C274.07,-610.36 0,-576.16 0,-493 0,-493 0,-493 0,-355 0,-300.1 56.69,-257.78 92.78,-236.4"/>
<polygon fill="#63b8ff" stroke="#63b8ff" points="404.64,-625.44 414.91,-622.81 405.25,-618.46 404.64,-625.44"/>
</a>
</g>
</g>
<!-- Node9 -->
<g id="Node000009" class="node">
<title>Node9</title>
<g id="a_Node000009"><a xlink:href="_fonction__externes_8hpp.html" target="_top" xlink:title=" ">
<polygon fill="white" stroke="#666666" points="576,-508 458,-508 458,-476 576,-476 576,-508"/>
<text text-anchor="start" x="466" y="-494.5" font-family="Helvetica,sans-Serif" font-size="10.00">RoutageVoilier/include</text>
<text text-anchor="middle" x="517" y="-482.5" font-family="Helvetica,sans-Serif" font-size="10.00">/Fonction_externes.hpp</text>
</a>
</g>
</g>
<!-- Node1&#45;&gt;Node9 -->
<g id="edge32_Node000001_Node000009" class="edge">
<title>Node1&#45;&gt;Node9</title>
<g id="a_edge32_Node000001_Node000009"><a xlink:title=" ">
<path fill="none" stroke="#63b8ff" d="M481.6,-600.82C490.66,-573.22 504.62,-530.7 512.01,-508.19"/>
<polygon fill="#63b8ff" stroke="#63b8ff" points="478.31,-599.6 478.52,-610.19 484.96,-601.78 478.31,-599.6"/>
</a>
</g>
</g>
<!-- Node2&#45;&gt;Node3 -->
<g id="edge2_Node000002_Node000003" class="edge">
<title>Node2&#45;&gt;Node3</title>
<g id="a_edge2_Node000002_Node000003"><a xlink:title=" ">
<path fill="none" stroke="#63b8ff" d="M352.72,-532.69C366.95,-477.03 399.71,-348.84 411.05,-304.46"/>
<polygon fill="#63b8ff" stroke="#63b8ff" points="349.37,-531.69 350.28,-542.24 356.15,-533.42 349.37,-531.69"/>
</a>
</g>
</g>
<!-- Node7 -->
<g id="Node000007" class="node">
<title>Node7</title>
<g id="a_Node000007"><a xlink:href="main_8cpp.html" target="_top" xlink:title=" ">
<polygon fill="white" stroke="#666666" points="443.75,-32 348.25,-32 348.25,0 443.75,0 443.75,-32"/>
<text text-anchor="start" x="356.25" y="-18.5" font-family="Helvetica,sans-Serif" font-size="10.00">RoutageVoilier/src</text>
<text text-anchor="middle" x="396" y="-6.5" font-family="Helvetica,sans-Serif" font-size="10.00">/main.cpp</text>
</a>
</g>
</g>
<!-- Node2&#45;&gt;Node7 -->
<g id="edge29_Node000002_Node000007" class="edge">
<title>Node2&#45;&gt;Node7</title>
<g id="a_edge29_Node000002_Node000007"><a xlink:title=" ">
<path fill="none" stroke="#63b8ff" d="M277.85,-558.18C187.13,-553.07 38,-528.87 38,-425 38,-425 38,-425 38,-151 38,-85.05 100.35,-93.9 161,-68 222.62,-41.68 299.35,-28.32 348.02,-22.01"/>
<polygon fill="#63b8ff" stroke="#63b8ff" points="277.48,-561.67 287.64,-558.66 277.82,-554.68 277.48,-561.67"/>
</a>
</g>
</g>
<!-- Node2&#45;&gt;Node8 -->
<g id="edge28_Node000002_Node000008" class="edge">
<title>Node2&#45;&gt;Node8</title>
<g id="a_edge28_Node000002_Node000008"><a xlink:title=" ">
<path fill="none" stroke="#63b8ff" d="M278.41,-554.32C198.44,-544.69 76,-515.21 76,-425 76,-425 76,-425 76,-355 76,-309.99 99.51,-260.86 112.91,-236.49"/>
<polygon fill="#63b8ff" stroke="#63b8ff" points="277.57,-557.75 287.9,-555.39 278.35,-550.8 277.57,-557.75"/>
</a>
</g>
</g>
<!-- Node2&#45;&gt;Node9 -->
<g id="edge14_Node000002_Node000009" class="edge">
<title>Node2&#45;&gt;Node9</title>
<g id="a_edge14_Node000002_Node000009"><a xlink:title=" ">
<path fill="none" stroke="#63b8ff" d="M396.72,-539.42C422.32,-529.54 452.93,-517.73 476.86,-508.49"/>
<polygon fill="#63b8ff" stroke="#63b8ff" points="395.57,-536.11 387.5,-542.98 398.09,-542.65 395.57,-536.11"/>
</a>
</g>
</g>
<!-- Node3&#45;&gt;Node4 -->
<g id="edge3_Node000003_Node000004" class="edge">
<title>Node3&#45;&gt;Node4</title>
<g id="a_edge3_Node000003_Node000004"><a xlink:title=" ">
<path fill="none" stroke="#63b8ff" d="M482.51,-269.53C523.21,-258.99 574.49,-245.72 613.13,-235.72"/>
<polygon fill="#63b8ff" stroke="#63b8ff" points="481.86,-266.08 473.06,-271.97 483.62,-272.86 481.86,-266.08"/>
</a>
</g>
</g>
<!-- Node3&#45;&gt;Node5 -->
<g id="edge9_Node000003_Node000005" class="edge">
<title>Node3&#45;&gt;Node5</title>
<g id="a_edge9_Node000003_Node000005"><a xlink:title=" ">
<path fill="none" stroke="#63b8ff" d="M443.34,-264.79C478.11,-237.55 536.13,-192.08 566.35,-168.4"/>
<polygon fill="#63b8ff" stroke="#63b8ff" points="441.52,-261.77 435.81,-270.69 445.84,-267.28 441.52,-261.77"/>
</a>
</g>
</g>
<!-- Node6 -->
<g id="Node000006" class="node">
<title>Node6</title>
<g id="a_Node000006"><a xlink:href="route__optimale_8hpp.html" target="_top" xlink:title=" ">
<polygon fill="white" stroke="#666666" points="547.38,-100 434.62,-100 434.62,-68 547.38,-68 547.38,-100"/>
<text text-anchor="start" x="442.62" y="-86.5" font-family="Helvetica,sans-Serif" font-size="10.00">RoutageVoilier/include</text>
<text text-anchor="middle" x="491" y="-74.5" font-family="Helvetica,sans-Serif" font-size="10.00">/route_optimale.hpp</text>
</a>
</g>
</g>
<!-- Node3&#45;&gt;Node6 -->
<g id="edge12_Node000003_Node000006" class="edge">
<title>Node3&#45;&gt;Node6</title>
<g id="a_edge12_Node000003_Node000006"><a xlink:title=" ">
<path fill="none" stroke="#63b8ff" d="M424.7,-261.21C440.73,-218.6 472.26,-134.82 485.22,-100.36"/>
<polygon fill="#63b8ff" stroke="#63b8ff" points="421.49,-259.81 421.25,-270.4 428.04,-262.27 421.49,-259.81"/>
</a>
</g>
</g>
<!-- Node3&#45;&gt;Node7 -->
<g id="edge13_Node000003_Node000007" class="edge">
<title>Node3&#45;&gt;Node7</title>
<g id="a_edge13_Node000003_Node000007"><a xlink:title=" ">
<path fill="none" stroke="#63b8ff" d="M413.12,-260.34C409.19,-204.5 400.2,-76.75 397.09,-32.46"/>
<polygon fill="#63b8ff" stroke="#63b8ff" points="409.62,-260.47 413.82,-270.2 416.61,-259.98 409.62,-260.47"/>
</a>
</g>
</g>
<!-- Node3&#45;&gt;Node8 -->
<g id="edge10_Node000003_Node000008" class="edge">
<title>Node3&#45;&gt;Node8</title>
<g id="a_edge10_Node000003_Node000008"><a xlink:title=" ">
<path fill="none" stroke="#63b8ff" d="M347.22,-271.73C296.12,-260.22 226.85,-244.62 178.68,-233.77"/>
<polygon fill="#63b8ff" stroke="#63b8ff" points="346.16,-275.08 356.68,-273.86 347.7,-268.25 346.16,-275.08"/>
</a>
</g>
</g>
<!-- Node4&#45;&gt;Node5 -->
<g id="edge4_Node000004_Node000005" class="edge">
<title>Node4&#45;&gt;Node5</title>
<g id="a_edge4_Node000004_Node000005"><a xlink:title=" ">
<path fill="none" stroke="#63b8ff" d="M641.49,-196.6C629.7,-187.34 616.33,-176.83 605.67,-168.45"/>
<polygon fill="#63b8ff" stroke="#63b8ff" points="639.3,-199.33 649.33,-202.76 643.63,-193.83 639.3,-199.33"/>
</a>
</g>
</g>
<!-- Node4&#45;&gt;Node7 -->
<g id="edge8_Node000004_Node000007" class="edge">
<title>Node4&#45;&gt;Node7</title>
<g id="a_edge8_Node000004_Node000007"><a xlink:title=" ">
<path fill="none" stroke="#63b8ff" d="M667.89,-192.28C665.61,-175.26 660.86,-153.24 651,-136 629.15,-97.79 617.32,-89.65 579,-68 536.65,-44.07 482.35,-30.78 443.93,-23.82"/>
<polygon fill="#63b8ff" stroke="#63b8ff" points="664.4,-192.59 668.98,-202.15 671.36,-191.82 664.4,-192.59"/>
</a>
</g>
</g>
<!-- Node5&#45;&gt;Node6 -->
<g id="edge5_Node000005_Node000006" class="edge">
<title>Node5&#45;&gt;Node6</title>
<g id="a_edge5_Node000005_Node000006"><a xlink:title=" ">
<path fill="none" stroke="#63b8ff" d="M554.54,-129.15C541.02,-119.75 525.54,-109 513.24,-100.45"/>
<polygon fill="#63b8ff" stroke="#63b8ff" points="552.51,-132 562.72,-134.83 556.51,-126.25 552.51,-132"/>
</a>
</g>
</g>
<!-- Node5&#45;&gt;Node7 -->
<g id="edge7_Node000005_Node000007" class="edge">
<title>Node5&#45;&gt;Node7</title>
<g id="a_edge7_Node000005_Node000007"><a xlink:title=" ">
<path fill="none" stroke="#63b8ff" d="M582.59,-124.33C578.94,-106.17 571.41,-82.83 556,-68 525.86,-38.99 479.23,-26.48 444.08,-21.08"/>
<polygon fill="#63b8ff" stroke="#63b8ff" points="579.13,-124.87 584.26,-134.14 586.04,-123.7 579.13,-124.87"/>
</a>
</g>
</g>
<!-- Node6&#45;&gt;Node7 -->
<g id="edge6_Node000006_Node000007" class="edge">
<title>Node6&#45;&gt;Node7</title>
<g id="a_edge6_Node000006_Node000007"><a xlink:title=" ">
<path fill="none" stroke="#63b8ff" d="M459.54,-61.15C446.02,-51.75 430.54,-41 418.24,-32.45"/>
<polygon fill="#63b8ff" stroke="#63b8ff" points="457.51,-64 467.72,-66.83 461.51,-58.25 457.51,-64"/>
</a>
</g>
</g>
<!-- Node8&#45;&gt;Node7 -->
<g id="edge11_Node000008_Node000007" class="edge">
<title>Node8&#45;&gt;Node7</title>
<g id="a_edge11_Node000008_Node000007"><a xlink:title=" ">
<path fill="none" stroke="#63b8ff" d="M126.84,-193.08C134.56,-159.17 152.95,-100.28 192,-68 236.17,-31.48 302.89,-20.57 347.89,-17.6"/>
<polygon fill="#63b8ff" stroke="#63b8ff" points="123.5,-191.96 124.85,-202.47 130.35,-193.41 123.5,-191.96"/>
</a>
</g>
</g>
<!-- Node9&#45;&gt;Node3 -->
<g id="edge15_Node000009_Node000003" class="edge">
<title>Node9&#45;&gt;Node3</title>
<g id="a_edge15_Node000009_Node000003"><a xlink:title=" ">
<path fill="none" stroke="#63b8ff" d="M506.5,-465.05C493.85,-434.52 471.34,-382.58 448,-340 441.21,-327.61 432.48,-314.22 425.71,-304.27"/>
<polygon fill="#63b8ff" stroke="#63b8ff" points="503.24,-466.32 510.28,-474.24 509.72,-463.66 503.24,-466.32"/>
</a>
</g>
</g>
<!-- Node9&#45;&gt;Node5 -->
<g id="edge16_Node000009_Node000005" class="edge">
<title>Node9&#45;&gt;Node5</title>
<g id="a_edge16_Node000009_Node000005"><a xlink:title=" ">
<path fill="none" stroke="#63b8ff" d="M526.76,-464.86C535.85,-438.15 548,-395.27 548,-357 548,-357 548,-357 548,-287 548,-242.51 567.63,-192.75 578.67,-168.28"/>
<polygon fill="#63b8ff" stroke="#63b8ff" points="523.51,-463.57 523.48,-474.16 530.11,-465.9 523.51,-463.57"/>
</a>
</g>
</g>
<!-- Node9&#45;&gt;Node6 -->
<g id="edge26_Node000009_Node000006" class="edge">
<title>Node9&#45;&gt;Node6</title>
<g id="a_edge26_Node000009_Node000006"><a xlink:title=" ">
<path fill="none" stroke="#63b8ff" d="M514.8,-464.54C512.75,-437.53 510,-394.37 510,-357 510,-357 510,-357 510,-287 510,-217.08 498.58,-134.14 493.45,-100.41"/>
<polygon fill="#63b8ff" stroke="#63b8ff" points="511.29,-464.54 515.56,-474.23 518.27,-463.99 511.29,-464.54"/>
</a>
</g>
</g>
<!-- Node9&#45;&gt;Node7 -->
<g id="edge27_Node000009_Node000007" class="edge">
<title>Node9&#45;&gt;Node7</title>
<g id="a_edge27_Node000009_Node000007"><a xlink:title=" ">
<path fill="none" stroke="#63b8ff" d="M587.46,-481.43C657.32,-467.51 754,-434.28 754,-357 754,-357 754,-357 754,-151 754,-85.55 541.46,-41.41 443.91,-24.59"/>
<polygon fill="#63b8ff" stroke="#63b8ff" points="587.16,-477.92 577.99,-483.22 588.46,-484.8 587.16,-477.92"/>
</a>
</g>
</g>
<!-- Node9&#45;&gt;Node8 -->
<g id="edge17_Node000009_Node000008" class="edge">
<title>Node9&#45;&gt;Node8</title>
<g id="a_edge17_Node000009_Node000008"><a xlink:title=" ">
<path fill="none" stroke="#63b8ff" d="M446.51,-485.03C368.47,-477.44 248.48,-462.53 209,-440 147.9,-405.13 142.37,-372.87 128,-304 123.16,-280.81 122.06,-253.27 121.89,-236.47"/>
<polygon fill="#63b8ff" stroke="#63b8ff" points="445.91,-488.49 456.19,-485.95 446.57,-481.52 445.91,-488.49"/>
</a>
</g>
</g>
<!-- Node10 -->
<g id="Node000010" class="node">
<title>Node10</title>
<g id="a_Node000010"><a xlink:href="_voilier_8hpp.html" target="_top" xlink:title=" ">
<polygon fill="white" stroke="#666666" points="330.38,-440 217.62,-440 217.62,-408 330.38,-408 330.38,-440"/>
<text text-anchor="start" x="225.62" y="-426.5" font-family="Helvetica,sans-Serif" font-size="10.00">RoutageVoilier/include</text>
<text text-anchor="middle" x="274" y="-414.5" font-family="Helvetica,sans-Serif" font-size="10.00">/Voilier.hpp</text>
</a>
</g>
</g>
<!-- Node9&#45;&gt;Node10 -->
<g id="edge18_Node000009_Node000010" class="edge">
<title>Node9&#45;&gt;Node10</title>
<g id="a_edge18_Node000009_Node000010"><a xlink:title=" ">
<path fill="none" stroke="#63b8ff" d="M449.23,-472.59C411.88,-462.45 366.04,-450 330.62,-440.38"/>
<polygon fill="#63b8ff" stroke="#63b8ff" points="448,-475.89 458.57,-475.13 449.83,-469.13 448,-475.89"/>
</a>
</g>
</g>
<!-- Node10&#45;&gt;Node3 -->
<g id="edge23_Node000010_Node000003" class="edge">
<title>Node10&#45;&gt;Node3</title>
<g id="a_edge23_Node000010_Node000003"><a xlink:title=" ">
<path fill="none" stroke="#63b8ff" d="M304.5,-400.72C315.69,-392.13 328.23,-381.98 339,-372 362.79,-349.96 387.68,-321.6 402.25,-304.39"/>
<polygon fill="#63b8ff" stroke="#63b8ff" points="302.57,-397.79 296.71,-406.62 306.79,-403.38 302.57,-397.79"/>
</a>
</g>
</g>
<!-- Node10&#45;&gt;Node7 -->
<g id="edge25_Node000010_Node000007" class="edge">
<title>Node10&#45;&gt;Node7</title>
<g id="a_edge25_Node000010_Node000007"><a xlink:title=" ">
<path fill="none" stroke="#63b8ff" d="M234.43,-401.01C224.27,-393.27 214.62,-383.55 209,-372 202.78,-359.21 206.24,-353.95 209,-340 234.37,-211.75 238.58,-169.48 321,-68 332.91,-53.33 350.14,-41.21 365.07,-32.47"/>
<polygon fill="#63b8ff" stroke="#63b8ff" points="232.37,-403.84 242.57,-406.7 236.38,-398.1 232.37,-403.84"/>
</a>
</g>
</g>
<!-- Node10&#45;&gt;Node8 -->
<g id="edge24_Node000010_Node000008" class="edge">
<title>Node10&#45;&gt;Node8</title>
<g id="a_edge24_Node000010_Node000008"><a xlink:title=" ">
<path fill="none" stroke="#63b8ff" d="M218.04,-402.84C202.77,-395.14 187.32,-384.98 176,-372 140.5,-331.29 127.79,-265.57 123.72,-236.12"/>
<polygon fill="#63b8ff" stroke="#63b8ff" points="216.11,-405.8 226.64,-406.91 219.1,-399.47 216.11,-405.8"/>
</a>
</g>
</g>
<!-- Node11 -->
<g id="Node000011" class="node">
<title>Node11</title>
<g id="a_Node000011"><a xlink:href="_commande_8hpp.html" target="_top" xlink:title=" ">
<polygon fill="white" stroke="#666666" points="330.38,-372 217.62,-372 217.62,-340 330.38,-340 330.38,-372"/>
<text text-anchor="start" x="225.62" y="-358.5" font-family="Helvetica,sans-Serif" font-size="10.00">RoutageVoilier/include</text>
<text text-anchor="middle" x="274" y="-346.5" font-family="Helvetica,sans-Serif" font-size="10.00">/Commande.hpp</text>
</a>
</g>
</g>
<!-- Node10&#45;&gt;Node11 -->
<g id="edge19_Node000010_Node000011" class="edge">
<title>Node10&#45;&gt;Node11</title>
<g id="a_edge19_Node000010_Node000011"><a xlink:title=" ">
<path fill="none" stroke="#63b8ff" d="M274,-396.31C274,-388.12 274,-379.38 274,-372.22"/>
<polygon fill="#63b8ff" stroke="#63b8ff" points="270.5,-396.18 274,-406.18 277.5,-396.18 270.5,-396.18"/>
</a>
</g>
</g>
<!-- Node11&#45;&gt;Node3 -->
<g id="edge20_Node000011_Node000003" class="edge">
<title>Node11&#45;&gt;Node3</title>
<g id="a_edge20_Node000011_Node000003"><a xlink:title=" ">
<path fill="none" stroke="#63b8ff" d="M317.28,-334.74C338.17,-324.96 362.83,-313.42 382.15,-304.38"/>
<polygon fill="#63b8ff" stroke="#63b8ff" points="316,-331.47 308.43,-338.88 318.97,-337.81 316,-331.47"/>
</a>
</g>
</g>
<!-- Node11&#45;&gt;Node7 -->
<g id="edge22_Node000011_Node000007" class="edge">
<title>Node11&#45;&gt;Node7</title>
<g id="a_edge22_Node000011_Node000007"><a xlink:title=" ">
<path fill="none" stroke="#63b8ff" d="M285.5,-329.39C296.37,-302.84 311,-259.86 311,-221 311,-221 311,-221 311,-151 311,-101.41 353.02,-55.31 377.97,-32.31"/>
<polygon fill="#63b8ff" stroke="#63b8ff" points="282.4,-327.73 281.72,-338.31 288.85,-330.47 282.4,-327.73"/>
</a>
</g>
</g>
<!-- Node11&#45;&gt;Node8 -->
<g id="edge21_Node000011_Node000008" class="edge">
<title>Node11&#45;&gt;Node8</title>
<g id="a_edge21_Node000011_Node000008"><a xlink:title=" ">
<path fill="none" stroke="#63b8ff" d="M247.99,-332.07C216.91,-304.67 165.79,-259.61 139.23,-236.19"/>
<polygon fill="#63b8ff" stroke="#63b8ff" points="245.61,-334.64 255.43,-338.63 250.24,-329.39 245.61,-334.64"/>
</a>
</g>
</g>
</g>
</svg>
