<?xml version="1.0" encoding="UTF-8" standalone="no"?>
<!DOCTYPE svg PUBLIC "-//W3C//DTD SVG 1.1//EN"
 "http://www.w3.org/Graphics/SVG/1.1/DTD/svg11.dtd">
<!-- Generated by graphviz version 10.0.1 (20240210.2158)
 -->
<!-- Title: RoutageVoilier/include/Polaire.hpp Pages: 1 -->
<svg width="1164pt" height="264pt"
 viewBox="0.00 0.00 1164.12 264.00" xmlns="http://www.w3.org/2000/svg" xmlns:xlink="http://www.w3.org/1999/xlink">
<g id="graph0" class="graph" transform="scale(1 1) rotate(0) translate(4 260)">
<title>RoutageVoilier/include/Polaire.hpp</title>
<!-- Node1 -->
<g id="Node000001" class="node">
<title>Node1</title>
<g id="a_Node000001"><a xlink:title=" ">
<polygon fill="#999999" stroke="#666666" points="668.38,-256 555.62,-256 555.62,-224 668.38,-224 668.38,-256"/>
<text text-anchor="start" x="563.62" y="-242.5" font-family="Helvetica,sans-Serif" font-size="10.00">RoutageVoilier/include</text>
<text text-anchor="middle" x="612" y="-230.5" font-family="Helvetica,sans-Serif" font-size="10.00">/Polaire.hpp</text>
</a>
</g>
</g>
<!-- Node2 -->
<g id="Node000002" class="node">
<title>Node2</title>
<g id="a_Node000002"><a xlink:title=" ">
<polygon fill="#e0e0e0" stroke="#999999" points="502.75,-20 449.25,-20 449.25,0 502.75,0 502.75,-20"/>
<text text-anchor="middle" x="476" y="-6.5" font-family="Helvetica,sans-Serif" font-size="10.00">iostream</text>
</a>
</g>
</g>
<!-- Node1&#45;&gt;Node2 -->
<g id="edge1_Node000001_Node000002" class="edge">
<title>Node1&#45;&gt;Node2</title>
<g id="a_edge1_Node000001_Node000002"><a xlink:title=" ">
<path fill="none" stroke="#63b8ff" d="M560.2,-223.64C519.11,-208.16 465.47,-179.6 446,-132 441.91,-121.99 437.03,-88.8 447,-56 449.89,-46.48 455.44,-37.05 460.92,-29.3"/>
<polygon fill="#63b8ff" stroke="#63b8ff" points="463.64,-31.5 466.92,-21.42 458.08,-27.25 463.64,-31.5"/>
</a>
</g>
</g>
<!-- Node3 -->
<g id="Node000003" class="node">
<title>Node3</title>
<g id="a_Node000003"><a xlink:title=" ">
<polygon fill="#e0e0e0" stroke="#999999" points="40,-20 0,-20 0,0 40,0 40,-20"/>
<text text-anchor="middle" x="20" y="-6.5" font-family="Helvetica,sans-Serif" font-size="10.00">string</text>
</a>
</g>
</g>
<!-- Node1&#45;&gt;Node3 -->
<g id="edge2_Node000001_Node000003" class="edge">
<title>Node1&#45;&gt;Node3</title>
<g id="a_edge2_Node000001_Node000003"><a xlink:title=" ">
<path fill="none" stroke="#63b8ff" d="M555.4,-235.02C487.13,-229.19 369.42,-215.86 272,-188 151.42,-153.52 81.87,-180.81 13,-76 4.32,-62.79 7.15,-44.73 11.54,-30.99"/>
<polygon fill="#63b8ff" stroke="#63b8ff" points="14.8,-32.28 15.02,-21.69 8.24,-29.83 14.8,-32.28"/>
</a>
</g>
</g>
<!-- Node4 -->
<g id="Node000004" class="node">
<title>Node4</title>
<g id="a_Node000004"><a xlink:title=" ">
<polygon fill="#e0e0e0" stroke="#999999" points="192.75,-20 151.25,-20 151.25,0 192.75,0 192.75,-20"/>
<text text-anchor="middle" x="172" y="-6.5" font-family="Helvetica,sans-Serif" font-size="10.00">vector</text>
</a>
</g>
</g>
<!-- Node1&#45;&gt;Node4 -->
<g id="edge3_Node000001_Node000004" class="edge">
<title>Node1&#45;&gt;Node4</title>
<g id="a_edge3_Node000001_Node000004"><a xlink:title=" ">
<path fill="none" stroke="#63b8ff" d="M555.47,-238.21C455.93,-233.35 251.83,-207.03 166,-76 157.35,-62.8 159.89,-44.74 164,-31"/>
<polygon fill="#63b8ff" stroke="#63b8ff" points="167.25,-32.3 167.27,-21.7 160.65,-29.97 167.25,-32.3"/>
</a>
</g>
</g>
<!-- Node5 -->
<g id="Node000005" class="node">
<title>Node5</title>
<g id="a_Node000005"><a xlink:title=" ">
<polygon fill="#e0e0e0" stroke="#999999" points="346.25,-20 301.75,-20 301.75,0 346.25,0 346.25,-20"/>
<text text-anchor="middle" x="324" y="-6.5" font-family="Helvetica,sans-Serif" font-size="10.00">cstdlib</text>
</a>
</g>
</g>
<!-- Node1&#45;&gt;Node5 -->
<g id="edge4_Node000001_Node000005" class="edge">
<title>Node1&#45;&gt;Node5</title>
<g id="a_edge4_Node000001_Node000005"><a xlink:title=" ">
<path fill="none" stroke="#63b8ff" d="M555.14,-223.71C527.38,-215.12 494.02,-203.07 466,-188 393.67,-149.09 355.45,-149.6 319,-76 312.15,-62.18 314.01,-44.65 317.25,-31.28"/>
<polygon fill="#63b8ff" stroke="#63b8ff" points="320.56,-32.43 319.98,-21.85 313.84,-30.48 320.56,-32.43"/>
</a>
</g>
</g>
<!-- Node6 -->
<g id="Node000006" class="node">
<title>Node6</title>
<g id="a_Node000006"><a xlink:title=" ">
<polygon fill="#e0e0e0" stroke="#999999" points="1001.5,-20 958.5,-20 958.5,0 1001.5,0 1001.5,-20"/>
<text text-anchor="middle" x="980" y="-6.5" font-family="Helvetica,sans-Serif" font-size="10.00">cmath</text>
</a>
</g>
</g>
<!-- Node1&#45;&gt;Node6 -->
<g id="edge5_Node000001_Node000006" class="edge">
<title>Node1&#45;&gt;Node6</title>
<g id="a_edge5_Node000001_Node000006"><a xlink:title=" ">
<path fill="none" stroke="#63b8ff" d="M668.8,-224.65C697.46,-216.17 732.16,-203.93 761,-188 844.63,-141.8 928.21,-62.98 963.07,-28.27"/>
<polygon fill="#63b8ff" stroke="#63b8ff" points="965.22,-31.08 969.79,-21.52 960.25,-26.14 965.22,-31.08"/>
</a>
</g>
</g>
<!-- Node7 -->
<g id="Node000007" class="node">
<title>Node7</title>
<g id="a_Node000007"><a xlink:title=" ">
<polygon fill="#e0e0e0" stroke="#999999" points="1156.12,-20 1107.88,-20 1107.88,0 1156.12,0 1156.12,-20"/>
<text text-anchor="middle" x="1132" y="-6.5" font-family="Helvetica,sans-Serif" font-size="10.00">fstream</text>
</a>
</g>
</g>
<!-- Node1&#45;&gt;Node7 -->
<g id="edge6_Node000001_Node000007" class="edge">
<title>Node1&#45;&gt;Node7</title>
<g id="a_edge6_Node000001_Node000007"><a xlink:title=" ">
<path fill="none" stroke="#63b8ff" d="M668.79,-225.69C704.65,-216.6 751.65,-203.44 792,-188 897.82,-147.51 921.16,-129.55 1021,-76 1051.07,-59.87 1084.79,-39.84 1107.09,-26.31"/>
<polygon fill="#63b8ff" stroke="#63b8ff" points="1108.75,-29.39 1115.47,-21.2 1105.11,-23.42 1108.75,-29.39"/>
</a>
</g>
</g>
<!-- Node8 -->
<g id="Node000008" class="node">
<title>Node8</title>
<g id="a_Node000008"><a xlink:title=" ">
<polygon fill="#e0e0e0" stroke="#999999" points="853.62,-20 802.38,-20 802.38,0 853.62,0 853.62,-20"/>
<text text-anchor="middle" x="828" y="-6.5" font-family="Helvetica,sans-Serif" font-size="10.00">sstream</text>
</a>
</g>
</g>
<!-- Node1&#45;&gt;Node8 -->
<g id="edge7_Node000001_Node000008" class="edge">
<title>Node1&#45;&gt;Node8</title>
<g id="a_edge7_Node000001_Node000008"><a xlink:title=" ">
<path fill="none" stroke="#63b8ff" d="M668.49,-223.54C691.32,-215.44 716.96,-203.84 737,-188 788.87,-146.99 814.04,-68.39 823.45,-31.31"/>
<polygon fill="#63b8ff" stroke="#63b8ff" points="826.77,-32.45 825.69,-21.91 819.96,-30.82 826.77,-32.45"/>
</a>
</g>
</g>
<!-- Node9 -->
<g id="Node000009" class="node">
<title>Node9</title>
<g id="a_Node000009"><a xlink:title=" ">
<polygon fill="#e0e0e0" stroke="#999999" points="741.88,-20 686.12,-20 686.12,0 741.88,0 741.88,-20"/>
<text text-anchor="middle" x="714" y="-6.5" font-family="Helvetica,sans-Serif" font-size="10.00">algorithm</text>
</a>
</g>
</g>
<!-- Node1&#45;&gt;Node9 -->
<g id="edge8_Node000001_Node000009" class="edge">
<title>Node1&#45;&gt;Node9</title>
<g id="a_edge8_Node000001_Node000009"><a xlink:title=" ">
<path fill="none" stroke="#63b8ff" d="M650.44,-223.58C686.17,-206.91 737.2,-176.61 760,-132 765.33,-121.57 772.43,-87.63 759,-56 754.26,-44.83 745.3,-34.96 736.62,-27.33"/>
<polygon fill="#63b8ff" stroke="#63b8ff" points="739.01,-24.76 729.03,-21.19 734.6,-30.2 739.01,-24.76"/>
</a>
</g>
</g>
<!-- Node10 -->
<g id="Node000010" class="node">
<title>Node10</title>
<g id="a_Node000010"><a xlink:href="_vecteur_8hpp.html" target="_top" xlink:title=" ">
<polygon fill="white" stroke="#666666" points="610.25,-76 541.75,-76 541.75,-56 610.25,-56 610.25,-76"/>
<text text-anchor="middle" x="576" y="-62.5" font-family="Helvetica,sans-Serif" font-size="10.00">Vecteur.hpp</text>
</a>
</g>
</g>
<!-- Node1&#45;&gt;Node10 -->
<g id="edge9_Node000001_Node000010" class="edge">
<title>Node1&#45;&gt;Node10</title>
<g id="a_edge9_Node000001_Node000010"><a xlink:title=" ">
<path fill="none" stroke="#63b8ff" d="M608.81,-223.74C602.31,-192.69 587.55,-122.18 580.25,-87.31"/>
<polygon fill="#63b8ff" stroke="#63b8ff" points="583.71,-86.76 578.24,-77.69 576.86,-88.2 583.71,-86.76"/>
</a>
</g>
</g>
<!-- Node11 -->
<g id="Node000011" class="node">
<title>Node11</title>
<g id="a_Node000011"><a xlink:href="_fonction__csv_8hpp.html" target="_top" xlink:title=" ">
<polygon fill="white" stroke="#666666" points="731.88,-132 640.12,-132 640.12,-112 731.88,-112 731.88,-132"/>
<text text-anchor="middle" x="686" y="-118.5" font-family="Helvetica,sans-Serif" font-size="10.00">Fonction_csv.hpp</text>
</a>
</g>
</g>
<!-- Node1&#45;&gt;Node11 -->
<g id="edge18_Node000001_Node000011" class="edge">
<title>Node1&#45;&gt;Node11</title>
<g id="a_edge18_Node000001_Node000011"><a xlink:title=" ">
<path fill="none" stroke="#63b8ff" d="M621.67,-223.84C635.07,-202.84 659.25,-164.93 673.85,-142.05"/>
<polygon fill="#63b8ff" stroke="#63b8ff" points="676.74,-144.03 679.17,-133.71 670.84,-140.26 676.74,-144.03"/>
</a>
</g>
</g>
<!-- Node12 -->
<g id="Node000012" class="node">
<title>Node12</title>
<g id="a_Node000012"><a xlink:href="_foncteur_8hpp.html" target="_top" xlink:title=" ">
<polygon fill="white" stroke="#666666" points="583.5,-188 510.5,-188 510.5,-168 583.5,-168 583.5,-188"/>
<text text-anchor="middle" x="547" y="-174.5" font-family="Helvetica,sans-Serif" font-size="10.00">Foncteur.hpp</text>
</a>
</g>
</g>
<!-- Node1&#45;&gt;Node12 -->
<g id="edge28_Node000001_Node000012" class="edge">
<title>Node1&#45;&gt;Node12</title>
<g id="a_edge28_Node000001_Node000012"><a xlink:title=" ">
<path fill="none" stroke="#63b8ff" d="M595.26,-223.55C586.14,-215.13 574.83,-204.69 565.46,-196.04"/>
<polygon fill="#63b8ff" stroke="#63b8ff" points="568.03,-193.65 558.3,-189.43 563.28,-198.79 568.03,-193.65"/>
</a>
</g>
</g>
<!-- Node10&#45;&gt;Node2 -->
<g id="edge10_Node000010_Node000002" class="edge">
<title>Node10&#45;&gt;Node2</title>
<g id="a_edge10_Node000010_Node000002"><a xlink:title=" ">
<path fill="none" stroke="#63b8ff" d="M558.58,-55.59C543.33,-47.36 520.92,-35.26 503.29,-25.74"/>
<polygon fill="#63b8ff" stroke="#63b8ff" points="505.35,-22.87 494.89,-21.2 502.02,-29.03 505.35,-22.87"/>
</a>
</g>
</g>
<!-- Node10&#45;&gt;Node3 -->
<g id="edge11_Node000010_Node000003" class="edge">
<title>Node10&#45;&gt;Node3</title>
<g id="a_edge11_Node000010_Node000003"><a xlink:title=" ">
<path fill="none" stroke="#63b8ff" d="M541.64,-61.66C441.17,-51.91 148.91,-23.52 51.79,-14.09"/>
<polygon fill="#63b8ff" stroke="#63b8ff" points="52.23,-10.61 41.94,-13.13 51.56,-17.58 52.23,-10.61"/>
</a>
</g>
</g>
<!-- Node10&#45;&gt;Node4 -->
<g id="edge12_Node000010_Node000004" class="edge">
<title>Node10&#45;&gt;Node4</title>
<g id="a_edge12_Node000010_Node000004"><a xlink:title=" ">
<path fill="none" stroke="#63b8ff" d="M541.56,-60.4C464.39,-50.08 278.6,-25.25 203.9,-15.26"/>
<polygon fill="#63b8ff" stroke="#63b8ff" points="204.77,-11.85 194.4,-13.99 203.84,-18.79 204.77,-11.85"/>
</a>
</g>
</g>
<!-- Node10&#45;&gt;Node5 -->
<g id="edge13_Node000010_Node000005" class="edge">
<title>Node10&#45;&gt;Node5</title>
<g id="a_edge13_Node000010_Node000005"><a xlink:title=" ">
<path fill="none" stroke="#63b8ff" d="M541.49,-57.6C493.05,-47.22 405.46,-28.46 357.54,-18.19"/>
<polygon fill="#63b8ff" stroke="#63b8ff" points="358.54,-14.82 348.03,-16.15 357.07,-21.67 358.54,-14.82"/>
</a>
</g>
</g>
<!-- Node10&#45;&gt;Node6 -->
<g id="edge14_Node000010_Node000006" class="edge">
<title>Node10&#45;&gt;Node6</title>
<g id="a_edge14_Node000010_Node000006"><a xlink:title=" ">
<path fill="none" stroke="#63b8ff" d="M610.44,-60.4C687.24,-50.13 871.65,-25.48 947.04,-15.41"/>
<polygon fill="#63b8ff" stroke="#63b8ff" points="947.22,-18.91 956.67,-14.12 946.3,-11.97 947.22,-18.91"/>
</a>
</g>
</g>
<!-- Node10&#45;&gt;Node7 -->
<g id="edge15_Node000010_Node000007" class="edge">
<title>Node10&#45;&gt;Node7</title>
<g id="a_edge15_Node000010_Node000007"><a xlink:title=" ">
<path fill="none" stroke="#63b8ff" d="M610.36,-61.66C709.44,-52.04 995.05,-24.3 1096.07,-14.49"/>
<polygon fill="#63b8ff" stroke="#63b8ff" points="1096.33,-17.98 1105.94,-13.53 1095.65,-11.01 1096.33,-17.98"/>
</a>
</g>
</g>
<!-- Node10&#45;&gt;Node8 -->
<g id="edge16_Node000010_Node000008" class="edge">
<title>Node10&#45;&gt;Node8</title>
<g id="a_edge16_Node000010_Node000008"><a xlink:title=" ">
<path fill="none" stroke="#63b8ff" d="M610.51,-57.6C657.71,-47.49 742.06,-29.42 790.68,-19"/>
<polygon fill="#63b8ff" stroke="#63b8ff" points="791.41,-22.42 800.46,-16.9 789.95,-15.57 791.41,-22.42"/>
</a>
</g>
</g>
<!-- Node10&#45;&gt;Node9 -->
<g id="edge17_Node000010_Node000009" class="edge">
<title>Node10&#45;&gt;Node9</title>
<g id="a_edge17_Node000010_Node000009"><a xlink:title=" ">
<path fill="none" stroke="#63b8ff" d="M600.04,-55.59C621.97,-47.01 654.63,-34.23 679.37,-24.55"/>
<polygon fill="#63b8ff" stroke="#63b8ff" points="680.33,-27.93 688.37,-21.03 677.78,-21.42 680.33,-27.93"/>
</a>
</g>
</g>
<!-- Node11&#45;&gt;Node2 -->
<g id="edge19_Node000011_Node000002" class="edge">
<title>Node11&#45;&gt;Node2</title>
<g id="a_edge19_Node000011_Node000002"><a xlink:title=" ">
<path fill="none" stroke="#63b8ff" d="M678.79,-111.63C667.51,-97.58 644.34,-71.1 619,-56 586.34,-36.53 544.38,-24.63 514.37,-17.99"/>
<polygon fill="#63b8ff" stroke="#63b8ff" points="515.09,-14.57 504.59,-15.94 513.65,-21.42 515.09,-14.57"/>
</a>
</g>
</g>
<!-- Node11&#45;&gt;Node3 -->
<g id="edge20_Node000011_Node000003" class="edge">
<title>Node11&#45;&gt;Node3</title>
<g id="a_edge20_Node000011_Node000003"><a xlink:title=" ">
<path fill="none" stroke="#63b8ff" d="M639.66,-114.88C578.65,-106.7 468.11,-91.42 374,-76 254.62,-56.44 113.35,-29.29 51.57,-17.22"/>
<polygon fill="#63b8ff" stroke="#63b8ff" points="52.28,-13.79 41.79,-15.3 50.93,-20.66 52.28,-13.79"/>
</a>
</g>
</g>
<!-- Node11&#45;&gt;Node4 -->
<g id="edge21_Node000011_Node000004" class="edge">
<title>Node11&#45;&gt;Node4</title>
<g id="a_edge21_Node000011_Node000004"><a xlink:title=" ">
<path fill="none" stroke="#63b8ff" d="M640.03,-111.82C595.49,-102.87 526.06,-88.78 466,-76 370.49,-55.68 257.83,-30.4 203.9,-18.23"/>
<polygon fill="#63b8ff" stroke="#63b8ff" points="205.01,-14.89 194.48,-16.1 203.47,-21.72 205.01,-14.89"/>
</a>
</g>
</g>
<!-- Node11&#45;&gt;Node5 -->
<g id="edge22_Node000011_Node000005" class="edge">
<title>Node11&#45;&gt;Node5</title>
<g id="a_edge22_Node000011_Node000005"><a xlink:title=" ">
<path fill="none" stroke="#63b8ff" d="M653.42,-111.58C622.42,-102.57 574.47,-88.55 533,-76 470.83,-57.19 398.51,-34.52 357.3,-21.53"/>
<polygon fill="#63b8ff" stroke="#63b8ff" points="358.58,-18.26 347.99,-18.59 356.47,-24.94 358.58,-18.26"/>
</a>
</g>
</g>
<!-- Node11&#45;&gt;Node6 -->
<g id="edge23_Node000011_Node000006" class="edge">
<title>Node11&#45;&gt;Node6</title>
<g id="a_edge23_Node000011_Node000006"><a xlink:title=" ">
<path fill="none" stroke="#63b8ff" d="M711.32,-111.53C764.71,-91.55 888.74,-45.14 947.72,-23.08"/>
<polygon fill="#63b8ff" stroke="#63b8ff" points="948.72,-26.44 956.86,-19.66 946.27,-19.88 948.72,-26.44"/>
</a>
</g>
</g>
<!-- Node11&#45;&gt;Node7 -->
<g id="edge24_Node000011_Node000007" class="edge">
<title>Node11&#45;&gt;Node7</title>
<g id="a_edge24_Node000011_Node000007"><a xlink:title=" ">
<path fill="none" stroke="#63b8ff" d="M724.41,-111.53C809.69,-90.49 1013.78,-40.16 1096.38,-19.78"/>
<polygon fill="#63b8ff" stroke="#63b8ff" points="1097.1,-23.21 1105.97,-17.42 1095.42,-16.42 1097.1,-23.21"/>
</a>
</g>
</g>
<!-- Node11&#45;&gt;Node8 -->
<g id="edge25_Node000011_Node000008" class="edge">
<title>Node11&#45;&gt;Node8</title>
<g id="a_edge25_Node000011_Node000008"><a xlink:title=" ">
<path fill="none" stroke="#63b8ff" d="M698.11,-111.62C722.31,-92.87 776.94,-50.55 807.07,-27.21"/>
<polygon fill="#63b8ff" stroke="#63b8ff" points="808.97,-30.17 814.73,-21.28 804.68,-24.64 808.97,-30.17"/>
</a>
</g>
</g>
<!-- Node11&#45;&gt;Node9 -->
<g id="edge26_Node000011_Node000009" class="edge">
<title>Node11&#45;&gt;Node9</title>
<g id="a_edge26_Node000011_Node000009"><a xlink:title=" ">
<path fill="none" stroke="#63b8ff" d="M688.39,-111.62C692.89,-93.92 702.74,-55.24 708.83,-31.32"/>
<polygon fill="#63b8ff" stroke="#63b8ff" points="712.17,-32.38 711.25,-21.82 705.39,-30.65 712.17,-32.38"/>
</a>
</g>
</g>
<!-- Node11&#45;&gt;Node10 -->
<g id="edge27_Node000011_Node000010" class="edge">
<title>Node11&#45;&gt;Node10</title>
<g id="a_edge27_Node000011_Node000010"><a xlink:title=" ">
<path fill="none" stroke="#63b8ff" d="M666.84,-111.59C649.91,-103.28 624.95,-91.03 605.48,-81.47"/>
<polygon fill="#63b8ff" stroke="#63b8ff" points="607.19,-78.41 596.67,-77.15 604.1,-84.7 607.19,-78.41"/>
</a>
</g>
</g>
<!-- Node12&#45;&gt;Node2 -->
<g id="edge29_Node000012_Node000002" class="edge">
<title>Node12&#45;&gt;Node2</title>
<g id="a_edge29_Node000012_Node000002"><a xlink:title=" ">
<path fill="none" stroke="#63b8ff" d="M510.36,-168.61C490.9,-162.09 468.66,-150.87 457,-132 437.51,-100.47 453.37,-55.78 465.48,-30.47"/>
<polygon fill="#63b8ff" stroke="#63b8ff" points="468.54,-32.17 469.95,-21.67 462.3,-29 468.54,-32.17"/>
</a>
</g>
</g>
<!-- Node12&#45;&gt;Node3 -->
<g id="edge30_Node000012_Node000003" class="edge">
<title>Node12&#45;&gt;Node3</title>
<g id="a_edge30_Node000012_Node000003"><a xlink:title=" ">
<path fill="none" stroke="#63b8ff" d="M510.01,-175.41C402.05,-169.96 90.94,-148.17 26,-76 15.33,-64.14 14.58,-45.67 16.07,-31.45"/>
<polygon fill="#63b8ff" stroke="#63b8ff" points="19.49,-32.22 17.53,-21.81 12.57,-31.17 19.49,-32.22"/>
</a>
</g>
</g>
<!-- Node12&#45;&gt;Node4 -->
<g id="edge31_Node000012_Node000004" class="edge">
<title>Node12&#45;&gt;Node4</title>
<g id="a_edge31_Node000012_Node000004"><a xlink:title=" ">
<path fill="none" stroke="#63b8ff" d="M511.26,-167.5C419.16,-142.99 180.75,-79.29 178,-76 167.77,-63.76 166.98,-45.33 168.33,-31.21"/>
<polygon fill="#63b8ff" stroke="#63b8ff" points="171.75,-32.08 169.69,-21.69 164.82,-31.09 171.75,-32.08"/>
</a>
</g>
</g>
<!-- Node12&#45;&gt;Node5 -->
<g id="edge32_Node000012_Node000005" class="edge">
<title>Node12&#45;&gt;Node5</title>
<g id="a_edge32_Node000012_Node000005"><a xlink:title=" ">
<path fill="none" stroke="#63b8ff" d="M518.37,-167.6C465.07,-149.49 353.97,-108.69 331,-76 322.01,-63.2 320.67,-45.35 321.35,-31.59"/>
<polygon fill="#63b8ff" stroke="#63b8ff" points="324.81,-32.15 322.24,-21.87 317.84,-31.51 324.81,-32.15"/>
</a>
</g>
</g>
<!-- Node12&#45;&gt;Node6 -->
<g id="edge33_Node000012_Node000006" class="edge">
<title>Node12&#45;&gt;Node6</title>
<g id="a_edge33_Node000012_Node000006"><a xlink:title=" ">
<path fill="none" stroke="#63b8ff" d="M583.87,-174.19C631.48,-169.62 716.26,-158.3 784,-132 853.22,-105.13 925.13,-53.58 959.42,-27.29"/>
<polygon fill="#63b8ff" stroke="#63b8ff" points="961.49,-30.12 967.24,-21.22 957.2,-24.59 961.49,-30.12"/>
</a>
</g>
</g>
<!-- Node12&#45;&gt;Node7 -->
<g id="edge34_Node000012_Node000007" class="edge">
<title>Node12&#45;&gt;Node7</title>
<g id="a_edge34_Node000012_Node000007"><a xlink:title=" ">
<path fill="none" stroke="#63b8ff" d="M583.59,-173.36C636.3,-167.57 736.35,-154.56 819,-132 925.74,-102.87 1046.37,-50.37 1101.53,-25.2"/>
<polygon fill="#63b8ff" stroke="#63b8ff" points="1102.98,-28.39 1110.6,-21.04 1100.05,-22.03 1102.98,-28.39"/>
</a>
</g>
</g>
<!-- Node12&#45;&gt;Node8 -->
<g id="edge35_Node000012_Node000008" class="edge">
<title>Node12&#45;&gt;Node8</title>
<g id="a_edge35_Node000012_Node000008"><a xlink:title=" ">
<path fill="none" stroke="#63b8ff" d="M583.59,-172.94C636.84,-166.44 732.36,-152.3 760,-132 794.36,-106.76 813.7,-58.62 822.38,-31.29"/>
<polygon fill="#63b8ff" stroke="#63b8ff" points="825.7,-32.38 825.2,-21.8 818.99,-30.39 825.7,-32.38"/>
</a>
</g>
</g>
<!-- Node12&#45;&gt;Node9 -->
<g id="edge36_Node000012_Node000009" class="edge">
<title>Node12&#45;&gt;Node9</title>
<g id="a_edge36_Node000012_Node000009"><a xlink:title=" ">
<path fill="none" stroke="#63b8ff" d="M583.87,-173.81C634.57,-168.58 721.75,-156.23 741,-132 764.77,-102.08 742.59,-55.47 726.75,-29.7"/>
<polygon fill="#63b8ff" stroke="#63b8ff" points="729.89,-28.11 721.53,-21.61 724.01,-31.91 729.89,-28.11"/>
</a>
</g>
</g>
<!-- Node12&#45;&gt;Node10 -->
<g id="edge37_Node000012_Node000010" class="edge">
<title>Node12&#45;&gt;Node10</title>
<g id="a_edge37_Node000012_Node000010"><a xlink:title=" ">
<path fill="none" stroke="#63b8ff" d="M549.47,-167.62C554.14,-149.92 564.34,-111.24 570.64,-87.32"/>
<polygon fill="#63b8ff" stroke="#63b8ff" points="573.98,-88.38 573.15,-77.82 567.21,-86.6 573.98,-88.38"/>
</a>
</g>
</g>
<!-- Node13 -->
<g id="Node000013" class="node">
<title>Node13</title>
<g id="a_Node000013"><a xlink:href="_bi__vecteur_8hpp.html" target="_top" xlink:title=" ">
<polygon fill="white" stroke="#666666" points="545.88,-132 466.12,-132 466.12,-112 545.88,-112 545.88,-132"/>
<text text-anchor="middle" x="506" y="-118.5" font-family="Helvetica,sans-Serif" font-size="10.00">Bi_vecteur.hpp</text>
</a>
</g>
</g>
<!-- Node12&#45;&gt;Node13 -->
<g id="edge38_Node000012_Node000013" class="edge">
<title>Node12&#45;&gt;Node13</title>
<g id="a_edge38_Node000012_Node000013"><a xlink:title=" ">
<path fill="none" stroke="#63b8ff" d="M539.86,-167.59C534.39,-160.39 526.68,-150.23 519.99,-141.43"/>
<polygon fill="#63b8ff" stroke="#63b8ff" points="522.81,-139.35 513.98,-133.5 517.23,-143.58 522.81,-139.35"/>
</a>
</g>
</g>
<!-- Node13&#45;&gt;Node2 -->
<g id="edge39_Node000013_Node000002" class="edge">
<title>Node13&#45;&gt;Node2</title>
<g id="a_edge39_Node000013_Node000002"><a xlink:title=" ">
<path fill="none" stroke="#63b8ff" d="M503.44,-111.62C498.62,-93.92 488.07,-55.24 481.54,-31.32"/>
<polygon fill="#63b8ff" stroke="#63b8ff" points="484.96,-30.54 478.95,-21.82 478.2,-32.38 484.96,-30.54"/>
</a>
</g>
</g>
<!-- Node13&#45;&gt;Node3 -->
<g id="edge40_Node000013_Node000003" class="edge">
<title>Node13&#45;&gt;Node3</title>
<g id="a_edge40_Node000013_Node000003"><a xlink:title=" ">
<path fill="none" stroke="#63b8ff" d="M465.72,-119.5C359.39,-115.21 77.06,-101.5 44,-76 30.31,-65.44 24.43,-46.24 21.9,-31.44"/>
<polygon fill="#63b8ff" stroke="#63b8ff" points="25.41,-31.3 20.66,-21.83 18.47,-32.19 25.41,-31.3"/>
</a>
</g>
</g>
<!-- Node13&#45;&gt;Node4 -->
<g id="edge41_Node000013_Node000004" class="edge">
<title>Node13&#45;&gt;Node4</title>
<g id="a_edge41_Node000013_Node000004"><a xlink:title=" ">
<path fill="none" stroke="#63b8ff" d="M465.7,-117.45C386.55,-110.15 216.66,-92.73 196,-76 182.56,-65.12 176.65,-45.96 174.04,-31.26"/>
<polygon fill="#63b8ff" stroke="#63b8ff" points="177.56,-31.16 172.75,-21.73 170.63,-32.11 177.56,-31.16"/>
</a>
</g>
</g>
<!-- Node13&#45;&gt;Node5 -->
<g id="edge42_Node000013_Node000005" class="edge">
<title>Node13&#45;&gt;Node5</title>
<g id="a_edge42_Node000013_Node000005"><a xlink:title=" ">
<path fill="none" stroke="#63b8ff" d="M465.74,-119.45C430.52,-116.01 380.11,-105.76 348,-76 335.58,-64.49 329.56,-45.99 326.66,-31.66"/>
<polygon fill="#63b8ff" stroke="#63b8ff" points="330.14,-31.23 325.07,-21.92 323.23,-32.35 330.14,-31.23"/>
</a>
</g>
</g>
<!-- Node13&#45;&gt;Node6 -->
<g id="edge43_Node000013_Node000006" class="edge">
<title>Node13&#45;&gt;Node6</title>
<g id="a_edge43_Node000013_Node000006"><a xlink:title=" ">
<path fill="none" stroke="#63b8ff" d="M546,-111.72C637.88,-90.4 862.55,-38.26 947.1,-18.63"/>
<polygon fill="#63b8ff" stroke="#63b8ff" points="947.65,-22.1 956.6,-16.43 946.07,-15.28 947.65,-22.1"/>
</a>
</g>
</g>
<!-- Node13&#45;&gt;Node7 -->
<g id="edge44_Node000013_Node000007" class="edge">
<title>Node13&#45;&gt;Node7</title>
<g id="a_edge44_Node000013_Node000007"><a xlink:title=" ">
<path fill="none" stroke="#63b8ff" d="M546.11,-113.95C660.56,-93.84 987.4,-36.41 1096.24,-17.28"/>
<polygon fill="#63b8ff" stroke="#63b8ff" points="1096.81,-20.74 1106.05,-15.56 1095.6,-13.84 1096.81,-20.74"/>
</a>
</g>
</g>
<!-- Node13&#45;&gt;Node8 -->
<g id="edge45_Node000013_Node000008" class="edge">
<title>Node13&#45;&gt;Node8</title>
<g id="a_edge45_Node000013_Node000008"><a xlink:title=" ">
<path fill="none" stroke="#63b8ff" d="M533.73,-111.53C591.85,-91.67 726.4,-45.71 791.46,-23.48"/>
<polygon fill="#63b8ff" stroke="#63b8ff" points="792.26,-26.91 800.59,-20.36 790,-20.28 792.26,-26.91"/>
</a>
</g>
</g>
<!-- Node13&#45;&gt;Node9 -->
<g id="edge46_Node000013_Node000009" class="edge">
<title>Node13&#45;&gt;Node9</title>
<g id="a_edge46_Node000013_Node000009"><a xlink:title=" ">
<path fill="none" stroke="#63b8ff" d="M507.16,-111.95C509.46,-97.83 515.95,-70.66 533,-56 572.57,-21.96 634.08,-12.95 674.2,-10.94"/>
<polygon fill="#63b8ff" stroke="#63b8ff" points="674.29,-14.44 684.16,-10.58 674.04,-7.44 674.29,-14.44"/>
</a>
</g>
</g>
<!-- Node13&#45;&gt;Node10 -->
<g id="edge47_Node000013_Node000010" class="edge">
<title>Node13&#45;&gt;Node10</title>
<g id="a_edge47_Node000013_Node000010"><a xlink:title=" ">
<path fill="none" stroke="#63b8ff" d="M518.19,-111.59C528.33,-103.77 542.99,-92.46 555.01,-83.19"/>
<polygon fill="#63b8ff" stroke="#63b8ff" points="556.97,-86.1 562.75,-77.22 552.69,-80.56 556.97,-86.1"/>
</a>
</g>
</g>
</g>
</svg>
