<?xml version="1.0" encoding="UTF-8" standalone="no"?>
<!DOCTYPE svg PUBLIC "-//W3C//DTD SVG 1.1//EN"
 "http://www.w3.org/Graphics/SVG/1.1/DTD/svg11.dtd">
<!-- Generated by graphviz version 10.0.1 (20240210.2158)
 -->
<!-- Title: RoutageVoilier/include/Polaire.hpp Pages: 1 -->
<svg width="460pt" height="516pt"
 viewBox="0.00 0.00 459.88 516.00" xmlns="http://www.w3.org/2000/svg" xmlns:xlink="http://www.w3.org/1999/xlink">
<g id="graph0" class="graph" transform="scale(1 1) rotate(0) translate(4 512)">
<title>RoutageVoilier/include/Polaire.hpp</title>
<!-- Node1 -->
<g id="Node000001" class="node">
<title>Node1</title>
<g id="a_Node000001"><a xlink:title=" ">
<polygon fill="#999999" stroke="#666666" points="159.38,-508 46.62,-508 46.62,-476 159.38,-476 159.38,-508"/>
<text text-anchor="start" x="54.62" y="-494.5" font-family="Helvetica,sans-Serif" font-size="10.00">RoutageVoilier/include</text>
<text text-anchor="middle" x="103" y="-482.5" font-family="Helvetica,sans-Serif" font-size="10.00">/Polaire.hpp</text>
</a>
</g>
</g>
<!-- Node2 -->
<g id="Node000002" class="node">
<title>Node2</title>
<g id="a_Node000002"><a xlink:href="_voilier_8hpp.html" target="_top" xlink:title=" ">
<polygon fill="white" stroke="#666666" points="234.38,-440 121.62,-440 121.62,-408 234.38,-408 234.38,-440"/>
<text text-anchor="start" x="129.62" y="-426.5" font-family="Helvetica,sans-Serif" font-size="10.00">RoutageVoilier/include</text>
<text text-anchor="middle" x="178" y="-414.5" font-family="Helvetica,sans-Serif" font-size="10.00">/Voilier.hpp</text>
</a>
</g>
</g>
<!-- Node1&#45;&gt;Node2 -->
<g id="edge1_Node000001_Node000002" class="edge">
<title>Node1&#45;&gt;Node2</title>
<g id="a_edge1_Node000001_Node000002"><a xlink:title=" ">
<path fill="none" stroke="#63b8ff" d="M128.77,-468.32C139.22,-459.13 151.01,-448.75 160.44,-440.45"/>
<polygon fill="#63b8ff" stroke="#63b8ff" points="126.73,-465.46 121.53,-474.69 131.35,-470.71 126.73,-465.46"/>
</a>
</g>
</g>
<!-- Node8 -->
<g id="Node000008" class="node">
<title>Node8</title>
<g id="a_Node000008"><a xlink:href="main_8cpp.html" target="_top" xlink:title=" ">
<polygon fill="white" stroke="#666666" points="272.75,-32 177.25,-32 177.25,0 272.75,0 272.75,-32"/>
<text text-anchor="start" x="185.25" y="-18.5" font-family="Helvetica,sans-Serif" font-size="10.00">RoutageVoilier/src</text>
<text text-anchor="middle" x="225" y="-6.5" font-family="Helvetica,sans-Serif" font-size="10.00">/main.cpp</text>
</a>
</g>
</g>
<!-- Node1&#45;&gt;Node8 -->
<g id="edge20_Node000001_Node000008" class="edge">
<title>Node1&#45;&gt;Node8</title>
<g id="a_edge20_Node000001_Node000008"><a xlink:title=" ">
<path fill="none" stroke="#63b8ff" d="M70.9,-468.79C40.67,-444.99 0,-404.2 0,-357 0,-357 0,-357 0,-151 0,-69.28 110.93,-36.25 177.01,-23.83"/>
<polygon fill="#63b8ff" stroke="#63b8ff" points="68.6,-471.44 78.68,-474.7 72.83,-465.87 68.6,-471.44"/>
</a>
</g>
</g>
<!-- Node3 -->
<g id="Node000003" class="node">
<title>Node3</title>
<g id="a_Node000003"><a xlink:href="_commande_8hpp.html" target="_top" xlink:title=" ">
<polygon fill="white" stroke="#666666" points="150.38,-372 37.62,-372 37.62,-340 150.38,-340 150.38,-372"/>
<text text-anchor="start" x="45.62" y="-358.5" font-family="Helvetica,sans-Serif" font-size="10.00">RoutageVoilier/include</text>
<text text-anchor="middle" x="94" y="-346.5" font-family="Helvetica,sans-Serif" font-size="10.00">/Commande.hpp</text>
</a>
</g>
</g>
<!-- Node2&#45;&gt;Node3 -->
<g id="edge2_Node000002_Node000003" class="edge">
<title>Node2&#45;&gt;Node3</title>
<g id="a_edge2_Node000002_Node000003"><a xlink:title=" ">
<path fill="none" stroke="#63b8ff" d="M149.49,-400.6C137.7,-391.34 124.33,-380.83 113.67,-372.45"/>
<polygon fill="#63b8ff" stroke="#63b8ff" points="147.3,-403.33 157.33,-406.76 151.63,-397.83 147.3,-403.33"/>
</a>
</g>
</g>
<!-- Node4 -->
<g id="Node000004" class="node">
<title>Node4</title>
<g id="a_Node000004"><a xlink:href="_dynamique_8hpp.html" target="_top" xlink:title=" ">
<polygon fill="white" stroke="#666666" points="318.38,-304 205.62,-304 205.62,-272 318.38,-272 318.38,-304"/>
<text text-anchor="start" x="213.62" y="-290.5" font-family="Helvetica,sans-Serif" font-size="10.00">RoutageVoilier/include</text>
<text text-anchor="middle" x="262" y="-278.5" font-family="Helvetica,sans-Serif" font-size="10.00">/Dynamique.hpp</text>
</a>
</g>
</g>
<!-- Node2&#45;&gt;Node4 -->
<g id="edge17_Node000002_Node000004" class="edge">
<title>Node2&#45;&gt;Node4</title>
<g id="a_edge17_Node000002_Node000004"><a xlink:title=" ">
<path fill="none" stroke="#63b8ff" d="M193.72,-397.92C210.99,-370.37 238.18,-327.01 252.48,-304.19"/>
<polygon fill="#63b8ff" stroke="#63b8ff" points="190.79,-396.01 188.44,-406.35 196.72,-399.73 190.79,-396.01"/>
</a>
</g>
</g>
<!-- Node2&#45;&gt;Node8 -->
<g id="edge19_Node000002_Node000008" class="edge">
<title>Node2&#45;&gt;Node8</title>
<g id="a_edge19_Node000002_Node000008"><a xlink:title=" ">
<path fill="none" stroke="#63b8ff" d="M245.75,-418.54C326.31,-409.12 450,-379.88 450,-289 450,-289 450,-289 450,-151 450,-113.16 457.52,-94.99 431,-68 409.25,-45.86 326.88,-30.77 273.12,-23.04"/>
<polygon fill="#63b8ff" stroke="#63b8ff" points="245.76,-415.01 236.19,-419.57 246.51,-421.97 245.76,-415.01"/>
</a>
</g>
</g>
<!-- Node9 -->
<g id="Node000009" class="node">
<title>Node9</title>
<g id="a_Node000009"><a xlink:href="_simulateur_8hpp.html" target="_top" xlink:title=" ">
<polygon fill="white" stroke="#666666" points="178.38,-236 65.62,-236 65.62,-204 178.38,-204 178.38,-236"/>
<text text-anchor="start" x="73.62" y="-222.5" font-family="Helvetica,sans-Serif" font-size="10.00">RoutageVoilier/include</text>
<text text-anchor="middle" x="122" y="-210.5" font-family="Helvetica,sans-Serif" font-size="10.00">/Simulateur.hpp</text>
</a>
</g>
</g>
<!-- Node2&#45;&gt;Node9 -->
<g id="edge18_Node000002_Node000009" class="edge">
<title>Node2&#45;&gt;Node9</title>
<g id="a_edge18_Node000002_Node000009"><a xlink:title=" ">
<path fill="none" stroke="#63b8ff" d="M172.52,-396.69C168.97,-380.31 164.08,-358.84 159,-340 148.87,-302.4 134.69,-258.84 127.17,-236.29"/>
<polygon fill="#63b8ff" stroke="#63b8ff" points="169.02,-397.09 174.53,-406.14 175.87,-395.63 169.02,-397.09"/>
</a>
</g>
</g>
<!-- Node3&#45;&gt;Node4 -->
<g id="edge3_Node000003_Node000004" class="edge">
<title>Node3&#45;&gt;Node4</title>
<g id="a_edge3_Node000003_Node000004"><a xlink:title=" ">
<path fill="none" stroke="#63b8ff" d="M143.83,-335.42C168.98,-325.54 199.05,-313.73 222.57,-304.49"/>
<polygon fill="#63b8ff" stroke="#63b8ff" points="142.82,-332.06 134.8,-338.97 145.38,-338.57 142.82,-332.06"/>
</a>
</g>
</g>
<!-- Node3&#45;&gt;Node8 -->
<g id="edge16_Node000003_Node000008" class="edge">
<title>Node3&#45;&gt;Node8</title>
<g id="a_edge16_Node000003_Node000008"><a xlink:title=" ">
<path fill="none" stroke="#63b8ff" d="M76.76,-330.37C60.3,-304.42 38,-261.73 38,-221 38,-221 38,-221 38,-151 38,-82.7 121.44,-45.86 176.84,-28.92"/>
<polygon fill="#63b8ff" stroke="#63b8ff" points="73.69,-332.08 82.11,-338.52 79.54,-328.24 73.69,-332.08"/>
</a>
</g>
</g>
<!-- Node3&#45;&gt;Node9 -->
<g id="edge15_Node000003_Node000009" class="edge">
<title>Node3&#45;&gt;Node9</title>
<g id="a_edge15_Node000003_Node000009"><a xlink:title=" ">
<path fill="none" stroke="#63b8ff" d="M99.55,-328.45C105.32,-300.84 114.14,-258.6 118.83,-236.19"/>
<polygon fill="#63b8ff" stroke="#63b8ff" points="96.14,-327.64 97.52,-338.15 102.99,-329.07 96.14,-327.64"/>
</a>
</g>
</g>
<!-- Node5 -->
<g id="Node000005" class="node">
<title>Node5</title>
<g id="a_Node000005"><a xlink:href="_flux_8hpp.html" target="_top" xlink:title=" ">
<polygon fill="white" stroke="#666666" points="346.38,-236 233.62,-236 233.62,-204 346.38,-204 346.38,-236"/>
<text text-anchor="start" x="241.62" y="-222.5" font-family="Helvetica,sans-Serif" font-size="10.00">RoutageVoilier/include</text>
<text text-anchor="middle" x="290" y="-210.5" font-family="Helvetica,sans-Serif" font-size="10.00">/Flux.hpp</text>
</a>
</g>
</g>
<!-- Node4&#45;&gt;Node5 -->
<g id="edge4_Node000004_Node000005" class="edge">
<title>Node4&#45;&gt;Node5</title>
<g id="a_edge4_Node000004_Node000005"><a xlink:title=" ">
<path fill="none" stroke="#63b8ff" d="M272.96,-261.17C276.54,-252.73 280.4,-243.63 283.54,-236.22"/>
<polygon fill="#63b8ff" stroke="#63b8ff" points="269.77,-259.73 269.09,-270.3 276.21,-262.46 269.77,-259.73"/>
</a>
</g>
</g>
<!-- Node6 -->
<g id="Node000006" class="node">
<title>Node6</title>
<g id="a_Node000006"><a xlink:href="_h_j_b_8hpp.html" target="_top" xlink:title=" ">
<polygon fill="white" stroke="#666666" points="384.38,-168 271.62,-168 271.62,-136 384.38,-136 384.38,-168"/>
<text text-anchor="start" x="279.62" y="-154.5" font-family="Helvetica,sans-Serif" font-size="10.00">RoutageVoilier/include</text>
<text text-anchor="middle" x="328" y="-142.5" font-family="Helvetica,sans-Serif" font-size="10.00">/HJB.hpp</text>
</a>
</g>
</g>
<!-- Node4&#45;&gt;Node6 -->
<g id="edge10_Node000004_Node000006" class="edge">
<title>Node4&#45;&gt;Node6</title>
<g id="a_edge10_Node000004_Node000006"><a xlink:title=" ">
<path fill="none" stroke="#63b8ff" d="M321.79,-266.37C334.98,-258.91 347.3,-249.01 355,-236 367.89,-214.23 352.47,-185.54 340.2,-168.22"/>
<polygon fill="#63b8ff" stroke="#63b8ff" points="320.24,-263.24 312.94,-270.92 323.43,-269.46 320.24,-263.24"/>
</a>
</g>
</g>
<!-- Node7 -->
<g id="Node000007" class="node">
<title>Node7</title>
<g id="a_Node000007"><a xlink:href="route__optimale_8hpp.html" target="_top" xlink:title=" ">
<polygon fill="white" stroke="#666666" points="422.38,-100 309.62,-100 309.62,-68 422.38,-68 422.38,-100"/>
<text text-anchor="start" x="317.62" y="-86.5" font-family="Helvetica,sans-Serif" font-size="10.00">RoutageVoilier/include</text>
<text text-anchor="middle" x="366" y="-74.5" font-family="Helvetica,sans-Serif" font-size="10.00">/route_optimale.hpp</text>
</a>
</g>
</g>
<!-- Node4&#45;&gt;Node7 -->
<g id="edge13_Node000004_Node000007" class="edge">
<title>Node4&#45;&gt;Node7</title>
<g id="a_edge13_Node000004_Node000007"><a xlink:title=" ">
<path fill="none" stroke="#63b8ff" d="M327.26,-266.93C343.32,-259.39 359.26,-249.3 371,-236 401.11,-201.88 403.97,-180.17 393,-136 389.81,-123.17 382.73,-110.01 376.62,-100.27"/>
<polygon fill="#63b8ff" stroke="#63b8ff" points="325.88,-263.71 318.11,-270.92 328.68,-270.13 325.88,-263.71"/>
</a>
</g>
</g>
<!-- Node4&#45;&gt;Node8 -->
<g id="edge14_Node000004_Node000008" class="edge">
<title>Node4&#45;&gt;Node8</title>
<g id="a_edge14_Node000004_Node000008"><a xlink:title=" ">
<path fill="none" stroke="#63b8ff" d="M240.01,-263.18C233.94,-255.14 228.16,-245.72 225,-236 201.29,-162.95 215,-68.83 221.84,-32.37"/>
<polygon fill="#63b8ff" stroke="#63b8ff" points="237.14,-265.21 246.17,-270.75 242.57,-260.79 237.14,-265.21"/>
</a>
</g>
</g>
<!-- Node4&#45;&gt;Node9 -->
<g id="edge11_Node000004_Node000009" class="edge">
<title>Node4&#45;&gt;Node9</title>
<g id="a_edge11_Node000004_Node000009"><a xlink:title=" ">
<path fill="none" stroke="#63b8ff" d="M219.03,-266.74C198.28,-256.96 173.8,-245.42 154.62,-236.38"/>
<polygon fill="#63b8ff" stroke="#63b8ff" points="217.27,-269.78 227.81,-270.88 220.25,-263.45 217.27,-269.78"/>
</a>
</g>
</g>
<!-- Node5&#45;&gt;Node6 -->
<g id="edge5_Node000005_Node000006" class="edge">
<title>Node5&#45;&gt;Node6</title>
<g id="a_edge5_Node000005_Node000006"><a xlink:title=" ">
<path fill="none" stroke="#63b8ff" d="M304.54,-193.74C309.5,-185.14 314.88,-175.79 319.23,-168.22"/>
<polygon fill="#63b8ff" stroke="#63b8ff" points="301.53,-191.97 299.57,-202.38 307.59,-195.46 301.53,-191.97"/>
</a>
</g>
</g>
<!-- Node5&#45;&gt;Node8 -->
<g id="edge9_Node000005_Node000008" class="edge">
<title>Node5&#45;&gt;Node8</title>
<g id="a_edge9_Node000005_Node000008"><a xlink:title=" ">
<path fill="none" stroke="#63b8ff" d="M275.19,-193.92C270.83,-185.84 266.35,-176.71 263,-168 244.58,-120.05 232.57,-60.1 227.6,-32.37"/>
<polygon fill="#63b8ff" stroke="#63b8ff" points="272.05,-195.49 279.99,-202.51 278.16,-192.07 272.05,-195.49"/>
</a>
</g>
</g>
<!-- Node6&#45;&gt;Node7 -->
<g id="edge6_Node000006_Node000007" class="edge">
<title>Node6&#45;&gt;Node7</title>
<g id="a_edge6_Node000006_Node000007"><a xlink:title=" ">
<path fill="none" stroke="#63b8ff" d="M342.54,-125.74C347.5,-117.14 352.88,-107.79 357.23,-100.22"/>
<polygon fill="#63b8ff" stroke="#63b8ff" points="339.53,-123.97 337.57,-134.38 345.59,-127.46 339.53,-123.97"/>
</a>
</g>
</g>
<!-- Node6&#45;&gt;Node8 -->
<g id="edge8_Node000006_Node000008" class="edge">
<title>Node6&#45;&gt;Node8</title>
<g id="a_edge8_Node000006_Node000008"><a xlink:title=" ">
<path fill="none" stroke="#63b8ff" d="M309.28,-126.64C288.13,-99.13 254.37,-55.21 236.68,-32.19"/>
<polygon fill="#63b8ff" stroke="#63b8ff" points="306.39,-128.63 315.26,-134.43 311.94,-124.37 306.39,-128.63"/>
</a>
</g>
</g>
<!-- Node7&#45;&gt;Node8 -->
<g id="edge7_Node000007_Node000008" class="edge">
<title>Node7&#45;&gt;Node8</title>
<g id="a_edge7_Node000007_Node000008"><a xlink:title=" ">
<path fill="none" stroke="#63b8ff" d="M322.72,-62.74C301.83,-52.96 277.17,-41.42 257.85,-32.38"/>
<polygon fill="#63b8ff" stroke="#63b8ff" points="321.03,-65.81 331.57,-66.88 324,-59.47 321.03,-65.81"/>
</a>
</g>
</g>
<!-- Node9&#45;&gt;Node8 -->
<g id="edge12_Node000009_Node000008" class="edge">
<title>Node9&#45;&gt;Node8</title>
<g id="a_edge12_Node000009_Node000008"><a xlink:title=" ">
<path fill="none" stroke="#63b8ff" d="M132.7,-193.07C145.6,-162.54 168.48,-110.62 192,-68 198.83,-55.63 207.55,-42.23 214.31,-32.28"/>
<polygon fill="#63b8ff" stroke="#63b8ff" points="129.49,-191.68 128.86,-202.25 135.95,-194.38 129.49,-191.68"/>
</a>
</g>
</g>
</g>
</svg>
