<?xml version="1.0" encoding="UTF-8" standalone="no"?>
<!DOCTYPE svg PUBLIC "-//W3C//DTD SVG 1.1//EN"
 "http://www.w3.org/Graphics/SVG/1.1/DTD/svg11.dtd">
<!-- Generated by graphviz version 10.0.1 (20240210.2158)
 -->
<!-- Title: RoutageVoilier/include/Route.hpp Pages: 1 -->
<svg width="163pt" height="176pt"
 viewBox="0.00 0.00 162.75 176.00" xmlns="http://www.w3.org/2000/svg" xmlns:xlink="http://www.w3.org/1999/xlink">
<g id="graph0" class="graph" transform="scale(1 1) rotate(0) translate(4 172)">
<title>RoutageVoilier/include/Route.hpp</title>
<!-- Node1 -->
<g id="Node000001" class="node">
<title>Node1</title>
<g id="a_Node000001"><a xlink:title=" ">
<polygon fill="#999999" stroke="#666666" points="154.75,-168 42,-168 42,-136 154.75,-136 154.75,-168"/>
<text text-anchor="start" x="50" y="-154.5" font-family="Helvetica,sans-Serif" font-size="10.00">RoutageVoilier/include</text>
<text text-anchor="middle" x="98.38" y="-142.5" font-family="Helvetica,sans-Serif" font-size="10.00">/Route.hpp</text>
</a>
</g>
</g>
<!-- Node2 -->
<g id="Node000002" class="node">
<title>Node2</title>
<g id="a_Node000002"><a xlink:href="_simulateur_8hpp.html" target="_top" xlink:title=" ">
<polygon fill="white" stroke="#666666" points="112.75,-100 0,-100 0,-68 112.75,-68 112.75,-100"/>
<text text-anchor="start" x="8" y="-86.5" font-family="Helvetica,sans-Serif" font-size="10.00">RoutageVoilier/include</text>
<text text-anchor="middle" x="56.38" y="-74.5" font-family="Helvetica,sans-Serif" font-size="10.00">/Simulateur.hpp</text>
</a>
</g>
</g>
<!-- Node1&#45;&gt;Node2 -->
<g id="edge1_Node000001_Node000002" class="edge">
<title>Node1&#45;&gt;Node2</title>
<g id="a_edge1_Node000001_Node000002"><a xlink:title=" ">
<path fill="none" stroke="#63b8ff" d="M82.48,-126.02C76.96,-117.34 70.93,-107.88 66.06,-100.22"/>
<polygon fill="#63b8ff" stroke="#63b8ff" points="79.5,-127.86 87.82,-134.42 85.41,-124.1 79.5,-127.86"/>
</a>
</g>
</g>
<!-- Node3 -->
<g id="Node000003" class="node">
<title>Node3</title>
<g id="a_Node000003"><a xlink:href="main_8cpp.html" target="_top" xlink:title=" ">
<polygon fill="white" stroke="#666666" points="146.12,-32 50.62,-32 50.62,0 146.12,0 146.12,-32"/>
<text text-anchor="start" x="58.62" y="-18.5" font-family="Helvetica,sans-Serif" font-size="10.00">RoutageVoilier/src</text>
<text text-anchor="middle" x="98.38" y="-6.5" font-family="Helvetica,sans-Serif" font-size="10.00">/main.cpp</text>
</a>
</g>
</g>
<!-- Node1&#45;&gt;Node3 -->
<g id="edge3_Node000001_Node000003" class="edge">
<title>Node1&#45;&gt;Node3</title>
<g id="a_edge3_Node000001_Node000003"><a xlink:title=" ">
<path fill="none" stroke="#63b8ff" d="M112.44,-125.46C116.09,-117.53 119.52,-108.62 121.38,-100 124.37,-86.1 124.37,-81.9 121.38,-68 118.68,-55.47 112.65,-42.3 107.44,-32.48"/>
<polygon fill="#63b8ff" stroke="#63b8ff" points="109.43,-123.65 108.11,-134.16 115.7,-126.76 109.43,-123.65"/>
</a>
</g>
</g>
<!-- Node2&#45;&gt;Node3 -->
<g id="edge2_Node000002_Node000003" class="edge">
<title>Node2&#45;&gt;Node3</title>
<g id="a_edge2_Node000002_Node000003"><a xlink:title=" ">
<path fill="none" stroke="#63b8ff" d="M72.27,-58.02C77.79,-49.34 83.82,-39.88 88.69,-32.22"/>
<polygon fill="#63b8ff" stroke="#63b8ff" points="69.34,-56.1 66.93,-66.42 75.25,-59.86 69.34,-56.1"/>
</a>
</g>
</g>
</g>
</svg>
