<?xml version="1.0" encoding="UTF-8" standalone="no"?>
<!DOCTYPE svg PUBLIC "-//W3C//DTD SVG 1.1//EN"
 "http://www.w3.org/Graphics/SVG/1.1/DTD/svg11.dtd">
<!-- Generated by graphviz version 10.0.1 (20240210.2158)
 -->
<!-- Title: operator* Pages: 1 -->
<svg width="263pt" height="46pt"
 viewBox="0.00 0.00 263.00 46.00" xmlns="http://www.w3.org/2000/svg" xmlns:xlink="http://www.w3.org/1999/xlink">
<g id="graph0" class="graph" transform="scale(1 1) rotate(0) translate(4 42)">
<title>operator*</title>
<!-- Node1 -->
<g id="Node000001" class="node">
<title>Node1</title>
<g id="a_Node000001"><a xlink:title=" ">
<polygon fill="#999999" stroke="#666666" points="55,-20 0,-20 0,0 55,0 55,-20"/>
<text text-anchor="middle" x="27.5" y="-6.5" font-family="Helvetica,sans-Serif" font-size="10.00">operator*</text>
</a>
</g>
</g>
<!-- Node2 -->
<g id="Node000002" class="node">
<title>Node2</title>
<g id="a_Node000002"><a xlink:href="_fonction__externes_8hpp.html#a8bf9651680a69ef9b57e88861dbc2b7c" target="_top" xlink:title=" ">
<polygon fill="white" stroke="#666666" points="159.5,-20 91,-20 91,0 159.5,0 159.5,-20"/>
<text text-anchor="middle" x="125.25" y="-6.5" font-family="Helvetica,sans-Serif" font-size="10.00">interpolation</text>
</a>
</g>
</g>
<!-- Node1&#45;&gt;Node2 -->
<g id="edge1_Node000001_Node000002" class="edge">
<title>Node1&#45;&gt;Node2</title>
<g id="a_edge1_Node000001_Node000002"><a xlink:title=" ">
<path fill="none" stroke="#63b8ff" d="M55.43,-10C62.87,-10 71.16,-10 79.33,-10"/>
<polygon fill="#63b8ff" stroke="#63b8ff" points="79.19,-13.5 89.19,-10 79.19,-6.5 79.19,-13.5"/>
</a>
</g>
</g>
<!-- Node2&#45;&gt;Node2 -->
<g id="edge4_Node000002_Node000002" class="edge">
<title>Node2&#45;&gt;Node2</title>
<g id="a_edge4_Node000002_Node000002"><a xlink:title=" ">
<path fill="none" stroke="#63b8ff" d="M109.72,-20.34C103.08,-28.98 108.26,-38 125.25,-38 134.54,-38 140.3,-35.3 142.53,-31.44"/>
<polygon fill="#63b8ff" stroke="#63b8ff" points="146.03,-31.17 141.02,-21.83 139.11,-32.26 146.03,-31.17"/>
</a>
</g>
</g>
<!-- Node3 -->
<g id="Node000003" class="node">
<title>Node3</title>
<g id="a_Node000003"><a xlink:href="class_grille.html#a55235882a3d7897067449ef76fb64287" target="_top" xlink:title=" ">
<polygon fill="white" stroke="#666666" points="255,-20 195.5,-20 195.5,0 255,0 255,-20"/>
<text text-anchor="middle" x="225.25" y="-6.5" font-family="Helvetica,sans-Serif" font-size="10.00">Grille::find</text>
</a>
</g>
</g>
<!-- Node2&#45;&gt;Node3 -->
<g id="edge2_Node000002_Node000003" class="edge">
<title>Node2&#45;&gt;Node3</title>
<g id="a_edge2_Node000002_Node000003"><a xlink:title=" ">
<path fill="none" stroke="#63b8ff" d="M159.98,-3.55C167.64,-3.24 175.86,-3.17 183.77,-3.34"/>
<polygon fill="#63b8ff" stroke="#63b8ff" points="183.4,-6.83 193.53,-3.71 183.67,0.16 183.4,-6.83"/>
</a>
</g>
</g>
<!-- Node3&#45;&gt;Node2 -->
<g id="edge3_Node000003_Node000002" class="edge">
<title>Node3&#45;&gt;Node2</title>
<g id="a_edge3_Node000003_Node000002"><a xlink:title=" ">
<path fill="none" stroke="#63b8ff" d="M195.04,-16.23C187.55,-16.65 179.31,-16.81 171.22,-16.73"/>
<polygon fill="#63b8ff" stroke="#63b8ff" points="171.57,-13.24 161.49,-16.49 171.4,-20.24 171.57,-13.24"/>
</a>
</g>
</g>
</g>
</svg>
