<?xml version="1.0" encoding="UTF-8" standalone="no"?>
<!DOCTYPE svg PUBLIC "-//W3C//DTD SVG 1.1//EN"
 "http://www.w3.org/Graphics/SVG/1.1/DTD/svg11.dtd">
<!-- Generated by graphviz version 10.0.1 (20240210.2158)
 -->
<!-- Title: RoutageVoilier/include/Vecteur.hpp Pages: 1 -->
<svg width="514pt" height="96pt"
 viewBox="0.00 0.00 513.62 96.00" xmlns="http://www.w3.org/2000/svg" xmlns:xlink="http://www.w3.org/1999/xlink">
<g id="graph0" class="graph" transform="scale(1 1) rotate(0) translate(4 92)">
<title>RoutageVoilier/include/Vecteur.hpp</title>
<!-- Node1 -->
<g id="Node000001" class="node">
<title>Node1</title>
<g id="a_Node000001"><a xlink:title=" ">
<polygon fill="#999999" stroke="#666666" points="299.12,-88 186.38,-88 186.38,-56 299.12,-56 299.12,-88"/>
<text text-anchor="start" x="194.38" y="-74.5" font-family="Helvetica,sans-Serif" font-size="10.00">RoutageVoilier/include</text>
<text text-anchor="middle" x="242.75" y="-62.5" font-family="Helvetica,sans-Serif" font-size="10.00">/Vecteur.hpp</text>
</a>
</g>
</g>
<!-- Node2 -->
<g id="Node000002" class="node">
<title>Node2</title>
<g id="a_Node000002"><a xlink:title=" ">
<polygon fill="#e0e0e0" stroke="#999999" points="53.5,-20 0,-20 0,0 53.5,0 53.5,-20"/>
<text text-anchor="middle" x="26.75" y="-6.5" font-family="Helvetica,sans-Serif" font-size="10.00">iostream</text>
</a>
</g>
</g>
<!-- Node1&#45;&gt;Node2 -->
<g id="edge1_Node000001_Node000002" class="edge">
<title>Node1&#45;&gt;Node2</title>
<g id="a_edge1_Node000001_Node000002"><a xlink:title=" ">
<path fill="none" stroke="#63b8ff" d="M187.12,-55.55C148.72,-44.88 98.65,-30.97 64.75,-21.56"/>
<polygon fill="#63b8ff" stroke="#63b8ff" points="65.94,-18.25 55.37,-18.95 64.07,-25 65.94,-18.25"/>
</a>
</g>
</g>
<!-- Node3 -->
<g id="Node000003" class="node">
<title>Node3</title>
<g id="a_Node000003"><a xlink:title=" ">
<polygon fill="#e0e0e0" stroke="#999999" points="111.75,-20 71.75,-20 71.75,0 111.75,0 111.75,-20"/>
<text text-anchor="middle" x="91.75" y="-6.5" font-family="Helvetica,sans-Serif" font-size="10.00">string</text>
</a>
</g>
</g>
<!-- Node1&#45;&gt;Node3 -->
<g id="edge2_Node000001_Node000003" class="edge">
<title>Node1&#45;&gt;Node3</title>
<g id="a_edge2_Node000001_Node000003"><a xlink:title=" ">
<path fill="none" stroke="#63b8ff" d="M203.86,-55.55C178.52,-45.48 145.91,-32.52 122.4,-23.18"/>
<polygon fill="#63b8ff" stroke="#63b8ff" points="123.97,-20.04 113.38,-19.6 121.38,-26.54 123.97,-20.04"/>
</a>
</g>
</g>
<!-- Node4 -->
<g id="Node000004" class="node">
<title>Node4</title>
<g id="a_Node000004"><a xlink:title=" ">
<polygon fill="#e0e0e0" stroke="#999999" points="171.5,-20 130,-20 130,0 171.5,0 171.5,-20"/>
<text text-anchor="middle" x="150.75" y="-6.5" font-family="Helvetica,sans-Serif" font-size="10.00">vector</text>
</a>
</g>
</g>
<!-- Node1&#45;&gt;Node4 -->
<g id="edge3_Node000001_Node000004" class="edge">
<title>Node1&#45;&gt;Node4</title>
<g id="a_edge3_Node000001_Node000004"><a xlink:title=" ">
<path fill="none" stroke="#63b8ff" d="M219.06,-55.55C205.35,-46.61 188.15,-35.39 174.44,-26.45"/>
<polygon fill="#63b8ff" stroke="#63b8ff" points="176.73,-23.77 166.44,-21.23 172.91,-29.63 176.73,-23.77"/>
</a>
</g>
</g>
<!-- Node5 -->
<g id="Node000005" class="node">
<title>Node5</title>
<g id="a_Node000005"><a xlink:title=" ">
<polygon fill="#e0e0e0" stroke="#999999" points="234,-20 189.5,-20 189.5,0 234,0 234,-20"/>
<text text-anchor="middle" x="211.75" y="-6.5" font-family="Helvetica,sans-Serif" font-size="10.00">cstdlib</text>
</a>
</g>
</g>
<!-- Node1&#45;&gt;Node5 -->
<g id="edge4_Node000001_Node000005" class="edge">
<title>Node1&#45;&gt;Node5</title>
<g id="a_edge4_Node000001_Node000005"><a xlink:title=" ">
<path fill="none" stroke="#63b8ff" d="M234.77,-55.55C230.82,-47.91 226.02,-38.61 221.82,-30.49"/>
<polygon fill="#63b8ff" stroke="#63b8ff" points="225.01,-29.03 217.31,-21.75 218.79,-32.24 225.01,-29.03"/>
</a>
</g>
</g>
<!-- Node6 -->
<g id="Node000006" class="node">
<title>Node6</title>
<g id="a_Node000006"><a xlink:title=" ">
<polygon fill="#e0e0e0" stroke="#999999" points="295.25,-20 252.25,-20 252.25,0 295.25,0 295.25,-20"/>
<text text-anchor="middle" x="273.75" y="-6.5" font-family="Helvetica,sans-Serif" font-size="10.00">cmath</text>
</a>
</g>
</g>
<!-- Node1&#45;&gt;Node6 -->
<g id="edge5_Node000001_Node000006" class="edge">
<title>Node1&#45;&gt;Node6</title>
<g id="a_edge5_Node000001_Node000006"><a xlink:title=" ">
<path fill="none" stroke="#63b8ff" d="M250.73,-55.55C254.68,-47.91 259.48,-38.61 263.68,-30.49"/>
<polygon fill="#63b8ff" stroke="#63b8ff" points="266.71,-32.24 268.19,-21.75 260.49,-29.03 266.71,-32.24"/>
</a>
</g>
</g>
<!-- Node7 -->
<g id="Node000007" class="node">
<title>Node7</title>
<g id="a_Node000007"><a xlink:title=" ">
<polygon fill="#e0e0e0" stroke="#999999" points="361.88,-20 313.62,-20 313.62,0 361.88,0 361.88,-20"/>
<text text-anchor="middle" x="337.75" y="-6.5" font-family="Helvetica,sans-Serif" font-size="10.00">fstream</text>
</a>
</g>
</g>
<!-- Node1&#45;&gt;Node7 -->
<g id="edge6_Node000001_Node000007" class="edge">
<title>Node1&#45;&gt;Node7</title>
<g id="a_edge6_Node000001_Node000007"><a xlink:title=" ">
<path fill="none" stroke="#63b8ff" d="M267.21,-55.55C281.37,-46.61 299.13,-35.39 313.29,-26.45"/>
<polygon fill="#63b8ff" stroke="#63b8ff" points="314.99,-29.52 321.57,-21.22 311.25,-23.6 314.99,-29.52"/>
</a>
</g>
</g>
<!-- Node8 -->
<g id="Node000008" class="node">
<title>Node8</title>
<g id="a_Node000008"><a xlink:title=" ">
<polygon fill="#e0e0e0" stroke="#999999" points="431.38,-20 380.12,-20 380.12,0 431.38,0 431.38,-20"/>
<text text-anchor="middle" x="405.75" y="-6.5" font-family="Helvetica,sans-Serif" font-size="10.00">sstream</text>
</a>
</g>
</g>
<!-- Node1&#45;&gt;Node8 -->
<g id="edge7_Node000001_Node000008" class="edge">
<title>Node1&#45;&gt;Node8</title>
<g id="a_edge7_Node000001_Node000008"><a xlink:title=" ">
<path fill="none" stroke="#63b8ff" d="M284.73,-55.55C311.02,-45.87 344.56,-33.53 369.65,-24.29"/>
<polygon fill="#63b8ff" stroke="#63b8ff" points="370.6,-27.67 378.77,-20.93 368.18,-21.1 370.6,-27.67"/>
</a>
</g>
</g>
<!-- Node9 -->
<g id="Node000009" class="node">
<title>Node9</title>
<g id="a_Node000009"><a xlink:title=" ">
<polygon fill="#e0e0e0" stroke="#999999" points="505.62,-20 449.88,-20 449.88,0 505.62,0 505.62,-20"/>
<text text-anchor="middle" x="477.75" y="-6.5" font-family="Helvetica,sans-Serif" font-size="10.00">algorithm</text>
</a>
</g>
</g>
<!-- Node1&#45;&gt;Node9 -->
<g id="edge8_Node000001_Node000009" class="edge">
<title>Node1&#45;&gt;Node9</title>
<g id="a_edge8_Node000001_Node000009"><a xlink:title=" ">
<path fill="none" stroke="#63b8ff" d="M299.34,-56.55C342.29,-45.58 400.26,-30.78 438.3,-21.07"/>
<polygon fill="#63b8ff" stroke="#63b8ff" points="439.14,-24.47 447.96,-18.61 437.41,-17.69 439.14,-24.47"/>
</a>
</g>
</g>
</g>
</svg>
