<?xml version="1.0" encoding="UTF-8" standalone="no"?>
<!DOCTYPE svg PUBLIC "-//W3C//DTD SVG 1.1//EN"
 "http://www.w3.org/Graphics/SVG/1.1/DTD/svg11.dtd">
<!-- Generated by graphviz version 10.0.1 (20240210.2158)
 -->
<!-- Title: operator&#45; Pages: 1 -->
<svg width="262pt" height="46pt"
 viewBox="0.00 0.00 262.25 46.00" xmlns="http://www.w3.org/2000/svg" xmlns:xlink="http://www.w3.org/1999/xlink">
<g id="graph0" class="graph" transform="scale(1 1) rotate(0) translate(4 42)">
<title>operator&#45;</title>
<!-- Node1 -->
<g id="Node000001" class="node">
<title>Node1</title>
<g id="a_Node000001"><a xlink:title=" ">
<polygon fill="#999999" stroke="#666666" points="54.25,-20 0,-20 0,0 54.25,0 54.25,-20"/>
<text text-anchor="middle" x="27.12" y="-6.5" font-family="Helvetica,sans-Serif" font-size="10.00">operator&#45;</text>
</a>
</g>
</g>
<!-- Node2 -->
<g id="Node000002" class="node">
<title>Node2</title>
<g id="a_Node000002"><a xlink:href="_fonction__externes_8hpp.html#a8bf9651680a69ef9b57e88861dbc2b7c" target="_top" xlink:title=" ">
<polygon fill="white" stroke="#666666" points="158.75,-20 90.25,-20 90.25,0 158.75,0 158.75,-20"/>
<text text-anchor="middle" x="124.5" y="-6.5" font-family="Helvetica,sans-Serif" font-size="10.00">interpolation</text>
</a>
</g>
</g>
<!-- Node1&#45;&gt;Node2 -->
<g id="edge1_Node000001_Node000002" class="edge">
<title>Node1&#45;&gt;Node2</title>
<g id="a_edge1_Node000001_Node000002"><a xlink:title=" ">
<path fill="none" stroke="#63b8ff" d="M54.69,-10C62.11,-10 70.38,-10 78.55,-10"/>
<polygon fill="#63b8ff" stroke="#63b8ff" points="78.4,-13.5 88.4,-10 78.4,-6.5 78.4,-13.5"/>
</a>
</g>
</g>
<!-- Node2&#45;&gt;Node2 -->
<g id="edge4_Node000002_Node000002" class="edge">
<title>Node2&#45;&gt;Node2</title>
<g id="a_edge4_Node000002_Node000002"><a xlink:title=" ">
<path fill="none" stroke="#63b8ff" d="M109.03,-20.34C102.42,-28.98 107.57,-38 124.5,-38 133.76,-38 139.49,-35.3 141.71,-31.44"/>
<polygon fill="#63b8ff" stroke="#63b8ff" points="145.21,-31.17 140.21,-21.83 138.3,-32.26 145.21,-31.17"/>
</a>
</g>
</g>
<!-- Node3 -->
<g id="Node000003" class="node">
<title>Node3</title>
<g id="a_Node000003"><a xlink:href="class_grille.html#a55235882a3d7897067449ef76fb64287" target="_top" xlink:title=" ">
<polygon fill="white" stroke="#666666" points="254.25,-20 194.75,-20 194.75,0 254.25,0 254.25,-20"/>
<text text-anchor="middle" x="224.5" y="-6.5" font-family="Helvetica,sans-Serif" font-size="10.00">Grille::find</text>
</a>
</g>
</g>
<!-- Node2&#45;&gt;Node3 -->
<g id="edge2_Node000002_Node000003" class="edge">
<title>Node2&#45;&gt;Node3</title>
<g id="a_edge2_Node000002_Node000003"><a xlink:title=" ">
<path fill="none" stroke="#63b8ff" d="M159.23,-3.55C166.89,-3.24 175.11,-3.17 183.02,-3.34"/>
<polygon fill="#63b8ff" stroke="#63b8ff" points="182.65,-6.83 192.78,-3.71 182.92,0.16 182.65,-6.83"/>
</a>
</g>
</g>
<!-- Node3&#45;&gt;Node2 -->
<g id="edge3_Node000003_Node000002" class="edge">
<title>Node3&#45;&gt;Node2</title>
<g id="a_edge3_Node000003_Node000002"><a xlink:title=" ">
<path fill="none" stroke="#63b8ff" d="M194.29,-16.23C186.8,-16.65 178.56,-16.81 170.47,-16.73"/>
<polygon fill="#63b8ff" stroke="#63b8ff" points="170.82,-13.24 160.74,-16.49 170.65,-20.24 170.82,-13.24"/>
</a>
</g>
</g>
</g>
</svg>
