<?xml version="1.0" encoding="UTF-8" standalone="no"?>
<!DOCTYPE svg PUBLIC "-//W3C//DTD SVG 1.1//EN"
 "http://www.w3.org/Graphics/SVG/1.1/DTD/svg11.dtd">
<!-- Generated by graphviz version 10.0.1 (20240210.2158)
 -->
<!-- Title: RoutageVoilier/include/Vecteur.hpp Pages: 1 -->
<svg width="1427pt" height="788pt"
 viewBox="0.00 0.00 1427.38 788.00" xmlns="http://www.w3.org/2000/svg" xmlns:xlink="http://www.w3.org/1999/xlink">
<g id="graph0" class="graph" transform="scale(1 1) rotate(0) translate(4 784)">
<title>RoutageVoilier/include/Vecteur.hpp</title>
<!-- Node1 -->
<g id="Node000001" class="node">
<title>Node1</title>
<g id="a_Node000001"><a xlink:title=" ">
<polygon fill="#999999" stroke="#666666" points="715.38,-780 602.62,-780 602.62,-748 715.38,-748 715.38,-780"/>
<text text-anchor="start" x="610.62" y="-766.5" font-family="Helvetica,sans-Serif" font-size="10.00">RoutageVoilier/include</text>
<text text-anchor="middle" x="659" y="-754.5" font-family="Helvetica,sans-Serif" font-size="10.00">/Vecteur.hpp</text>
</a>
</g>
</g>
<!-- Node2 -->
<g id="Node000002" class="node">
<title>Node2</title>
<g id="a_Node000002"><a xlink:href="_bassin_8hpp.html" target="_top" xlink:title=" ">
<polygon fill="white" stroke="#666666" points="715.38,-576 602.62,-576 602.62,-544 715.38,-544 715.38,-576"/>
<text text-anchor="start" x="610.62" y="-562.5" font-family="Helvetica,sans-Serif" font-size="10.00">RoutageVoilier/include</text>
<text text-anchor="middle" x="659" y="-550.5" font-family="Helvetica,sans-Serif" font-size="10.00">/Bassin.hpp</text>
</a>
</g>
</g>
<!-- Node1&#45;&gt;Node2 -->
<g id="edge1_Node000001_Node000002" class="edge">
<title>Node1&#45;&gt;Node2</title>
<g id="a_edge1_Node000001_Node000002"><a xlink:title=" ">
<path fill="none" stroke="#63b8ff" d="M659,-736.38C659,-693.53 659,-610.6 659,-576.36"/>
<polygon fill="#63b8ff" stroke="#63b8ff" points="655.5,-736.3 659,-746.3 662.5,-736.3 655.5,-736.3"/>
</a>
</g>
</g>
<!-- Node3 -->
<g id="Node000003" class="node">
<title>Node3</title>
<g id="a_Node000003"><a xlink:href="_dynamique_8hpp.html" target="_top" xlink:title=" ">
<polygon fill="white" stroke="#666666" points="533.38,-304 420.62,-304 420.62,-272 533.38,-272 533.38,-304"/>
<text text-anchor="start" x="428.62" y="-290.5" font-family="Helvetica,sans-Serif" font-size="10.00">RoutageVoilier/include</text>
<text text-anchor="middle" x="477" y="-278.5" font-family="Helvetica,sans-Serif" font-size="10.00">/Dynamique.hpp</text>
</a>
</g>
</g>
<!-- Node1&#45;&gt;Node3 -->
<g id="edge58_Node000001_Node000003" class="edge">
<title>Node1&#45;&gt;Node3</title>
<g id="a_edge58_Node000001_Node000003"><a xlink:title=" ">
<path fill="none" stroke="#63b8ff" d="M591.29,-753.33C482.04,-735.82 279,-694.45 279,-629 279,-629 279,-629 279,-423 279,-354.31 361.75,-318.43 420.26,-301.64"/>
<polygon fill="#63b8ff" stroke="#63b8ff" points="590.6,-756.77 601.03,-754.87 591.69,-749.85 590.6,-756.77"/>
</a>
</g>
</g>
<!-- Node5 -->
<g id="Node000005" class="node">
<title>Node5</title>
<g id="a_Node000005"><a xlink:href="_h_j_b_8hpp.html" target="_top" xlink:title=" ">
<polygon fill="white" stroke="#666666" points="403.38,-168 290.62,-168 290.62,-136 403.38,-136 403.38,-168"/>
<text text-anchor="start" x="298.62" y="-154.5" font-family="Helvetica,sans-Serif" font-size="10.00">RoutageVoilier/include</text>
<text text-anchor="middle" x="347" y="-142.5" font-family="Helvetica,sans-Serif" font-size="10.00">/HJB.hpp</text>
</a>
</g>
</g>
<!-- Node1&#45;&gt;Node5 -->
<g id="edge65_Node000001_Node000005" class="edge">
<title>Node1&#45;&gt;Node5</title>
<g id="a_edge65_Node000001_Node000005"><a xlink:title=" ">
<path fill="none" stroke="#63b8ff" d="M591.13,-761.74C521.34,-758.41 410.64,-747.36 322,-712 262.11,-688.11 203,-693.48 203,-629 203,-629 203,-629 203,-423 203,-314.62 294.44,-207.52 331.59,-168.48"/>
<polygon fill="#63b8ff" stroke="#63b8ff" points="590.74,-765.23 600.88,-762.17 591.04,-758.24 590.74,-765.23"/>
</a>
</g>
</g>
<!-- Node6 -->
<g id="Node000006" class="node">
<title>Node6</title>
<g id="a_Node000006"><a xlink:href="route__optimale_8hpp.html" target="_top" xlink:title=" ">
<polygon fill="white" stroke="#666666" points="415.38,-100 302.62,-100 302.62,-68 415.38,-68 415.38,-100"/>
<text text-anchor="start" x="310.62" y="-86.5" font-family="Helvetica,sans-Serif" font-size="10.00">RoutageVoilier/include</text>
<text text-anchor="middle" x="359" y="-74.5" font-family="Helvetica,sans-Serif" font-size="10.00">/route_optimale.hpp</text>
</a>
</g>
</g>
<!-- Node1&#45;&gt;Node6 -->
<g id="edge70_Node000001_Node000006" class="edge">
<title>Node1&#45;&gt;Node6</title>
<g id="a_edge70_Node000001_Node000006"><a xlink:title=" ">
<path fill="none" stroke="#63b8ff" d="M591.05,-762.56C429.91,-759.68 38,-741.15 38,-629 38,-629 38,-629 38,-219 38,-105.77 210.2,-86.52 302.35,-84.33"/>
<polygon fill="#63b8ff" stroke="#63b8ff" points="590.68,-766.05 600.73,-762.72 590.79,-759.05 590.68,-766.05"/>
</a>
</g>
</g>
<!-- Node7 -->
<g id="Node000007" class="node">
<title>Node7</title>
<g id="a_Node000007"><a xlink:href="main_8cpp.html" target="_top" xlink:title=" ">
<polygon fill="white" stroke="#666666" points="835.75,-32 740.25,-32 740.25,0 835.75,0 835.75,-32"/>
<text text-anchor="start" x="748.25" y="-18.5" font-family="Helvetica,sans-Serif" font-size="10.00">RoutageVoilier/src</text>
<text text-anchor="middle" x="788" y="-6.5" font-family="Helvetica,sans-Serif" font-size="10.00">/main.cpp</text>
</a>
</g>
</g>
<!-- Node1&#45;&gt;Node7 -->
<g id="edge71_Node000001_Node000007" class="edge">
<title>Node1&#45;&gt;Node7</title>
<g id="a_edge71_Node000001_Node000007"><a xlink:title=" ">
<path fill="none" stroke="#63b8ff" d="M590.88,-763.1C457.21,-762.31 165.86,-755.49 77,-712 31.8,-689.88 0,-679.32 0,-629 0,-629 0,-629 0,-151 0,-32.24 137.74,-92.24 254,-68 430.64,-31.18 645.78,-20.88 739.97,-18.05"/>
<polygon fill="#63b8ff" stroke="#63b8ff" points="590.62,-766.6 600.64,-763.15 590.66,-759.6 590.62,-766.6"/>
</a>
</g>
</g>
<!-- Node8 -->
<g id="Node000008" class="node">
<title>Node8</title>
<g id="a_Node000008"><a xlink:href="_simulateur_8hpp.html" target="_top" xlink:title=" ">
<polygon fill="white" stroke="#666666" points="844.38,-236 731.62,-236 731.62,-204 844.38,-204 844.38,-236"/>
<text text-anchor="start" x="739.62" y="-222.5" font-family="Helvetica,sans-Serif" font-size="10.00">RoutageVoilier/include</text>
<text text-anchor="middle" x="788" y="-210.5" font-family="Helvetica,sans-Serif" font-size="10.00">/Simulateur.hpp</text>
</a>
</g>
</g>
<!-- Node1&#45;&gt;Node8 -->
<g id="edge68_Node000001_Node000008" class="edge">
<title>Node1&#45;&gt;Node8</title>
<g id="a_edge68_Node000001_Node000008"><a xlink:title=" ">
<path fill="none" stroke="#63b8ff" d="M684.79,-739.93C709.48,-715.18 743,-673.4 743,-629 743,-629 743,-629 743,-559 743,-443.99 776.5,-418.53 787,-304 789.16,-280.47 788.96,-253.02 788.54,-236.34"/>
<polygon fill="#63b8ff" stroke="#63b8ff" points="682.65,-737.13 677.9,-746.6 687.52,-742.16 682.65,-737.13"/>
</a>
</g>
</g>
<!-- Node9 -->
<g id="Node000009" class="node">
<title>Node9</title>
<g id="a_Node000009"><a xlink:href="_fonction__externes_8hpp.html" target="_top" xlink:title=" ">
<polygon fill="white" stroke="#666666" points="563,-508 445,-508 445,-476 563,-476 563,-508"/>
<text text-anchor="start" x="453" y="-494.5" font-family="Helvetica,sans-Serif" font-size="10.00">RoutageVoilier/include</text>
<text text-anchor="middle" x="504" y="-482.5" font-family="Helvetica,sans-Serif" font-size="10.00">/Fonction_externes.hpp</text>
</a>
</g>
</g>
<!-- Node1&#45;&gt;Node9 -->
<g id="edge63_Node000001_Node000009" class="edge">
<title>Node1&#45;&gt;Node9</title>
<g id="a_edge63_Node000001_Node000009"><a xlink:title=" ">
<path fill="none" stroke="#63b8ff" d="M644.39,-737.87C623.57,-702.01 584.2,-634.06 551,-576 537.52,-552.43 522.02,-524.99 512.62,-508.32"/>
<polygon fill="#63b8ff" stroke="#63b8ff" points="641.19,-739.31 649.23,-746.2 647.24,-735.8 641.19,-739.31"/>
</a>
</g>
</g>
<!-- Node10 -->
<g id="Node000010" class="node">
<title>Node10</title>
<g id="a_Node000010"><a xlink:href="_voilier_8hpp.html" target="_top" xlink:title=" ">
<polygon fill="white" stroke="#666666" points="921.38,-440 808.62,-440 808.62,-408 921.38,-408 921.38,-440"/>
<text text-anchor="start" x="816.62" y="-426.5" font-family="Helvetica,sans-Serif" font-size="10.00">RoutageVoilier/include</text>
<text text-anchor="middle" x="865" y="-414.5" font-family="Helvetica,sans-Serif" font-size="10.00">/Voilier.hpp</text>
</a>
</g>
</g>
<!-- Node1&#45;&gt;Node10 -->
<g id="edge69_Node000001_Node000010" class="edge">
<title>Node1&#45;&gt;Node10</title>
<g id="a_edge69_Node000001_Node000010"><a xlink:title=" ">
<path fill="none" stroke="#63b8ff" d="M714.61,-742.83C729.95,-735.11 745.52,-724.95 757,-712 831.7,-627.75 856.69,-486.82 863.12,-440.36"/>
<polygon fill="#63b8ff" stroke="#63b8ff" points="713.52,-739.47 705.98,-746.91 716.51,-745.8 713.52,-739.47"/>
</a>
</g>
</g>
<!-- Node11 -->
<g id="Node000011" class="node">
<title>Node11</title>
<g id="a_Node000011"><a xlink:href="_commande_8hpp.html" target="_top" xlink:title=" ">
<polygon fill="white" stroke="#666666" points="1027.38,-372 914.62,-372 914.62,-340 1027.38,-340 1027.38,-372"/>
<text text-anchor="start" x="922.62" y="-358.5" font-family="Helvetica,sans-Serif" font-size="10.00">RoutageVoilier/include</text>
<text text-anchor="middle" x="971" y="-346.5" font-family="Helvetica,sans-Serif" font-size="10.00">/Commande.hpp</text>
</a>
</g>
</g>
<!-- Node1&#45;&gt;Node11 -->
<g id="edge54_Node000001_Node000011" class="edge">
<title>Node1&#45;&gt;Node11</title>
<g id="a_edge54_Node000001_Node000011"><a xlink:title=" ">
<path fill="none" stroke="#63b8ff" d="M727.07,-760.2C787.79,-755.62 877.95,-743.57 950,-712 995.6,-692.02 1016.94,-688.62 1039,-644 1086.55,-547.84 1010.73,-416.86 981.62,-372.45"/>
<polygon fill="#63b8ff" stroke="#63b8ff" points="726.95,-756.7 717.22,-760.89 727.44,-763.69 726.95,-756.7"/>
</a>
</g>
</g>
<!-- Node12 -->
<g id="Node000012" class="node">
<title>Node12</title>
<g id="a_Node000012"><a xlink:href="_bi__vecteur_8hpp.html" target="_top" xlink:title=" ">
<polygon fill="white" stroke="#666666" points="921.38,-712 808.62,-712 808.62,-680 921.38,-680 921.38,-712"/>
<text text-anchor="start" x="816.62" y="-698.5" font-family="Helvetica,sans-Serif" font-size="10.00">RoutageVoilier/include</text>
<text text-anchor="middle" x="865" y="-686.5" font-family="Helvetica,sans-Serif" font-size="10.00">/Bi_vecteur.hpp</text>
</a>
</g>
</g>
<!-- Node1&#45;&gt;Node12 -->
<g id="edge30_Node000001_Node000012" class="edge">
<title>Node1&#45;&gt;Node12</title>
<g id="a_edge30_Node000001_Node000012"><a xlink:title=" ">
<path fill="none" stroke="#63b8ff" d="M718.05,-744.08C749.29,-734.07 787.17,-721.94 816.65,-712.49"/>
<polygon fill="#63b8ff" stroke="#63b8ff" points="717.19,-740.68 708.74,-747.06 719.33,-747.35 717.19,-740.68"/>
</a>
</g>
</g>
<!-- Node13 -->
<g id="Node000013" class="node">
<title>Node13</title>
<g id="a_Node000013"><a xlink:href="_foncteur_8hpp.html" target="_top" xlink:title=" ">
<polygon fill="white" stroke="#666666" points="997.38,-644 884.62,-644 884.62,-612 997.38,-612 997.38,-644"/>
<text text-anchor="start" x="892.62" y="-630.5" font-family="Helvetica,sans-Serif" font-size="10.00">RoutageVoilier/include</text>
<text text-anchor="middle" x="941" y="-618.5" font-family="Helvetica,sans-Serif" font-size="10.00">/Foncteur.hpp</text>
</a>
</g>
</g>
<!-- Node1&#45;&gt;Node13 -->
<g id="edge59_Node000001_Node000013" class="edge">
<title>Node1&#45;&gt;Node13</title>
<g id="a_edge59_Node000001_Node000013"><a xlink:title=" ">
<path fill="none" stroke="#63b8ff" d="M726.88,-759.14C797.9,-753.6 902.81,-740.7 930,-712 947.09,-693.95 946.26,-662.98 943.82,-644.41"/>
<polygon fill="#63b8ff" stroke="#63b8ff" points="727.01,-755.62 717.29,-759.85 727.53,-762.6 727.01,-755.62"/>
</a>
</g>
</g>
<!-- Node14 -->
<g id="Node000014" class="node">
<title>Node14</title>
<g id="a_Node000014"><a xlink:href="_polaire_8hpp.html" target="_top" xlink:title=" ">
<polygon fill="white" stroke="#666666" points="1263.38,-576 1150.62,-576 1150.62,-544 1263.38,-544 1263.38,-576"/>
<text text-anchor="start" x="1158.62" y="-562.5" font-family="Helvetica,sans-Serif" font-size="10.00">RoutageVoilier/include</text>
<text text-anchor="middle" x="1207" y="-550.5" font-family="Helvetica,sans-Serif" font-size="10.00">/Polaire.hpp</text>
</a>
</g>
</g>
<!-- Node1&#45;&gt;Node14 -->
<g id="edge66_Node000001_Node000014" class="edge">
<title>Node1&#45;&gt;Node14</title>
<g id="a_edge66_Node000001_Node000014"><a xlink:title=" ">
<path fill="none" stroke="#63b8ff" d="M726.99,-763.78C843,-763.83 1072.9,-757.91 1137,-712 1183.28,-678.86 1199.78,-607.3 1204.93,-576.08"/>
<polygon fill="#63b8ff" stroke="#63b8ff" points="727.31,-760.29 717.3,-763.76 727.29,-767.29 727.31,-760.29"/>
</a>
</g>
</g>
<!-- Node15 -->
<g id="Node000015" class="node">
<title>Node15</title>
<g id="a_Node000015"><a xlink:href="_grille_8hpp.html" target="_top" xlink:title=" ">
<polygon fill="white" stroke="#666666" points="509.38,-644 396.62,-644 396.62,-612 509.38,-612 509.38,-644"/>
<text text-anchor="start" x="404.62" y="-630.5" font-family="Helvetica,sans-Serif" font-size="10.00">RoutageVoilier/include</text>
<text text-anchor="middle" x="453" y="-618.5" font-family="Helvetica,sans-Serif" font-size="10.00">/Grille.hpp</text>
</a>
</g>
</g>
<!-- Node1&#45;&gt;Node15 -->
<g id="edge64_Node000001_Node000015" class="edge">
<title>Node1&#45;&gt;Node15</title>
<g id="a_edge64_Node000001_Node000015"><a xlink:title=" ">
<path fill="none" stroke="#63b8ff" d="M591.49,-745.29C568.5,-737.34 543.46,-726.43 523,-712 496.66,-693.42 474.28,-662.63 462.32,-644.23"/>
<polygon fill="#63b8ff" stroke="#63b8ff" points="590.21,-748.55 600.8,-748.37 592.41,-741.9 590.21,-748.55"/>
</a>
</g>
</g>
<!-- Node16 -->
<g id="Node000016" class="node">
<title>Node16</title>
<g id="a_Node000016"><a xlink:href="_route_8hpp.html" target="_top" xlink:title=" ">
<polygon fill="white" stroke="#666666" points="1225.38,-508 1112.62,-508 1112.62,-476 1225.38,-476 1225.38,-508"/>
<text text-anchor="start" x="1120.62" y="-494.5" font-family="Helvetica,sans-Serif" font-size="10.00">RoutageVoilier/include</text>
<text text-anchor="middle" x="1169" y="-482.5" font-family="Helvetica,sans-Serif" font-size="10.00">/Route.hpp</text>
</a>
</g>
</g>
<!-- Node1&#45;&gt;Node16 -->
<g id="edge67_Node000001_Node000016" class="edge">
<title>Node1&#45;&gt;Node16</title>
<g id="a_edge67_Node000001_Node000016"><a xlink:title=" ">
<path fill="none" stroke="#63b8ff" d="M726.76,-762.65C846.83,-760.97 1091.25,-752.51 1165,-712 1242.59,-669.38 1318.69,-619.21 1272,-544 1261.53,-527.13 1243.64,-515.67 1225.68,-507.96"/>
<polygon fill="#63b8ff" stroke="#63b8ff" points="727,-759.14 717.05,-762.77 727.09,-766.14 727,-759.14"/>
</a>
</g>
</g>
<!-- Node17 -->
<g id="Node000017" class="node">
<title>Node17</title>
<g id="a_Node000017"><a xlink:href="_commande__discrete_8hpp.html" target="_top" xlink:title=" ">
<polygon fill="white" stroke="#666666" points="193.5,-304 66.5,-304 66.5,-272 193.5,-272 193.5,-304"/>
<text text-anchor="start" x="74.5" y="-290.5" font-family="Helvetica,sans-Serif" font-size="10.00">RoutageVoilier/include</text>
<text text-anchor="middle" x="130" y="-278.5" font-family="Helvetica,sans-Serif" font-size="10.00">/Commande_discrete.hpp</text>
</a>
</g>
</g>
<!-- Node1&#45;&gt;Node17 -->
<g id="edge55_Node000001_Node000017" class="edge">
<title>Node1&#45;&gt;Node17</title>
<g id="a_edge55_Node000001_Node000017"><a xlink:title=" ">
<path fill="none" stroke="#63b8ff" d="M591.01,-762.85C477.21,-761.42 254.22,-753.25 189,-712 152.41,-688.86 138,-672.3 138,-629 138,-629 138,-629 138,-423 138,-379.89 133.82,-329.11 131.5,-304.26"/>
<polygon fill="#63b8ff" stroke="#63b8ff" points="590.79,-766.34 600.82,-762.95 590.86,-759.34 590.79,-766.34"/>
</a>
</g>
</g>
<!-- Node18 -->
<g id="Node000018" class="node">
<title>Node18</title>
<g id="a_Node000018"><a xlink:href="_fonction__csv_8hpp.html" target="_top" xlink:title=" ">
<polygon fill="white" stroke="#666666" points="1419.38,-644 1306.62,-644 1306.62,-612 1419.38,-612 1419.38,-644"/>
<text text-anchor="start" x="1314.62" y="-630.5" font-family="Helvetica,sans-Serif" font-size="10.00">RoutageVoilier/include</text>
<text text-anchor="middle" x="1363" y="-618.5" font-family="Helvetica,sans-Serif" font-size="10.00">/Fonction_csv.hpp</text>
</a>
</g>
</g>
<!-- Node1&#45;&gt;Node18 -->
<g id="edge60_Node000001_Node000018" class="edge">
<title>Node1&#45;&gt;Node18</title>
<g id="a_edge60_Node000001_Node000018"><a xlink:title=" ">
<path fill="none" stroke="#63b8ff" d="M726.89,-760.48C880.18,-754.38 1243.61,-737.41 1293,-712 1322.16,-696.99 1344.02,-664.04 1355.03,-644.47"/>
<polygon fill="#63b8ff" stroke="#63b8ff" points="727.16,-756.97 717.3,-760.86 727.43,-763.97 727.16,-756.97"/>
</a>
</g>
</g>
<!-- Node2&#45;&gt;Node3 -->
<g id="edge2_Node000002_Node000003" class="edge">
<title>Node2&#45;&gt;Node3</title>
<g id="a_edge2_Node000002_Node000003"><a xlink:title=" ">
<path fill="none" stroke="#63b8ff" d="M637.29,-535.33C629.93,-526.92 621.85,-517.25 615,-508 561,-435.03 506.3,-340.86 485.62,-304.38"/>
<polygon fill="#63b8ff" stroke="#63b8ff" points="634.63,-537.6 643.89,-542.74 639.85,-532.95 634.63,-537.6"/>
</a>
</g>
</g>
<!-- Node2&#45;&gt;Node7 -->
<g id="edge29_Node000002_Node000007" class="edge">
<title>Node2&#45;&gt;Node7</title>
<g id="a_edge29_Node000002_Node000007"><a xlink:title=" ">
<path fill="none" stroke="#63b8ff" d="M656.08,-532.32C650.1,-475.26 637,-337.14 637,-221 637,-221 637,-221 637,-151 637,-91.77 702.81,-52.34 747.53,-32.39"/>
<polygon fill="#63b8ff" stroke="#63b8ff" points="652.57,-532.45 657.11,-542.02 659.53,-531.71 652.57,-532.45"/>
</a>
</g>
</g>
<!-- Node2&#45;&gt;Node8 -->
<g id="edge28_Node000002_Node000008" class="edge">
<title>Node2&#45;&gt;Node8</title>
<g id="a_edge28_Node000002_Node000008"><a xlink:title=" ">
<path fill="none" stroke="#63b8ff" d="M672.96,-534.05C692.21,-498.83 727.02,-432.1 749,-372 766.67,-323.69 779.59,-263.91 785.08,-236.3"/>
<polygon fill="#63b8ff" stroke="#63b8ff" points="670.01,-532.15 668.25,-542.6 676.14,-535.53 670.01,-532.15"/>
</a>
</g>
</g>
<!-- Node2&#45;&gt;Node9 -->
<g id="edge14_Node000002_Node000009" class="edge">
<title>Node2&#45;&gt;Node9</title>
<g id="a_edge14_Node000002_Node000009"><a xlink:title=" ">
<path fill="none" stroke="#63b8ff" d="M612.09,-539.03C589.08,-529.23 561.79,-517.61 540.38,-508.49"/>
<polygon fill="#63b8ff" stroke="#63b8ff" points="610.69,-542.24 621.27,-542.93 613.44,-535.79 610.69,-542.24"/>
</a>
</g>
</g>
<!-- Node4 -->
<g id="Node000004" class="node">
<title>Node4</title>
<g id="a_Node000004"><a xlink:href="_flux_8hpp.html" target="_top" xlink:title=" ">
<polygon fill="white" stroke="#666666" points="251.38,-236 138.62,-236 138.62,-204 251.38,-204 251.38,-236"/>
<text text-anchor="start" x="146.62" y="-222.5" font-family="Helvetica,sans-Serif" font-size="10.00">RoutageVoilier/include</text>
<text text-anchor="middle" x="195" y="-210.5" font-family="Helvetica,sans-Serif" font-size="10.00">/Flux.hpp</text>
</a>
</g>
</g>
<!-- Node3&#45;&gt;Node4 -->
<g id="edge3_Node000003_Node000004" class="edge">
<title>Node3&#45;&gt;Node4</title>
<g id="a_edge3_Node000003_Node000004"><a xlink:title=" ">
<path fill="none" stroke="#63b8ff" d="M409.32,-271.16C361.13,-259.88 297.12,-244.9 251.64,-234.26"/>
<polygon fill="#63b8ff" stroke="#63b8ff" points="408.26,-274.51 418.8,-273.38 409.86,-267.69 408.26,-274.51"/>
</a>
</g>
</g>
<!-- Node3&#45;&gt;Node5 -->
<g id="edge9_Node000003_Node000005" class="edge">
<title>Node3&#45;&gt;Node5</title>
<g id="a_edge9_Node000003_Node000005"><a xlink:title=" ">
<path fill="none" stroke="#63b8ff" d="M454.41,-263.72C427.8,-236.29 384.36,-191.51 361.74,-168.19"/>
<polygon fill="#63b8ff" stroke="#63b8ff" points="451.56,-265.8 461.03,-270.54 456.58,-260.93 451.56,-265.8"/>
</a>
</g>
</g>
<!-- Node3&#45;&gt;Node6 -->
<g id="edge12_Node000003_Node000006" class="edge">
<title>Node3&#45;&gt;Node6</title>
<g id="a_edge12_Node000003_Node000006"><a xlink:title=" ">
<path fill="none" stroke="#63b8ff" d="M477.59,-260.51C477.02,-228.19 471.73,-173.27 445,-136 433.77,-120.34 416.11,-108.67 399.71,-100.48"/>
<polygon fill="#63b8ff" stroke="#63b8ff" points="474.09,-260.2 477.61,-270.19 481.09,-260.18 474.09,-260.2"/>
</a>
</g>
</g>
<!-- Node3&#45;&gt;Node7 -->
<g id="edge13_Node000003_Node000007" class="edge">
<title>Node3&#45;&gt;Node7</title>
<g id="a_edge13_Node000003_Node000007"><a xlink:title=" ">
<path fill="none" stroke="#63b8ff" d="M483.8,-260.78C498.33,-205.56 532.31,-81.28 547,-68 574.84,-42.83 677.77,-28.2 739.75,-21.49"/>
<polygon fill="#63b8ff" stroke="#63b8ff" points="480.46,-259.72 481.31,-270.28 487.23,-261.49 480.46,-259.72"/>
</a>
</g>
</g>
<!-- Node3&#45;&gt;Node8 -->
<g id="edge10_Node000003_Node000008" class="edge">
<title>Node3&#45;&gt;Node8</title>
<g id="a_edge10_Node000003_Node000008"><a xlink:title=" ">
<path fill="none" stroke="#63b8ff" d="M544.87,-272.6C600.62,-260.76 678.69,-244.2 731.18,-233.06"/>
<polygon fill="#63b8ff" stroke="#63b8ff" points="544.22,-269.16 535.16,-274.66 545.67,-276 544.22,-269.16"/>
</a>
</g>
</g>
<!-- Node4&#45;&gt;Node5 -->
<g id="edge4_Node000004_Node000005" class="edge">
<title>Node4&#45;&gt;Node5</title>
<g id="a_edge4_Node000004_Node000005"><a xlink:title=" ">
<path fill="none" stroke="#63b8ff" d="M241,-199.03C263.57,-189.23 290.33,-177.61 311.32,-168.49"/>
<polygon fill="#63b8ff" stroke="#63b8ff" points="239.8,-195.73 232.03,-202.92 242.59,-202.15 239.8,-195.73"/>
</a>
</g>
</g>
<!-- Node4&#45;&gt;Node7 -->
<g id="edge8_Node000004_Node000007" class="edge">
<title>Node4&#45;&gt;Node7</title>
<g id="a_edge8_Node000004_Node000007"><a xlink:title=" ">
<path fill="none" stroke="#63b8ff" d="M203.93,-192.97C217.42,-157.98 246.6,-96.84 294,-68 368.11,-22.9 631,-17.19 740.05,-16.81"/>
<polygon fill="#63b8ff" stroke="#63b8ff" points="200.65,-191.74 200.47,-202.33 207.22,-194.16 200.65,-191.74"/>
</a>
</g>
</g>
<!-- Node5&#45;&gt;Node6 -->
<g id="edge5_Node000005_Node000006" class="edge">
<title>Node5&#45;&gt;Node6</title>
<g id="a_edge5_Node000005_Node000006"><a xlink:title=" ">
<path fill="none" stroke="#63b8ff" d="M351.8,-124.6C353.31,-116.32 354.92,-107.46 356.23,-100.22"/>
<polygon fill="#63b8ff" stroke="#63b8ff" points="348.4,-123.74 350.05,-134.2 355.29,-124.99 348.4,-123.74"/>
</a>
</g>
</g>
<!-- Node5&#45;&gt;Node7 -->
<g id="edge7_Node000005_Node000007" class="edge">
<title>Node5&#45;&gt;Node7</title>
<g id="a_edge7_Node000005_Node000007"><a xlink:title=" ">
<path fill="none" stroke="#63b8ff" d="M379.98,-129.52C410.64,-110.53 458.2,-83.5 503,-68 583.52,-40.15 682.35,-26.82 739.95,-20.99"/>
<polygon fill="#63b8ff" stroke="#63b8ff" points="378.15,-126.54 371.54,-134.82 381.87,-132.47 378.15,-126.54"/>
</a>
</g>
</g>
<!-- Node6&#45;&gt;Node7 -->
<g id="edge6_Node000006_Node000007" class="edge">
<title>Node6&#45;&gt;Node7</title>
<g id="a_edge6_Node000006_Node000007"><a xlink:title=" ">
<path fill="none" stroke="#63b8ff" d="M426.75,-72.13C435.58,-70.73 444.5,-69.32 453,-68 555.16,-52.07 674.94,-33.98 740,-24.2"/>
<polygon fill="#63b8ff" stroke="#63b8ff" points="426.48,-68.63 417.15,-73.65 427.58,-75.54 426.48,-68.63"/>
</a>
</g>
</g>
<!-- Node8&#45;&gt;Node7 -->
<g id="edge11_Node000008_Node000007" class="edge">
<title>Node8&#45;&gt;Node7</title>
<g id="a_edge11_Node000008_Node000007"><a xlink:title=" ">
<path fill="none" stroke="#63b8ff" d="M788,-192.38C788,-149.53 788,-66.6 788,-32.36"/>
<polygon fill="#63b8ff" stroke="#63b8ff" points="784.5,-192.3 788,-202.3 791.5,-192.3 784.5,-192.3"/>
</a>
</g>
</g>
<!-- Node9&#45;&gt;Node3 -->
<g id="edge15_Node000009_Node000003" class="edge">
<title>Node9&#45;&gt;Node3</title>
<g id="a_edge15_Node000009_Node000003"><a xlink:title=" ">
<path fill="none" stroke="#63b8ff" d="M497.77,-464.71C496.05,-456.8 494.3,-448.08 493,-440 485.07,-390.54 480.1,-331.32 478.06,-304.07"/>
<polygon fill="#63b8ff" stroke="#63b8ff" points="494.35,-465.45 499.97,-474.43 501.17,-463.9 494.35,-465.45"/>
</a>
</g>
</g>
<!-- Node9&#45;&gt;Node5 -->
<g id="edge16_Node000009_Node000005" class="edge">
<title>Node9&#45;&gt;Node5</title>
<g id="a_edge16_Node000009_Node000005"><a xlink:title=" ">
<path fill="none" stroke="#63b8ff" d="M490.97,-465.56C472.76,-429.76 438.9,-362.37 412,-304 389.3,-254.75 364.49,-195.43 353.21,-168.11"/>
<polygon fill="#63b8ff" stroke="#63b8ff" points="487.75,-466.95 495.41,-474.26 493.99,-463.77 487.75,-466.95"/>
</a>
</g>
</g>
<!-- Node9&#45;&gt;Node6 -->
<g id="edge26_Node000009_Node000006" class="edge">
<title>Node9&#45;&gt;Node6</title>
<g id="a_edge26_Node000009_Node000006"><a xlink:title=" ">
<path fill="none" stroke="#63b8ff" d="M479.21,-467.57C471.61,-459.41 463.75,-449.82 458,-440 425.74,-384.95 422.36,-366.96 412,-304 399.88,-230.32 441.24,-204.71 412,-136 405.85,-121.55 393.37,-109.21 382.07,-100.29"/>
<polygon fill="#63b8ff" stroke="#63b8ff" points="476.69,-470.01 486.18,-474.73 481.71,-465.13 476.69,-470.01"/>
</a>
</g>
</g>
<!-- Node9&#45;&gt;Node7 -->
<g id="edge27_Node000009_Node000007" class="edge">
<title>Node9&#45;&gt;Node7</title>
<g id="a_edge27_Node000009_Node000007"><a xlink:title=" ">
<path fill="none" stroke="#63b8ff" d="M513.32,-464.84C529.48,-417.07 561,-312.2 561,-221 561,-221 561,-221 561,-151 561,-68.62 673.23,-35.84 739.86,-23.64"/>
<polygon fill="#63b8ff" stroke="#63b8ff" points="510.01,-463.69 510.06,-474.29 516.63,-465.97 510.01,-463.69"/>
</a>
</g>
</g>
<!-- Node9&#45;&gt;Node8 -->
<g id="edge17_Node000009_Node000008" class="edge">
<title>Node9&#45;&gt;Node8</title>
<g id="a_edge17_Node000009_Node000008"><a xlink:title=" ">
<path fill="none" stroke="#63b8ff" d="M525.39,-467.34C563.22,-425.98 645.1,-338.61 721,-272 735.5,-259.27 752.86,-246.11 766.28,-236.35"/>
<polygon fill="#63b8ff" stroke="#63b8ff" points="522.97,-464.8 518.82,-474.55 528.14,-469.52 522.97,-464.8"/>
</a>
</g>
</g>
<!-- Node9&#45;&gt;Node10 -->
<g id="edge18_Node000009_Node000010" class="edge">
<title>Node9&#45;&gt;Node10</title>
<g id="a_edge18_Node000009_Node000010"><a xlink:title=" ">
<path fill="none" stroke="#63b8ff" d="M574.28,-478.15C642.53,-465.67 744.86,-446.97 808.14,-435.39"/>
<polygon fill="#63b8ff" stroke="#63b8ff" points="573.9,-474.66 564.7,-479.9 575.16,-481.55 573.9,-474.66"/>
</a>
</g>
</g>
<!-- Node10&#45;&gt;Node3 -->
<g id="edge23_Node000010_Node000003" class="edge">
<title>Node10&#45;&gt;Node3</title>
<g id="a_edge23_Node000010_Node000003"><a xlink:title=" ">
<path fill="none" stroke="#63b8ff" d="M823.05,-402.64C784.64,-384.54 725.89,-358.19 673,-340 626.95,-324.16 573.36,-310.53 533.87,-301.36"/>
<polygon fill="#63b8ff" stroke="#63b8ff" points="821.42,-405.74 831.95,-406.87 824.42,-399.42 821.42,-405.74"/>
</a>
</g>
</g>
<!-- Node10&#45;&gt;Node7 -->
<g id="edge25_Node000010_Node000007" class="edge">
<title>Node10&#45;&gt;Node7</title>
<g id="a_edge25_Node000010_Node000007"><a xlink:title=" ">
<path fill="none" stroke="#63b8ff" d="M871.91,-396.73C878.36,-369.86 887,-326.82 887,-289 887,-289 887,-289 887,-151 887,-99.51 839.14,-54.84 809.97,-32.4"/>
<polygon fill="#63b8ff" stroke="#63b8ff" points="868.52,-395.84 869.5,-406.39 875.32,-397.53 868.52,-395.84"/>
</a>
</g>
</g>
<!-- Node10&#45;&gt;Node8 -->
<g id="edge24_Node000010_Node000008" class="edge">
<title>Node10&#45;&gt;Node8</title>
<g id="a_edge24_Node000010_Node000008"><a xlink:title=" ">
<path fill="none" stroke="#63b8ff" d="M861.06,-396.67C855.74,-365.71 844.61,-313.31 825,-272 818.81,-258.96 809.16,-245.8 801.27,-236.12"/>
<polygon fill="#63b8ff" stroke="#63b8ff" points="857.56,-396.99 862.63,-406.3 864.47,-395.86 857.56,-396.99"/>
</a>
</g>
</g>
<!-- Node10&#45;&gt;Node11 -->
<g id="edge19_Node000010_Node000011" class="edge">
<title>Node10&#45;&gt;Node11</title>
<g id="a_edge19_Node000010_Node000011"><a xlink:title=" ">
<path fill="none" stroke="#63b8ff" d="M899.49,-401.53C914.76,-392.02 932.38,-381.05 946.3,-372.38"/>
<polygon fill="#63b8ff" stroke="#63b8ff" points="897.78,-398.47 891.14,-406.73 901.48,-404.41 897.78,-398.47"/>
</a>
</g>
</g>
<!-- Node11&#45;&gt;Node3 -->
<g id="edge20_Node000011_Node000003" class="edge">
<title>Node11&#45;&gt;Node3</title>
<g id="a_edge20_Node000011_Node000003"><a xlink:title=" ">
<path fill="none" stroke="#63b8ff" d="M903.07,-345.92C804.93,-332.81 625.25,-308.81 533.77,-296.58"/>
<polygon fill="#63b8ff" stroke="#63b8ff" points="902.46,-349.37 912.83,-347.23 903.38,-342.43 902.46,-349.37"/>
</a>
</g>
</g>
<!-- Node11&#45;&gt;Node7 -->
<g id="edge22_Node000011_Node000007" class="edge">
<title>Node11&#45;&gt;Node7</title>
<g id="a_edge22_Node000011_Node000007"><a xlink:title=" ">
<path fill="none" stroke="#63b8ff" d="M970.37,-328.52C969.79,-301.49 969,-258.33 969,-221 969,-221 969,-221 969,-151 969,-84.73 889.65,-47.47 836.03,-29.86"/>
<polygon fill="#63b8ff" stroke="#63b8ff" points="966.87,-328.3 970.59,-338.22 973.86,-328.14 966.87,-328.3"/>
</a>
</g>
</g>
<!-- Node11&#45;&gt;Node8 -->
<g id="edge21_Node000011_Node000008" class="edge">
<title>Node11&#45;&gt;Node8</title>
<g id="a_edge21_Node000011_Node000008"><a xlink:title=" ">
<path fill="none" stroke="#63b8ff" d="M942.79,-332.61C921.2,-315.64 890.54,-291.92 863,-272 845.9,-259.63 826.16,-246.24 811.22,-236.28"/>
<polygon fill="#63b8ff" stroke="#63b8ff" points="940.54,-335.28 950.56,-338.72 944.87,-329.79 940.54,-335.28"/>
</a>
</g>
</g>
<!-- Node12&#45;&gt;Node2 -->
<g id="edge31_Node000012_Node000002" class="edge">
<title>Node12&#45;&gt;Node2</title>
<g id="a_edge31_Node000012_Node000002"><a xlink:title=" ">
<path fill="none" stroke="#63b8ff" d="M831.92,-673.48C790.17,-646.32 719.39,-600.28 682.67,-576.4"/>
<polygon fill="#63b8ff" stroke="#63b8ff" points="829.81,-676.28 840.1,-678.8 833.63,-670.42 829.81,-676.28"/>
</a>
</g>
</g>
<!-- Node12&#45;&gt;Node7 -->
<g id="edge53_Node000012_Node000007" class="edge">
<title>Node12&#45;&gt;Node7</title>
<g id="a_edge53_Node000012_Node000007"><a xlink:title=" ">
<path fill="none" stroke="#63b8ff" d="M932.76,-683.95C958.73,-676.58 986.72,-664.33 1006,-644 1097.73,-547.3 1093,-490.29 1093,-357 1093,-357 1093,-357 1093,-151 1093,-40.1 921.88,-20.15 835.99,-17.13"/>
<polygon fill="#63b8ff" stroke="#63b8ff" points="932.04,-680.52 923.25,-686.43 933.81,-687.29 932.04,-680.52"/>
</a>
</g>
</g>
<!-- Node12&#45;&gt;Node9 -->
<g id="edge41_Node000012_Node000009" class="edge">
<title>Node12&#45;&gt;Node9</title>
<g id="a_edge41_Node000012_Node000009"><a xlink:title=" ">
<path fill="none" stroke="#63b8ff" d="M804.77,-675.86C747.56,-656.04 660.64,-621.59 594,-576 564.35,-555.72 534.63,-526.04 517.85,-508.22"/>
<polygon fill="#63b8ff" stroke="#63b8ff" points="803.42,-679.1 814.01,-679.02 805.68,-672.47 803.42,-679.1"/>
</a>
</g>
</g>
<!-- Node12&#45;&gt;Node10 -->
<g id="edge52_Node000012_Node000010" class="edge">
<title>Node12&#45;&gt;Node10</title>
<g id="a_edge52_Node000012_Node000010"><a xlink:title=" ">
<path fill="none" stroke="#63b8ff" d="M865,-668.34C865,-612.5 865,-484.75 865,-440.46"/>
<polygon fill="#63b8ff" stroke="#63b8ff" points="861.5,-668.2 865,-678.2 868.5,-668.2 861.5,-668.2"/>
</a>
</g>
</g>
<!-- Node12&#45;&gt;Node13 -->
<g id="edge32_Node000012_Node000013" class="edge">
<title>Node12&#45;&gt;Node13</title>
<g id="a_edge32_Node000012_Node000013"><a xlink:title=" ">
<path fill="none" stroke="#63b8ff" d="M891.11,-672.32C901.7,-663.13 913.65,-652.75 923.21,-644.45"/>
<polygon fill="#63b8ff" stroke="#63b8ff" points="889.03,-669.5 883.77,-678.7 893.61,-674.79 889.03,-669.5"/>
</a>
</g>
</g>
<!-- Node12&#45;&gt;Node15 -->
<g id="edge42_Node000012_Node000015" class="edge">
<title>Node12&#45;&gt;Node15</title>
<g id="a_edge42_Node000012_Node000015"><a xlink:title=" ">
<path fill="none" stroke="#63b8ff" d="M797.17,-684.13C716.88,-671.27 584.63,-650.09 509.6,-638.07"/>
<polygon fill="#63b8ff" stroke="#63b8ff" points="796.22,-687.53 806.65,-685.65 797.33,-680.62 796.22,-687.53"/>
</a>
</g>
</g>
<!-- Node12&#45;&gt;Node16 -->
<g id="edge49_Node000012_Node000016" class="edge">
<title>Node12&#45;&gt;Node16</title>
<g id="a_edge49_Node000012_Node000016"><a xlink:title=" ">
<path fill="none" stroke="#63b8ff" d="M932.93,-684.51C966.77,-677.03 1007.15,-664.53 1039,-644 1095.7,-607.45 1141.45,-538.97 1160.03,-508.41"/>
<polygon fill="#63b8ff" stroke="#63b8ff" points="932.28,-681.07 923.21,-686.55 933.72,-687.93 932.28,-681.07"/>
</a>
</g>
</g>
<!-- Node13&#45;&gt;Node2 -->
<g id="edge33_Node000013_Node000002" class="edge">
<title>Node13&#45;&gt;Node2</title>
<g id="a_edge33_Node000013_Node000002"><a xlink:title=" ">
<path fill="none" stroke="#63b8ff" d="M873.32,-611.16C825.13,-599.88 761.12,-584.9 715.64,-574.26"/>
<polygon fill="#63b8ff" stroke="#63b8ff" points="872.26,-614.51 882.8,-613.38 873.86,-607.69 872.26,-614.51"/>
</a>
</g>
</g>
<!-- Node13&#45;&gt;Node3 -->
<g id="edge35_Node000013_Node000003" class="edge">
<title>Node13&#45;&gt;Node3</title>
<g id="a_edge35_Node000013_Node000003"><a xlink:title=" ">
<path fill="none" stroke="#63b8ff" d="M910.75,-604.97C823.53,-541.43 572.97,-358.91 498.27,-304.49"/>
<polygon fill="#63b8ff" stroke="#63b8ff" points="908.49,-607.65 918.63,-610.71 912.61,-601.99 908.49,-607.65"/>
</a>
</g>
</g>
<!-- Node13&#45;&gt;Node7 -->
<g id="edge40_Node000013_Node000007" class="edge">
<title>Node13&#45;&gt;Node7</title>
<g id="a_edge40_Node000013_Node000007"><a xlink:title=" ">
<path fill="none" stroke="#63b8ff" d="M971.5,-604.81C1025.2,-562.92 1131,-466.49 1131,-357 1131,-357 1131,-357 1131,-151 1131,-112.6 1135.77,-93.43 1107,-68 1067.66,-33.22 915.2,-22.03 836.15,-18.53"/>
<polygon fill="#63b8ff" stroke="#63b8ff" points="969.44,-601.98 963.63,-610.84 973.7,-607.54 969.44,-601.98"/>
</a>
</g>
</g>
<!-- Node13&#45;&gt;Node10 -->
<g id="edge39_Node000013_Node000010" class="edge">
<title>Node13&#45;&gt;Node10</title>
<g id="a_edge39_Node000013_Node000010"><a xlink:title=" ">
<path fill="none" stroke="#63b8ff" d="M931.3,-601.21C915.27,-558.6 883.74,-474.82 870.78,-440.36"/>
<polygon fill="#63b8ff" stroke="#63b8ff" points="927.96,-602.27 934.75,-610.4 934.51,-599.81 927.96,-602.27"/>
</a>
</g>
</g>
<!-- Node13&#45;&gt;Node11 -->
<g id="edge34_Node000013_Node000011" class="edge">
<title>Node13&#45;&gt;Node11</title>
<g id="a_edge34_Node000013_Node000011"><a xlink:title=" ">
<path fill="none" stroke="#63b8ff" d="M943.96,-600.34C950.17,-544.5 964.36,-416.75 969.28,-372.46"/>
<polygon fill="#63b8ff" stroke="#63b8ff" points="940.49,-599.88 942.87,-610.21 947.45,-600.65 940.49,-599.88"/>
</a>
</g>
</g>
<!-- Node13&#45;&gt;Node14 -->
<g id="edge36_Node000013_Node000014" class="edge">
<title>Node13&#45;&gt;Node14</title>
<g id="a_edge36_Node000013_Node000014"><a xlink:title=" ">
<path fill="none" stroke="#63b8ff" d="M1008.87,-610.16C1052.66,-599.29 1108.96,-585.32 1150.35,-575.06"/>
<polygon fill="#63b8ff" stroke="#63b8ff" points="1008.07,-606.75 999.21,-612.56 1009.75,-613.55 1008.07,-606.75"/>
</a>
</g>
</g>
<!-- Node14&#45;&gt;Node7 -->
<g id="edge38_Node000014_Node000007" class="edge">
<title>Node14&#45;&gt;Node7</title>
<g id="a_edge38_Node000014_Node000007"><a xlink:title=" ">
<path fill="none" stroke="#63b8ff" d="M1221.93,-533.97C1226.29,-525.89 1230.75,-516.75 1234,-508 1247.19,-472.53 1253,-462.84 1253,-425 1253,-425 1253,-425 1253,-151 1253,-98.52 1216.12,-91.12 1169,-68 1111.34,-39.7 924.96,-25.12 836.05,-19.63"/>
<polygon fill="#63b8ff" stroke="#63b8ff" points="1218.95,-532.11 1217.11,-542.55 1225.06,-535.54 1218.95,-532.11"/>
</a>
</g>
</g>
<!-- Node14&#45;&gt;Node10 -->
<g id="edge37_Node000014_Node000010" class="edge">
<title>Node14&#45;&gt;Node10</title>
<g id="a_edge37_Node000014_Node000010"><a xlink:title=" ">
<path fill="none" stroke="#63b8ff" d="M1157.25,-539.51C1088.75,-512.67 966.8,-464.89 904.3,-440.4"/>
<polygon fill="#63b8ff" stroke="#63b8ff" points="1155.77,-542.69 1166.36,-543.08 1158.33,-536.17 1155.77,-542.69"/>
</a>
</g>
</g>
<!-- Node15&#45;&gt;Node2 -->
<g id="edge43_Node000015_Node000002" class="edge">
<title>Node15&#45;&gt;Node2</title>
<g id="a_edge43_Node000015_Node000002"><a xlink:title=" ">
<path fill="none" stroke="#63b8ff" d="M512.05,-608.08C543.29,-598.07 581.17,-585.94 610.65,-576.49"/>
<polygon fill="#63b8ff" stroke="#63b8ff" points="511.19,-604.68 502.74,-611.06 513.33,-611.35 511.19,-604.68"/>
</a>
</g>
</g>
<!-- Node15&#45;&gt;Node3 -->
<g id="edge44_Node000015_Node000003" class="edge">
<title>Node15&#45;&gt;Node3</title>
<g id="a_edge44_Node000015_Node000003"><a xlink:title=" ">
<path fill="none" stroke="#63b8ff" d="M448.14,-600.64C443.97,-576.6 438.28,-540.05 436,-508 430.49,-430.45 458.91,-339.67 471.37,-304.24"/>
<polygon fill="#63b8ff" stroke="#63b8ff" points="444.64,-600.95 449.83,-610.18 451.53,-599.72 444.64,-600.95"/>
</a>
</g>
</g>
<!-- Node15&#45;&gt;Node4 -->
<g id="edge45_Node000015_Node000004" class="edge">
<title>Node15&#45;&gt;Node4</title>
<g id="a_edge45_Node000015_Node000004"><a xlink:title=" ">
<path fill="none" stroke="#63b8ff" d="M385.25,-613.82C323.22,-597.34 241,-562.42 241,-493 241,-493 241,-493 241,-423 241,-351.78 213.48,-269.89 201.01,-236.44"/>
<polygon fill="#63b8ff" stroke="#63b8ff" points="384.17,-617.15 394.72,-616.21 385.89,-610.36 384.17,-617.15"/>
</a>
</g>
</g>
<!-- Node15&#45;&gt;Node5 -->
<g id="edge47_Node000015_Node000005" class="edge">
<title>Node15&#45;&gt;Node5</title>
<g id="a_edge47_Node000015_Node000005"><a xlink:title=" ">
<path fill="none" stroke="#63b8ff" d="M408.64,-606.24C368.95,-584.25 317,-545.45 317,-493 317,-493 317,-493 317,-287 317,-243.13 332.5,-193.1 341.22,-168.43"/>
<polygon fill="#63b8ff" stroke="#63b8ff" points="406.88,-609.27 417.35,-610.89 410.17,-603.09 406.88,-609.27"/>
</a>
</g>
</g>
<!-- Node15&#45;&gt;Node8 -->
<g id="edge48_Node000015_Node000008" class="edge">
<title>Node15&#45;&gt;Node8</title>
<g id="a_edge48_Node000015_Node000008"><a xlink:title=" ">
<path fill="none" stroke="#63b8ff" d="M478.08,-603.9C502.9,-580.59 541.49,-543.12 572,-508 657.68,-409.37 747.78,-279.96 777.69,-236.21"/>
<polygon fill="#63b8ff" stroke="#63b8ff" points="475.94,-601.11 471.02,-610.49 480.71,-606.22 475.94,-601.11"/>
</a>
</g>
</g>
<!-- Node15&#45;&gt;Node9 -->
<g id="edge46_Node000015_Node000009" class="edge">
<title>Node15&#45;&gt;Node9</title>
<g id="a_edge46_Node000015_Node000009"><a xlink:title=" ">
<path fill="none" stroke="#63b8ff" d="M462.82,-601.19C473.32,-573.6 489.61,-530.8 498.22,-508.19"/>
<polygon fill="#63b8ff" stroke="#63b8ff" points="459.67,-599.62 459.39,-610.21 466.22,-602.11 459.67,-599.62"/>
</a>
</g>
</g>
<!-- Node16&#45;&gt;Node7 -->
<g id="edge51_Node000016_Node000007" class="edge">
<title>Node16&#45;&gt;Node7</title>
<g id="a_edge51_Node000016_Node000007"><a xlink:title=" ">
<path fill="none" stroke="#63b8ff" d="M1169,-464.52C1169,-437.49 1169,-394.32 1169,-357 1169,-357 1169,-357 1169,-151 1169,-112.6 1173.98,-93.19 1145,-68 1099.76,-28.67 922.43,-19.64 835.95,-17.59"/>
<polygon fill="#63b8ff" stroke="#63b8ff" points="1165.5,-464.21 1169,-474.21 1172.5,-464.21 1165.5,-464.21"/>
</a>
</g>
</g>
<!-- Node16&#45;&gt;Node8 -->
<g id="edge50_Node000016_Node000008" class="edge">
<title>Node16&#45;&gt;Node8</title>
<g id="a_edge50_Node000016_Node000008"><a xlink:title=" ">
<path fill="none" stroke="#63b8ff" d="M1152.02,-466.32C1128.82,-434.01 1084.52,-377.14 1036,-340 981.7,-298.44 959.69,-301.49 898,-272 872.55,-259.83 843.61,-246.43 821.8,-236.42"/>
<polygon fill="#63b8ff" stroke="#63b8ff" points="1149.02,-468.14 1157.65,-474.28 1154.73,-464.09 1149.02,-468.14"/>
</a>
</g>
</g>
<!-- Node17&#45;&gt;Node4 -->
<g id="edge56_Node000017_Node000004" class="edge">
<title>Node17&#45;&gt;Node4</title>
<g id="a_edge56_Node000017_Node000004"><a xlink:title=" ">
<path fill="none" stroke="#63b8ff" d="M152.94,-263.71C161.92,-254.59 171.98,-244.37 180.01,-236.22"/>
<polygon fill="#63b8ff" stroke="#63b8ff" points="150.66,-261.03 146.14,-270.61 155.65,-265.95 150.66,-261.03"/>
</a>
</g>
</g>
<!-- Node17&#45;&gt;Node6 -->
<g id="edge57_Node000017_Node000006" class="edge">
<title>Node17&#45;&gt;Node6</title>
<g id="a_edge57_Node000017_Node000006"><a xlink:title=" ">
<path fill="none" stroke="#63b8ff" d="M123.28,-260.37C120.46,-243.08 119.84,-220.73 130,-204 167.21,-142.73 247.36,-111.56 302.24,-96.8"/>
<polygon fill="#63b8ff" stroke="#63b8ff" points="119.85,-261.05 125.25,-270.17 126.72,-259.68 119.85,-261.05"/>
</a>
</g>
</g>
<!-- Node18&#45;&gt;Node7 -->
<g id="edge62_Node000018_Node000007" class="edge">
<title>Node18&#45;&gt;Node7</title>
<g id="a_edge62_Node000018_Node000007"><a xlink:title=" ">
<path fill="none" stroke="#63b8ff" d="M1359.55,-600.57C1356.32,-573.59 1352,-530.45 1352,-493 1352,-493 1352,-493 1352,-151 1352,-45.33 972.48,-22.85 836.09,-18.19"/>
<polygon fill="#63b8ff" stroke="#63b8ff" points="1356.04,-600.76 1360.74,-610.26 1362.99,-599.9 1356.04,-600.76"/>
</a>
</g>
</g>
<!-- Node18&#45;&gt;Node14 -->
<g id="edge61_Node000018_Node000014" class="edge">
<title>Node18&#45;&gt;Node14</title>
<g id="a_edge61_Node000018_Node000014"><a xlink:title=" ">
<path fill="none" stroke="#63b8ff" d="M1316.1,-607.16C1292.88,-597.33 1265.26,-585.65 1243.62,-576.49"/>
<polygon fill="#63b8ff" stroke="#63b8ff" points="1314.46,-610.26 1325.03,-610.94 1317.19,-603.82 1314.46,-610.26"/>
</a>
</g>
</g>
</g>
</svg>
