<?xml version="1.0" encoding="UTF-8" standalone="no"?>
<!DOCTYPE svg PUBLIC "-//W3C//DTD SVG 1.1//EN"
 "http://www.w3.org/Graphics/SVG/1.1/DTD/svg11.dtd">
<!-- Generated by graphviz version 10.0.1 (20240210.2158)
 -->
<!-- Title: RoutageVoilier/include/Voilier.hpp Pages: 1 -->
<svg width="432pt" height="448pt"
 viewBox="0.00 0.00 431.54 448.00" xmlns="http://www.w3.org/2000/svg" xmlns:xlink="http://www.w3.org/1999/xlink">
<g id="graph0" class="graph" transform="scale(1 1) rotate(0) translate(4 444)">
<title>RoutageVoilier/include/Voilier.hpp</title>
<!-- Node1 -->
<g id="Node000001" class="node">
<title>Node1</title>
<g id="a_Node000001"><a xlink:title=" ">
<polygon fill="#999999" stroke="#666666" points="183.54,-440 70.79,-440 70.79,-408 183.54,-408 183.54,-440"/>
<text text-anchor="start" x="78.79" y="-426.5" font-family="Helvetica,sans-Serif" font-size="10.00">RoutageVoilier/include</text>
<text text-anchor="middle" x="127.17" y="-414.5" font-family="Helvetica,sans-Serif" font-size="10.00">/Voilier.hpp</text>
</a>
</g>
</g>
<!-- Node2 -->
<g id="Node000002" class="node">
<title>Node2</title>
<g id="a_Node000002"><a xlink:href="_commande_8hpp.html" target="_top" xlink:title=" ">
<polygon fill="white" stroke="#666666" points="141.54,-372 28.79,-372 28.79,-340 141.54,-340 141.54,-372"/>
<text text-anchor="start" x="36.79" y="-358.5" font-family="Helvetica,sans-Serif" font-size="10.00">RoutageVoilier/include</text>
<text text-anchor="middle" x="85.17" y="-346.5" font-family="Helvetica,sans-Serif" font-size="10.00">/Commande.hpp</text>
</a>
</g>
</g>
<!-- Node1&#45;&gt;Node2 -->
<g id="edge1_Node000001_Node000002" class="edge">
<title>Node1&#45;&gt;Node2</title>
<g id="a_edge1_Node000001_Node000002"><a xlink:title=" ">
<path fill="none" stroke="#63b8ff" d="M111.27,-398.02C105.75,-389.34 99.72,-379.88 94.85,-372.22"/>
<polygon fill="#63b8ff" stroke="#63b8ff" points="108.29,-399.86 116.61,-406.42 114.2,-396.1 108.29,-399.86"/>
</a>
</g>
</g>
<!-- Node3 -->
<g id="Node000003" class="node">
<title>Node3</title>
<g id="a_Node000003"><a xlink:href="_dynamique_8hpp.html" target="_top" xlink:title=" ">
<polygon fill="white" stroke="#666666" points="309.54,-304 196.79,-304 196.79,-272 309.54,-272 309.54,-304"/>
<text text-anchor="start" x="204.79" y="-290.5" font-family="Helvetica,sans-Serif" font-size="10.00">RoutageVoilier/include</text>
<text text-anchor="middle" x="253.17" y="-278.5" font-family="Helvetica,sans-Serif" font-size="10.00">/Dynamique.hpp</text>
</a>
</g>
</g>
<!-- Node1&#45;&gt;Node3 -->
<g id="edge16_Node000001_Node000003" class="edge">
<title>Node1&#45;&gt;Node3</title>
<g id="a_edge16_Node000001_Node000003"><a xlink:title=" ">
<path fill="none" stroke="#63b8ff" d="M153.53,-400.28C163.12,-391.69 173.88,-381.65 183.17,-372 204.87,-349.46 227.86,-321.25 241.34,-304.2"/>
<polygon fill="#63b8ff" stroke="#63b8ff" points="151.43,-397.47 146.26,-406.72 156.07,-402.71 151.43,-397.47"/>
</a>
</g>
</g>
<!-- Node7 -->
<g id="Node000007" class="node">
<title>Node7</title>
<g id="a_Node000007"><a xlink:href="main_8cpp.html" target="_top" xlink:title=" ">
<polygon fill="white" stroke="#666666" points="254.92,-32 159.42,-32 159.42,0 254.92,0 254.92,-32"/>
<text text-anchor="start" x="167.42" y="-18.5" font-family="Helvetica,sans-Serif" font-size="10.00">RoutageVoilier/src</text>
<text text-anchor="middle" x="207.17" y="-6.5" font-family="Helvetica,sans-Serif" font-size="10.00">/main.cpp</text>
</a>
</g>
</g>
<!-- Node1&#45;&gt;Node7 -->
<g id="edge18_Node000001_Node000007" class="edge">
<title>Node1&#45;&gt;Node7</title>
<g id="a_edge18_Node000001_Node000007"><a xlink:title=" ">
<path fill="none" stroke="#63b8ff" d="M61.39,-402.94C45.94,-395.44 30.88,-385.37 20.17,-372 -3.5,-342.47 1.17,-326.84 1.17,-289 1.17,-289 1.17,-289 1.17,-151 1.17,-76.02 98.26,-40.83 159.13,-26.14"/>
<polygon fill="#63b8ff" stroke="#63b8ff" points="59.62,-405.98 70.18,-406.88 62.49,-399.6 59.62,-405.98"/>
</a>
</g>
</g>
<!-- Node8 -->
<g id="Node000008" class="node">
<title>Node8</title>
<g id="a_Node000008"><a xlink:href="_simulateur_8hpp.html" target="_top" xlink:title=" ">
<polygon fill="white" stroke="#666666" points="179.54,-236 66.79,-236 66.79,-204 179.54,-204 179.54,-236"/>
<text text-anchor="start" x="74.79" y="-222.5" font-family="Helvetica,sans-Serif" font-size="10.00">RoutageVoilier/include</text>
<text text-anchor="middle" x="123.17" y="-210.5" font-family="Helvetica,sans-Serif" font-size="10.00">/Simulateur.hpp</text>
</a>
</g>
</g>
<!-- Node1&#45;&gt;Node8 -->
<g id="edge17_Node000001_Node000008" class="edge">
<title>Node1&#45;&gt;Node8</title>
<g id="a_edge17_Node000001_Node000008"><a xlink:title=" ">
<path fill="none" stroke="#63b8ff" d="M141.23,-397.46C144.88,-389.53 148.31,-380.62 150.17,-372 160.8,-322.53 140.78,-263.32 129.75,-236.07"/>
<polygon fill="#63b8ff" stroke="#63b8ff" points="138.22,-395.65 136.9,-406.16 144.49,-398.76 138.22,-395.65"/>
</a>
</g>
</g>
<!-- Node2&#45;&gt;Node3 -->
<g id="edge2_Node000002_Node000003" class="edge">
<title>Node2&#45;&gt;Node3</title>
<g id="a_edge2_Node000002_Node000003"><a xlink:title=" ">
<path fill="none" stroke="#63b8ff" d="M135,-335.42C160.15,-325.54 190.22,-313.73 213.73,-304.49"/>
<polygon fill="#63b8ff" stroke="#63b8ff" points="133.99,-332.06 125.96,-338.97 136.55,-338.57 133.99,-332.06"/>
</a>
</g>
</g>
<!-- Node2&#45;&gt;Node7 -->
<g id="edge15_Node000002_Node000007" class="edge">
<title>Node2&#45;&gt;Node7</title>
<g id="a_edge15_Node000002_Node000007"><a xlink:title=" ">
<path fill="none" stroke="#63b8ff" d="M70.82,-329.62C57.32,-303.31 39.17,-260.56 39.17,-221 39.17,-221 39.17,-221 39.17,-151 39.17,-89.25 109.38,-51.34 159.02,-32.25"/>
<polygon fill="#63b8ff" stroke="#63b8ff" points="67.58,-330.98 75.37,-338.17 73.77,-327.7 67.58,-330.98"/>
</a>
</g>
</g>
<!-- Node2&#45;&gt;Node8 -->
<g id="edge14_Node000002_Node000008" class="edge">
<title>Node2&#45;&gt;Node8</title>
<g id="a_edge14_Node000002_Node000008"><a xlink:title=" ">
<path fill="none" stroke="#63b8ff" d="M92.59,-328.82C100.42,-301.22 112.47,-258.7 118.86,-236.19"/>
<polygon fill="#63b8ff" stroke="#63b8ff" points="89.3,-327.6 89.94,-338.17 96.03,-329.51 89.3,-327.6"/>
</a>
</g>
</g>
<!-- Node4 -->
<g id="Node000004" class="node">
<title>Node4</title>
<g id="a_Node000004"><a xlink:href="_flux_8hpp.html" target="_top" xlink:title=" ">
<polygon fill="white" stroke="#666666" points="347.54,-236 234.79,-236 234.79,-204 347.54,-204 347.54,-236"/>
<text text-anchor="start" x="242.79" y="-222.5" font-family="Helvetica,sans-Serif" font-size="10.00">RoutageVoilier/include</text>
<text text-anchor="middle" x="291.17" y="-210.5" font-family="Helvetica,sans-Serif" font-size="10.00">/Flux.hpp</text>
</a>
</g>
</g>
<!-- Node3&#45;&gt;Node4 -->
<g id="edge3_Node000003_Node000004" class="edge">
<title>Node3&#45;&gt;Node4</title>
<g id="a_edge3_Node000003_Node000004"><a xlink:title=" ">
<path fill="none" stroke="#63b8ff" d="M267.71,-261.74C272.66,-253.14 278.04,-243.79 282.4,-236.22"/>
<polygon fill="#63b8ff" stroke="#63b8ff" points="264.69,-259.97 262.73,-270.38 270.76,-263.46 264.69,-259.97"/>
</a>
</g>
</g>
<!-- Node5 -->
<g id="Node000005" class="node">
<title>Node5</title>
<g id="a_Node000005"><a xlink:href="_h_j_b_8hpp.html" target="_top" xlink:title=" ">
<polygon fill="white" stroke="#666666" points="385.54,-168 272.79,-168 272.79,-136 385.54,-136 385.54,-168"/>
<text text-anchor="start" x="280.79" y="-154.5" font-family="Helvetica,sans-Serif" font-size="10.00">RoutageVoilier/include</text>
<text text-anchor="middle" x="329.17" y="-142.5" font-family="Helvetica,sans-Serif" font-size="10.00">/HJB.hpp</text>
</a>
</g>
</g>
<!-- Node3&#45;&gt;Node5 -->
<g id="edge9_Node000003_Node000005" class="edge">
<title>Node3&#45;&gt;Node5</title>
<g id="a_edge9_Node000003_Node000005"><a xlink:title=" ">
<path fill="none" stroke="#63b8ff" d="M319.89,-267.29C334.25,-259.84 347.66,-249.71 356.17,-236 369.51,-214.5 353.96,-185.73 341.53,-168.32"/>
<polygon fill="#63b8ff" stroke="#63b8ff" points="318.76,-263.96 311.21,-271.39 321.75,-270.29 318.76,-263.96"/>
</a>
</g>
</g>
<!-- Node6 -->
<g id="Node000006" class="node">
<title>Node6</title>
<g id="a_Node000006"><a xlink:href="route__optimale_8hpp.html" target="_top" xlink:title=" ">
<polygon fill="white" stroke="#666666" points="423.54,-100 310.79,-100 310.79,-68 423.54,-68 423.54,-100"/>
<text text-anchor="start" x="318.79" y="-86.5" font-family="Helvetica,sans-Serif" font-size="10.00">RoutageVoilier/include</text>
<text text-anchor="middle" x="367.17" y="-74.5" font-family="Helvetica,sans-Serif" font-size="10.00">/route_optimale.hpp</text>
</a>
</g>
</g>
<!-- Node3&#45;&gt;Node6 -->
<g id="edge12_Node000003_Node000006" class="edge">
<title>Node3&#45;&gt;Node6</title>
<g id="a_edge12_Node000003_Node000006"><a xlink:title=" ">
<path fill="none" stroke="#63b8ff" d="M320.49,-269.62C339.31,-261.96 358.36,-251.13 372.17,-236 402.83,-202.38 405.14,-180.17 394.17,-136 390.98,-123.17 383.9,-110.01 377.79,-100.27"/>
<polygon fill="#63b8ff" stroke="#63b8ff" points="319.32,-266.32 311.21,-273.13 321.8,-272.87 319.32,-266.32"/>
</a>
</g>
</g>
<!-- Node3&#45;&gt;Node7 -->
<g id="edge13_Node000003_Node000007" class="edge">
<title>Node3&#45;&gt;Node7</title>
<g id="a_edge13_Node000003_Node000007"><a xlink:title=" ">
<path fill="none" stroke="#63b8ff" d="M237.3,-261.85C232.97,-253.87 228.77,-244.82 226.17,-236 204.36,-162.06 205.14,-68.45 206.44,-32.25"/>
<polygon fill="#63b8ff" stroke="#63b8ff" points="234.15,-263.4 242.17,-270.31 240.21,-259.9 234.15,-263.4"/>
</a>
</g>
</g>
<!-- Node3&#45;&gt;Node8 -->
<g id="edge10_Node000003_Node000008" class="edge">
<title>Node3&#45;&gt;Node8</title>
<g id="a_edge10_Node000003_Node000008"><a xlink:title=" ">
<path fill="none" stroke="#63b8ff" d="M212.47,-266.34C193.38,-256.65 171.02,-245.3 153.45,-236.38"/>
<polygon fill="#63b8ff" stroke="#63b8ff" points="210.84,-269.43 221.34,-270.84 214,-263.19 210.84,-269.43"/>
</a>
</g>
</g>
<!-- Node4&#45;&gt;Node5 -->
<g id="edge4_Node000004_Node000005" class="edge">
<title>Node4&#45;&gt;Node5</title>
<g id="a_edge4_Node000004_Node000005"><a xlink:title=" ">
<path fill="none" stroke="#63b8ff" d="M305.71,-193.74C310.66,-185.14 316.04,-175.79 320.4,-168.22"/>
<polygon fill="#63b8ff" stroke="#63b8ff" points="302.69,-191.97 300.73,-202.38 308.76,-195.46 302.69,-191.97"/>
</a>
</g>
</g>
<!-- Node4&#45;&gt;Node7 -->
<g id="edge8_Node000004_Node000007" class="edge">
<title>Node4&#45;&gt;Node7</title>
<g id="a_edge8_Node000004_Node000007"><a xlink:title=" ">
<path fill="none" stroke="#63b8ff" d="M276.95,-193.68C272.63,-185.58 268.01,-176.51 264.17,-168 242.27,-119.47 221.48,-59.8 212.21,-32.26"/>
<polygon fill="#63b8ff" stroke="#63b8ff" points="273.79,-195.19 281.65,-202.3 279.94,-191.84 273.79,-195.19"/>
</a>
</g>
</g>
<!-- Node5&#45;&gt;Node6 -->
<g id="edge5_Node000005_Node000006" class="edge">
<title>Node5&#45;&gt;Node6</title>
<g id="a_edge5_Node000005_Node000006"><a xlink:title=" ">
<path fill="none" stroke="#63b8ff" d="M343.71,-125.74C348.66,-117.14 354.04,-107.79 358.4,-100.22"/>
<polygon fill="#63b8ff" stroke="#63b8ff" points="340.69,-123.97 338.73,-134.38 346.76,-127.46 340.69,-123.97"/>
</a>
</g>
</g>
<!-- Node5&#45;&gt;Node7 -->
<g id="edge7_Node000005_Node000007" class="edge">
<title>Node5&#45;&gt;Node7</title>
<g id="a_edge7_Node000005_Node000007"><a xlink:title=" ">
<path fill="none" stroke="#63b8ff" d="M309.9,-126.95C296.15,-110.1 277.01,-87.24 259.17,-68 247.64,-55.58 233.94,-42.19 223.49,-32.24"/>
<polygon fill="#63b8ff" stroke="#63b8ff" points="306.97,-128.9 315.98,-134.46 312.41,-124.49 306.97,-128.9"/>
</a>
</g>
</g>
<!-- Node6&#45;&gt;Node7 -->
<g id="edge6_Node000006_Node000007" class="edge">
<title>Node6&#45;&gt;Node7</title>
<g id="a_edge6_Node000006_Node000007"><a xlink:title=" ">
<path fill="none" stroke="#63b8ff" d="M319.06,-63.16C295.25,-53.33 266.92,-41.65 244.72,-32.49"/>
<polygon fill="#63b8ff" stroke="#63b8ff" points="317.67,-66.37 328.25,-66.95 320.34,-59.9 317.67,-66.37"/>
</a>
</g>
</g>
<!-- Node8&#45;&gt;Node7 -->
<g id="edge11_Node000008_Node000007" class="edge">
<title>Node8&#45;&gt;Node7</title>
<g id="a_edge11_Node000008_Node000007"><a xlink:title=" ">
<path fill="none" stroke="#63b8ff" d="M133.89,-193.21C151.61,-150.6 186.45,-66.82 200.78,-32.36"/>
<polygon fill="#63b8ff" stroke="#63b8ff" points="130.67,-191.84 130.06,-202.42 137.13,-194.53 130.67,-191.84"/>
</a>
</g>
</g>
</g>
</svg>
