<?xml version="1.0" encoding="UTF-8" standalone="no"?>
<!DOCTYPE svg PUBLIC "-//W3C//DTD SVG 1.1//EN"
 "http://www.w3.org/Graphics/SVG/1.1/DTD/svg11.dtd">
<!-- Generated by graphviz version 10.0.1 (20240210.2158)
 -->
<!-- Title: Dynamique Pages: 1 -->
<svg width="202pt" height="84pt"
 viewBox="0.00 0.00 201.62 84.00" xmlns="http://www.w3.org/2000/svg" xmlns:xlink="http://www.w3.org/1999/xlink">
<g id="graph0" class="graph" transform="scale(1 1) rotate(0) translate(4 80)">
<title>Dynamique</title>
<!-- Node1 -->
<g id="Node000001" class="node">
<title>Node1</title>
<g id="a_Node000001"><a xlink:title=" ">
<polygon fill="#999999" stroke="#666666" points="128.62,-76 63.88,-76 63.88,-56 128.62,-56 128.62,-76"/>
<text text-anchor="middle" x="96.25" y="-62.5" font-family="Helvetica,sans-Serif" font-size="10.00">Dynamique</text>
</a>
</g>
</g>
<!-- Node2 -->
<g id="Node000002" class="node">
<title>Node2</title>
<g id="a_Node000002"><a xlink:href="class_dynamique__test.html" target="_top" xlink:title=" ">
<polygon fill="white" stroke="#666666" points="86.5,-20 0,-20 0,0 86.5,0 86.5,-20"/>
<text text-anchor="middle" x="43.25" y="-6.5" font-family="Helvetica,sans-Serif" font-size="10.00">Dynamique_test</text>
</a>
</g>
</g>
<!-- Node1&#45;&gt;Node2 -->
<g id="edge1_Node000001_Node000002" class="edge">
<title>Node1&#45;&gt;Node2</title>
<g id="a_edge1_Node000001_Node000002"><a xlink:title=" ">
<path fill="none" stroke="#63b8ff" d="M79.14,-47.57C70.24,-38.5 59.72,-27.78 52.38,-20.3"/>
<polygon fill="#63b8ff" stroke="#63b8ff" points="76.46,-49.83 85.96,-54.51 81.45,-44.93 76.46,-49.83"/>
</a>
</g>
</g>
<!-- Node3 -->
<g id="Node000003" class="node">
<title>Node3</title>
<g id="a_Node000003"><a xlink:href="class_dynamique__voile.html" target="_top" xlink:title=" ">
<polygon fill="white" stroke="#666666" points="193.62,-20 104.88,-20 104.88,0 193.62,0 193.62,-20"/>
<text text-anchor="middle" x="149.25" y="-6.5" font-family="Helvetica,sans-Serif" font-size="10.00">Dynamique_voile</text>
</a>
</g>
</g>
<!-- Node1&#45;&gt;Node3 -->
<g id="edge2_Node000001_Node000003" class="edge">
<title>Node1&#45;&gt;Node3</title>
<g id="a_edge2_Node000001_Node000003"><a xlink:title=" ">
<path fill="none" stroke="#63b8ff" d="M113.36,-47.57C122.26,-38.5 132.78,-27.78 140.12,-20.3"/>
<polygon fill="#63b8ff" stroke="#63b8ff" points="111.05,-44.93 106.54,-54.51 116.04,-49.83 111.05,-44.93"/>
</a>
</g>
</g>
</g>
</svg>
