<?xml version="1.0" encoding="UTF-8" standalone="no"?>
<!DOCTYPE svg PUBLIC "-//W3C//DTD SVG 1.1//EN"
 "http://www.w3.org/Graphics/SVG/1.1/DTD/svg11.dtd">
<!-- Generated by graphviz version 10.0.1 (20240210.2158)
 -->
<!-- Title: Grille::find Pages: 1 -->
<svg width="172pt" height="46pt"
 viewBox="0.00 0.00 172.00 46.00" xmlns="http://www.w3.org/2000/svg" xmlns:xlink="http://www.w3.org/1999/xlink">
<g id="graph0" class="graph" transform="scale(1 1) rotate(0) translate(4 42)">
<title>Grille::find</title>
<!-- Node1 -->
<g id="Node000001" class="node">
<title>Node1</title>
<g id="a_Node000001"><a xlink:title=" ">
<polygon fill="#999999" stroke="#666666" points="59.5,-20 0,-20 0,0 59.5,0 59.5,-20"/>
<text text-anchor="middle" x="29.75" y="-6.5" font-family="Helvetica,sans-Serif" font-size="10.00">Grille::find</text>
</a>
</g>
</g>
<!-- Node2 -->
<g id="Node000002" class="node">
<title>Node2</title>
<g id="a_Node000002"><a xlink:href="_fonction__externes_8hpp.html#a8bf9651680a69ef9b57e88861dbc2b7c" target="_top" xlink:title=" ">
<polygon fill="white" stroke="#666666" points="164,-20 95.5,-20 95.5,0 164,0 164,-20"/>
<text text-anchor="middle" x="129.75" y="-6.5" font-family="Helvetica,sans-Serif" font-size="10.00">interpolation</text>
</a>
</g>
</g>
<!-- Node1&#45;&gt;Node2 -->
<g id="edge1_Node000001_Node000002" class="edge">
<title>Node1&#45;&gt;Node2</title>
<g id="a_edge1_Node000001_Node000002"><a xlink:title=" ">
<path fill="none" stroke="#63b8ff" d="M59.89,-3.77C67.4,-3.35 75.67,-3.19 83.79,-3.27"/>
<polygon fill="#63b8ff" stroke="#63b8ff" points="83.48,-6.76 93.56,-3.51 83.65,0.23 83.48,-6.76"/>
</a>
</g>
</g>
<!-- Node2&#45;&gt;Node1 -->
<g id="edge2_Node000002_Node000001" class="edge">
<title>Node2&#45;&gt;Node1</title>
<g id="a_edge2_Node000002_Node000001"><a xlink:title=" ">
<path fill="none" stroke="#63b8ff" d="M95.07,-16.45C87.38,-16.76 79.14,-16.83 71.2,-16.66"/>
<polygon fill="#63b8ff" stroke="#63b8ff" points="71.53,-13.17 61.4,-16.29 71.26,-20.16 71.53,-13.17"/>
</a>
</g>
</g>
<!-- Node2&#45;&gt;Node2 -->
<g id="edge3_Node000002_Node000002" class="edge">
<title>Node2&#45;&gt;Node2</title>
<g id="a_edge3_Node000002_Node000002"><a xlink:title=" ">
<path fill="none" stroke="#63b8ff" d="M113.86,-20.34C107.07,-28.98 112.37,-38 129.75,-38 139.26,-38 145.15,-35.3 147.42,-31.44"/>
<polygon fill="#63b8ff" stroke="#63b8ff" points="150.92,-31.15 145.88,-21.83 144.01,-32.26 150.92,-31.15"/>
</a>
</g>
</g>
</g>
</svg>
