<?xml version="1.0" encoding="UTF-8" standalone="no"?>
<!DOCTYPE svg PUBLIC "-//W3C//DTD SVG 1.1//EN"
 "http://www.w3.org/Graphics/SVG/1.1/DTD/svg11.dtd">
<!-- Generated by graphviz version 10.0.1 (20240210.2158)
 -->
<!-- Title: Polaire::Polaire Pages: 1 -->
<svg width="290pt" height="46pt"
 viewBox="0.00 0.00 290.00 46.00" xmlns="http://www.w3.org/2000/svg" xmlns:xlink="http://www.w3.org/1999/xlink">
<g id="graph0" class="graph" transform="scale(1 1) rotate(0) translate(4 42)">
<title>Polaire::Polaire</title>
<!-- Node1 -->
<g id="Node000001" class="node">
<title>Node1</title>
<g id="a_Node000001"><a xlink:title=" ">
<polygon fill="#999999" stroke="#666666" points="82,-20 0,-20 0,0 82,0 82,-20"/>
<text text-anchor="middle" x="41" y="-6.5" font-family="Helvetica,sans-Serif" font-size="10.00">Polaire::Polaire</text>
</a>
</g>
</g>
<!-- Node2 -->
<g id="Node000002" class="node">
<title>Node2</title>
<g id="a_Node000002"><a xlink:href="_fonction__externes_8hpp.html#a8bf9651680a69ef9b57e88861dbc2b7c" target="_top" xlink:title=" ">
<polygon fill="white" stroke="#666666" points="186.5,-20 118,-20 118,0 186.5,0 186.5,-20"/>
<text text-anchor="middle" x="152.25" y="-6.5" font-family="Helvetica,sans-Serif" font-size="10.00">interpolation</text>
</a>
</g>
</g>
<!-- Node1&#45;&gt;Node2 -->
<g id="edge1_Node000001_Node000002" class="edge">
<title>Node1&#45;&gt;Node2</title>
<g id="a_edge1_Node000001_Node000002"><a xlink:title=" ">
<path fill="none" stroke="#63b8ff" d="M82.37,-10C90.21,-10 98.47,-10 106.45,-10"/>
<polygon fill="#63b8ff" stroke="#63b8ff" points="106.33,-13.5 116.33,-10 106.33,-6.5 106.33,-13.5"/>
</a>
</g>
</g>
<!-- Node2&#45;&gt;Node2 -->
<g id="edge4_Node000002_Node000002" class="edge">
<title>Node2&#45;&gt;Node2</title>
<g id="a_edge4_Node000002_Node000002"><a xlink:title=" ">
<path fill="none" stroke="#63b8ff" d="M136.36,-20.34C129.57,-28.98 134.87,-38 152.25,-38 161.76,-38 167.65,-35.3 169.92,-31.44"/>
<polygon fill="#63b8ff" stroke="#63b8ff" points="173.42,-31.15 168.38,-21.83 166.51,-32.26 173.42,-31.15"/>
</a>
</g>
</g>
<!-- Node3 -->
<g id="Node000003" class="node">
<title>Node3</title>
<g id="a_Node000003"><a xlink:href="class_grille.html#a55235882a3d7897067449ef76fb64287" target="_top" xlink:title=" ">
<polygon fill="white" stroke="#666666" points="282,-20 222.5,-20 222.5,0 282,0 282,-20"/>
<text text-anchor="middle" x="252.25" y="-6.5" font-family="Helvetica,sans-Serif" font-size="10.00">Grille::find</text>
</a>
</g>
</g>
<!-- Node2&#45;&gt;Node3 -->
<g id="edge2_Node000002_Node000003" class="edge">
<title>Node2&#45;&gt;Node3</title>
<g id="a_edge2_Node000002_Node000003"><a xlink:title=" ">
<path fill="none" stroke="#63b8ff" d="M186.98,-3.55C194.64,-3.24 202.86,-3.17 210.77,-3.34"/>
<polygon fill="#63b8ff" stroke="#63b8ff" points="210.4,-6.83 220.53,-3.71 210.67,0.16 210.4,-6.83"/>
</a>
</g>
</g>
<!-- Node3&#45;&gt;Node2 -->
<g id="edge3_Node000003_Node000002" class="edge">
<title>Node3&#45;&gt;Node2</title>
<g id="a_edge3_Node000003_Node000002"><a xlink:title=" ">
<path fill="none" stroke="#63b8ff" d="M222.04,-16.23C214.55,-16.65 206.31,-16.81 198.22,-16.73"/>
<polygon fill="#63b8ff" stroke="#63b8ff" points="198.57,-13.24 188.49,-16.49 198.4,-20.24 198.57,-13.24"/>
</a>
</g>
</g>
</g>
</svg>
