<?xml version="1.0" encoding="UTF-8" standalone="no"?>
<!DOCTYPE svg PUBLIC "-//W3C//DTD SVG 1.1//EN"
 "http://www.w3.org/Graphics/SVG/1.1/DTD/svg11.dtd">
<!-- Generated by graphviz version 10.0.1 (20240210.2158)
 -->
<!-- Title: route_optimale Pages: 1 -->
<svg width="105pt" height="233pt"
 viewBox="0.00 0.00 105.00 233.00" xmlns="http://www.w3.org/2000/svg" xmlns:xlink="http://www.w3.org/1999/xlink">
<g id="graph0" class="graph" transform="scale(1 1) rotate(0) translate(4 229)">
<title>route_optimale</title>
<!-- Node1 -->
<g id="Node000001" class="node">
<title>Node1</title>
<g id="a_Node000001"><a xlink:title=" ">
<polygon fill="#999999" stroke="#666666" points="88.38,-20 8.62,-20 8.62,0 88.38,0 88.38,-20"/>
<text text-anchor="middle" x="48.5" y="-6.5" font-family="Helvetica,sans-Serif" font-size="10.00">route_optimale</text>
</a>
</g>
</g>
<!-- Node2 -->
<g id="Node000002" class="node">
<title>Node2</title>
<g id="a_Node000002"><a xlink:href="class_bi__vecteur.html" target="_top" xlink:title=" ">
<polygon fill="white" stroke="#666666" points="97,-88 0,-88 0,-68 97,-68 97,-88"/>
<text text-anchor="middle" x="48.5" y="-74.5" font-family="Helvetica,sans-Serif" font-size="10.00">Bi_vecteur&lt; float &gt;</text>
</a>
</g>
</g>
<!-- Node2&#45;&gt;Node1 -->
<g id="edge1_Node000001_Node000002" class="edge">
<title>Node2&#45;&gt;Node1</title>
<g id="a_edge1_Node000001_Node000002"><a xlink:title=" ">
<path fill="none" stroke="#9a32cd" stroke-dasharray="5,2" d="M48.5,-56.28C48.5,-44.27 48.5,-29.74 48.5,-20.44"/>
<polygon fill="#9a32cd" stroke="#9a32cd" points="45,-56.03 48.5,-66.03 52,-56.03 45,-56.03"/>
</a>
</g>
<text text-anchor="middle" x="69.5" y="-40.5" font-family="Helvetica,sans-Serif" font-size="10.00" fill="grey"> positions</text>
</g>
<!-- Node3 -->
<g id="Node000003" class="node">
<title>Node3</title>
<g id="a_Node000003"><a xlink:href="class_vecteur.html" target="_top" xlink:title=" ">
<polygon fill="white" stroke="#666666" points="91.38,-168 5.62,-168 5.62,-148 91.38,-148 91.38,-168"/>
<text text-anchor="middle" x="48.5" y="-154.5" font-family="Helvetica,sans-Serif" font-size="10.00">Vecteur&lt; float &gt;</text>
</a>
</g>
</g>
<!-- Node3&#45;&gt;Node2 -->
<g id="edge2_Node000002_Node000003" class="edge">
<title>Node3&#45;&gt;Node2</title>
<g id="a_edge2_Node000002_Node000003"><a xlink:title=" ">
<path fill="none" stroke="#9a32cd" stroke-dasharray="5,2" d="M48.5,-136.59C48.5,-120.94 48.5,-100.08 48.5,-88.24"/>
<polygon fill="#9a32cd" stroke="#9a32cd" points="45,-136.23 48.5,-146.23 52,-136.23 45,-136.23"/>
</a>
</g>
<text text-anchor="middle" x="52.62" y="-120.5" font-family="Helvetica,sans-Serif" font-size="10.00" fill="grey"> X</text>
<text text-anchor="middle" x="52.62" y="-108.5" font-family="Helvetica,sans-Serif" font-size="10.00" fill="grey">Y</text>
</g>
<!-- Node4 -->
<g id="Node000004" class="node">
<title>Node4</title>
<g id="a_Node000004"><a xlink:title=" ">
<polygon fill="white" stroke="#666666" points="88.75,-225 8.25,-225 8.25,-205 88.75,-205 88.75,-225"/>
<text text-anchor="middle" x="48.5" y="-211.5" font-family="Helvetica,sans-Serif" font-size="10.00">vector&lt; float &#160;&gt;</text>
</a>
</g>
</g>
<!-- Node4&#45;&gt;Node3 -->
<g id="edge3_Node000003_Node000004" class="edge">
<title>Node4&#45;&gt;Node3</title>
<g id="a_edge3_Node000003_Node000004"><a xlink:title=" ">
<path fill="none" stroke="#63b8ff" d="M48.5,-193.69C48.5,-184.97 48.5,-175.22 48.5,-168.28"/>
<polygon fill="#63b8ff" stroke="#63b8ff" points="45,-193.4 48.5,-203.4 52,-193.4 45,-193.4"/>
</a>
</g>
</g>
</g>
</svg>
