<?xml version="1.0" encoding="UTF-8" standalone="no"?>
<!DOCTYPE svg PUBLIC "-//W3C//DTD SVG 1.1//EN"
 "http://www.w3.org/Graphics/SVG/1.1/DTD/svg11.dtd">
<!-- Generated by graphviz version 10.0.1 (20240210.2158)
 -->
<!-- Title: Bassin Pages: 1 -->
<svg width="373pt" height="245pt"
 viewBox="0.00 0.00 372.50 245.00" xmlns="http://www.w3.org/2000/svg" xmlns:xlink="http://www.w3.org/1999/xlink">
<g id="graph0" class="graph" transform="scale(1 1) rotate(0) translate(4 241)">
<title>Bassin</title>
<!-- Node1 -->
<g id="Node000001" class="node">
<title>Node1</title>
<g id="a_Node000001"><a xlink:title=" ">
<polygon fill="#999999" stroke="#666666" points="183.25,-20 137.25,-20 137.25,0 183.25,0 183.25,-20"/>
<text text-anchor="middle" x="160.25" y="-6.5" font-family="Helvetica,sans-Serif" font-size="10.00">Bassin</text>
</a>
</g>
</g>
<!-- Node2 -->
<g id="Node000002" class="node">
<title>Node2</title>
<g id="a_Node000002"><a xlink:href="class_grille.html" target="_top" xlink:title=" ">
<polygon fill="white" stroke="#666666" points="38.5,-100 0,-100 0,-80 38.5,-80 38.5,-100"/>
<text text-anchor="middle" x="19.25" y="-86.5" font-family="Helvetica,sans-Serif" font-size="10.00">Grille</text>
</a>
</g>
</g>
<!-- Node2&#45;&gt;Node1 -->
<g id="edge1_Node000001_Node000002" class="edge">
<title>Node2&#45;&gt;Node1</title>
<g id="a_edge1_Node000001_Node000002"><a xlink:title=" ">
<path fill="none" stroke="#9a32cd" stroke-dasharray="5,2" d="M34.71,-71.37C45.14,-60.43 59.74,-46.82 75,-38 94.49,-26.74 119.25,-19.57 137.06,-15.48"/>
<polygon fill="#9a32cd" stroke="#9a32cd" points="32.21,-68.92 28.03,-78.66 37.37,-73.65 32.21,-68.92"/>
</a>
</g>
<text text-anchor="middle" x="86.88" y="-46.5" font-family="Helvetica,sans-Serif" font-size="10.00" fill="grey"> grille</text>
</g>
<!-- Node3 -->
<g id="Node000003" class="node">
<title>Node3</title>
<g id="a_Node000003"><a xlink:href="class_bi__vecteur.html" target="_top" xlink:title=" ">
<polygon fill="white" stroke="#666666" points="153.75,-100 56.75,-100 56.75,-80 153.75,-80 153.75,-100"/>
<text text-anchor="middle" x="105.25" y="-86.5" font-family="Helvetica,sans-Serif" font-size="10.00">Bi_vecteur&lt; float &gt;</text>
</a>
</g>
</g>
<!-- Node3&#45;&gt;Node1 -->
<g id="edge2_Node000001_Node000003" class="edge">
<title>Node3&#45;&gt;Node1</title>
<g id="a_edge2_Node000001_Node000003"><a xlink:title=" ">
<path fill="none" stroke="#9a32cd" stroke-dasharray="5,2" d="M101.98,-68.56C101.45,-58.6 102.48,-46.9 108.25,-38 114.78,-27.93 126.34,-21.41 136.9,-17.3"/>
<polygon fill="#9a32cd" stroke="#9a32cd" points="98.49,-68.84 103.09,-78.38 105.45,-68.05 98.49,-68.84"/>
</a>
</g>
<text text-anchor="middle" x="145.75" y="-52.5" font-family="Helvetica,sans-Serif" font-size="10.00" fill="grey"> champs_courant</text>
<text text-anchor="middle" x="145.75" y="-40.5" font-family="Helvetica,sans-Serif" font-size="10.00" fill="grey">champs_vent</text>
</g>
<!-- Node4 -->
<g id="Node000004" class="node">
<title>Node4</title>
<g id="a_Node000004"><a xlink:href="class_vecteur.html" target="_top" xlink:title=" ">
<polygon fill="white" stroke="#666666" points="148.12,-180 62.38,-180 62.38,-160 148.12,-160 148.12,-180"/>
<text text-anchor="middle" x="105.25" y="-166.5" font-family="Helvetica,sans-Serif" font-size="10.00">Vecteur&lt; float &gt;</text>
</a>
</g>
</g>
<!-- Node4&#45;&gt;Node3 -->
<g id="edge3_Node000003_Node000004" class="edge">
<title>Node4&#45;&gt;Node3</title>
<g id="a_edge3_Node000003_Node000004"><a xlink:title=" ">
<path fill="none" stroke="#9a32cd" stroke-dasharray="5,2" d="M105.25,-148.59C105.25,-132.94 105.25,-112.08 105.25,-100.24"/>
<polygon fill="#9a32cd" stroke="#9a32cd" points="101.75,-148.23 105.25,-158.23 108.75,-148.23 101.75,-148.23"/>
</a>
</g>
<text text-anchor="middle" x="109.38" y="-132.5" font-family="Helvetica,sans-Serif" font-size="10.00" fill="grey"> X</text>
<text text-anchor="middle" x="109.38" y="-120.5" font-family="Helvetica,sans-Serif" font-size="10.00" fill="grey">Y</text>
</g>
<!-- Node5 -->
<g id="Node000005" class="node">
<title>Node5</title>
<g id="a_Node000005"><a xlink:title=" ">
<polygon fill="white" stroke="#666666" points="145.5,-237 65,-237 65,-217 145.5,-217 145.5,-237"/>
<text text-anchor="middle" x="105.25" y="-223.5" font-family="Helvetica,sans-Serif" font-size="10.00">vector&lt; float &#160;&gt;</text>
</a>
</g>
</g>
<!-- Node5&#45;&gt;Node4 -->
<g id="edge4_Node000004_Node000005" class="edge">
<title>Node5&#45;&gt;Node4</title>
<g id="a_edge4_Node000004_Node000005"><a xlink:title=" ">
<path fill="none" stroke="#63b8ff" d="M105.25,-205.69C105.25,-196.97 105.25,-187.22 105.25,-180.28"/>
<polygon fill="#63b8ff" stroke="#63b8ff" points="101.75,-205.4 105.25,-215.4 108.75,-205.4 101.75,-205.4"/>
</a>
</g>
</g>
<!-- Node6 -->
<g id="Node000006" class="node">
<title>Node6</title>
<g id="a_Node000006"><a xlink:href="class_foncteur__vent.html" target="_top" xlink:title=" ">
<polygon fill="white" stroke="#666666" points="248.62,-100 171.88,-100 171.88,-80 248.62,-80 248.62,-100"/>
<text text-anchor="middle" x="210.25" y="-86.5" font-family="Helvetica,sans-Serif" font-size="10.00">Foncteur_vent</text>
</a>
</g>
</g>
<!-- Node6&#45;&gt;Node1 -->
<g id="edge5_Node000001_Node000006" class="edge">
<title>Node6&#45;&gt;Node1</title>
<g id="a_edge5_Node000001_Node000006"><a xlink:title=" ">
<path fill="none" stroke="#9a32cd" stroke-dasharray="5,2" d="M203.23,-69.09C199.29,-59.28 193.84,-47.54 187.25,-38 182.8,-31.56 176.72,-25.32 171.45,-20.47"/>
<polygon fill="#9a32cd" stroke="#9a32cd" points="199.93,-70.27 206.72,-78.41 206.48,-67.81 199.93,-70.27"/>
</a>
</g>
<text text-anchor="middle" x="228.88" y="-46.5" font-family="Helvetica,sans-Serif" font-size="10.00" fill="grey"> fonction_vent</text>
</g>
<!-- Node7 -->
<g id="Node000007" class="node">
<title>Node7</title>
<g id="a_Node000007"><a xlink:href="class_foncteur__courant.html" target="_top" xlink:title=" ">
<polygon fill="white" stroke="#666666" points="358.12,-100 266.38,-100 266.38,-80 358.12,-80 358.12,-100"/>
<text text-anchor="middle" x="312.25" y="-86.5" font-family="Helvetica,sans-Serif" font-size="10.00">Foncteur_courant</text>
</a>
</g>
</g>
<!-- Node7&#45;&gt;Node1 -->
<g id="edge6_Node000001_Node000007" class="edge">
<title>Node7&#45;&gt;Node1</title>
<g id="a_edge6_Node000001_Node000007"><a xlink:title=" ">
<path fill="none" stroke="#9a32cd" stroke-dasharray="5,2" d="M298.59,-70.75C289.45,-59.74 276.51,-46.3 262.25,-38 237.55,-23.63 205.08,-16.74 183.48,-13.56"/>
<polygon fill="#9a32cd" stroke="#9a32cd" points="295.7,-72.73 304.65,-78.41 301.19,-68.39 295.7,-72.73"/>
</a>
</g>
<text text-anchor="middle" x="327.38" y="-46.5" font-family="Helvetica,sans-Serif" font-size="10.00" fill="grey"> fonction_courant</text>
</g>
</g>
</svg>
