<?xml version="1.0" encoding="UTF-8" standalone="no"?>
<!DOCTYPE svg PUBLIC "-//W3C//DTD SVG 1.1//EN"
 "http://www.w3.org/Graphics/SVG/1.1/DTD/svg11.dtd">
<!-- Generated by graphviz version 10.0.1 (20240210.2158)
 -->
<!-- Title: Simulateur Pages: 1 -->
<svg width="237pt" height="221pt"
 viewBox="0.00 0.00 236.75 221.00" xmlns="http://www.w3.org/2000/svg" xmlns:xlink="http://www.w3.org/1999/xlink">
<g id="graph0" class="graph" transform="scale(1 1) rotate(0) translate(4 217)">
<title>Simulateur</title>
<!-- Node1 -->
<g id="Node000001" class="node">
<title>Node1</title>
<g id="a_Node000001"><a xlink:title=" ">
<polygon fill="#999999" stroke="#666666" points="126,-20 63.5,-20 63.5,0 126,0 126,-20"/>
<text text-anchor="middle" x="94.75" y="-6.5" font-family="Helvetica,sans-Serif" font-size="10.00">Simulateur</text>
</a>
</g>
</g>
<!-- Node2 -->
<g id="Node000002" class="node">
<title>Node2</title>
<g id="a_Node000002"><a xlink:href="class_commande.html" target="_top" xlink:title=" ">
<polygon fill="white" stroke="#666666" points="127.5,-88 62,-88 62,-68 127.5,-68 127.5,-88"/>
<text text-anchor="middle" x="94.75" y="-74.5" font-family="Helvetica,sans-Serif" font-size="10.00">Commande</text>
</a>
</g>
</g>
<!-- Node2&#45;&gt;Node1 -->
<g id="edge1_Node000001_Node000002" class="edge">
<title>Node2&#45;&gt;Node1</title>
<g id="a_edge1_Node000001_Node000002"><a xlink:title=" ">
<path fill="none" stroke="#9a32cd" stroke-dasharray="5,2" d="M94.75,-56.28C94.75,-44.27 94.75,-29.74 94.75,-20.44"/>
<polygon fill="#9a32cd" stroke="#9a32cd" points="91.25,-56.03 94.75,-66.03 98.25,-56.03 91.25,-56.03"/>
</a>
</g>
<text text-anchor="middle" x="120.25" y="-40.5" font-family="Helvetica,sans-Serif" font-size="10.00" fill="grey"> commande</text>
</g>
<!-- Node3 -->
<g id="Node000003" class="node">
<title>Node3</title>
<g id="a_Node000003"><a xlink:href="class_foncteur__commande.html" target="_top" xlink:title=" ">
<polygon fill="white" stroke="#666666" points="107.5,-156 0,-156 0,-136 107.5,-136 107.5,-156"/>
<text text-anchor="middle" x="53.75" y="-142.5" font-family="Helvetica,sans-Serif" font-size="10.00">Foncteur_commande</text>
</a>
</g>
</g>
<!-- Node3&#45;&gt;Node2 -->
<g id="edge2_Node000002_Node000003" class="edge">
<title>Node3&#45;&gt;Node2</title>
<g id="a_edge2_Node000002_Node000003"><a xlink:title=" ">
<path fill="none" stroke="#9a32cd" stroke-dasharray="5,2" d="M61.3,-125.17C64.06,-118.84 67.45,-111.94 71.25,-106 75.27,-99.72 80.68,-93.39 85.3,-88.44"/>
<polygon fill="#9a32cd" stroke="#9a32cd" points="58.15,-123.64 57.63,-134.22 64.63,-126.27 58.15,-123.64"/>
</a>
</g>
<text text-anchor="middle" x="101" y="-108.5" font-family="Helvetica,sans-Serif" font-size="10.00" fill="grey"> commande_f</text>
</g>
<!-- Node4 -->
<g id="Node000004" class="node">
<title>Node4</title>
<g id="a_Node000004"><a xlink:href="class_vecteur.html" target="_top" xlink:title=" ">
<polygon fill="white" stroke="#666666" points="211.62,-156 125.88,-156 125.88,-136 211.62,-136 211.62,-156"/>
<text text-anchor="middle" x="168.75" y="-142.5" font-family="Helvetica,sans-Serif" font-size="10.00">Vecteur&lt; float &gt;</text>
</a>
</g>
</g>
<!-- Node4&#45;&gt;Node2 -->
<g id="edge3_Node000002_Node000004" class="edge">
<title>Node4&#45;&gt;Node2</title>
<g id="a_edge3_Node000002_Node000004"><a xlink:title=" ">
<path fill="none" stroke="#9a32cd" stroke-dasharray="5,2" d="M152.29,-127.6C145.5,-120.67 137.44,-112.76 129.75,-106 122.72,-99.82 114.44,-93.4 107.7,-88.37"/>
<polygon fill="#9a32cd" stroke="#9a32cd" points="149.57,-129.82 159.03,-134.59 154.61,-124.96 149.57,-129.82"/>
</a>
</g>
<text text-anchor="middle" x="185.25" y="-108.5" font-family="Helvetica,sans-Serif" font-size="10.00" fill="grey"> vecteur_commande</text>
</g>
<!-- Node5 -->
<g id="Node000005" class="node">
<title>Node5</title>
<g id="a_Node000005"><a xlink:title=" ">
<polygon fill="white" stroke="#666666" points="209,-213 128.5,-213 128.5,-193 209,-193 209,-213"/>
<text text-anchor="middle" x="168.75" y="-199.5" font-family="Helvetica,sans-Serif" font-size="10.00">vector&lt; float &#160;&gt;</text>
</a>
</g>
</g>
<!-- Node5&#45;&gt;Node4 -->
<g id="edge4_Node000004_Node000005" class="edge">
<title>Node5&#45;&gt;Node4</title>
<g id="a_edge4_Node000004_Node000005"><a xlink:title=" ">
<path fill="none" stroke="#63b8ff" d="M168.75,-181.69C168.75,-172.97 168.75,-163.22 168.75,-156.28"/>
<polygon fill="#63b8ff" stroke="#63b8ff" points="165.25,-181.4 168.75,-191.4 172.25,-181.4 165.25,-181.4"/>
</a>
</g>
</g>
</g>
</svg>
