<?xml version="1.0" encoding="UTF-8" standalone="no"?>
<!DOCTYPE svg PUBLIC "-//W3C//DTD SVG 1.1//EN"
 "http://www.w3.org/Graphics/SVG/1.1/DTD/svg11.dtd">
<!-- Generated by graphviz version 10.0.1 (20240210.2158)
 -->
<!-- Title: Voilier&lt; T1, T2 &gt; Pages: 1 -->
<svg width="360pt" height="301pt"
 viewBox="0.00 0.00 359.50 301.00" xmlns="http://www.w3.org/2000/svg" xmlns:xlink="http://www.w3.org/1999/xlink">
<g id="graph0" class="graph" transform="scale(1 1) rotate(0) translate(4 297)">
<title>Voilier&lt; T1, T2 &gt;</title>
<!-- Node1 -->
<g id="Node000001" class="node">
<title>Node1</title>
<g id="a_Node000001"><a xlink:title=" ">
<polygon fill="#999999" stroke="#666666" points="224.5,-20 136.5,-20 136.5,0 224.5,0 224.5,-20"/>
<text text-anchor="middle" x="180.5" y="-6.5" font-family="Helvetica,sans-Serif" font-size="10.00">Voilier&lt; T1, T2 &gt;</text>
</a>
</g>
</g>
<!-- Node2 -->
<g id="Node000002" class="node">
<title>Node2</title>
<g id="a_Node000002"><a xlink:href="class_polaire.html" target="_top" xlink:title=" ">
<polygon fill="white" stroke="#666666" points="217.75,-88 143.25,-88 143.25,-68 217.75,-68 217.75,-88"/>
<text text-anchor="middle" x="180.5" y="-74.5" font-family="Helvetica,sans-Serif" font-size="10.00">Polaire&lt; T2 &gt;</text>
</a>
</g>
</g>
<!-- Node2&#45;&gt;Node1 -->
<g id="edge1_Node000001_Node000002" class="edge">
<title>Node2&#45;&gt;Node1</title>
<g id="a_edge1_Node000001_Node000002"><a xlink:title=" ">
<path fill="none" stroke="#9a32cd" stroke-dasharray="5,2" d="M180.5,-56.28C180.5,-44.27 180.5,-29.74 180.5,-20.44"/>
<polygon fill="#9a32cd" stroke="#9a32cd" points="177,-56.03 180.5,-66.03 184,-56.03 177,-56.03"/>
</a>
</g>
<text text-anchor="middle" x="210.88" y="-40.5" font-family="Helvetica,sans-Serif" font-size="10.00" fill="grey"> polaire_voilier</text>
</g>
<!-- Node3 -->
<g id="Node000003" class="node">
<title>Node3</title>
<g id="a_Node000003"><a xlink:href="class_bi__vecteur.html" target="_top" xlink:title=" ">
<polygon fill="white" stroke="#666666" points="97,-156 0,-156 0,-136 97,-136 97,-156"/>
<text text-anchor="middle" x="48.5" y="-142.5" font-family="Helvetica,sans-Serif" font-size="10.00">Bi_vecteur&lt; float &gt;</text>
</a>
</g>
</g>
<!-- Node3&#45;&gt;Node2 -->
<g id="edge2_Node000002_Node000003" class="edge">
<title>Node3&#45;&gt;Node2</title>
<g id="a_edge2_Node000002_Node000003"><a xlink:title=" ">
<path fill="none" stroke="#9a32cd" stroke-dasharray="5,2" d="M77.64,-130.43C103.22,-117.64 139.68,-99.41 161.62,-88.44"/>
<polygon fill="#9a32cd" stroke="#9a32cd" points="76.15,-127.26 68.77,-134.87 79.28,-133.53 76.15,-127.26"/>
</a>
</g>
<text text-anchor="middle" x="141.5" y="-108.5" font-family="Helvetica,sans-Serif" font-size="10.00" fill="grey"> entete</text>
</g>
<!-- Node4 -->
<g id="Node000004" class="node">
<title>Node4</title>
<g id="a_Node000004"><a xlink:href="class_vecteur.html" target="_top" xlink:title=" ">
<polygon fill="white" stroke="#666666" points="91.38,-236 5.62,-236 5.62,-216 91.38,-216 91.38,-236"/>
<text text-anchor="middle" x="48.5" y="-222.5" font-family="Helvetica,sans-Serif" font-size="10.00">Vecteur&lt; float &gt;</text>
</a>
</g>
</g>
<!-- Node4&#45;&gt;Node3 -->
<g id="edge3_Node000003_Node000004" class="edge">
<title>Node4&#45;&gt;Node3</title>
<g id="a_edge3_Node000003_Node000004"><a xlink:title=" ">
<path fill="none" stroke="#9a32cd" stroke-dasharray="5,2" d="M48.5,-204.59C48.5,-188.94 48.5,-168.08 48.5,-156.24"/>
<polygon fill="#9a32cd" stroke="#9a32cd" points="45,-204.23 48.5,-214.23 52,-204.23 45,-204.23"/>
</a>
</g>
<text text-anchor="middle" x="52.62" y="-188.5" font-family="Helvetica,sans-Serif" font-size="10.00" fill="grey"> X</text>
<text text-anchor="middle" x="52.62" y="-176.5" font-family="Helvetica,sans-Serif" font-size="10.00" fill="grey">Y</text>
</g>
<!-- Node5 -->
<g id="Node000005" class="node">
<title>Node5</title>
<g id="a_Node000005"><a xlink:title=" ">
<polygon fill="white" stroke="#666666" points="88.75,-293 8.25,-293 8.25,-273 88.75,-273 88.75,-293"/>
<text text-anchor="middle" x="48.5" y="-279.5" font-family="Helvetica,sans-Serif" font-size="10.00">vector&lt; float &#160;&gt;</text>
</a>
</g>
</g>
<!-- Node5&#45;&gt;Node4 -->
<g id="edge4_Node000004_Node000005" class="edge">
<title>Node5&#45;&gt;Node4</title>
<g id="a_edge4_Node000004_Node000005"><a xlink:title=" ">
<path fill="none" stroke="#63b8ff" d="M48.5,-261.69C48.5,-252.97 48.5,-243.22 48.5,-236.28"/>
<polygon fill="#63b8ff" stroke="#63b8ff" points="45,-261.4 48.5,-271.4 52,-261.4 45,-261.4"/>
</a>
</g>
</g>
<!-- Node6 -->
<g id="Node000006" class="node">
<title>Node6</title>
<g id="a_Node000006"><a xlink:href="class_vecteur.html" target="_top" xlink:title=" ">
<polygon fill="white" stroke="#666666" points="245.5,-156 115.5,-156 115.5,-136 245.5,-136 245.5,-156"/>
<text text-anchor="middle" x="180.5" y="-142.5" font-family="Helvetica,sans-Serif" font-size="10.00">Vecteur&lt; Vecteur&lt; T2 &gt; &gt;</text>
</a>
</g>
</g>
<!-- Node6&#45;&gt;Node2 -->
<g id="edge5_Node000002_Node000006" class="edge">
<title>Node6&#45;&gt;Node2</title>
<g id="a_edge5_Node000002_Node000006"><a xlink:title=" ">
<path fill="none" stroke="#9a32cd" stroke-dasharray="5,2" d="M180.5,-124.28C180.5,-112.27 180.5,-97.74 180.5,-88.44"/>
<polygon fill="#9a32cd" stroke="#9a32cd" points="177,-124.03 180.5,-134.03 184,-124.03 177,-124.03"/>
</a>
</g>
<text text-anchor="middle" x="207.5" y="-108.5" font-family="Helvetica,sans-Serif" font-size="10.00" fill="grey"> table_valeur</text>
</g>
<!-- Node7 -->
<g id="Node000007" class="node">
<title>Node7</title>
<g id="a_Node000007"><a xlink:title=" ">
<polygon fill="white" stroke="#666666" points="241.38,-236 119.62,-236 119.62,-216 241.38,-216 241.38,-236"/>
<text text-anchor="middle" x="180.5" y="-222.5" font-family="Helvetica,sans-Serif" font-size="10.00">vector&lt; Vecteur&lt; T2 &gt; &gt;</text>
</a>
</g>
</g>
<!-- Node7&#45;&gt;Node6 -->
<g id="edge6_Node000006_Node000007" class="edge">
<title>Node7&#45;&gt;Node6</title>
<g id="a_edge6_Node000006_Node000007"><a xlink:title=" ">
<path fill="none" stroke="#63b8ff" d="M180.5,-204.59C180.5,-188.94 180.5,-168.08 180.5,-156.24"/>
<polygon fill="#63b8ff" stroke="#63b8ff" points="177,-204.23 180.5,-214.23 184,-204.23 177,-204.23"/>
</a>
</g>
</g>
<!-- Node8 -->
<g id="Node000008" class="node">
<title>Node8</title>
<g id="a_Node000008"><a xlink:href="class_foncteur__polaire.html" target="_top" xlink:title=" ">
<polygon fill="white" stroke="#666666" points="351.5,-156 263.5,-156 263.5,-136 351.5,-136 351.5,-156"/>
<text text-anchor="middle" x="307.5" y="-142.5" font-family="Helvetica,sans-Serif" font-size="10.00">Foncteur_polaire</text>
</a>
</g>
</g>
<!-- Node8&#45;&gt;Node2 -->
<g id="edge7_Node000002_Node000008" class="edge">
<title>Node8&#45;&gt;Node2</title>
<g id="a_edge7_Node000002_Node000008"><a xlink:title=" ">
<path fill="none" stroke="#9a32cd" stroke-dasharray="5,2" d="M282.18,-130.06C269.25,-122.58 253.18,-113.55 238.5,-106 226.55,-99.85 212.94,-93.48 201.91,-88.48"/>
<polygon fill="#9a32cd" stroke="#9a32cd" points="280.09,-132.89 290.49,-134.9 283.61,-126.84 280.09,-132.89"/>
</a>
</g>
<text text-anchor="middle" x="283.12" y="-108.5" font-family="Helvetica,sans-Serif" font-size="10.00" fill="grey"> analytique</text>
</g>
</g>
</svg>
