<?xml version="1.0" encoding="UTF-8" standalone="no"?>
<!DOCTYPE svg PUBLIC "-//W3C//DTD SVG 1.1//EN"
 "http://www.w3.org/Graphics/SVG/1.1/DTD/svg11.dtd">
<!-- Generated by graphviz version 10.0.1 (20240210.2158)
 -->
<!-- Title: Simulateur::mise_en_route Pages: 1 -->
<svg width="456pt" height="71pt"
 viewBox="0.00 0.00 456.25 71.00" xmlns="http://www.w3.org/2000/svg" xmlns:xlink="http://www.w3.org/1999/xlink">
<g id="graph0" class="graph" transform="scale(1 1) rotate(0) translate(4 67)">
<title>Simulateur::mise_en_route</title>
<!-- Node1 -->
<g id="Node000001" class="node">
<title>Node1</title>
<g id="a_Node000001"><a xlink:title=" ">
<polygon fill="#999999" stroke="#666666" points="105.25,-32 0,-32 0,0 105.25,0 105.25,-32"/>
<text text-anchor="start" x="8" y="-18.5" font-family="Helvetica,sans-Serif" font-size="10.00">Simulateur::mise_en</text>
<text text-anchor="middle" x="52.62" y="-6.5" font-family="Helvetica,sans-Serif" font-size="10.00">_route</text>
</a>
</g>
</g>
<!-- Node2 -->
<g id="Node000002" class="node">
<title>Node2</title>
<g id="a_Node000002"><a xlink:href="_fonction__externes_8hpp.html#aaee29cb287929b30dcc528e78183ad83" target="_top" xlink:title=" ">
<polygon fill="white" stroke="#666666" points="180.5,-45 141.25,-45 141.25,-25 180.5,-25 180.5,-45"/>
<text text-anchor="middle" x="160.88" y="-31.5" font-family="Helvetica,sans-Serif" font-size="10.00">angle</text>
</a>
</g>
</g>
<!-- Node1&#45;&gt;Node2 -->
<g id="edge1_Node000001_Node000002" class="edge">
<title>Node1&#45;&gt;Node2</title>
<g id="a_edge1_Node000001_Node000002"><a xlink:title=" ">
<path fill="none" stroke="#63b8ff" d="M105.5,-25.28C113.8,-26.76 122.14,-28.25 129.71,-29.61"/>
<polygon fill="#63b8ff" stroke="#63b8ff" points="128.9,-33.02 139.36,-31.33 130.13,-26.13 128.9,-33.02"/>
</a>
</g>
</g>
<!-- Node3 -->
<g id="Node000003" class="node">
<title>Node3</title>
<g id="a_Node000003"><a xlink:href="_fonction__externes_8hpp.html#a8bf9651680a69ef9b57e88861dbc2b7c" target="_top" xlink:title=" ">
<polygon fill="white" stroke="#666666" points="352.75,-45 284.25,-45 284.25,-25 352.75,-25 352.75,-45"/>
<text text-anchor="middle" x="318.5" y="-31.5" font-family="Helvetica,sans-Serif" font-size="10.00">interpolation</text>
</a>
</g>
</g>
<!-- Node1&#45;&gt;Node3 -->
<g id="edge8_Node000001_Node000003" class="edge">
<title>Node1&#45;&gt;Node3</title>
<g id="a_edge8_Node000001_Node000003"><a xlink:title=" ">
<path fill="none" stroke="#63b8ff" d="M105.51,-12.25C144.86,-10.31 200.2,-9.53 248.25,-16 257.2,-17.21 266.63,-19.25 275.54,-21.56"/>
<polygon fill="#63b8ff" stroke="#63b8ff" points="274.47,-24.89 285.04,-24.19 276.33,-18.15 274.47,-24.89"/>
</a>
</g>
</g>
<!-- Node2&#45;&gt;Node3 -->
<g id="edge2_Node000002_Node000003" class="edge">
<title>Node2&#45;&gt;Node3</title>
<g id="a_edge2_Node000002_Node000003"><a xlink:title=" ">
<path fill="none" stroke="#63b8ff" d="M180.93,-43.39C191.24,-47.48 204.32,-51.94 216.5,-54 237.29,-57.51 260.4,-53.74 279.26,-48.65"/>
<polygon fill="#63b8ff" stroke="#63b8ff" points="280.06,-52.06 288.66,-45.89 278.08,-45.35 280.06,-52.06"/>
</a>
</g>
</g>
<!-- Node5 -->
<g id="Node000005" class="node">
<title>Node5</title>
<g id="a_Node000005"><a xlink:href="_fonction__externes_8hpp.html#a1ab31b90bc584c635ec159468ceed9b2" target="_top" xlink:title=" ">
<polygon fill="white" stroke="#666666" points="248.25,-45 216.5,-45 216.5,-25 248.25,-25 248.25,-45"/>
<text text-anchor="middle" x="232.38" y="-31.5" font-family="Helvetica,sans-Serif" font-size="10.00">sgn</text>
</a>
</g>
</g>
<!-- Node2&#45;&gt;Node5 -->
<g id="edge6_Node000002_Node000005" class="edge">
<title>Node2&#45;&gt;Node5</title>
<g id="a_edge6_Node000002_Node000005"><a xlink:title=" ">
<path fill="none" stroke="#63b8ff" d="M180.87,-35C188.23,-35 196.8,-35 204.76,-35"/>
<polygon fill="#63b8ff" stroke="#63b8ff" points="204.63,-38.5 214.63,-35 204.63,-31.5 204.63,-38.5"/>
</a>
</g>
</g>
<!-- Node3&#45;&gt;Node3 -->
<g id="edge5_Node000003_Node000003" class="edge">
<title>Node3&#45;&gt;Node3</title>
<g id="a_edge5_Node000003_Node000003"><a xlink:title=" ">
<path fill="none" stroke="#63b8ff" d="M304.82,-45.34C298.97,-53.98 303.53,-63 318.5,-63 326.45,-63 331.47,-60.45 333.55,-56.77"/>
<polygon fill="#63b8ff" stroke="#63b8ff" points="337.02,-56.36 332.36,-46.84 330.07,-57.19 337.02,-56.36"/>
</a>
</g>
</g>
<!-- Node4 -->
<g id="Node000004" class="node">
<title>Node4</title>
<g id="a_Node000004"><a xlink:href="class_grille.html#a55235882a3d7897067449ef76fb64287" target="_top" xlink:title=" ">
<polygon fill="white" stroke="#666666" points="448.25,-45 388.75,-45 388.75,-25 448.25,-25 448.25,-45"/>
<text text-anchor="middle" x="418.5" y="-31.5" font-family="Helvetica,sans-Serif" font-size="10.00">Grille::find</text>
</a>
</g>
</g>
<!-- Node3&#45;&gt;Node4 -->
<g id="edge3_Node000003_Node000004" class="edge">
<title>Node3&#45;&gt;Node4</title>
<g id="a_edge3_Node000003_Node000004"><a xlink:title=" ">
<path fill="none" stroke="#63b8ff" d="M353.23,-28.55C360.89,-28.24 369.11,-28.17 377.02,-28.34"/>
<polygon fill="#63b8ff" stroke="#63b8ff" points="376.65,-31.83 386.78,-28.71 376.92,-24.84 376.65,-31.83"/>
</a>
</g>
</g>
<!-- Node4&#45;&gt;Node3 -->
<g id="edge4_Node000004_Node000003" class="edge">
<title>Node4&#45;&gt;Node3</title>
<g id="a_edge4_Node000004_Node000003"><a xlink:title=" ">
<path fill="none" stroke="#63b8ff" d="M388.29,-41.23C380.8,-41.65 372.56,-41.81 364.47,-41.73"/>
<polygon fill="#63b8ff" stroke="#63b8ff" points="364.82,-38.24 354.74,-41.49 364.65,-45.24 364.82,-38.24"/>
</a>
</g>
</g>
<!-- Node5&#45;&gt;Node3 -->
<g id="edge7_Node000005_Node000003" class="edge">
<title>Node5&#45;&gt;Node3</title>
<g id="a_edge7_Node000005_Node000003"><a xlink:title=" ">
<path fill="none" stroke="#63b8ff" d="M248.41,-35C255.25,-35 263.74,-35 272.39,-35"/>
<polygon fill="#63b8ff" stroke="#63b8ff" points="272.24,-38.5 282.24,-35 272.24,-31.5 272.24,-38.5"/>
</a>
</g>
</g>
</g>
</svg>
