<?xml version="1.0" encoding="UTF-8" standalone="no"?>
<!DOCTYPE svg PUBLIC "-//W3C//DTD SVG 1.1//EN"
 "http://www.w3.org/Graphics/SVG/1.1/DTD/svg11.dtd">
<!-- Generated by graphviz version 10.0.1 (20240210.2158)
 -->
<!-- Title: Foncteur_vent::operator() Pages: 1 -->
<svg width="332pt" height="46pt"
 viewBox="0.00 0.00 332.00 46.00" xmlns="http://www.w3.org/2000/svg" xmlns:xlink="http://www.w3.org/1999/xlink">
<g id="graph0" class="graph" transform="scale(1 1) rotate(0) translate(4 42)">
<title>Foncteur_vent::operator()</title>
<!-- Node1 -->
<g id="Node000001" class="node">
<title>Node1</title>
<g id="a_Node000001"><a xlink:title=" ">
<polygon fill="#999999" stroke="#666666" points="124,-20 0,-20 0,0 124,0 124,-20"/>
<text text-anchor="middle" x="62" y="-6.5" font-family="Helvetica,sans-Serif" font-size="10.00">Foncteur_vent::operator()</text>
</a>
</g>
</g>
<!-- Node2 -->
<g id="Node000002" class="node">
<title>Node2</title>
<g id="a_Node000002"><a xlink:href="_fonction__externes_8hpp.html#a8bf9651680a69ef9b57e88861dbc2b7c" target="_top" xlink:title=" ">
<polygon fill="white" stroke="#666666" points="228.5,-20 160,-20 160,0 228.5,0 228.5,-20"/>
<text text-anchor="middle" x="194.25" y="-6.5" font-family="Helvetica,sans-Serif" font-size="10.00">interpolation</text>
</a>
</g>
</g>
<!-- Node1&#45;&gt;Node2 -->
<g id="edge1_Node000001_Node000002" class="edge">
<title>Node1&#45;&gt;Node2</title>
<g id="a_edge1_Node000001_Node000002"><a xlink:title=" ">
<path fill="none" stroke="#63b8ff" d="M124.31,-10C132.37,-10 140.51,-10 148.24,-10"/>
<polygon fill="#63b8ff" stroke="#63b8ff" points="148.06,-13.5 158.06,-10 148.06,-6.5 148.06,-13.5"/>
</a>
</g>
</g>
<!-- Node2&#45;&gt;Node2 -->
<g id="edge4_Node000002_Node000002" class="edge">
<title>Node2&#45;&gt;Node2</title>
<g id="a_edge4_Node000002_Node000002"><a xlink:title=" ">
<path fill="none" stroke="#63b8ff" d="M178.36,-20.34C171.57,-28.98 176.87,-38 194.25,-38 203.76,-38 209.65,-35.3 211.92,-31.44"/>
<polygon fill="#63b8ff" stroke="#63b8ff" points="215.42,-31.15 210.38,-21.83 208.51,-32.26 215.42,-31.15"/>
</a>
</g>
</g>
<!-- Node3 -->
<g id="Node000003" class="node">
<title>Node3</title>
<g id="a_Node000003"><a xlink:href="class_grille.html#a55235882a3d7897067449ef76fb64287" target="_top" xlink:title=" ">
<polygon fill="white" stroke="#666666" points="324,-20 264.5,-20 264.5,0 324,0 324,-20"/>
<text text-anchor="middle" x="294.25" y="-6.5" font-family="Helvetica,sans-Serif" font-size="10.00">Grille::find</text>
</a>
</g>
</g>
<!-- Node2&#45;&gt;Node3 -->
<g id="edge2_Node000002_Node000003" class="edge">
<title>Node2&#45;&gt;Node3</title>
<g id="a_edge2_Node000002_Node000003"><a xlink:title=" ">
<path fill="none" stroke="#63b8ff" d="M228.98,-3.55C236.64,-3.24 244.86,-3.17 252.77,-3.34"/>
<polygon fill="#63b8ff" stroke="#63b8ff" points="252.4,-6.83 262.53,-3.71 252.67,0.16 252.4,-6.83"/>
</a>
</g>
</g>
<!-- Node3&#45;&gt;Node2 -->
<g id="edge3_Node000003_Node000002" class="edge">
<title>Node3&#45;&gt;Node2</title>
<g id="a_edge3_Node000003_Node000002"><a xlink:title=" ">
<path fill="none" stroke="#63b8ff" d="M264.04,-16.23C256.55,-16.65 248.31,-16.81 240.22,-16.73"/>
<polygon fill="#63b8ff" stroke="#63b8ff" points="240.57,-13.24 230.49,-16.49 240.4,-20.24 240.57,-13.24"/>
</a>
</g>
</g>
</g>
</svg>
