<?xml version="1.0" encoding="UTF-8" standalone="no"?>
<!DOCTYPE svg PUBLIC "-//W3C//DTD SVG 1.1//EN"
 "http://www.w3.org/Graphics/SVG/1.1/DTD/svg11.dtd">
<!-- Generated by graphviz version 10.0.1 (20240210.2158)
 -->
<!-- Title: Foncteur_commande::operator() Pages: 1 -->
<svg width="322pt" height="52pt"
 viewBox="0.00 0.00 321.50 52.00" xmlns="http://www.w3.org/2000/svg" xmlns:xlink="http://www.w3.org/1999/xlink">
<g id="graph0" class="graph" transform="scale(1 1) rotate(0) translate(4 48)">
<title>Foncteur_commande::operator()</title>
<!-- Node1 -->
<g id="Node000001" class="node">
<title>Node1</title>
<g id="a_Node000001"><a xlink:title=" ">
<polygon fill="#999999" stroke="#666666" points="113.5,-32 0,-32 0,0 113.5,0 113.5,-32"/>
<text text-anchor="start" x="8" y="-18.5" font-family="Helvetica,sans-Serif" font-size="10.00">Foncteur_commande::</text>
<text text-anchor="middle" x="56.75" y="-6.5" font-family="Helvetica,sans-Serif" font-size="10.00">operator()</text>
</a>
</g>
</g>
<!-- Node2 -->
<g id="Node000002" class="node">
<title>Node2</title>
<g id="a_Node000002"><a xlink:href="_fonction__externes_8hpp.html#a8bf9651680a69ef9b57e88861dbc2b7c" target="_top" xlink:title=" ">
<polygon fill="white" stroke="#666666" points="218,-26 149.5,-26 149.5,-6 218,-6 218,-26"/>
<text text-anchor="middle" x="183.75" y="-12.5" font-family="Helvetica,sans-Serif" font-size="10.00">interpolation</text>
</a>
</g>
</g>
<!-- Node1&#45;&gt;Node2 -->
<g id="edge1_Node000001_Node000002" class="edge">
<title>Node1&#45;&gt;Node2</title>
<g id="a_edge1_Node000001_Node000002"><a xlink:title=" ">
<path fill="none" stroke="#63b8ff" d="M113.67,-16C121.7,-16 129.87,-16 137.66,-16"/>
<polygon fill="#63b8ff" stroke="#63b8ff" points="137.59,-19.5 147.59,-16 137.59,-12.5 137.59,-19.5"/>
</a>
</g>
</g>
<!-- Node2&#45;&gt;Node2 -->
<g id="edge4_Node000002_Node000002" class="edge">
<title>Node2&#45;&gt;Node2</title>
<g id="a_edge4_Node000002_Node000002"><a xlink:title=" ">
<path fill="none" stroke="#63b8ff" d="M167.86,-26.34C161.07,-34.98 166.37,-44 183.75,-44 193.26,-44 199.15,-41.3 201.42,-37.44"/>
<polygon fill="#63b8ff" stroke="#63b8ff" points="204.92,-37.15 199.88,-27.83 198.01,-38.26 204.92,-37.15"/>
</a>
</g>
</g>
<!-- Node3 -->
<g id="Node000003" class="node">
<title>Node3</title>
<g id="a_Node000003"><a xlink:href="class_grille.html#a55235882a3d7897067449ef76fb64287" target="_top" xlink:title=" ">
<polygon fill="white" stroke="#666666" points="313.5,-26 254,-26 254,-6 313.5,-6 313.5,-26"/>
<text text-anchor="middle" x="283.75" y="-12.5" font-family="Helvetica,sans-Serif" font-size="10.00">Grille::find</text>
</a>
</g>
</g>
<!-- Node2&#45;&gt;Node3 -->
<g id="edge2_Node000002_Node000003" class="edge">
<title>Node2&#45;&gt;Node3</title>
<g id="a_edge2_Node000002_Node000003"><a xlink:title=" ">
<path fill="none" stroke="#63b8ff" d="M218.48,-9.55C226.14,-9.24 234.36,-9.17 242.27,-9.34"/>
<polygon fill="#63b8ff" stroke="#63b8ff" points="241.9,-12.83 252.03,-9.71 242.17,-5.84 241.9,-12.83"/>
</a>
</g>
</g>
<!-- Node3&#45;&gt;Node2 -->
<g id="edge3_Node000003_Node000002" class="edge">
<title>Node3&#45;&gt;Node2</title>
<g id="a_edge3_Node000003_Node000002"><a xlink:title=" ">
<path fill="none" stroke="#63b8ff" d="M253.54,-22.23C246.05,-22.65 237.81,-22.81 229.72,-22.73"/>
<polygon fill="#63b8ff" stroke="#63b8ff" points="230.07,-19.24 219.99,-22.49 229.9,-26.24 230.07,-19.24"/>
</a>
</g>
</g>
</g>
</svg>
