<?xml version="1.0" encoding="UTF-8" standalone="no"?>
<!DOCTYPE svg PUBLIC "-//W3C//DTD SVG 1.1//EN"
 "http://www.w3.org/Graphics/SVG/1.1/DTD/svg11.dtd">
<!-- Generated by graphviz version 10.0.1 (20240210.2158)
 -->
<!-- Title: Commande::verification_commande Pages: 1 -->
<svg width="496pt" height="65pt"
 viewBox="0.00 0.00 496.00 65.00" xmlns="http://www.w3.org/2000/svg" xmlns:xlink="http://www.w3.org/1999/xlink">
<g id="graph0" class="graph" transform="scale(1 1) rotate(0) translate(4 61)">
<title>Commande::verification_commande</title>
<!-- Node1 -->
<g id="Node000001" class="node">
<title>Node1</title>
<g id="a_Node000001"><a xlink:title=" ">
<polygon fill="#999999" stroke="#666666" points="116.5,-45 0,-45 0,-13 116.5,-13 116.5,-45"/>
<text text-anchor="start" x="8" y="-31.5" font-family="Helvetica,sans-Serif" font-size="10.00">Commande::verification</text>
<text text-anchor="middle" x="58.25" y="-19.5" font-family="Helvetica,sans-Serif" font-size="10.00">_commande</text>
</a>
</g>
</g>
<!-- Node2 -->
<g id="Node000002" class="node">
<title>Node2</title>
<g id="a_Node000002"><a xlink:href="_fonction__externes_8hpp.html#ae0695e70efed4cbd92fba2e3029dc528" target="_top" xlink:title=" ">
<polygon fill="white" stroke="#666666" points="220.25,-39 152.5,-39 152.5,-19 220.25,-19 220.25,-39"/>
<text text-anchor="middle" x="186.38" y="-25.5" font-family="Helvetica,sans-Serif" font-size="10.00">angle_relatif</text>
</a>
</g>
</g>
<!-- Node1&#45;&gt;Node2 -->
<g id="edge1_Node000001_Node000002" class="edge">
<title>Node1&#45;&gt;Node2</title>
<g id="a_edge1_Node000001_Node000002"><a xlink:title=" ">
<path fill="none" stroke="#63b8ff" d="M116.78,-29C124.8,-29 132.95,-29 140.69,-29"/>
<polygon fill="#63b8ff" stroke="#63b8ff" points="140.54,-32.5 150.54,-29 140.54,-25.5 140.54,-32.5"/>
</a>
</g>
</g>
<!-- Node2&#45;&gt;Node2 -->
<g id="edge2_Node000002_Node000002" class="edge">
<title>Node2&#45;&gt;Node2</title>
<g id="a_edge2_Node000002_Node000002"><a xlink:title=" ">
<path fill="none" stroke="#63b8ff" d="M172.75,-39.34C166.93,-47.98 171.47,-57 186.38,-57 194.29,-57 199.29,-54.45 201.36,-50.77"/>
<polygon fill="#63b8ff" stroke="#63b8ff" points="204.83,-50.36 200.18,-40.84 197.88,-51.18 204.83,-50.36"/>
</a>
</g>
</g>
<!-- Node3 -->
<g id="Node000003" class="node">
<title>Node3</title>
<g id="a_Node000003"><a xlink:href="_fonction__externes_8hpp.html#a8bf9651680a69ef9b57e88861dbc2b7c" target="_top" xlink:title=" ">
<polygon fill="white" stroke="#666666" points="392.5,-39 324,-39 324,-19 392.5,-19 392.5,-39"/>
<text text-anchor="middle" x="358.25" y="-25.5" font-family="Helvetica,sans-Serif" font-size="10.00">interpolation</text>
</a>
</g>
</g>
<!-- Node2&#45;&gt;Node3 -->
<g id="edge3_Node000002_Node000003" class="edge">
<title>Node2&#45;&gt;Node3</title>
<g id="a_edge3_Node000002_Node000003"><a xlink:title=" ">
<path fill="none" stroke="#63b8ff" d="M220.53,-29C246.67,-29 283.39,-29 312.19,-29"/>
<polygon fill="#63b8ff" stroke="#63b8ff" points="312.08,-32.5 322.08,-29 312.08,-25.5 312.08,-32.5"/>
</a>
</g>
</g>
<!-- Node5 -->
<g id="Node000005" class="node">
<title>Node5</title>
<g id="a_Node000005"><a xlink:href="_fonction__externes_8hpp.html#a1ab31b90bc584c635ec159468ceed9b2" target="_top" xlink:title=" ">
<polygon fill="white" stroke="#666666" points="288,-20 256.25,-20 256.25,0 288,0 288,-20"/>
<text text-anchor="middle" x="272.12" y="-6.5" font-family="Helvetica,sans-Serif" font-size="10.00">sgn</text>
</a>
</g>
</g>
<!-- Node2&#45;&gt;Node5 -->
<g id="edge7_Node000002_Node000005" class="edge">
<title>Node2&#45;&gt;Node5</title>
<g id="a_edge7_Node000002_Node000005"><a xlink:title=" ">
<path fill="none" stroke="#63b8ff" d="M220.48,-21.49C228.61,-19.64 237.21,-17.69 244.97,-15.93"/>
<polygon fill="#63b8ff" stroke="#63b8ff" points="245.47,-19.41 254.45,-13.78 243.93,-12.58 245.47,-19.41"/>
</a>
</g>
</g>
<!-- Node3&#45;&gt;Node3 -->
<g id="edge6_Node000003_Node000003" class="edge">
<title>Node3&#45;&gt;Node3</title>
<g id="a_edge6_Node000003_Node000003"><a xlink:title=" ">
<path fill="none" stroke="#63b8ff" d="M344.57,-39.34C338.72,-47.98 343.28,-57 358.25,-57 366.2,-57 371.22,-54.45 373.3,-50.77"/>
<polygon fill="#63b8ff" stroke="#63b8ff" points="376.77,-50.36 372.11,-40.84 369.82,-51.19 376.77,-50.36"/>
</a>
</g>
</g>
<!-- Node4 -->
<g id="Node000004" class="node">
<title>Node4</title>
<g id="a_Node000004"><a xlink:href="class_grille.html#a55235882a3d7897067449ef76fb64287" target="_top" xlink:title=" ">
<polygon fill="white" stroke="#666666" points="488,-39 428.5,-39 428.5,-19 488,-19 488,-39"/>
<text text-anchor="middle" x="458.25" y="-25.5" font-family="Helvetica,sans-Serif" font-size="10.00">Grille::find</text>
</a>
</g>
</g>
<!-- Node3&#45;&gt;Node4 -->
<g id="edge4_Node000003_Node000004" class="edge">
<title>Node3&#45;&gt;Node4</title>
<g id="a_edge4_Node000003_Node000004"><a xlink:title=" ">
<path fill="none" stroke="#63b8ff" d="M392.98,-22.55C400.64,-22.24 408.86,-22.17 416.77,-22.34"/>
<polygon fill="#63b8ff" stroke="#63b8ff" points="416.4,-25.83 426.53,-22.71 416.67,-18.84 416.4,-25.83"/>
</a>
</g>
</g>
<!-- Node4&#45;&gt;Node3 -->
<g id="edge5_Node000004_Node000003" class="edge">
<title>Node4&#45;&gt;Node3</title>
<g id="a_edge5_Node000004_Node000003"><a xlink:title=" ">
<path fill="none" stroke="#63b8ff" d="M428.04,-35.23C420.55,-35.65 412.31,-35.81 404.22,-35.73"/>
<polygon fill="#63b8ff" stroke="#63b8ff" points="404.57,-32.24 394.49,-35.49 404.4,-39.24 404.57,-32.24"/>
</a>
</g>
</g>
<!-- Node5&#45;&gt;Node3 -->
<g id="edge8_Node000005_Node000003" class="edge">
<title>Node5&#45;&gt;Node3</title>
<g id="a_edge8_Node000005_Node000003"><a xlink:title=" ">
<path fill="none" stroke="#63b8ff" d="M288.16,-13.4C295.08,-14.96 303.68,-16.9 312.44,-18.88"/>
<polygon fill="#63b8ff" stroke="#63b8ff" points="311.5,-22.26 322.03,-21.04 313.04,-15.43 311.5,-22.26"/>
</a>
</g>
</g>
</g>
</svg>
