<?xml version="1.0" encoding="UTF-8" standalone="no"?>
<!DOCTYPE svg PUBLIC "-//W3C//DTD SVG 1.1//EN"
 "http://www.w3.org/Graphics/SVG/1.1/DTD/svg11.dtd">
<!-- Generated by graphviz version 10.0.1 (20240210.2158)
 -->
<!-- Title: Dynamique_voile::f Pages: 1 -->
<svg width="534pt" height="202pt"
 viewBox="0.00 0.00 534.25 201.64" xmlns="http://www.w3.org/2000/svg" xmlns:xlink="http://www.w3.org/1999/xlink">
<g id="graph0" class="graph" transform="scale(1 1) rotate(0) translate(4 197.64)">
<title>Dynamique_voile::f</title>
<!-- Node1 -->
<g id="Node000001" class="node">
<title>Node1</title>
<g id="a_Node000001"><a xlink:title=" ">
<polygon fill="#999999" stroke="#666666" points="97,-96 0,-96 0,-76 97,-76 97,-96"/>
<text text-anchor="middle" x="48.5" y="-82.5" font-family="Helvetica,sans-Serif" font-size="10.00">Dynamique_voile::f</text>
</a>
</g>
</g>
<!-- Node2 -->
<g id="Node000002" class="node">
<title>Node2</title>
<g id="a_Node000002"><a xlink:href="_fonction__externes_8hpp.html#aaee29cb287929b30dcc528e78183ad83" target="_top" xlink:title=" ">
<polygon fill="white" stroke="#666666" points="186.5,-190 147.25,-190 147.25,-170 186.5,-170 186.5,-190"/>
<text text-anchor="middle" x="166.88" y="-176.5" font-family="Helvetica,sans-Serif" font-size="10.00">angle</text>
</a>
</g>
</g>
<!-- Node1&#45;&gt;Node2 -->
<g id="edge1_Node000001_Node000002" class="edge">
<title>Node1&#45;&gt;Node2</title>
<g id="a_edge1_Node000001_Node000002"><a xlink:title=" ">
<path fill="none" stroke="#63b8ff" d="M59.7,-96.46C74.87,-111.69 104.62,-140.39 133,-161 134.37,-161.99 135.79,-162.98 137.24,-163.94"/>
<polygon fill="#63b8ff" stroke="#63b8ff" points="135.39,-166.91 145.73,-169.2 139.08,-160.96 135.39,-166.91"/>
</a>
</g>
</g>
<!-- Node3 -->
<g id="Node000003" class="node">
<title>Node3</title>
<g id="a_Node000003"><a xlink:href="_fonction__externes_8hpp.html#a8bf9651680a69ef9b57e88861dbc2b7c" target="_top" xlink:title=" ">
<polygon fill="white" stroke="#666666" points="430.75,-115 362.25,-115 362.25,-95 430.75,-95 430.75,-115"/>
<text text-anchor="middle" x="396.5" y="-101.5" font-family="Helvetica,sans-Serif" font-size="10.00">interpolation</text>
</a>
</g>
</g>
<!-- Node1&#45;&gt;Node3 -->
<g id="edge14_Node000001_Node000003" class="edge">
<title>Node1&#45;&gt;Node3</title>
<g id="a_edge14_Node000001_Node000003"><a xlink:title=" ">
<path fill="none" stroke="#63b8ff" d="M97.25,-88.62C164.23,-92.3 285.2,-98.94 350.61,-102.53"/>
<polygon fill="#63b8ff" stroke="#63b8ff" points="350.07,-106.01 360.25,-103.06 350.46,-99.02 350.07,-106.01"/>
</a>
</g>
</g>
<!-- Node6 -->
<g id="Node000006" class="node">
<title>Node6</title>
<g id="a_Node000006"><a xlink:href="_fonction__externes_8hpp.html#ae0695e70efed4cbd92fba2e3029dc528" target="_top" xlink:title=" ">
<polygon fill="white" stroke="#666666" points="200.75,-134 133,-134 133,-114 200.75,-114 200.75,-134"/>
<text text-anchor="middle" x="166.88" y="-120.5" font-family="Helvetica,sans-Serif" font-size="10.00">angle_relatif</text>
</a>
</g>
</g>
<!-- Node1&#45;&gt;Node6 -->
<g id="edge8_Node000001_Node000006" class="edge">
<title>Node1&#45;&gt;Node6</title>
<g id="a_edge8_Node000001_Node000006"><a xlink:title=" ">
<path fill="none" stroke="#63b8ff" d="M81.61,-96.48C94.45,-100.68 109.44,-105.57 123.18,-110.06"/>
<polygon fill="#63b8ff" stroke="#63b8ff" points="121.84,-113.3 132.43,-113.08 124.01,-106.65 121.84,-113.3"/>
</a>
</g>
</g>
<!-- Node7 -->
<g id="Node000007" class="node">
<title>Node7</title>
<g id="a_Node000007"><a xlink:href="_fonction__externes_8hpp.html#a1ebdc2a1af6cd0b37eb88f47efd98926" target="_top" xlink:title=" ">
<polygon fill="white" stroke="#666666" points="326.25,-58 236.75,-58 236.75,-38 326.25,-38 326.25,-58"/>
<text text-anchor="middle" x="281.5" y="-44.5" font-family="Helvetica,sans-Serif" font-size="10.00">controle_position</text>
</a>
</g>
</g>
<!-- Node1&#45;&gt;Node7 -->
<g id="edge12_Node000001_Node000007" class="edge">
<title>Node1&#45;&gt;Node7</title>
<g id="a_edge12_Node000001_Node000007"><a xlink:title=" ">
<path fill="none" stroke="#63b8ff" d="M97.18,-77.96C108.89,-76 121.4,-73.92 133,-72 163.48,-66.96 197.53,-61.42 225.22,-56.93"/>
<polygon fill="#63b8ff" stroke="#63b8ff" points="225.47,-60.43 234.78,-55.38 224.35,-53.52 225.47,-60.43"/>
</a>
</g>
</g>
<!-- Node8 -->
<g id="Node000008" class="node">
<title>Node8</title>
<g id="a_Node000008"><a xlink:href="class_voilier.html#a809fae1f38f08e604bc07fc28a9e71e5" target="_top" xlink:title=" ">
<polygon fill="white" stroke="#666666" points="314.62,-20 248.38,-20 248.38,0 314.62,0 314.62,-20"/>
<text text-anchor="middle" x="281.5" y="-6.5" font-family="Helvetica,sans-Serif" font-size="10.00">Voilier::V_b</text>
</a>
</g>
</g>
<!-- Node1&#45;&gt;Node8 -->
<g id="edge15_Node000001_Node000008" class="edge">
<title>Node1&#45;&gt;Node8</title>
<g id="a_edge15_Node000001_Node000008"><a xlink:title=" ">
<path fill="none" stroke="#63b8ff" d="M78.81,-75.61C94.79,-70 114.95,-63.01 133,-57 167.93,-45.37 207.72,-32.73 237.16,-23.49"/>
<polygon fill="#63b8ff" stroke="#63b8ff" points="237.96,-26.9 246.46,-20.57 235.87,-20.22 237.96,-26.9"/>
</a>
</g>
</g>
<!-- Node2&#45;&gt;Node3 -->
<g id="edge2_Node000002_Node000003" class="edge">
<title>Node2&#45;&gt;Node3</title>
<g id="a_edge2_Node000002_Node000003"><a xlink:title=" ">
<path fill="none" stroke="#63b8ff" d="M186.93,-184.93C217.73,-191.88 279.72,-201.55 326.25,-181 351.91,-169.67 372.16,-143.61 383.98,-125.17"/>
<polygon fill="#63b8ff" stroke="#63b8ff" points="386.95,-127.03 389.15,-116.66 380.96,-123.39 386.95,-127.03"/>
</a>
</g>
</g>
<!-- Node5 -->
<g id="Node000005" class="node">
<title>Node5</title>
<g id="a_Node000005"><a xlink:href="_fonction__externes_8hpp.html#a1ab31b90bc584c635ec159468ceed9b2" target="_top" xlink:title=" ">
<polygon fill="white" stroke="#666666" points="297.38,-172 265.62,-172 265.62,-152 297.38,-152 297.38,-172"/>
<text text-anchor="middle" x="281.5" y="-158.5" font-family="Helvetica,sans-Serif" font-size="10.00">sgn</text>
</a>
</g>
</g>
<!-- Node2&#45;&gt;Node5 -->
<g id="edge6_Node000002_Node000005" class="edge">
<title>Node2&#45;&gt;Node5</title>
<g id="a_edge6_Node000002_Node000005"><a xlink:title=" ">
<path fill="none" stroke="#63b8ff" d="M186.98,-176.95C205.45,-174 233.58,-169.5 254.16,-166.21"/>
<polygon fill="#63b8ff" stroke="#63b8ff" points="254.46,-169.71 263.79,-164.67 253.36,-162.79 254.46,-169.71"/>
</a>
</g>
</g>
<!-- Node3&#45;&gt;Node3 -->
<g id="edge5_Node000003_Node000003" class="edge">
<title>Node3&#45;&gt;Node3</title>
<g id="a_edge5_Node000003_Node000003"><a xlink:title=" ">
<path fill="none" stroke="#63b8ff" d="M380.61,-115.34C373.82,-123.98 379.12,-133 396.5,-133 406.01,-133 411.9,-130.3 414.17,-126.44"/>
<polygon fill="#63b8ff" stroke="#63b8ff" points="417.67,-126.15 412.63,-116.83 410.76,-127.26 417.67,-126.15"/>
</a>
</g>
</g>
<!-- Node4 -->
<g id="Node000004" class="node">
<title>Node4</title>
<g id="a_Node000004"><a xlink:href="class_grille.html#a55235882a3d7897067449ef76fb64287" target="_top" xlink:title=" ">
<polygon fill="white" stroke="#666666" points="526.25,-115 466.75,-115 466.75,-95 526.25,-95 526.25,-115"/>
<text text-anchor="middle" x="496.5" y="-101.5" font-family="Helvetica,sans-Serif" font-size="10.00">Grille::find</text>
</a>
</g>
</g>
<!-- Node3&#45;&gt;Node4 -->
<g id="edge3_Node000003_Node000004" class="edge">
<title>Node3&#45;&gt;Node4</title>
<g id="a_edge3_Node000003_Node000004"><a xlink:title=" ">
<path fill="none" stroke="#63b8ff" d="M431.23,-98.55C438.89,-98.24 447.11,-98.17 455.02,-98.34"/>
<polygon fill="#63b8ff" stroke="#63b8ff" points="454.65,-101.83 464.78,-98.71 454.92,-94.84 454.65,-101.83"/>
</a>
</g>
</g>
<!-- Node4&#45;&gt;Node3 -->
<g id="edge4_Node000004_Node000003" class="edge">
<title>Node4&#45;&gt;Node3</title>
<g id="a_edge4_Node000004_Node000003"><a xlink:title=" ">
<path fill="none" stroke="#63b8ff" d="M466.29,-111.23C458.8,-111.65 450.56,-111.81 442.47,-111.73"/>
<polygon fill="#63b8ff" stroke="#63b8ff" points="442.82,-108.24 432.74,-111.49 442.65,-115.24 442.82,-108.24"/>
</a>
</g>
</g>
<!-- Node5&#45;&gt;Node3 -->
<g id="edge7_Node000005_Node000003" class="edge">
<title>Node5&#45;&gt;Node3</title>
<g id="a_edge7_Node000005_Node000003"><a xlink:title=" ">
<path fill="none" stroke="#63b8ff" d="M297.74,-154.31C314.82,-145.69 342.98,-131.49 364.69,-120.54"/>
<polygon fill="#63b8ff" stroke="#63b8ff" points="366.06,-123.77 373.41,-116.14 362.9,-117.52 366.06,-123.77"/>
</a>
</g>
</g>
<!-- Node6&#45;&gt;Node3 -->
<g id="edge10_Node000006_Node000003" class="edge">
<title>Node6&#45;&gt;Node3</title>
<g id="a_edge10_Node000006_Node000003"><a xlink:title=" ">
<path fill="none" stroke="#63b8ff" d="M200.97,-121.24C240.48,-117.94 306.71,-112.41 350.75,-108.74"/>
<polygon fill="#63b8ff" stroke="#63b8ff" points="350.81,-112.24 360.48,-107.92 350.23,-105.27 350.81,-112.24"/>
</a>
</g>
</g>
<!-- Node6&#45;&gt;Node5 -->
<g id="edge11_Node000006_Node000005" class="edge">
<title>Node6&#45;&gt;Node5</title>
<g id="a_edge11_Node000006_Node000005"><a xlink:title=" ">
<path fill="none" stroke="#63b8ff" d="M198.95,-134.48C216.51,-140.41 238.21,-147.73 254.8,-153.33"/>
<polygon fill="#63b8ff" stroke="#63b8ff" points="253.34,-156.53 263.93,-156.41 255.57,-149.9 253.34,-156.53"/>
</a>
</g>
</g>
<!-- Node6&#45;&gt;Node6 -->
<g id="edge9_Node000006_Node000006" class="edge">
<title>Node6&#45;&gt;Node6</title>
<g id="a_edge9_Node000006_Node000006"><a xlink:title=" ">
<path fill="none" stroke="#63b8ff" d="M148.66,-134.34C140.88,-142.98 146.95,-152 166.88,-152 177.77,-152 184.52,-149.3 187.13,-145.44"/>
<polygon fill="#63b8ff" stroke="#63b8ff" points="190.62,-145.03 185.36,-135.83 183.73,-146.3 190.62,-145.03"/>
</a>
</g>
</g>
<!-- Node7&#45;&gt;Node3 -->
<g id="edge13_Node000007_Node000003" class="edge">
<title>Node7&#45;&gt;Node3</title>
<g id="a_edge13_Node000007_Node000003"><a xlink:title=" ">
<path fill="none" stroke="#63b8ff" d="M303.23,-58.45C320.43,-67.13 345.15,-79.6 364.67,-89.45"/>
<polygon fill="#63b8ff" stroke="#63b8ff" points="363.05,-92.55 373.55,-93.93 366.2,-86.3 363.05,-92.55"/>
</a>
</g>
</g>
<!-- Node8&#45;&gt;Node3 -->
<g id="edge16_Node000008_Node000003" class="edge">
<title>Node8&#45;&gt;Node3</title>
<g id="a_edge16_Node000008_Node000003"><a xlink:title=" ">
<path fill="none" stroke="#63b8ff" d="M311.22,-20.39C316.44,-22.85 321.67,-25.72 326.25,-29 348.46,-44.88 368.86,-68.92 381.67,-85.7"/>
<polygon fill="#63b8ff" stroke="#63b8ff" points="378.62,-87.46 387.4,-93.4 384.24,-83.29 378.62,-87.46"/>
</a>
</g>
</g>
</g>
</svg>
