<?xml version="1.0" encoding="UTF-8" standalone="no"?>
<!DOCTYPE svg PUBLIC "-//W3C//DTD SVG 1.1//EN"
 "http://www.w3.org/Graphics/SVG/1.1/DTD/svg11.dtd">
<!-- Generated by graphviz version 10.0.1 (20240210.2158)
 -->
<!-- Title: Route::Route Pages: 1 -->
<svg width="281pt" height="46pt"
 viewBox="0.00 0.00 281.00 46.00" xmlns="http://www.w3.org/2000/svg" xmlns:xlink="http://www.w3.org/1999/xlink">
<g id="graph0" class="graph" transform="scale(1 1) rotate(0) translate(4 42)">
<title>Route::Route</title>
<!-- Node1 -->
<g id="Node000001" class="node">
<title>Node1</title>
<g id="a_Node000001"><a xlink:title=" ">
<polygon fill="#999999" stroke="#666666" points="73,-20 0,-20 0,0 73,0 73,-20"/>
<text text-anchor="middle" x="36.5" y="-6.5" font-family="Helvetica,sans-Serif" font-size="10.00">Route::Route</text>
</a>
</g>
</g>
<!-- Node2 -->
<g id="Node000002" class="node">
<title>Node2</title>
<g id="a_Node000002"><a xlink:href="_fonction__externes_8hpp.html#a8bf9651680a69ef9b57e88861dbc2b7c" target="_top" xlink:title=" ">
<polygon fill="white" stroke="#666666" points="177.5,-20 109,-20 109,0 177.5,0 177.5,-20"/>
<text text-anchor="middle" x="143.25" y="-6.5" font-family="Helvetica,sans-Serif" font-size="10.00">interpolation</text>
</a>
</g>
</g>
<!-- Node1&#45;&gt;Node2 -->
<g id="edge1_Node000001_Node000002" class="edge">
<title>Node1&#45;&gt;Node2</title>
<g id="a_edge1_Node000001_Node000002"><a xlink:title=" ">
<path fill="none" stroke="#63b8ff" d="M73.26,-10C80.98,-10 89.24,-10 97.27,-10"/>
<polygon fill="#63b8ff" stroke="#63b8ff" points="97.26,-13.5 107.26,-10 97.26,-6.5 97.26,-13.5"/>
</a>
</g>
</g>
<!-- Node2&#45;&gt;Node2 -->
<g id="edge4_Node000002_Node000002" class="edge">
<title>Node2&#45;&gt;Node2</title>
<g id="a_edge4_Node000002_Node000002"><a xlink:title=" ">
<path fill="none" stroke="#63b8ff" d="M127.36,-20.34C120.57,-28.98 125.87,-38 143.25,-38 152.76,-38 158.65,-35.3 160.92,-31.44"/>
<polygon fill="#63b8ff" stroke="#63b8ff" points="164.42,-31.15 159.38,-21.83 157.51,-32.26 164.42,-31.15"/>
</a>
</g>
</g>
<!-- Node3 -->
<g id="Node000003" class="node">
<title>Node3</title>
<g id="a_Node000003"><a xlink:href="class_grille.html#a55235882a3d7897067449ef76fb64287" target="_top" xlink:title=" ">
<polygon fill="white" stroke="#666666" points="273,-20 213.5,-20 213.5,0 273,0 273,-20"/>
<text text-anchor="middle" x="243.25" y="-6.5" font-family="Helvetica,sans-Serif" font-size="10.00">Grille::find</text>
</a>
</g>
</g>
<!-- Node2&#45;&gt;Node3 -->
<g id="edge2_Node000002_Node000003" class="edge">
<title>Node2&#45;&gt;Node3</title>
<g id="a_edge2_Node000002_Node000003"><a xlink:title=" ">
<path fill="none" stroke="#63b8ff" d="M177.98,-3.55C185.64,-3.24 193.86,-3.17 201.77,-3.34"/>
<polygon fill="#63b8ff" stroke="#63b8ff" points="201.4,-6.83 211.53,-3.71 201.67,0.16 201.4,-6.83"/>
</a>
</g>
</g>
<!-- Node3&#45;&gt;Node2 -->
<g id="edge3_Node000003_Node000002" class="edge">
<title>Node3&#45;&gt;Node2</title>
<g id="a_edge3_Node000003_Node000002"><a xlink:title=" ">
<path fill="none" stroke="#63b8ff" d="M213.04,-16.23C205.55,-16.65 197.31,-16.81 189.22,-16.73"/>
<polygon fill="#63b8ff" stroke="#63b8ff" points="189.57,-13.24 179.49,-16.49 189.4,-20.24 189.57,-13.24"/>
</a>
</g>
</g>
</g>
</svg>
