<?xml version="1.0" encoding="UTF-8" standalone="no"?>
<!DOCTYPE svg PUBLIC "-//W3C//DTD SVG 1.1//EN"
 "http://www.w3.org/Graphics/SVG/1.1/DTD/svg11.dtd">
<!-- Generated by graphviz version 10.0.1 (20240210.2158)
 -->
<!-- Title: route_optimale::calcul Pages: 1 -->
<svg width="967pt" height="513pt"
 viewBox="0.00 0.00 967.00 512.53" xmlns="http://www.w3.org/2000/svg" xmlns:xlink="http://www.w3.org/1999/xlink">
<g id="graph0" class="graph" transform="scale(1 1) rotate(0) translate(4 508.53)">
<title>route_optimale::calcul</title>
<!-- Node1 -->
<g id="Node000001" class="node">
<title>Node1</title>
<g id="a_Node000001"><a xlink:title=" ">
<polygon fill="#999999" stroke="#666666" points="111.25,-291 0,-291 0,-271 111.25,-271 111.25,-291"/>
<text text-anchor="middle" x="55.62" y="-277.5" font-family="Helvetica,sans-Serif" font-size="10.00">route_optimale::calcul</text>
</a>
</g>
</g>
<!-- Node2 -->
<g id="Node000002" class="node">
<title>Node2</title>
<g id="a_Node000002"><a xlink:href="classroute__optimale.html#af84f86f43a1018ca7cbdc618e3bf135b" target="_top" xlink:title=" ">
<polygon fill="white" stroke="#666666" points="269,-412 147.25,-412 147.25,-392 269,-392 269,-412"/>
<text text-anchor="middle" x="208.12" y="-398.5" font-family="Helvetica,sans-Serif" font-size="10.00">route_optimale::calcul_n</text>
</a>
</g>
</g>
<!-- Node1&#45;&gt;Node2 -->
<g id="edge1_Node000001_Node000002" class="edge">
<title>Node1&#45;&gt;Node2</title>
<g id="a_edge1_Node000001_Node000002"><a xlink:title=" ">
<path fill="none" stroke="#63b8ff" d="M69.46,-291.32C95.22,-312.03 153.51,-358.9 185.36,-384.5"/>
<polygon fill="#63b8ff" stroke="#63b8ff" points="183.16,-387.22 193.15,-390.76 187.55,-381.77 183.16,-387.22"/>
</a>
</g>
</g>
<!-- Node3 -->
<g id="Node000003" class="node">
<title>Node3</title>
<g id="a_Node000003"><a xlink:href="_fonction__externes_8hpp.html#a8bf9651680a69ef9b57e88861dbc2b7c" target="_top" xlink:title=" ">
<polygon fill="white" stroke="#666666" points="863.5,-267 795,-267 795,-247 863.5,-247 863.5,-267"/>
<text text-anchor="middle" x="829.25" y="-253.5" font-family="Helvetica,sans-Serif" font-size="10.00">interpolation</text>
</a>
</g>
</g>
<!-- Node1&#45;&gt;Node3 -->
<g id="edge22_Node000001_Node000003" class="edge">
<title>Node1&#45;&gt;Node3</title>
<g id="a_edge22_Node000001_Node000003"><a xlink:title=" ">
<path fill="none" stroke="#63b8ff" d="M60.69,-291.32C71.23,-316.79 101.77,-383.32 147.25,-421 222.43,-483.29 253,-504 350.62,-504 350.62,-504 350.62,-504 613,-504 680.05,-504 710.06,-511.84 759,-466 813.36,-415.08 825.09,-320.6 827.59,-278.37"/>
<polygon fill="#63b8ff" stroke="#63b8ff" points="831.08,-278.7 828.04,-268.55 824.08,-278.38 831.08,-278.7"/>
</a>
</g>
</g>
<!-- Node5 -->
<g id="Node000005" class="node">
<title>Node5</title>
<g id="a_Node000005"><a xlink:href="class_grille.html#a5df315fb600d3601e4d82467d5f809e4" target="_top" xlink:title=" ">
<polygon fill="white" stroke="#666666" points="398.25,-412 305,-412 305,-392 398.25,-392 398.25,-412"/>
<text text-anchor="middle" x="351.62" y="-398.5" font-family="Helvetica,sans-Serif" font-size="10.00">Grille::localisation</text>
</a>
</g>
</g>
<!-- Node1&#45;&gt;Node5 -->
<g id="edge23_Node000001_Node000005" class="edge">
<title>Node1&#45;&gt;Node5</title>
<g id="a_edge23_Node000001_Node000005"><a xlink:title=" ">
<path fill="none" stroke="#63b8ff" d="M81.95,-291.42C134.26,-312.95 254.43,-362.41 314.73,-387.23"/>
<polygon fill="#63b8ff" stroke="#63b8ff" points="313.28,-390.42 323.86,-390.98 315.95,-383.94 313.28,-390.42"/>
</a>
</g>
</g>
<!-- Node6 -->
<g id="Node000006" class="node">
<title>Node6</title>
<g id="a_Node000006"><a xlink:href="class_dynamique__voile.html#a4a6c57e20d6b4f6f2775ee79d6bedf0f" target="_top" xlink:title=" ">
<polygon fill="white" stroke="#666666" points="531.25,-291 434.25,-291 434.25,-271 531.25,-271 531.25,-291"/>
<text text-anchor="middle" x="482.75" y="-277.5" font-family="Helvetica,sans-Serif" font-size="10.00">Dynamique_voile::f</text>
</a>
</g>
</g>
<!-- Node1&#45;&gt;Node6 -->
<g id="edge8_Node000001_Node000006" class="edge">
<title>Node1&#45;&gt;Node6</title>
<g id="a_edge8_Node000001_Node000006"><a xlink:title=" ">
<path fill="none" stroke="#63b8ff" d="M111.33,-281C191.35,-281 339.76,-281 422.36,-281"/>
<polygon fill="#63b8ff" stroke="#63b8ff" points="422.29,-284.5 432.29,-281 422.29,-277.5 422.29,-284.5"/>
</a>
</g>
</g>
<!-- Node12 -->
<g id="Node000012" class="node">
<title>Node12</title>
<g id="a_Node000012"><a xlink:href="_fonction__externes_8hpp.html#aa770b9ea17155cabe435ccd50ad3125a" target="_top" xlink:title=" ">
<polygon fill="white" stroke="#666666" points="756,-58 695.75,-58 695.75,-38 756,-38 756,-58"/>
<text text-anchor="middle" x="725.88" y="-44.5" font-family="Helvetica,sans-Serif" font-size="10.00">print_grille</text>
</a>
</g>
</g>
<!-- Node1&#45;&gt;Node12 -->
<g id="edge24_Node000001_Node000012" class="edge">
<title>Node1&#45;&gt;Node12</title>
<g id="a_edge24_Node000001_Node000012"><a xlink:title=" ">
<path fill="none" stroke="#63b8ff" d="M61.01,-270.6C72.05,-245.54 103.25,-181.08 147.25,-143 222.69,-77.72 250.86,-48 350.62,-48 350.62,-48 350.62,-48 483.75,-48 554.18,-48 636.18,-48 684.12,-48"/>
<polygon fill="#63b8ff" stroke="#63b8ff" points="684.04,-51.5 694.04,-48 684.04,-44.5 684.04,-51.5"/>
</a>
</g>
</g>
<!-- Node13 -->
<g id="Node000013" class="node">
<title>Node13</title>
<g id="a_Node000013"><a xlink:href="class_bi__vecteur.html#adf221f658bd9280b0d3830ef0f8a8e7f" target="_top" xlink:title=" ">
<polygon fill="white" stroke="#666666" points="262.62,-20 153.62,-20 153.62,0 262.62,0 262.62,-20"/>
<text text-anchor="middle" x="208.12" y="-6.5" font-family="Helvetica,sans-Serif" font-size="10.00">Bi_vecteur::pushback</text>
</a>
</g>
</g>
<!-- Node1&#45;&gt;Node13 -->
<g id="edge27_Node000001_Node000013" class="edge">
<title>Node1&#45;&gt;Node13</title>
<g id="a_edge27_Node000001_Node000013"><a xlink:title=" ">
<path fill="none" stroke="#63b8ff" d="M57.49,-270.5C61.1,-233.14 78.21,-105.12 147.25,-34 150.32,-30.84 153.86,-28.08 157.66,-25.68"/>
<polygon fill="#63b8ff" stroke="#63b8ff" points="159,-28.93 166.16,-21.12 155.7,-22.76 159,-28.93"/>
</a>
</g>
</g>
<!-- Node14 -->
<g id="Node000014" class="node">
<title>Node14</title>
<g id="a_Node000014"><a xlink:href="class_h_j_b.html#a482d79354bfe01376aeaa00983d2acf9" target="_top" xlink:title=" ">
<polygon fill="white" stroke="#666666" points="243.12,-172 173.12,-172 173.12,-152 243.12,-152 243.12,-172"/>
<text text-anchor="middle" x="208.12" y="-158.5" font-family="Helvetica,sans-Serif" font-size="10.00">HJB::resolve</text>
</a>
</g>
</g>
<!-- Node1&#45;&gt;Node14 -->
<g id="edge28_Node000001_Node000014" class="edge">
<title>Node1&#45;&gt;Node14</title>
<g id="a_edge28_Node000001_Node000014"><a xlink:title=" ">
<path fill="none" stroke="#63b8ff" d="M69.72,-270.65C95.51,-250.25 153.16,-204.67 184.97,-179.51"/>
<polygon fill="#63b8ff" stroke="#63b8ff" points="187.09,-182.3 192.77,-173.35 182.75,-176.81 187.09,-182.3"/>
</a>
</g>
</g>
<!-- Node2&#45;&gt;Node3 -->
<g id="edge2_Node000002_Node000003" class="edge">
<title>Node2&#45;&gt;Node3</title>
<g id="a_edge2_Node000002_Node000003"><a xlink:title=" ">
<path fill="none" stroke="#63b8ff" d="M235.34,-412.43C283.39,-430.56 389.13,-466 481.75,-466 481.75,-466 481.75,-466 613,-466 679.16,-466 708.39,-479.61 759,-437 807.79,-395.92 822.31,-316.33 826.55,-278.27"/>
<polygon fill="#63b8ff" stroke="#63b8ff" points="830.01,-278.87 827.48,-268.58 823.04,-278.2 830.01,-278.87"/>
</a>
</g>
</g>
<!-- Node2&#45;&gt;Node5 -->
<g id="edge6_Node000002_Node000005" class="edge">
<title>Node2&#45;&gt;Node5</title>
<g id="a_edge6_Node000002_Node000005"><a xlink:title=" ">
<path fill="none" stroke="#63b8ff" d="M269.13,-402C277.13,-402 285.31,-402 293.26,-402"/>
<polygon fill="#63b8ff" stroke="#63b8ff" points="293.18,-405.5 303.18,-402 293.18,-398.5 293.18,-405.5"/>
</a>
</g>
</g>
<!-- Node3&#45;&gt;Node3 -->
<g id="edge5_Node000003_Node000003" class="edge">
<title>Node3&#45;&gt;Node3</title>
<g id="a_edge5_Node000003_Node000003"><a xlink:title=" ">
<path fill="none" stroke="#63b8ff" d="M813.36,-267.34C806.57,-275.98 811.87,-285 829.25,-285 838.76,-285 844.65,-282.3 846.92,-278.44"/>
<polygon fill="#63b8ff" stroke="#63b8ff" points="850.42,-278.15 845.38,-268.83 843.51,-279.26 850.42,-278.15"/>
</a>
</g>
</g>
<!-- Node4 -->
<g id="Node000004" class="node">
<title>Node4</title>
<g id="a_Node000004"><a xlink:href="class_grille.html#a55235882a3d7897067449ef76fb64287" target="_top" xlink:title=" ">
<polygon fill="white" stroke="#666666" points="959,-191 899.5,-191 899.5,-171 959,-171 959,-191"/>
<text text-anchor="middle" x="929.25" y="-177.5" font-family="Helvetica,sans-Serif" font-size="10.00">Grille::find</text>
</a>
</g>
</g>
<!-- Node3&#45;&gt;Node4 -->
<g id="edge3_Node000003_Node000004" class="edge">
<title>Node3&#45;&gt;Node4</title>
<g id="a_edge3_Node000003_Node000004"><a xlink:title=" ">
<path fill="none" stroke="#63b8ff" d="M838.61,-246.54C851.71,-233.76 877.74,-212.81 898.39,-197.89"/>
<polygon fill="#63b8ff" stroke="#63b8ff" points="900.33,-200.8 906.48,-192.18 896.29,-195.08 900.33,-200.8"/>
</a>
</g>
</g>
<!-- Node4&#45;&gt;Node3 -->
<g id="edge4_Node000004_Node000003" class="edge">
<title>Node4&#45;&gt;Node3</title>
<g id="a_edge4_Node000004_Node000003"><a xlink:title=" ">
<path fill="none" stroke="#63b8ff" d="M920.23,-191.13C907.3,-203.81 881.21,-224.84 860.43,-239.88"/>
<polygon fill="#63b8ff" stroke="#63b8ff" points="858.42,-237.02 852.27,-245.65 862.46,-242.73 858.42,-237.02"/>
</a>
</g>
</g>
<!-- Node5&#45;&gt;Node3 -->
<g id="edge7_Node000005_Node000003" class="edge">
<title>Node5&#45;&gt;Node3</title>
<g id="a_edge7_Node000005_Node000003"><a xlink:title=" ">
<path fill="none" stroke="#63b8ff" d="M381.39,-412.48C452.22,-436.32 638.09,-486.78 759,-409 804.4,-379.8 820.39,-312.7 825.74,-278.26"/>
<polygon fill="#63b8ff" stroke="#63b8ff" points="829.16,-279.06 827.05,-268.67 822.22,-278.1 829.16,-279.06"/>
</a>
</g>
</g>
<!-- Node6&#45;&gt;Node3 -->
<g id="edge19_Node000006_Node000003" class="edge">
<title>Node6&#45;&gt;Node3</title>
<g id="a_edge19_Node000006_Node000003"><a xlink:title=" ">
<path fill="none" stroke="#63b8ff" d="M496.98,-291.33C512.7,-302.89 540.22,-320.91 567.25,-328 605.73,-338.09 617.06,-330.7 656.75,-328 702.51,-324.88 716.98,-332.38 759,-314 779.17,-305.18 798.18,-288.72 811.16,-275.74"/>
<polygon fill="#63b8ff" stroke="#63b8ff" points="813.67,-278.18 818.08,-268.55 808.63,-273.33 813.67,-278.18"/>
</a>
</g>
</g>
<!-- Node7 -->
<g id="Node000007" class="node">
<title>Node7</title>
<g id="a_Node000007"><a xlink:href="_fonction__externes_8hpp.html#aaee29cb287929b30dcc528e78183ad83" target="_top" xlink:title=" ">
<polygon fill="white" stroke="#666666" points="631.62,-319 592.38,-319 592.38,-299 631.62,-299 631.62,-319"/>
<text text-anchor="middle" x="612" y="-305.5" font-family="Helvetica,sans-Serif" font-size="10.00">angle</text>
</a>
</g>
</g>
<!-- Node6&#45;&gt;Node7 -->
<g id="edge9_Node000006_Node000007" class="edge">
<title>Node6&#45;&gt;Node7</title>
<g id="a_edge9_Node000006_Node000007"><a xlink:title=" ">
<path fill="none" stroke="#63b8ff" d="M531.13,-291.43C547.86,-295.11 566.19,-299.14 581.07,-302.41"/>
<polygon fill="#63b8ff" stroke="#63b8ff" points="580.17,-305.8 590.69,-304.53 581.67,-298.96 580.17,-305.8"/>
</a>
</g>
</g>
<!-- Node9 -->
<g id="Node000009" class="node">
<title>Node9</title>
<g id="a_Node000009"><a xlink:href="_fonction__externes_8hpp.html#ae0695e70efed4cbd92fba2e3029dc528" target="_top" xlink:title=" ">
<polygon fill="white" stroke="#666666" points="645.88,-263 578.12,-263 578.12,-243 645.88,-243 645.88,-263"/>
<text text-anchor="middle" x="612" y="-249.5" font-family="Helvetica,sans-Serif" font-size="10.00">angle_relatif</text>
</a>
</g>
</g>
<!-- Node6&#45;&gt;Node9 -->
<g id="edge13_Node000006_Node000009" class="edge">
<title>Node6&#45;&gt;Node9</title>
<g id="a_edge13_Node000006_Node000009"><a xlink:title=" ">
<path fill="none" stroke="#63b8ff" d="M531.13,-270.57C542.79,-268.01 555.23,-265.27 566.74,-262.74"/>
<polygon fill="#63b8ff" stroke="#63b8ff" points="567.38,-266.18 576.39,-260.62 565.87,-259.35 567.38,-266.18"/>
</a>
</g>
</g>
<!-- Node10 -->
<g id="Node000010" class="node">
<title>Node10</title>
<g id="a_Node000010"><a xlink:href="_fonction__externes_8hpp.html#a1ebdc2a1af6cd0b37eb88f47efd98926" target="_top" xlink:title=" ">
<polygon fill="white" stroke="#666666" points="656.75,-220 567.25,-220 567.25,-200 656.75,-200 656.75,-220"/>
<text text-anchor="middle" x="612" y="-206.5" font-family="Helvetica,sans-Serif" font-size="10.00">controle_position</text>
</a>
</g>
</g>
<!-- Node6&#45;&gt;Node10 -->
<g id="edge17_Node000006_Node000010" class="edge">
<title>Node6&#45;&gt;Node10</title>
<g id="a_edge17_Node000006_Node000010"><a xlink:title=" ">
<path fill="none" stroke="#63b8ff" d="M501.96,-270.67C518.86,-261.11 544.71,-246.52 567.25,-234 572.02,-231.35 577.08,-228.55 582.01,-225.84"/>
<polygon fill="#63b8ff" stroke="#63b8ff" points="583.4,-229.08 590.48,-221.2 580.03,-222.94 583.4,-229.08"/>
</a>
</g>
</g>
<!-- Node11 -->
<g id="Node000011" class="node">
<title>Node11</title>
<g id="a_Node000011"><a xlink:href="class_voilier.html#a809fae1f38f08e604bc07fc28a9e71e5" target="_top" xlink:title=" ">
<polygon fill="white" stroke="#666666" points="759,-400 692.75,-400 692.75,-380 759,-380 759,-400"/>
<text text-anchor="middle" x="725.88" y="-386.5" font-family="Helvetica,sans-Serif" font-size="10.00">Voilier::V_b</text>
</a>
</g>
</g>
<!-- Node6&#45;&gt;Node11 -->
<g id="edge20_Node000006_Node000011" class="edge">
<title>Node6&#45;&gt;Node11</title>
<g id="a_edge20_Node000006_Node000011"><a xlink:title=" ">
<path fill="none" stroke="#63b8ff" d="M490.56,-291.47C503.21,-309.95 532.26,-348.11 567.25,-366 602.74,-384.15 648.19,-389.47 681.15,-390.66"/>
<polygon fill="#63b8ff" stroke="#63b8ff" points="680.67,-394.15 690.75,-390.88 680.83,-387.15 680.67,-394.15"/>
</a>
</g>
</g>
<!-- Node7&#45;&gt;Node3 -->
<g id="edge10_Node000007_Node000003" class="edge">
<title>Node7&#45;&gt;Node3</title>
<g id="a_edge10_Node000007_Node000003"><a xlink:title=" ">
<path fill="none" stroke="#63b8ff" d="M631.91,-309.59C660.21,-309.95 714.95,-308.56 759,-295 774.93,-290.1 791.34,-281.29 804.18,-273.38"/>
<polygon fill="#63b8ff" stroke="#63b8ff" points="805.83,-276.48 812.37,-268.15 802.06,-270.59 805.83,-276.48"/>
</a>
</g>
</g>
<!-- Node8 -->
<g id="Node000008" class="node">
<title>Node8</title>
<g id="a_Node000008"><a xlink:href="_fonction__externes_8hpp.html#a1ab31b90bc584c635ec159468ceed9b2" target="_top" xlink:title=" ">
<polygon fill="white" stroke="#666666" points="741.75,-286 710,-286 710,-266 741.75,-266 741.75,-286"/>
<text text-anchor="middle" x="725.88" y="-272.5" font-family="Helvetica,sans-Serif" font-size="10.00">sgn</text>
</a>
</g>
</g>
<!-- Node7&#45;&gt;Node8 -->
<g id="edge11_Node000007_Node000008" class="edge">
<title>Node7&#45;&gt;Node8</title>
<g id="a_edge11_Node000007_Node000008"><a xlink:title=" ">
<path fill="none" stroke="#63b8ff" d="M631.98,-303.4C650.41,-297.97 678.53,-289.67 699,-283.63"/>
<polygon fill="#63b8ff" stroke="#63b8ff" points="699.71,-287.07 708.31,-280.89 697.72,-280.36 699.71,-287.07"/>
</a>
</g>
</g>
<!-- Node8&#45;&gt;Node3 -->
<g id="edge12_Node000008_Node000003" class="edge">
<title>Node8&#45;&gt;Node3</title>
<g id="a_edge12_Node000008_Node000003"><a xlink:title=" ">
<path fill="none" stroke="#63b8ff" d="M741.83,-273.2C752.89,-271.12 768.57,-268.19 783.54,-265.38"/>
<polygon fill="#63b8ff" stroke="#63b8ff" points="784.09,-268.84 793.28,-263.55 782.81,-261.96 784.09,-268.84"/>
</a>
</g>
</g>
<!-- Node9&#45;&gt;Node3 -->
<g id="edge15_Node000009_Node000003" class="edge">
<title>Node9&#45;&gt;Node3</title>
<g id="a_edge15_Node000009_Node000003"><a xlink:title=" ">
<path fill="none" stroke="#63b8ff" d="M646.16,-253.62C682.95,-254.3 742.5,-255.41 783.42,-256.17"/>
<polygon fill="#63b8ff" stroke="#63b8ff" points="783.12,-259.66 793.18,-256.35 783.25,-252.66 783.12,-259.66"/>
</a>
</g>
</g>
<!-- Node9&#45;&gt;Node8 -->
<g id="edge16_Node000009_Node000008" class="edge">
<title>Node9&#45;&gt;Node8</title>
<g id="a_edge16_Node000009_Node000008"><a xlink:title=" ">
<path fill="none" stroke="#63b8ff" d="M646.26,-259.84C663,-263.28 682.99,-267.39 698.62,-270.6"/>
<polygon fill="#63b8ff" stroke="#63b8ff" points="697.62,-273.97 708.12,-272.56 699.03,-267.11 697.62,-273.97"/>
</a>
</g>
</g>
<!-- Node9&#45;&gt;Node9 -->
<g id="edge14_Node000009_Node000009" class="edge">
<title>Node9&#45;&gt;Node9</title>
<g id="a_edge14_Node000009_Node000009"><a xlink:title=" ">
<path fill="none" stroke="#63b8ff" d="M593.91,-263.34C586.17,-271.98 592.21,-281 612,-281 622.83,-281 629.53,-278.3 632.13,-274.44"/>
<polygon fill="#63b8ff" stroke="#63b8ff" points="635.61,-274.03 630.37,-264.83 628.72,-275.29 635.61,-274.03"/>
</a>
</g>
</g>
<!-- Node10&#45;&gt;Node3 -->
<g id="edge18_Node000010_Node000003" class="edge">
<title>Node10&#45;&gt;Node3</title>
<g id="a_edge18_Node000010_Node000003"><a xlink:title=" ">
<path fill="none" stroke="#63b8ff" d="M657.08,-219.62C694.09,-227.7 746.71,-239.2 783.81,-247.3"/>
<polygon fill="#63b8ff" stroke="#63b8ff" points="782.8,-250.66 793.32,-249.37 784.3,-243.82 782.8,-250.66"/>
</a>
</g>
</g>
<!-- Node11&#45;&gt;Node3 -->
<g id="edge21_Node000011_Node000003" class="edge">
<title>Node11&#45;&gt;Node3</title>
<g id="a_edge21_Node000011_Node000003"><a xlink:title=" ">
<path fill="none" stroke="#63b8ff" d="M743.18,-379.58C748.57,-375.69 754.36,-371 759,-366 784.41,-338.59 806.1,-300.65 818.13,-277.52"/>
<polygon fill="#63b8ff" stroke="#63b8ff" points="821.14,-279.32 822.55,-268.82 814.9,-276.15 821.14,-279.32"/>
</a>
</g>
</g>
<!-- Node12&#45;&gt;Node3 -->
<g id="edge26_Node000012_Node000003" class="edge">
<title>Node12&#45;&gt;Node3</title>
<g id="a_edge26_Node000012_Node000003"><a xlink:title=" ">
<path fill="none" stroke="#63b8ff" d="M744.47,-58.38C749.7,-62.14 755.07,-66.77 759,-72 797.66,-123.53 816.87,-199.05 824.36,-235.61"/>
<polygon fill="#63b8ff" stroke="#63b8ff" points="820.9,-236.17 826.24,-245.32 827.78,-234.84 820.9,-236.17"/>
</a>
</g>
</g>
<!-- Node12&#45;&gt;Node4 -->
<g id="edge25_Node000012_Node000004" class="edge">
<title>Node12&#45;&gt;Node4</title>
<g id="a_edge25_Node000012_Node000004"><a xlink:title=" ">
<path fill="none" stroke="#63b8ff" d="M756.43,-57.47C785.41,-67.63 830,-85.64 863.5,-110 883.61,-124.62 902.26,-146.29 914.32,-161.84"/>
<polygon fill="#63b8ff" stroke="#63b8ff" points="911.21,-163.53 920.03,-169.4 916.8,-159.31 911.21,-163.53"/>
</a>
</g>
</g>
<!-- Node14&#45;&gt;Node3 -->
<g id="edge33_Node000014_Node000003" class="edge">
<title>Node14&#45;&gt;Node3</title>
<g id="a_edge33_Node000014_Node000003"><a xlink:title=" ">
<path fill="none" stroke="#63b8ff" d="M230.81,-151.59C276.24,-130.78 385.2,-86 481.75,-86 481.75,-86 481.75,-86 613,-86 709.1,-86 787.19,-191.79 816.15,-236.95"/>
<polygon fill="#63b8ff" stroke="#63b8ff" points="813.08,-238.65 821.35,-245.28 819.02,-234.94 813.08,-238.65"/>
</a>
</g>
</g>
<!-- Node15 -->
<g id="Node000015" class="node">
<title>Node15</title>
<g id="a_Node000015"><a xlink:href="class_flux.html#a0e09e357e05a7ed45322618393c6f2bd" target="_top" xlink:title=" ">
<polygon fill="white" stroke="#666666" points="384.75,-172 318.5,-172 318.5,-152 384.75,-152 384.75,-172"/>
<text text-anchor="middle" x="351.62" y="-158.5" font-family="Helvetica,sans-Serif" font-size="10.00">Flux::calcul</text>
</a>
</g>
</g>
<!-- Node14&#45;&gt;Node15 -->
<g id="edge29_Node000014_Node000015" class="edge">
<title>Node14&#45;&gt;Node15</title>
<g id="a_edge29_Node000014_Node000015"><a xlink:title=" ">
<path fill="none" stroke="#63b8ff" d="M243.38,-162C262.47,-162 286.46,-162 306.9,-162"/>
<polygon fill="#63b8ff" stroke="#63b8ff" points="306.63,-165.5 316.63,-162 306.63,-158.5 306.63,-165.5"/>
</a>
</g>
</g>
<!-- Node15&#45;&gt;Node3 -->
<g id="edge32_Node000015_Node000003" class="edge">
<title>Node15&#45;&gt;Node3</title>
<g id="a_edge32_Node000015_Node000003"><a xlink:title=" ">
<path fill="none" stroke="#63b8ff" d="M384.91,-162.88C440.81,-164.88 559.01,-171.27 656.75,-191 703.43,-200.42 714.78,-205.34 759,-223 772.37,-228.34 786.73,-235.19 798.88,-241.34"/>
<polygon fill="#63b8ff" stroke="#63b8ff" points="797.07,-244.35 807.57,-245.82 800.28,-238.13 797.07,-244.35"/>
</a>
</g>
</g>
<!-- Node15&#45;&gt;Node4 -->
<g id="edge31_Node000015_Node000004" class="edge">
<title>Node15&#45;&gt;Node4</title>
<g id="a_edge31_Node000015_Node000004"><a xlink:title=" ">
<path fill="none" stroke="#63b8ff" d="M385.03,-154.13C433.76,-143 528.94,-124 611,-124 611,-124 611,-124 726.88,-124 788.52,-124 856.9,-149.03 896.01,-165.92"/>
<polygon fill="#63b8ff" stroke="#63b8ff" points="894.53,-169.09 905.09,-169.93 897.36,-162.69 894.53,-169.09"/>
</a>
</g>
</g>
<!-- Node15&#45;&gt;Node6 -->
<g id="edge30_Node000015_Node000006" class="edge">
<title>Node15&#45;&gt;Node6</title>
<g id="a_edge30_Node000015_Node000006"><a xlink:title=" ">
<path fill="none" stroke="#63b8ff" d="M363.63,-172.15C385.44,-192.24 434.4,-237.36 461.95,-262.75"/>
<polygon fill="#63b8ff" stroke="#63b8ff" points="459.56,-265.31 469.29,-269.51 464.31,-260.16 459.56,-265.31"/>
</a>
</g>
</g>
</g>
</svg>
