<?xml version="1.0" encoding="UTF-8" standalone="no"?>
<!DOCTYPE svg PUBLIC "-//W3C//DTD SVG 1.1//EN"
 "http://www.w3.org/Graphics/SVG/1.1/DTD/svg11.dtd">
<!-- Generated by graphviz version 10.0.1 (20240210.2158)
 -->
<!-- Title: HJB::HJB Pages: 1 -->
<svg width="266pt" height="65pt"
 viewBox="0.00 0.00 266.00 65.00" xmlns="http://www.w3.org/2000/svg" xmlns:xlink="http://www.w3.org/1999/xlink">
<g id="graph0" class="graph" transform="scale(1 1) rotate(0) translate(4 61)">
<title>HJB::HJB</title>
<!-- Node1 -->
<g id="Node000001" class="node">
<title>Node1</title>
<g id="a_Node000001"><a xlink:title=" ">
<polygon fill="#999999" stroke="#666666" points="58,-20 0,-20 0,0 58,0 58,-20"/>
<text text-anchor="middle" x="29" y="-6.5" font-family="Helvetica,sans-Serif" font-size="10.00">HJB::HJB</text>
</a>
</g>
</g>
<!-- Node2 -->
<g id="Node000002" class="node">
<title>Node2</title>
<g id="a_Node000002"><a xlink:href="class_grille.html#a55235882a3d7897067449ef76fb64287" target="_top" xlink:title=" ">
<polygon fill="white" stroke="#666666" points="153.5,-39 94,-39 94,-19 153.5,-19 153.5,-39"/>
<text text-anchor="middle" x="123.75" y="-25.5" font-family="Helvetica,sans-Serif" font-size="10.00">Grille::find</text>
</a>
</g>
</g>
<!-- Node1&#45;&gt;Node2 -->
<g id="edge1_Node000001_Node000002" class="edge">
<title>Node1&#45;&gt;Node2</title>
<g id="a_edge1_Node000001_Node000002"><a xlink:title=" ">
<path fill="none" stroke="#63b8ff" d="M58.33,-15.8C65.94,-17.36 74.31,-19.08 82.43,-20.74"/>
<polygon fill="#63b8ff" stroke="#63b8ff" points="81.65,-24.15 92.15,-22.73 83.05,-17.3 81.65,-24.15"/>
</a>
</g>
</g>
<!-- Node3 -->
<g id="Node000003" class="node">
<title>Node3</title>
<g id="a_Node000003"><a xlink:href="_fonction__externes_8hpp.html#a8bf9651680a69ef9b57e88861dbc2b7c" target="_top" xlink:title=" ">
<polygon fill="white" stroke="#666666" points="258,-39 189.5,-39 189.5,-19 258,-19 258,-39"/>
<text text-anchor="middle" x="223.75" y="-25.5" font-family="Helvetica,sans-Serif" font-size="10.00">interpolation</text>
</a>
</g>
</g>
<!-- Node1&#45;&gt;Node3 -->
<g id="edge5_Node000001_Node000003" class="edge">
<title>Node1&#45;&gt;Node3</title>
<g id="a_edge5_Node000001_Node000003"><a xlink:title=" ">
<path fill="none" stroke="#63b8ff" d="M58.1,-7.87C83.23,-6.48 120.99,-5.62 153.5,-10 162.45,-11.21 171.88,-13.25 180.79,-15.56"/>
<polygon fill="#63b8ff" stroke="#63b8ff" points="179.72,-18.89 190.29,-18.19 181.58,-12.15 179.72,-18.89"/>
</a>
</g>
</g>
<!-- Node2&#45;&gt;Node3 -->
<g id="edge2_Node000002_Node000003" class="edge">
<title>Node2&#45;&gt;Node3</title>
<g id="a_edge2_Node000002_Node000003"><a xlink:title=" ">
<path fill="none" stroke="#63b8ff" d="M153.89,-22.77C161.4,-22.35 169.67,-22.19 177.79,-22.27"/>
<polygon fill="#63b8ff" stroke="#63b8ff" points="177.48,-25.76 187.56,-22.51 177.65,-18.77 177.48,-25.76"/>
</a>
</g>
</g>
<!-- Node3&#45;&gt;Node2 -->
<g id="edge3_Node000003_Node000002" class="edge">
<title>Node3&#45;&gt;Node2</title>
<g id="a_edge3_Node000003_Node000002"><a xlink:title=" ">
<path fill="none" stroke="#63b8ff" d="M189.07,-35.45C181.38,-35.76 173.14,-35.83 165.2,-35.66"/>
<polygon fill="#63b8ff" stroke="#63b8ff" points="165.53,-32.17 155.4,-35.29 165.26,-39.16 165.53,-32.17"/>
</a>
</g>
</g>
<!-- Node3&#45;&gt;Node3 -->
<g id="edge4_Node000003_Node000003" class="edge">
<title>Node3&#45;&gt;Node3</title>
<g id="a_edge4_Node000003_Node000003"><a xlink:title=" ">
<path fill="none" stroke="#63b8ff" d="M207.86,-39.34C201.07,-47.98 206.37,-57 223.75,-57 233.26,-57 239.15,-54.3 241.42,-50.44"/>
<polygon fill="#63b8ff" stroke="#63b8ff" points="244.92,-50.15 239.88,-40.83 238.01,-51.26 244.92,-50.15"/>
</a>
</g>
</g>
</g>
</svg>
