<?xml version="1.0" encoding="UTF-8" standalone="no"?>
<!DOCTYPE svg PUBLIC "-//W3C//DTD SVG 1.1//EN"
 "http://www.w3.org/Graphics/SVG/1.1/DTD/svg11.dtd">
<!-- Generated by graphviz version 10.0.1 (20240210.2158)
 -->
<!-- Title: Polaire::Polaire Pages: 1 -->
<svg width="419pt" height="47pt"
 viewBox="0.00 0.00 419.25 47.00" xmlns="http://www.w3.org/2000/svg" xmlns:xlink="http://www.w3.org/1999/xlink">
<g id="graph0" class="graph" transform="scale(1 1) rotate(0) translate(4 43)">
<title>Polaire::Polaire</title>
<!-- Node1 -->
<g id="Node000001" class="node">
<title>Node1</title>
<g id="a_Node000001"><a xlink:title=" ">
<polygon fill="#999999" stroke="#666666" points="82,-20 0,-20 0,0 82,0 82,-20"/>
<text text-anchor="middle" x="41" y="-6.5" font-family="Helvetica,sans-Serif" font-size="10.00">Polaire::Polaire</text>
</a>
</g>
</g>
<!-- Node2 -->
<g id="Node000002" class="node">
<title>Node2</title>
<g id="a_Node000002"><a xlink:href="_fonction__csv_8hpp.html#acb83c881d2df277e9834118afdc4be8e" target="_top" xlink:title=" ">
<polygon fill="white" stroke="#666666" points="211.25,-39 118,-39 118,-19 211.25,-19 211.25,-39"/>
<text text-anchor="middle" x="164.62" y="-25.5" font-family="Helvetica,sans-Serif" font-size="10.00">fichier_vers_string</text>
</a>
</g>
</g>
<!-- Node1&#45;&gt;Node2 -->
<g id="edge1_Node000001_Node000002" class="edge">
<title>Node1&#45;&gt;Node2</title>
<g id="a_edge1_Node000001_Node000002"><a xlink:title=" ">
<path fill="none" stroke="#63b8ff" d="M82.5,-16.33C90.2,-17.53 98.4,-18.81 106.5,-20.08"/>
<polygon fill="#63b8ff" stroke="#63b8ff" points="105.93,-23.53 116.35,-21.61 107.01,-16.61 105.93,-23.53"/>
</a>
</g>
</g>
<!-- Node3 -->
<g id="Node000003" class="node">
<title>Node3</title>
<g id="a_Node000003"><a xlink:href="_fonction__externes_8hpp.html#a8bf9651680a69ef9b57e88861dbc2b7c" target="_top" xlink:title=" ">
<polygon fill="white" stroke="#666666" points="315.75,-20 247.25,-20 247.25,0 315.75,0 315.75,-20"/>
<text text-anchor="middle" x="281.5" y="-6.5" font-family="Helvetica,sans-Serif" font-size="10.00">interpolation</text>
</a>
</g>
</g>
<!-- Node1&#45;&gt;Node3 -->
<g id="edge6_Node000001_Node000003" class="edge">
<title>Node1&#45;&gt;Node3</title>
<g id="a_edge6_Node000001_Node000003"><a xlink:title=" ">
<path fill="none" stroke="#63b8ff" d="M82.46,-10C124.91,-10 191.49,-10 235.55,-10"/>
<polygon fill="#63b8ff" stroke="#63b8ff" points="235.28,-13.5 245.28,-10 235.28,-6.5 235.28,-13.5"/>
</a>
</g>
</g>
<!-- Node2&#45;&gt;Node3 -->
<g id="edge2_Node000002_Node000003" class="edge">
<title>Node2&#45;&gt;Node3</title>
<g id="a_edge2_Node000002_Node000003"><a xlink:title=" ">
<path fill="none" stroke="#63b8ff" d="M211.69,-21.38C219.57,-20.08 227.75,-18.72 235.61,-17.43"/>
<polygon fill="#63b8ff" stroke="#63b8ff" points="236.02,-20.91 245.31,-15.82 234.87,-14 236.02,-20.91"/>
</a>
</g>
</g>
<!-- Node3&#45;&gt;Node3 -->
<g id="edge5_Node000003_Node000003" class="edge">
<title>Node3&#45;&gt;Node3</title>
<g id="a_edge5_Node000003_Node000003"><a xlink:title=" ">
<path fill="none" stroke="#63b8ff" d="M265.61,-20.34C258.82,-28.98 264.12,-38 281.5,-38 291.01,-38 296.9,-35.3 299.17,-31.44"/>
<polygon fill="#63b8ff" stroke="#63b8ff" points="302.67,-31.15 297.63,-21.83 295.76,-32.26 302.67,-31.15"/>
</a>
</g>
</g>
<!-- Node4 -->
<g id="Node000004" class="node">
<title>Node4</title>
<g id="a_Node000004"><a xlink:href="class_grille.html#a55235882a3d7897067449ef76fb64287" target="_top" xlink:title=" ">
<polygon fill="white" stroke="#666666" points="411.25,-20 351.75,-20 351.75,0 411.25,0 411.25,-20"/>
<text text-anchor="middle" x="381.5" y="-6.5" font-family="Helvetica,sans-Serif" font-size="10.00">Grille::find</text>
</a>
</g>
</g>
<!-- Node3&#45;&gt;Node4 -->
<g id="edge3_Node000003_Node000004" class="edge">
<title>Node3&#45;&gt;Node4</title>
<g id="a_edge3_Node000003_Node000004"><a xlink:title=" ">
<path fill="none" stroke="#63b8ff" d="M316.23,-3.55C323.89,-3.24 332.11,-3.17 340.02,-3.34"/>
<polygon fill="#63b8ff" stroke="#63b8ff" points="339.65,-6.83 349.78,-3.71 339.92,0.16 339.65,-6.83"/>
</a>
</g>
</g>
<!-- Node4&#45;&gt;Node3 -->
<g id="edge4_Node000004_Node000003" class="edge">
<title>Node4&#45;&gt;Node3</title>
<g id="a_edge4_Node000004_Node000003"><a xlink:title=" ">
<path fill="none" stroke="#63b8ff" d="M351.29,-16.23C343.8,-16.65 335.56,-16.81 327.47,-16.73"/>
<polygon fill="#63b8ff" stroke="#63b8ff" points="327.82,-13.24 317.74,-16.49 327.65,-20.24 327.82,-13.24"/>
</a>
</g>
</g>
</g>
</svg>
