<?xml version="1.0" encoding="UTF-8" standalone="no"?>
<!DOCTYPE svg PUBLIC "-//W3C//DTD SVG 1.1//EN"
 "http://www.w3.org/Graphics/SVG/1.1/DTD/svg11.dtd">
<!-- Generated by graphviz version 10.0.1 (20240210.2158)
 -->
<!-- Title: Vecteur::operator/= Pages: 1 -->
<svg width="308pt" height="46pt"
 viewBox="0.00 0.00 308.00 46.00" xmlns="http://www.w3.org/2000/svg" xmlns:xlink="http://www.w3.org/1999/xlink">
<g id="graph0" class="graph" transform="scale(1 1) rotate(0) translate(4 42)">
<title>Vecteur::operator/=</title>
<!-- Node1 -->
<g id="Node000001" class="node">
<title>Node1</title>
<g id="a_Node000001"><a xlink:title=" ">
<polygon fill="#999999" stroke="#666666" points="100,-20 0,-20 0,0 100,0 100,-20"/>
<text text-anchor="middle" x="50" y="-6.5" font-family="Helvetica,sans-Serif" font-size="10.00">Vecteur::operator/=</text>
</a>
</g>
</g>
<!-- Node2 -->
<g id="Node000002" class="node">
<title>Node2</title>
<g id="a_Node000002"><a xlink:href="_fonction__externes_8hpp.html#a8bf9651680a69ef9b57e88861dbc2b7c" target="_top" xlink:title=" ">
<polygon fill="white" stroke="#666666" points="204.5,-20 136,-20 136,0 204.5,0 204.5,-20"/>
<text text-anchor="middle" x="170.25" y="-6.5" font-family="Helvetica,sans-Serif" font-size="10.00">interpolation</text>
</a>
</g>
</g>
<!-- Node1&#45;&gt;Node2 -->
<g id="edge1_Node000001_Node000002" class="edge">
<title>Node1&#45;&gt;Node2</title>
<g id="a_edge1_Node000001_Node000002"><a xlink:title=" ">
<path fill="none" stroke="#63b8ff" d="M100.46,-10C108.36,-10 116.5,-10 124.29,-10"/>
<polygon fill="#63b8ff" stroke="#63b8ff" points="124.26,-13.5 134.26,-10 124.26,-6.5 124.26,-13.5"/>
</a>
</g>
</g>
<!-- Node2&#45;&gt;Node2 -->
<g id="edge4_Node000002_Node000002" class="edge">
<title>Node2&#45;&gt;Node2</title>
<g id="a_edge4_Node000002_Node000002"><a xlink:title=" ">
<path fill="none" stroke="#63b8ff" d="M154.36,-20.34C147.57,-28.98 152.87,-38 170.25,-38 179.76,-38 185.65,-35.3 187.92,-31.44"/>
<polygon fill="#63b8ff" stroke="#63b8ff" points="191.42,-31.15 186.38,-21.83 184.51,-32.26 191.42,-31.15"/>
</a>
</g>
</g>
<!-- Node3 -->
<g id="Node000003" class="node">
<title>Node3</title>
<g id="a_Node000003"><a xlink:href="class_grille.html#a55235882a3d7897067449ef76fb64287" target="_top" xlink:title=" ">
<polygon fill="white" stroke="#666666" points="300,-20 240.5,-20 240.5,0 300,0 300,-20"/>
<text text-anchor="middle" x="270.25" y="-6.5" font-family="Helvetica,sans-Serif" font-size="10.00">Grille::find</text>
</a>
</g>
</g>
<!-- Node2&#45;&gt;Node3 -->
<g id="edge2_Node000002_Node000003" class="edge">
<title>Node2&#45;&gt;Node3</title>
<g id="a_edge2_Node000002_Node000003"><a xlink:title=" ">
<path fill="none" stroke="#63b8ff" d="M204.98,-3.55C212.64,-3.24 220.86,-3.17 228.77,-3.34"/>
<polygon fill="#63b8ff" stroke="#63b8ff" points="228.4,-6.83 238.53,-3.71 228.67,0.16 228.4,-6.83"/>
</a>
</g>
</g>
<!-- Node3&#45;&gt;Node2 -->
<g id="edge3_Node000003_Node000002" class="edge">
<title>Node3&#45;&gt;Node2</title>
<g id="a_edge3_Node000003_Node000002"><a xlink:title=" ">
<path fill="none" stroke="#63b8ff" d="M240.04,-16.23C232.55,-16.65 224.31,-16.81 216.22,-16.73"/>
<polygon fill="#63b8ff" stroke="#63b8ff" points="216.57,-13.24 206.49,-16.49 216.4,-20.24 216.57,-13.24"/>
</a>
</g>
</g>
</g>
</svg>
