<?xml version="1.0" encoding="UTF-8" standalone="no"?>
<!DOCTYPE svg PUBLIC "-//W3C//DTD SVG 1.1//EN"
 "http://www.w3.org/Graphics/SVG/1.1/DTD/svg11.dtd">
<!-- Generated by graphviz version 10.0.1 (20240210.2158)
 -->
<!-- Title: HJB::resolve Pages: 1 -->
<svg width="743pt" height="312pt"
 viewBox="0.00 0.00 742.50 312.00" xmlns="http://www.w3.org/2000/svg" xmlns:xlink="http://www.w3.org/1999/xlink">
<g id="graph0" class="graph" transform="scale(1 1) rotate(0) translate(4 308)">
<title>HJB::resolve</title>
<!-- Node1 -->
<g id="Node000001" class="node">
<title>Node1</title>
<g id="a_Node000001"><a xlink:title=" ">
<polygon fill="#999999" stroke="#666666" points="70,-219 0,-219 0,-199 70,-199 70,-219"/>
<text text-anchor="middle" x="35" y="-205.5" font-family="Helvetica,sans-Serif" font-size="10.00">HJB::resolve</text>
</a>
</g>
</g>
<!-- Node2 -->
<g id="Node000002" class="node">
<title>Node2</title>
<g id="a_Node000002"><a xlink:href="class_flux.html#a0e09e357e05a7ed45322618393c6f2bd" target="_top" xlink:title=" ">
<polygon fill="white" stroke="#666666" points="172.25,-200 106,-200 106,-180 172.25,-180 172.25,-200"/>
<text text-anchor="middle" x="139.12" y="-186.5" font-family="Helvetica,sans-Serif" font-size="10.00">Flux::calcul</text>
</a>
</g>
</g>
<!-- Node1&#45;&gt;Node2 -->
<g id="edge1_Node000001_Node000002" class="edge">
<title>Node1&#45;&gt;Node2</title>
<g id="a_edge1_Node000001_Node000002"><a xlink:title=" ">
<path fill="none" stroke="#63b8ff" d="M70.29,-202.62C78.09,-201.17 86.47,-199.61 94.6,-198.1"/>
<polygon fill="#63b8ff" stroke="#63b8ff" points="95.14,-201.56 104.34,-196.29 93.86,-194.67 95.14,-201.56"/>
</a>
</g>
</g>
<!-- Node5 -->
<g id="Node000005" class="node">
<title>Node5</title>
<g id="a_Node000005"><a xlink:href="_fonction__externes_8hpp.html#a8bf9651680a69ef9b57e88861dbc2b7c" target="_top" xlink:title=" ">
<polygon fill="white" stroke="#666666" points="639,-162 570.5,-162 570.5,-142 639,-142 639,-162"/>
<text text-anchor="middle" x="604.75" y="-148.5" font-family="Helvetica,sans-Serif" font-size="10.00">interpolation</text>
</a>
</g>
</g>
<!-- Node1&#45;&gt;Node5 -->
<g id="edge21_Node000001_Node000005" class="edge">
<title>Node1&#45;&gt;Node5</title>
<g id="a_edge21_Node000001_Node000005"><a xlink:title=" ">
<path fill="none" stroke="#63b8ff" d="M49.02,-219.17C81.76,-243.67 170.96,-304 255.75,-304 255.75,-304 255.75,-304 376.12,-304 450.49,-304 474.94,-294.54 534.5,-250 562.06,-229.39 582.89,-194.57 594.2,-172.46"/>
<polygon fill="#63b8ff" stroke="#63b8ff" points="597.3,-174.08 598.56,-163.56 591.02,-171 597.3,-174.08"/>
</a>
</g>
</g>
<!-- Node3 -->
<g id="Node000003" class="node">
<title>Node3</title>
<g id="a_Node000003"><a xlink:href="class_dynamique__voile.html#a4a6c57e20d6b4f6f2775ee79d6bedf0f" target="_top" xlink:title=" ">
<polygon fill="white" stroke="#666666" points="305.25,-143 208.25,-143 208.25,-123 305.25,-123 305.25,-143"/>
<text text-anchor="middle" x="256.75" y="-129.5" font-family="Helvetica,sans-Serif" font-size="10.00">Dynamique_voile::f</text>
</a>
</g>
</g>
<!-- Node2&#45;&gt;Node3 -->
<g id="edge2_Node000002_Node000003" class="edge">
<title>Node2&#45;&gt;Node3</title>
<g id="a_edge2_Node000002_Node000003"><a xlink:title=" ">
<path fill="none" stroke="#63b8ff" d="M161.33,-179.55C179.02,-170.83 204.46,-158.28 224.48,-148.41"/>
<polygon fill="#63b8ff" stroke="#63b8ff" points="225.9,-151.62 233.32,-144.06 222.8,-145.34 225.9,-151.62"/>
</a>
</g>
</g>
<!-- Node2&#45;&gt;Node5 -->
<g id="edge20_Node000002_Node000005" class="edge">
<title>Node2&#45;&gt;Node5</title>
<g id="a_edge20_Node000002_Node000005"><a xlink:title=" ">
<path fill="none" stroke="#63b8ff" d="M165.48,-200.46C230.18,-225.47 405.42,-282.6 534.5,-226 559.69,-214.95 579.94,-189.81 591.89,-171.9"/>
<polygon fill="#63b8ff" stroke="#63b8ff" points="594.73,-173.95 597.13,-163.63 588.82,-170.2 594.73,-173.95"/>
</a>
</g>
</g>
<!-- Node6 -->
<g id="Node000006" class="node">
<title>Node6</title>
<g id="a_Node000006"><a xlink:href="class_grille.html#a55235882a3d7897067449ef76fb64287" target="_top" xlink:title=" ">
<polygon fill="white" stroke="#666666" points="734.5,-162 675,-162 675,-142 734.5,-142 734.5,-162"/>
<text text-anchor="middle" x="704.75" y="-148.5" font-family="Helvetica,sans-Serif" font-size="10.00">Grille::find</text>
</a>
</g>
</g>
<!-- Node2&#45;&gt;Node6 -->
<g id="edge19_Node000002_Node000006" class="edge">
<title>Node2&#45;&gt;Node6</title>
<g id="a_edge19_Node000002_Node000006"><a xlink:title=" ">
<path fill="none" stroke="#63b8ff" d="M146.03,-179.51C169.34,-139.68 259.26,0 374.12,0 374.12,0 374.12,0 490.75,0 580.79,0 659.09,-91.11 689.85,-132.26"/>
<polygon fill="#63b8ff" stroke="#63b8ff" points="687.02,-134.31 695.73,-140.33 692.67,-130.19 687.02,-134.31"/>
</a>
</g>
</g>
<!-- Node4 -->
<g id="Node000004" class="node">
<title>Node4</title>
<g id="a_Node000004"><a xlink:href="_fonction__externes_8hpp.html#aaee29cb287929b30dcc528e78183ad83" target="_top" xlink:title=" ">
<polygon fill="white" stroke="#666666" points="394.75,-162 355.5,-162 355.5,-142 394.75,-142 394.75,-162"/>
<text text-anchor="middle" x="375.12" y="-148.5" font-family="Helvetica,sans-Serif" font-size="10.00">angle</text>
</a>
</g>
</g>
<!-- Node3&#45;&gt;Node4 -->
<g id="edge3_Node000003_Node000004" class="edge">
<title>Node3&#45;&gt;Node4</title>
<g id="a_edge3_Node000003_Node000004"><a xlink:title=" ">
<path fill="none" stroke="#63b8ff" d="M305.42,-140.78C318.51,-142.92 332.33,-145.18 344.12,-147.1"/>
<polygon fill="#63b8ff" stroke="#63b8ff" points="343.2,-150.5 353.63,-148.65 344.33,-143.59 343.2,-150.5"/>
</a>
</g>
</g>
<!-- Node3&#45;&gt;Node5 -->
<g id="edge16_Node000003_Node000005" class="edge">
<title>Node3&#45;&gt;Node5</title>
<g id="a_edge16_Node000003_Node000005"><a xlink:title=" ">
<path fill="none" stroke="#63b8ff" d="M305.46,-131.81C335.25,-131.37 374.38,-131.32 409,-133 460.46,-135.5 519.31,-141.71 558.72,-146.35"/>
<polygon fill="#63b8ff" stroke="#63b8ff" points="558.2,-149.82 568.54,-147.53 559.03,-142.87 558.2,-149.82"/>
</a>
</g>
</g>
<!-- Node8 -->
<g id="Node000008" class="node">
<title>Node8</title>
<g id="a_Node000008"><a xlink:href="_fonction__externes_8hpp.html#ae0695e70efed4cbd92fba2e3029dc528" target="_top" xlink:title=" ">
<polygon fill="white" stroke="#666666" points="409,-200 341.25,-200 341.25,-180 409,-180 409,-200"/>
<text text-anchor="middle" x="375.12" y="-186.5" font-family="Helvetica,sans-Serif" font-size="10.00">angle_relatif</text>
</a>
</g>
</g>
<!-- Node3&#45;&gt;Node8 -->
<g id="edge10_Node000003_Node000008" class="edge">
<title>Node3&#45;&gt;Node8</title>
<g id="a_edge10_Node000003_Node000008"><a xlink:title=" ">
<path fill="none" stroke="#63b8ff" d="M279.09,-143.45C296.89,-152.17 322.51,-164.72 342.66,-174.59"/>
<polygon fill="#63b8ff" stroke="#63b8ff" points="341.04,-177.69 351.56,-178.95 344.12,-171.4 341.04,-177.69"/>
</a>
</g>
</g>
<!-- Node9 -->
<g id="Node000009" class="node">
<title>Node9</title>
<g id="a_Node000009"><a xlink:href="_fonction__externes_8hpp.html#a1ebdc2a1af6cd0b37eb88f47efd98926" target="_top" xlink:title=" ">
<polygon fill="white" stroke="#666666" points="534.5,-86 445,-86 445,-66 534.5,-66 534.5,-86"/>
<text text-anchor="middle" x="489.75" y="-72.5" font-family="Helvetica,sans-Serif" font-size="10.00">controle_position</text>
</a>
</g>
</g>
<!-- Node3&#45;&gt;Node9 -->
<g id="edge14_Node000003_Node000009" class="edge">
<title>Node3&#45;&gt;Node9</title>
<g id="a_edge14_Node000003_Node000009"><a xlink:title=" ">
<path fill="none" stroke="#63b8ff" d="M280.33,-122.54C296.88,-115.26 320.06,-105.84 341.25,-100 371.26,-91.73 405.53,-85.94 433.49,-82.12"/>
<polygon fill="#63b8ff" stroke="#63b8ff" points="433.69,-85.63 443.15,-80.85 432.78,-78.69 433.69,-85.63"/>
</a>
</g>
</g>
<!-- Node10 -->
<g id="Node000010" class="node">
<title>Node10</title>
<g id="a_Node000010"><a xlink:href="class_voilier.html#a809fae1f38f08e604bc07fc28a9e71e5" target="_top" xlink:title=" ">
<polygon fill="white" stroke="#666666" points="522.88,-48 456.62,-48 456.62,-28 522.88,-28 522.88,-48"/>
<text text-anchor="middle" x="489.75" y="-34.5" font-family="Helvetica,sans-Serif" font-size="10.00">Voilier::V_b</text>
</a>
</g>
</g>
<!-- Node3&#45;&gt;Node10 -->
<g id="edge17_Node000003_Node000010" class="edge">
<title>Node3&#45;&gt;Node10</title>
<g id="a_edge17_Node000003_Node000010"><a xlink:title=" ">
<path fill="none" stroke="#63b8ff" d="M272.2,-122.57C288.36,-111.3 315.65,-93.41 341.25,-82 375.02,-66.96 415.36,-55.32 445.31,-47.81"/>
<polygon fill="#63b8ff" stroke="#63b8ff" points="445.89,-51.27 454.77,-45.49 444.23,-44.47 445.89,-51.27"/>
</a>
</g>
</g>
<!-- Node4&#45;&gt;Node5 -->
<g id="edge4_Node000004_Node000005" class="edge">
<title>Node4&#45;&gt;Node5</title>
<g id="a_edge4_Node000004_Node000005"><a xlink:title=" ">
<path fill="none" stroke="#63b8ff" d="M395.14,-152C430.85,-152 508.83,-152 558.67,-152"/>
<polygon fill="#63b8ff" stroke="#63b8ff" points="558.57,-155.5 568.57,-152 558.57,-148.5 558.57,-155.5"/>
</a>
</g>
</g>
<!-- Node7 -->
<g id="Node000007" class="node">
<title>Node7</title>
<g id="a_Node000007"><a xlink:href="_fonction__externes_8hpp.html#a1ab31b90bc584c635ec159468ceed9b2" target="_top" xlink:title=" ">
<polygon fill="white" stroke="#666666" points="505.62,-200 473.88,-200 473.88,-180 505.62,-180 505.62,-200"/>
<text text-anchor="middle" x="489.75" y="-186.5" font-family="Helvetica,sans-Serif" font-size="10.00">sgn</text>
</a>
</g>
</g>
<!-- Node4&#45;&gt;Node7 -->
<g id="edge8_Node000004_Node000007" class="edge">
<title>Node4&#45;&gt;Node7</title>
<g id="a_edge8_Node000004_Node000007"><a xlink:title=" ">
<path fill="none" stroke="#63b8ff" d="M395.23,-158.45C413.78,-164.71 442.09,-174.26 462.7,-181.21"/>
<polygon fill="#63b8ff" stroke="#63b8ff" points="461.5,-184.5 472.1,-184.38 463.74,-177.87 461.5,-184.5"/>
</a>
</g>
</g>
<!-- Node5&#45;&gt;Node5 -->
<g id="edge7_Node000005_Node000005" class="edge">
<title>Node5&#45;&gt;Node5</title>
<g id="a_edge7_Node000005_Node000005"><a xlink:title=" ">
<path fill="none" stroke="#63b8ff" d="M588.86,-162.34C582.07,-170.98 587.37,-180 604.75,-180 614.26,-180 620.15,-177.3 622.42,-173.44"/>
<polygon fill="#63b8ff" stroke="#63b8ff" points="625.92,-173.15 620.88,-163.83 619.01,-174.26 625.92,-173.15"/>
</a>
</g>
</g>
<!-- Node5&#45;&gt;Node6 -->
<g id="edge5_Node000005_Node000006" class="edge">
<title>Node5&#45;&gt;Node6</title>
<g id="a_edge5_Node000005_Node000006"><a xlink:title=" ">
<path fill="none" stroke="#63b8ff" d="M639.48,-145.55C647.14,-145.24 655.36,-145.17 663.27,-145.34"/>
<polygon fill="#63b8ff" stroke="#63b8ff" points="662.9,-148.83 673.03,-145.71 663.17,-141.84 662.9,-148.83"/>
</a>
</g>
</g>
<!-- Node6&#45;&gt;Node5 -->
<g id="edge6_Node000006_Node000005" class="edge">
<title>Node6&#45;&gt;Node5</title>
<g id="a_edge6_Node000006_Node000005"><a xlink:title=" ">
<path fill="none" stroke="#63b8ff" d="M674.54,-158.23C667.05,-158.65 658.81,-158.81 650.72,-158.73"/>
<polygon fill="#63b8ff" stroke="#63b8ff" points="651.07,-155.24 640.99,-158.49 650.9,-162.24 651.07,-155.24"/>
</a>
</g>
</g>
<!-- Node7&#45;&gt;Node5 -->
<g id="edge9_Node000007_Node000005" class="edge">
<title>Node7&#45;&gt;Node5</title>
<g id="a_edge9_Node000007_Node000005"><a xlink:title=" ">
<path fill="none" stroke="#63b8ff" d="M505.99,-184.88C520.26,-180.08 542.24,-172.68 561.75,-166.12"/>
<polygon fill="#63b8ff" stroke="#63b8ff" points="562.78,-169.47 571.14,-162.97 560.55,-162.84 562.78,-169.47"/>
</a>
</g>
</g>
<!-- Node8&#45;&gt;Node5 -->
<g id="edge12_Node000008_Node000005" class="edge">
<title>Node8&#45;&gt;Node5</title>
<g id="a_edge12_Node000008_Node000005"><a xlink:title=" ">
<path fill="none" stroke="#63b8ff" d="M403.02,-200.47C435.21,-211.38 490.32,-224.85 534.5,-209 555.9,-201.32 575.42,-183.86 588.24,-170.27"/>
<polygon fill="#63b8ff" stroke="#63b8ff" points="590.54,-172.94 594.63,-163.17 585.34,-168.26 590.54,-172.94"/>
</a>
</g>
</g>
<!-- Node8&#45;&gt;Node7 -->
<g id="edge13_Node000008_Node000007" class="edge">
<title>Node8&#45;&gt;Node7</title>
<g id="a_edge13_Node000008_Node000007"><a xlink:title=" ">
<path fill="none" stroke="#63b8ff" d="M409.31,-190C426.27,-190 446.61,-190 462.47,-190"/>
<polygon fill="#63b8ff" stroke="#63b8ff" points="462.08,-193.5 472.08,-190 462.08,-186.5 462.08,-193.5"/>
</a>
</g>
</g>
<!-- Node8&#45;&gt;Node8 -->
<g id="edge11_Node000008_Node000008" class="edge">
<title>Node8&#45;&gt;Node8</title>
<g id="a_edge11_Node000008_Node000008"><a xlink:title=" ">
<path fill="none" stroke="#63b8ff" d="M356.91,-200.34C349.13,-208.98 355.2,-218 375.12,-218 386.02,-218 392.77,-215.3 395.38,-211.44"/>
<polygon fill="#63b8ff" stroke="#63b8ff" points="398.87,-211.03 393.61,-201.83 391.98,-212.3 398.87,-211.03"/>
</a>
</g>
</g>
<!-- Node9&#45;&gt;Node5 -->
<g id="edge15_Node000009_Node000005" class="edge">
<title>Node9&#45;&gt;Node5</title>
<g id="a_edge15_Node000009_Node000005"><a xlink:title=" ">
<path fill="none" stroke="#63b8ff" d="M511.14,-86.41C518.62,-90.43 527.07,-95.21 534.5,-100 551.07,-110.69 568.84,-124.08 582.23,-134.59"/>
<polygon fill="#63b8ff" stroke="#63b8ff" points="579.93,-137.24 589.94,-140.72 584.29,-131.76 579.93,-137.24"/>
</a>
</g>
</g>
<!-- Node10&#45;&gt;Node5 -->
<g id="edge18_Node000010_Node000005" class="edge">
<title>Node10&#45;&gt;Node5</title>
<g id="a_edge18_Node000010_Node000005"><a xlink:title=" ">
<path fill="none" stroke="#63b8ff" d="M520.68,-48.44C525.56,-50.84 530.36,-53.69 534.5,-57 560.43,-77.77 581.38,-110.52 593.2,-131.63"/>
<polygon fill="#63b8ff" stroke="#63b8ff" points="590.11,-133.28 597.95,-140.42 596.27,-129.96 590.11,-133.28"/>
</a>
</g>
</g>
</g>
</svg>
