<?xml version="1.0" encoding="UTF-8" standalone="no"?>
<!DOCTYPE svg PUBLIC "-//W3C//DTD SVG 1.1//EN"
 "http://www.w3.org/Graphics/SVG/1.1/DTD/svg11.dtd">
<!-- Generated by graphviz version 10.0.1 (20240210.2158)
 -->
<!-- Title: commandes_discretes::check_commandes Pages: 1 -->
<svg width="494pt" height="65pt"
 viewBox="0.00 0.00 493.75 65.00" xmlns="http://www.w3.org/2000/svg" xmlns:xlink="http://www.w3.org/1999/xlink">
<g id="graph0" class="graph" transform="scale(1 1) rotate(0) translate(4 61)">
<title>commandes_discretes::check_commandes</title>
<!-- Node1 -->
<g id="Node000001" class="node">
<title>Node1</title>
<g id="a_Node000001"><a xlink:title=" ">
<polygon fill="#999999" stroke="#666666" points="114.25,-45 0,-45 0,-13 114.25,-13 114.25,-45"/>
<text text-anchor="start" x="8" y="-31.5" font-family="Helvetica,sans-Serif" font-size="10.00">commandes_discretes</text>
<text text-anchor="middle" x="57.12" y="-19.5" font-family="Helvetica,sans-Serif" font-size="10.00">::check_commandes</text>
</a>
</g>
</g>
<!-- Node2 -->
<g id="Node000002" class="node">
<title>Node2</title>
<g id="a_Node000002"><a xlink:href="_fonction__externes_8hpp.html#ae0695e70efed4cbd92fba2e3029dc528" target="_top" xlink:title=" ">
<polygon fill="white" stroke="#666666" points="218,-39 150.25,-39 150.25,-19 218,-19 218,-39"/>
<text text-anchor="middle" x="184.12" y="-25.5" font-family="Helvetica,sans-Serif" font-size="10.00">angle_relatif</text>
</a>
</g>
</g>
<!-- Node1&#45;&gt;Node2 -->
<g id="edge1_Node000001_Node000002" class="edge">
<title>Node1&#45;&gt;Node2</title>
<g id="a_edge1_Node000001_Node000002"><a xlink:title=" ">
<path fill="none" stroke="#63b8ff" d="M114.41,-29C122.5,-29 130.73,-29 138.55,-29"/>
<polygon fill="#63b8ff" stroke="#63b8ff" points="138.52,-32.5 148.52,-29 138.52,-25.5 138.52,-32.5"/>
</a>
</g>
</g>
<!-- Node2&#45;&gt;Node2 -->
<g id="edge2_Node000002_Node000002" class="edge">
<title>Node2&#45;&gt;Node2</title>
<g id="a_edge2_Node000002_Node000002"><a xlink:title=" ">
<path fill="none" stroke="#63b8ff" d="M170.5,-39.34C164.68,-47.98 169.22,-57 184.12,-57 192.04,-57 197.04,-54.45 199.11,-50.77"/>
<polygon fill="#63b8ff" stroke="#63b8ff" points="202.58,-50.36 197.93,-40.84 195.63,-51.18 202.58,-50.36"/>
</a>
</g>
</g>
<!-- Node3 -->
<g id="Node000003" class="node">
<title>Node3</title>
<g id="a_Node000003"><a xlink:href="_fonction__externes_8hpp.html#a8bf9651680a69ef9b57e88861dbc2b7c" target="_top" xlink:title=" ">
<polygon fill="white" stroke="#666666" points="390.25,-39 321.75,-39 321.75,-19 390.25,-19 390.25,-39"/>
<text text-anchor="middle" x="356" y="-25.5" font-family="Helvetica,sans-Serif" font-size="10.00">interpolation</text>
</a>
</g>
</g>
<!-- Node2&#45;&gt;Node3 -->
<g id="edge3_Node000002_Node000003" class="edge">
<title>Node2&#45;&gt;Node3</title>
<g id="a_edge3_Node000002_Node000003"><a xlink:title=" ">
<path fill="none" stroke="#63b8ff" d="M218.28,-29C244.42,-29 281.14,-29 309.94,-29"/>
<polygon fill="#63b8ff" stroke="#63b8ff" points="309.83,-32.5 319.83,-29 309.83,-25.5 309.83,-32.5"/>
</a>
</g>
</g>
<!-- Node5 -->
<g id="Node000005" class="node">
<title>Node5</title>
<g id="a_Node000005"><a xlink:href="_fonction__externes_8hpp.html#a1ab31b90bc584c635ec159468ceed9b2" target="_top" xlink:title=" ">
<polygon fill="white" stroke="#666666" points="285.75,-20 254,-20 254,0 285.75,0 285.75,-20"/>
<text text-anchor="middle" x="269.88" y="-6.5" font-family="Helvetica,sans-Serif" font-size="10.00">sgn</text>
</a>
</g>
</g>
<!-- Node2&#45;&gt;Node5 -->
<g id="edge7_Node000002_Node000005" class="edge">
<title>Node2&#45;&gt;Node5</title>
<g id="a_edge7_Node000002_Node000005"><a xlink:title=" ">
<path fill="none" stroke="#63b8ff" d="M218.23,-21.49C226.36,-19.64 234.96,-17.69 242.72,-15.93"/>
<polygon fill="#63b8ff" stroke="#63b8ff" points="243.22,-19.41 252.2,-13.78 241.68,-12.58 243.22,-19.41"/>
</a>
</g>
</g>
<!-- Node3&#45;&gt;Node3 -->
<g id="edge6_Node000003_Node000003" class="edge">
<title>Node3&#45;&gt;Node3</title>
<g id="a_edge6_Node000003_Node000003"><a xlink:title=" ">
<path fill="none" stroke="#63b8ff" d="M342.32,-39.34C336.47,-47.98 341.03,-57 356,-57 363.95,-57 368.97,-54.45 371.05,-50.77"/>
<polygon fill="#63b8ff" stroke="#63b8ff" points="374.52,-50.36 369.86,-40.84 367.57,-51.19 374.52,-50.36"/>
</a>
</g>
</g>
<!-- Node4 -->
<g id="Node000004" class="node">
<title>Node4</title>
<g id="a_Node000004"><a xlink:href="class_grille.html#a55235882a3d7897067449ef76fb64287" target="_top" xlink:title=" ">
<polygon fill="white" stroke="#666666" points="485.75,-39 426.25,-39 426.25,-19 485.75,-19 485.75,-39"/>
<text text-anchor="middle" x="456" y="-25.5" font-family="Helvetica,sans-Serif" font-size="10.00">Grille::find</text>
</a>
</g>
</g>
<!-- Node3&#45;&gt;Node4 -->
<g id="edge4_Node000003_Node000004" class="edge">
<title>Node3&#45;&gt;Node4</title>
<g id="a_edge4_Node000003_Node000004"><a xlink:title=" ">
<path fill="none" stroke="#63b8ff" d="M390.73,-22.55C398.39,-22.24 406.61,-22.17 414.52,-22.34"/>
<polygon fill="#63b8ff" stroke="#63b8ff" points="414.15,-25.83 424.28,-22.71 414.42,-18.84 414.15,-25.83"/>
</a>
</g>
</g>
<!-- Node4&#45;&gt;Node3 -->
<g id="edge5_Node000004_Node000003" class="edge">
<title>Node4&#45;&gt;Node3</title>
<g id="a_edge5_Node000004_Node000003"><a xlink:title=" ">
<path fill="none" stroke="#63b8ff" d="M425.79,-35.23C418.3,-35.65 410.06,-35.81 401.97,-35.73"/>
<polygon fill="#63b8ff" stroke="#63b8ff" points="402.32,-32.24 392.24,-35.49 402.15,-39.24 402.32,-32.24"/>
</a>
</g>
</g>
<!-- Node5&#45;&gt;Node3 -->
<g id="edge8_Node000005_Node000003" class="edge">
<title>Node5&#45;&gt;Node3</title>
<g id="a_edge8_Node000005_Node000003"><a xlink:title=" ">
<path fill="none" stroke="#63b8ff" d="M285.91,-13.4C292.83,-14.96 301.43,-16.9 310.19,-18.88"/>
<polygon fill="#63b8ff" stroke="#63b8ff" points="309.25,-22.26 319.78,-21.04 310.79,-15.43 309.25,-22.26"/>
</a>
</g>
</g>
</g>
</svg>
