<?xml version="1.0" encoding="UTF-8" standalone="no"?>
<!DOCTYPE svg PUBLIC "-//W3C//DTD SVG 1.1//EN"
 "http://www.w3.org/Graphics/SVG/1.1/DTD/svg11.dtd">
<!-- Generated by graphviz version 10.0.1 (20240210.2158)
 -->
<!-- Title: Commande Pages: 1 -->
<svg width="237pt" height="153pt"
 viewBox="0.00 0.00 236.75 153.00" xmlns="http://www.w3.org/2000/svg" xmlns:xlink="http://www.w3.org/1999/xlink">
<g id="graph0" class="graph" transform="scale(1 1) rotate(0) translate(4 149)">
<title>Commande</title>
<!-- Node1 -->
<g id="Node000001" class="node">
<title>Node1</title>
<g id="a_Node000001"><a xlink:title=" ">
<polygon fill="#999999" stroke="#666666" points="127.5,-20 62,-20 62,0 127.5,0 127.5,-20"/>
<text text-anchor="middle" x="94.75" y="-6.5" font-family="Helvetica,sans-Serif" font-size="10.00">Commande</text>
</a>
</g>
</g>
<!-- Node2 -->
<g id="Node000002" class="node">
<title>Node2</title>
<g id="a_Node000002"><a xlink:href="class_foncteur__commande.html" target="_top" xlink:title=" ">
<polygon fill="white" stroke="#666666" points="107.5,-88 0,-88 0,-68 107.5,-68 107.5,-88"/>
<text text-anchor="middle" x="53.75" y="-74.5" font-family="Helvetica,sans-Serif" font-size="10.00">Foncteur_commande</text>
</a>
</g>
</g>
<!-- Node2&#45;&gt;Node1 -->
<g id="edge1_Node000001_Node000002" class="edge">
<title>Node2&#45;&gt;Node1</title>
<g id="a_edge1_Node000001_Node000002"><a xlink:title=" ">
<path fill="none" stroke="#9a32cd" stroke-dasharray="5,2" d="M61.3,-57.17C64.06,-50.84 67.45,-43.94 71.25,-38 75.27,-31.72 80.68,-25.39 85.3,-20.44"/>
<polygon fill="#9a32cd" stroke="#9a32cd" points="58.15,-55.64 57.63,-66.22 64.63,-58.27 58.15,-55.64"/>
</a>
</g>
<text text-anchor="middle" x="101" y="-40.5" font-family="Helvetica,sans-Serif" font-size="10.00" fill="grey"> commande_f</text>
</g>
<!-- Node3 -->
<g id="Node000003" class="node">
<title>Node3</title>
<g id="a_Node000003"><a xlink:href="class_vecteur.html" target="_top" xlink:title=" ">
<polygon fill="white" stroke="#666666" points="211.62,-88 125.88,-88 125.88,-68 211.62,-68 211.62,-88"/>
<text text-anchor="middle" x="168.75" y="-74.5" font-family="Helvetica,sans-Serif" font-size="10.00">Vecteur&lt; float &gt;</text>
</a>
</g>
</g>
<!-- Node3&#45;&gt;Node1 -->
<g id="edge2_Node000001_Node000003" class="edge">
<title>Node3&#45;&gt;Node1</title>
<g id="a_edge2_Node000001_Node000003"><a xlink:title=" ">
<path fill="none" stroke="#9a32cd" stroke-dasharray="5,2" d="M152.29,-59.6C145.5,-52.67 137.44,-44.76 129.75,-38 122.72,-31.82 114.44,-25.4 107.7,-20.37"/>
<polygon fill="#9a32cd" stroke="#9a32cd" points="149.57,-61.82 159.03,-66.59 154.61,-56.96 149.57,-61.82"/>
</a>
</g>
<text text-anchor="middle" x="185.25" y="-40.5" font-family="Helvetica,sans-Serif" font-size="10.00" fill="grey"> vecteur_commande</text>
</g>
<!-- Node4 -->
<g id="Node000004" class="node">
<title>Node4</title>
<g id="a_Node000004"><a xlink:title=" ">
<polygon fill="white" stroke="#666666" points="209,-145 128.5,-145 128.5,-125 209,-125 209,-145"/>
<text text-anchor="middle" x="168.75" y="-131.5" font-family="Helvetica,sans-Serif" font-size="10.00">vector&lt; float &#160;&gt;</text>
</a>
</g>
</g>
<!-- Node4&#45;&gt;Node3 -->
<g id="edge3_Node000003_Node000004" class="edge">
<title>Node4&#45;&gt;Node3</title>
<g id="a_edge3_Node000003_Node000004"><a xlink:title=" ">
<path fill="none" stroke="#63b8ff" d="M168.75,-113.69C168.75,-104.97 168.75,-95.22 168.75,-88.28"/>
<polygon fill="#63b8ff" stroke="#63b8ff" points="165.25,-113.4 168.75,-123.4 172.25,-113.4 165.25,-113.4"/>
</a>
</g>
</g>
</g>
</svg>
