<?xml version="1.0" encoding="UTF-8" standalone="no"?>
<!DOCTYPE svg PUBLIC "-//W3C//DTD SVG 1.1//EN"
 "http://www.w3.org/Graphics/SVG/1.1/DTD/svg11.dtd">
<!-- Generated by graphviz version 10.0.1 (20240210.2158)
 -->
<!-- Title: route_optimale::calcul_n Pages: 1 -->
<svg width="459pt" height="65pt"
 viewBox="0.00 0.00 459.00 65.00" xmlns="http://www.w3.org/2000/svg" xmlns:xlink="http://www.w3.org/1999/xlink">
<g id="graph0" class="graph" transform="scale(1 1) rotate(0) translate(4 61)">
<title>route_optimale::calcul_n</title>
<!-- Node1 -->
<g id="Node000001" class="node">
<title>Node1</title>
<g id="a_Node000001"><a xlink:title=" ">
<polygon fill="#999999" stroke="#666666" points="121.75,-39 0,-39 0,-19 121.75,-19 121.75,-39"/>
<text text-anchor="middle" x="60.88" y="-25.5" font-family="Helvetica,sans-Serif" font-size="10.00">route_optimale::calcul_n</text>
</a>
</g>
</g>
<!-- Node2 -->
<g id="Node000002" class="node">
<title>Node2</title>
<g id="a_Node000002"><a xlink:href="_fonction__externes_8hpp.html#a8bf9651680a69ef9b57e88861dbc2b7c" target="_top" xlink:title=" ">
<polygon fill="white" stroke="#666666" points="355.5,-39 287,-39 287,-19 355.5,-19 355.5,-39"/>
<text text-anchor="middle" x="321.25" y="-25.5" font-family="Helvetica,sans-Serif" font-size="10.00">interpolation</text>
</a>
</g>
</g>
<!-- Node1&#45;&gt;Node2 -->
<g id="edge1_Node000001_Node000002" class="edge">
<title>Node1&#45;&gt;Node2</title>
<g id="a_edge1_Node000001_Node000002"><a xlink:title=" ">
<path fill="none" stroke="#63b8ff" d="M122.13,-29C169.01,-29 233.04,-29 275.46,-29"/>
<polygon fill="#63b8ff" stroke="#63b8ff" points="275.31,-32.5 285.31,-29 275.31,-25.5 275.31,-32.5"/>
</a>
</g>
</g>
<!-- Node4 -->
<g id="Node000004" class="node">
<title>Node4</title>
<g id="a_Node000004"><a xlink:href="class_grille.html#a5df315fb600d3601e4d82467d5f809e4" target="_top" xlink:title=" ">
<polygon fill="white" stroke="#666666" points="251,-20 157.75,-20 157.75,0 251,0 251,-20"/>
<text text-anchor="middle" x="204.38" y="-6.5" font-family="Helvetica,sans-Serif" font-size="10.00">Grille::localisation</text>
</a>
</g>
</g>
<!-- Node1&#45;&gt;Node4 -->
<g id="edge5_Node000001_Node000004" class="edge">
<title>Node1&#45;&gt;Node4</title>
<g id="a_edge5_Node000001_Node000004"><a xlink:title=" ">
<path fill="none" stroke="#63b8ff" d="M121.88,-20.94C129.97,-19.86 138.25,-18.74 146.29,-17.67"/>
<polygon fill="#63b8ff" stroke="#63b8ff" points="146.5,-21.17 155.94,-16.37 145.57,-14.23 146.5,-21.17"/>
</a>
</g>
</g>
<!-- Node2&#45;&gt;Node2 -->
<g id="edge4_Node000002_Node000002" class="edge">
<title>Node2&#45;&gt;Node2</title>
<g id="a_edge4_Node000002_Node000002"><a xlink:title=" ">
<path fill="none" stroke="#63b8ff" d="M305.36,-39.34C298.57,-47.98 303.87,-57 321.25,-57 330.76,-57 336.65,-54.3 338.92,-50.44"/>
<polygon fill="#63b8ff" stroke="#63b8ff" points="342.42,-50.15 337.38,-40.83 335.51,-51.26 342.42,-50.15"/>
</a>
</g>
</g>
<!-- Node3 -->
<g id="Node000003" class="node">
<title>Node3</title>
<g id="a_Node000003"><a xlink:href="class_grille.html#a55235882a3d7897067449ef76fb64287" target="_top" xlink:title=" ">
<polygon fill="white" stroke="#666666" points="451,-39 391.5,-39 391.5,-19 451,-19 451,-39"/>
<text text-anchor="middle" x="421.25" y="-25.5" font-family="Helvetica,sans-Serif" font-size="10.00">Grille::find</text>
</a>
</g>
</g>
<!-- Node2&#45;&gt;Node3 -->
<g id="edge2_Node000002_Node000003" class="edge">
<title>Node2&#45;&gt;Node3</title>
<g id="a_edge2_Node000002_Node000003"><a xlink:title=" ">
<path fill="none" stroke="#63b8ff" d="M355.98,-22.55C363.64,-22.24 371.86,-22.17 379.77,-22.34"/>
<polygon fill="#63b8ff" stroke="#63b8ff" points="379.4,-25.83 389.53,-22.71 379.67,-18.84 379.4,-25.83"/>
</a>
</g>
</g>
<!-- Node3&#45;&gt;Node2 -->
<g id="edge3_Node000003_Node000002" class="edge">
<title>Node3&#45;&gt;Node2</title>
<g id="a_edge3_Node000003_Node000002"><a xlink:title=" ">
<path fill="none" stroke="#63b8ff" d="M391.04,-35.23C383.55,-35.65 375.31,-35.81 367.22,-35.73"/>
<polygon fill="#63b8ff" stroke="#63b8ff" points="367.57,-32.24 357.49,-35.49 367.4,-39.24 367.57,-32.24"/>
</a>
</g>
</g>
<!-- Node4&#45;&gt;Node2 -->
<g id="edge6_Node000004_Node000002" class="edge">
<title>Node4&#45;&gt;Node2</title>
<g id="a_edge6_Node000004_Node000002"><a xlink:title=" ">
<path fill="none" stroke="#63b8ff" d="M251.44,-17.62C259.32,-18.92 267.5,-20.28 275.36,-21.57"/>
<polygon fill="#63b8ff" stroke="#63b8ff" points="274.62,-25 285.06,-23.18 275.77,-18.09 274.62,-25"/>
</a>
</g>
</g>
</g>
</svg>
