<?xml version="1.0" encoding="UTF-8" standalone="no"?>
<!DOCTYPE svg PUBLIC "-//W3C//DTD SVG 1.1//EN"
 "http://www.w3.org/Graphics/SVG/1.1/DTD/svg11.dtd">
<!-- Generated by graphviz version 10.0.1 (20240210.2158)
 -->
<!-- Title: HJB Pages: 1 -->
<svg width="94pt" height="153pt"
 viewBox="0.00 0.00 93.75 153.00" xmlns="http://www.w3.org/2000/svg" xmlns:xlink="http://www.w3.org/1999/xlink">
<g id="graph0" class="graph" transform="scale(1 1) rotate(0) translate(4 149)">
<title>HJB</title>
<!-- Node1 -->
<g id="Node000001" class="node">
<title>Node1</title>
<g id="a_Node000001"><a xlink:title=" ">
<polygon fill="#999999" stroke="#666666" points="59.88,-20 25.88,-20 25.88,0 59.88,0 59.88,-20"/>
<text text-anchor="middle" x="42.88" y="-6.5" font-family="Helvetica,sans-Serif" font-size="10.00">HJB</text>
</a>
</g>
</g>
<!-- Node2 -->
<g id="Node000002" class="node">
<title>Node2</title>
<g id="a_Node000002"><a xlink:href="class_vecteur.html" target="_top" xlink:title=" ">
<polygon fill="white" stroke="#666666" points="85.75,-88 0,-88 0,-68 85.75,-68 85.75,-88"/>
<text text-anchor="middle" x="42.88" y="-74.5" font-family="Helvetica,sans-Serif" font-size="10.00">Vecteur&lt; float &gt;</text>
</a>
</g>
</g>
<!-- Node2&#45;&gt;Node1 -->
<g id="edge1_Node000001_Node000002" class="edge">
<title>Node2&#45;&gt;Node1</title>
<g id="a_edge1_Node000001_Node000002"><a xlink:title=" ">
<path fill="none" stroke="#9a32cd" stroke-dasharray="5,2" d="M42.88,-56.28C42.88,-44.27 42.88,-29.74 42.88,-20.44"/>
<polygon fill="#9a32cd" stroke="#9a32cd" points="39.38,-56.03 42.88,-66.03 46.38,-56.03 39.38,-56.03"/>
</a>
</g>
<text text-anchor="middle" x="46.25" y="-40.5" font-family="Helvetica,sans-Serif" font-size="10.00" fill="grey"> v</text>
</g>
<!-- Node3 -->
<g id="Node000003" class="node">
<title>Node3</title>
<g id="a_Node000003"><a xlink:title=" ">
<polygon fill="white" stroke="#666666" points="83.12,-145 2.62,-145 2.62,-125 83.12,-125 83.12,-145"/>
<text text-anchor="middle" x="42.88" y="-131.5" font-family="Helvetica,sans-Serif" font-size="10.00">vector&lt; float &#160;&gt;</text>
</a>
</g>
</g>
<!-- Node3&#45;&gt;Node2 -->
<g id="edge2_Node000002_Node000003" class="edge">
<title>Node3&#45;&gt;Node2</title>
<g id="a_edge2_Node000002_Node000003"><a xlink:title=" ">
<path fill="none" stroke="#63b8ff" d="M42.88,-113.69C42.88,-104.97 42.88,-95.22 42.88,-88.28"/>
<polygon fill="#63b8ff" stroke="#63b8ff" points="39.38,-113.4 42.88,-123.4 46.38,-113.4 39.38,-113.4"/>
</a>
</g>
</g>
</g>
</svg>
