<?xml version="1.0" encoding="UTF-8" standalone="no"?>
<!DOCTYPE svg PUBLIC "-//W3C//DTD SVG 1.1//EN"
 "http://www.w3.org/Graphics/SVG/1.1/DTD/svg11.dtd">
<!-- Generated by graphviz version 10.0.1 (20240210.2158)
 -->
<!-- Title: Dynamique_voile Pages: 1 -->
<svg width="641pt" height="381pt"
 viewBox="0.00 0.00 641.12 381.00" xmlns="http://www.w3.org/2000/svg" xmlns:xlink="http://www.w3.org/1999/xlink">
<g id="graph0" class="graph" transform="scale(1 1) rotate(0) translate(4 377)">
<title>Dynamique_voile</title>
<!-- Node1 -->
<g id="Node000001" class="node">
<title>Node1</title>
<g id="a_Node000001"><a xlink:title=" ">
<polygon fill="#999999" stroke="#666666" points="331.12,-20 242.38,-20 242.38,0 331.12,0 331.12,-20"/>
<text text-anchor="middle" x="286.75" y="-6.5" font-family="Helvetica,sans-Serif" font-size="10.00">Dynamique_voile</text>
</a>
</g>
</g>
<!-- Node2 -->
<g id="Node000002" class="node">
<title>Node2</title>
<g id="a_Node000002"><a xlink:href="class_dynamique.html" target="_top" xlink:title=" ">
<polygon fill="white" stroke="#666666" points="217.12,-88 152.38,-88 152.38,-68 217.12,-68 217.12,-88"/>
<text text-anchor="middle" x="184.75" y="-74.5" font-family="Helvetica,sans-Serif" font-size="10.00">Dynamique</text>
</a>
</g>
</g>
<!-- Node2&#45;&gt;Node1 -->
<g id="edge1_Node000001_Node000002" class="edge">
<title>Node2&#45;&gt;Node1</title>
<g id="a_edge1_Node000001_Node000002"><a xlink:title=" ">
<path fill="none" stroke="#63b8ff" d="M208.87,-61.39C228.53,-48.67 255.66,-31.12 272.16,-20.44"/>
<polygon fill="#63b8ff" stroke="#63b8ff" points="207.13,-58.35 200.63,-66.72 210.93,-64.23 207.13,-58.35"/>
</a>
</g>
</g>
<!-- Node3 -->
<g id="Node000003" class="node">
<title>Node3</title>
<g id="a_Node000003"><a xlink:href="class_bassin.html" target="_top" xlink:title=" ">
<polygon fill="white" stroke="#666666" points="444.75,-156 398.75,-156 398.75,-136 444.75,-136 444.75,-156"/>
<text text-anchor="middle" x="421.75" y="-142.5" font-family="Helvetica,sans-Serif" font-size="10.00">Bassin</text>
</a>
</g>
</g>
<!-- Node3&#45;&gt;Node1 -->
<g id="edge2_Node000001_Node000003" class="edge">
<title>Node3&#45;&gt;Node1</title>
<g id="a_edge2_Node000001_Node000003"><a xlink:title=" ">
<path fill="none" stroke="#9a32cd" stroke-dasharray="5,2" d="M405.55,-127.3C385.5,-105.65 350.06,-68.16 317.75,-38 311.28,-31.96 303.81,-25.44 297.82,-20.32"/>
<polygon fill="#9a32cd" stroke="#9a32cd" points="402.76,-129.45 412.11,-134.43 407.91,-124.7 402.76,-129.45"/>
</a>
</g>
<text text-anchor="middle" x="383.5" y="-74.5" font-family="Helvetica,sans-Serif" font-size="10.00" fill="grey"> bassin</text>
</g>
<!-- Node4 -->
<g id="Node000004" class="node">
<title>Node4</title>
<g id="a_Node000004"><a xlink:href="class_grille.html" target="_top" xlink:title=" ">
<polygon fill="white" stroke="#666666" points="538,-236 499.5,-236 499.5,-216 538,-216 538,-236"/>
<text text-anchor="middle" x="518.75" y="-222.5" font-family="Helvetica,sans-Serif" font-size="10.00">Grille</text>
</a>
</g>
</g>
<!-- Node4&#45;&gt;Node3 -->
<g id="edge3_Node000003_Node000004" class="edge">
<title>Node4&#45;&gt;Node3</title>
<g id="a_edge3_Node000003_Node000004"><a xlink:title=" ">
<path fill="none" stroke="#9a32cd" stroke-dasharray="5,2" d="M514.15,-204.74C510.86,-194.34 505.44,-182.17 496.75,-174 482.53,-160.63 461.23,-153.8 444.95,-150.36"/>
<polygon fill="#9a32cd" stroke="#9a32cd" points="510.75,-205.58 516.71,-214.34 517.52,-203.77 510.75,-205.58"/>
</a>
</g>
<text text-anchor="middle" x="522.38" y="-182.5" font-family="Helvetica,sans-Serif" font-size="10.00" fill="grey"> grille</text>
</g>
<!-- Node5 -->
<g id="Node000005" class="node">
<title>Node5</title>
<g id="a_Node000005"><a xlink:href="class_bi__vecteur.html" target="_top" xlink:title=" ">
<polygon fill="white" stroke="#666666" points="359.25,-236 262.25,-236 262.25,-216 359.25,-216 359.25,-236"/>
<text text-anchor="middle" x="310.75" y="-222.5" font-family="Helvetica,sans-Serif" font-size="10.00">Bi_vecteur&lt; float &gt;</text>
</a>
</g>
</g>
<!-- Node5&#45;&gt;Node3 -->
<g id="edge4_Node000003_Node000005" class="edge">
<title>Node5&#45;&gt;Node3</title>
<g id="a_edge4_Node000003_Node000005"><a xlink:title=" ">
<path fill="none" stroke="#9a32cd" stroke-dasharray="5,2" d="M319.1,-205.31C324.47,-194.72 332.4,-182.2 342.75,-174 358.88,-161.22 381.43,-154.31 398.3,-150.69"/>
<polygon fill="#9a32cd" stroke="#9a32cd" points="315.93,-203.82 314.91,-214.36 322.28,-206.76 315.93,-203.82"/>
</a>
</g>
<text text-anchor="middle" x="380.25" y="-188.5" font-family="Helvetica,sans-Serif" font-size="10.00" fill="grey"> champs_courant</text>
<text text-anchor="middle" x="380.25" y="-176.5" font-family="Helvetica,sans-Serif" font-size="10.00" fill="grey">champs_vent</text>
</g>
<!-- Node11 -->
<g id="Node000011" class="node">
<title>Node11</title>
<g id="a_Node000011"><a xlink:href="class_polaire.html" target="_top" xlink:title=" ">
<polygon fill="white" stroke="#666666" points="276.75,-156 194.75,-156 194.75,-136 276.75,-136 276.75,-156"/>
<text text-anchor="middle" x="235.75" y="-142.5" font-family="Helvetica,sans-Serif" font-size="10.00">Polaire&lt; float &gt;</text>
</a>
</g>
</g>
<!-- Node5&#45;&gt;Node11 -->
<g id="edge11_Node000011_Node000005" class="edge">
<title>Node5&#45;&gt;Node11</title>
<g id="a_edge11_Node000011_Node000005"><a xlink:title=" ">
<path fill="none" stroke="#9a32cd" stroke-dasharray="5,2" d="M285.16,-209.21C280.46,-205.79 275.78,-201.99 271.75,-198 258.82,-185.18 247.35,-167.23 241,-156.39"/>
<polygon fill="#9a32cd" stroke="#9a32cd" points="283.12,-212.06 293.35,-214.79 287.06,-206.27 283.12,-212.06"/>
</a>
</g>
<text text-anchor="middle" x="286.75" y="-182.5" font-family="Helvetica,sans-Serif" font-size="10.00" fill="grey"> entete</text>
</g>
<!-- Node6 -->
<g id="Node000006" class="node">
<title>Node6</title>
<g id="a_Node000006"><a xlink:href="class_vecteur.html" target="_top" xlink:title=" ">
<polygon fill="white" stroke="#666666" points="353.62,-316 267.88,-316 267.88,-296 353.62,-296 353.62,-316"/>
<text text-anchor="middle" x="310.75" y="-302.5" font-family="Helvetica,sans-Serif" font-size="10.00">Vecteur&lt; float &gt;</text>
</a>
</g>
</g>
<!-- Node6&#45;&gt;Node5 -->
<g id="edge5_Node000005_Node000006" class="edge">
<title>Node6&#45;&gt;Node5</title>
<g id="a_edge5_Node000005_Node000006"><a xlink:title=" ">
<path fill="none" stroke="#9a32cd" stroke-dasharray="5,2" d="M310.75,-284.59C310.75,-268.94 310.75,-248.08 310.75,-236.24"/>
<polygon fill="#9a32cd" stroke="#9a32cd" points="307.25,-284.23 310.75,-294.23 314.25,-284.23 307.25,-284.23"/>
</a>
</g>
<text text-anchor="middle" x="314.88" y="-268.5" font-family="Helvetica,sans-Serif" font-size="10.00" fill="grey"> X</text>
<text text-anchor="middle" x="314.88" y="-256.5" font-family="Helvetica,sans-Serif" font-size="10.00" fill="grey">Y</text>
</g>
<!-- Node7 -->
<g id="Node000007" class="node">
<title>Node7</title>
<g id="a_Node000007"><a xlink:title=" ">
<polygon fill="white" stroke="#666666" points="351,-373 270.5,-373 270.5,-353 351,-353 351,-373"/>
<text text-anchor="middle" x="310.75" y="-359.5" font-family="Helvetica,sans-Serif" font-size="10.00">vector&lt; float &#160;&gt;</text>
</a>
</g>
</g>
<!-- Node7&#45;&gt;Node6 -->
<g id="edge6_Node000006_Node000007" class="edge">
<title>Node7&#45;&gt;Node6</title>
<g id="a_edge6_Node000006_Node000007"><a xlink:title=" ">
<path fill="none" stroke="#63b8ff" d="M310.75,-341.69C310.75,-332.97 310.75,-323.22 310.75,-316.28"/>
<polygon fill="#63b8ff" stroke="#63b8ff" points="307.25,-341.4 310.75,-351.4 314.25,-341.4 307.25,-341.4"/>
</a>
</g>
</g>
<!-- Node8 -->
<g id="Node000008" class="node">
<title>Node8</title>
<g id="a_Node000008"><a xlink:href="class_foncteur__vent.html" target="_top" xlink:title=" ">
<polygon fill="white" stroke="#666666" points="633.12,-236 556.38,-236 556.38,-216 633.12,-216 633.12,-236"/>
<text text-anchor="middle" x="594.75" y="-222.5" font-family="Helvetica,sans-Serif" font-size="10.00">Foncteur_vent</text>
</a>
</g>
</g>
<!-- Node8&#45;&gt;Node3 -->
<g id="edge7_Node000003_Node000008" class="edge">
<title>Node8&#45;&gt;Node3</title>
<g id="a_edge7_Node000003_Node000008"><a xlink:title=" ">
<path fill="none" stroke="#9a32cd" stroke-dasharray="5,2" d="M579.42,-207.31C568.8,-196.14 553.74,-182.31 537.75,-174 508.03,-158.55 469.47,-151.84 445.16,-149"/>
<polygon fill="#9a32cd" stroke="#9a32cd" points="576.57,-209.38 585.89,-214.41 581.74,-204.67 576.57,-209.38"/>
</a>
</g>
<text text-anchor="middle" x="598.38" y="-182.5" font-family="Helvetica,sans-Serif" font-size="10.00" fill="grey"> fonction_vent</text>
</g>
<!-- Node9 -->
<g id="Node000009" class="node">
<title>Node9</title>
<g id="a_Node000009"><a xlink:href="class_foncteur__courant.html" target="_top" xlink:title=" ">
<polygon fill="white" stroke="#666666" points="468.62,-236 376.88,-236 376.88,-216 468.62,-216 468.62,-236"/>
<text text-anchor="middle" x="422.75" y="-222.5" font-family="Helvetica,sans-Serif" font-size="10.00">Foncteur_courant</text>
</a>
</g>
</g>
<!-- Node9&#45;&gt;Node3 -->
<g id="edge8_Node000003_Node000009" class="edge">
<title>Node9&#45;&gt;Node3</title>
<g id="a_edge8_Node000003_Node000009"><a xlink:title=" ">
<path fill="none" stroke="#9a32cd" stroke-dasharray="5,2" d="M422.49,-204.59C422.29,-188.94 422.02,-168.08 421.87,-156.24"/>
<polygon fill="#9a32cd" stroke="#9a32cd" points="418.98,-204.28 422.61,-214.23 425.98,-204.19 418.98,-204.28"/>
</a>
</g>
<text text-anchor="middle" x="458.88" y="-182.5" font-family="Helvetica,sans-Serif" font-size="10.00" fill="grey"> fonction_courant</text>
</g>
<!-- Node10 -->
<g id="Node000010" class="node">
<title>Node10</title>
<g id="a_Node000010"><a xlink:href="class_voilier.html" target="_top" xlink:title=" ">
<polygon fill="white" stroke="#666666" points="338.25,-88 235.25,-88 235.25,-68 338.25,-68 338.25,-88"/>
<text text-anchor="middle" x="286.75" y="-74.5" font-family="Helvetica,sans-Serif" font-size="10.00">Voilier&lt; float, float &gt;</text>
</a>
</g>
</g>
<!-- Node10&#45;&gt;Node1 -->
<g id="edge9_Node000001_Node000010" class="edge">
<title>Node10&#45;&gt;Node1</title>
<g id="a_edge9_Node000001_Node000010"><a xlink:title=" ">
<path fill="none" stroke="#9a32cd" stroke-dasharray="5,2" d="M286.75,-56.28C286.75,-44.27 286.75,-29.74 286.75,-20.44"/>
<polygon fill="#9a32cd" stroke="#9a32cd" points="283.25,-56.03 286.75,-66.03 290.25,-56.03 283.25,-56.03"/>
</a>
</g>
<text text-anchor="middle" x="300.25" y="-40.5" font-family="Helvetica,sans-Serif" font-size="10.00" fill="grey"> voilier</text>
</g>
<!-- Node11&#45;&gt;Node10 -->
<g id="edge10_Node000010_Node000011" class="edge">
<title>Node11&#45;&gt;Node10</title>
<g id="a_edge10_Node000010_Node000011"><a xlink:title=" ">
<path fill="none" stroke="#9a32cd" stroke-dasharray="5,2" d="M250.03,-126.52C259.6,-114.13 271.81,-98.33 279.46,-88.44"/>
<polygon fill="#9a32cd" stroke="#9a32cd" points="247.33,-124.29 243.98,-134.35 252.87,-128.57 247.33,-124.29"/>
</a>
</g>
<text text-anchor="middle" x="296.12" y="-108.5" font-family="Helvetica,sans-Serif" font-size="10.00" fill="grey"> polaire_voilier</text>
</g>
<!-- Node12 -->
<g id="Node000012" class="node">
<title>Node12</title>
<g id="a_Node000012"><a xlink:href="class_vecteur.html" target="_top" xlink:title=" ">
<polygon fill="white" stroke="#666666" points="137.5,-236 0,-236 0,-216 137.5,-216 137.5,-236"/>
<text text-anchor="middle" x="68.75" y="-222.5" font-family="Helvetica,sans-Serif" font-size="10.00">Vecteur&lt; Vecteur&lt; float &gt; &gt;</text>
</a>
</g>
</g>
<!-- Node12&#45;&gt;Node11 -->
<g id="edge12_Node000011_Node000012" class="edge">
<title>Node12&#45;&gt;Node11</title>
<g id="a_edge12_Node000011_Node000012"><a xlink:title=" ">
<path fill="none" stroke="#9a32cd" stroke-dasharray="5,2" d="M87.63,-208.34C101.08,-197.23 120.02,-183.06 138.75,-174 156.22,-165.55 176.77,-159.35 194.46,-155.04"/>
<polygon fill="#9a32cd" stroke="#9a32cd" points="85.4,-205.64 80.05,-214.79 89.93,-210.98 85.4,-205.64"/>
</a>
</g>
<text text-anchor="middle" x="165.75" y="-182.5" font-family="Helvetica,sans-Serif" font-size="10.00" fill="grey"> table_valeur</text>
</g>
<!-- Node13 -->
<g id="Node000013" class="node">
<title>Node13</title>
<g id="a_Node000013"><a xlink:title=" ">
<polygon fill="white" stroke="#666666" points="133.38,-316 4.12,-316 4.12,-296 133.38,-296 133.38,-316"/>
<text text-anchor="middle" x="68.75" y="-302.5" font-family="Helvetica,sans-Serif" font-size="10.00">vector&lt; Vecteur&lt; float &gt; &gt;</text>
</a>
</g>
</g>
<!-- Node13&#45;&gt;Node12 -->
<g id="edge13_Node000012_Node000013" class="edge">
<title>Node13&#45;&gt;Node12</title>
<g id="a_edge13_Node000012_Node000013"><a xlink:title=" ">
<path fill="none" stroke="#63b8ff" d="M68.75,-284.59C68.75,-268.94 68.75,-248.08 68.75,-236.24"/>
<polygon fill="#63b8ff" stroke="#63b8ff" points="65.25,-284.23 68.75,-294.23 72.25,-284.23 65.25,-284.23"/>
</a>
</g>
</g>
<!-- Node14 -->
<g id="Node000014" class="node">
<title>Node14</title>
<g id="a_Node000014"><a xlink:href="class_foncteur__polaire.html" target="_top" xlink:title=" ">
<polygon fill="white" stroke="#666666" points="243.75,-236 155.75,-236 155.75,-216 243.75,-216 243.75,-236"/>
<text text-anchor="middle" x="199.75" y="-222.5" font-family="Helvetica,sans-Serif" font-size="10.00">Foncteur_polaire</text>
</a>
</g>
</g>
<!-- Node14&#45;&gt;Node11 -->
<g id="edge14_Node000011_Node000014" class="edge">
<title>Node14&#45;&gt;Node11</title>
<g id="a_edge14_Node000011_Node000014"><a xlink:title=" ">
<path fill="none" stroke="#9a32cd" stroke-dasharray="5,2" d="M196.59,-204.35C196.05,-194.66 196.82,-183.23 201.5,-174 205.19,-166.7 211.87,-160.76 218.35,-156.32"/>
<polygon fill="#9a32cd" stroke="#9a32cd" points="193.11,-204.71 197.68,-214.27 200.07,-203.94 193.11,-204.71"/>
</a>
</g>
<text text-anchor="middle" x="225.38" y="-182.5" font-family="Helvetica,sans-Serif" font-size="10.00" fill="grey"> analytique</text>
</g>
</g>
</svg>
