<?xml version="1.0" encoding="UTF-8" standalone="no"?>
<!DOCTYPE svg PUBLIC "-//W3C//DTD SVG 1.1//EN"
 "http://www.w3.org/Graphics/SVG/1.1/DTD/svg11.dtd">
<!-- Generated by graphviz version 10.0.1 (20240210.2158)
 -->
<!-- Title: Foncteur_polaire::operator() Pages: 1 -->
<svg width="343pt" height="46pt"
 viewBox="0.00 0.00 343.25 46.00" xmlns="http://www.w3.org/2000/svg" xmlns:xlink="http://www.w3.org/1999/xlink">
<g id="graph0" class="graph" transform="scale(1 1) rotate(0) translate(4 42)">
<title>Foncteur_polaire::operator()</title>
<!-- Node1 -->
<g id="Node000001" class="node">
<title>Node1</title>
<g id="a_Node000001"><a xlink:title=" ">
<polygon fill="#999999" stroke="#666666" points="135.25,-20 0,-20 0,0 135.25,0 135.25,-20"/>
<text text-anchor="middle" x="67.62" y="-6.5" font-family="Helvetica,sans-Serif" font-size="10.00">Foncteur_polaire::operator()</text>
</a>
</g>
</g>
<!-- Node2 -->
<g id="Node000002" class="node">
<title>Node2</title>
<g id="a_Node000002"><a xlink:href="_fonction__externes_8hpp.html#a8bf9651680a69ef9b57e88861dbc2b7c" target="_top" xlink:title=" ">
<polygon fill="white" stroke="#666666" points="239.75,-20 171.25,-20 171.25,0 239.75,0 239.75,-20"/>
<text text-anchor="middle" x="205.5" y="-6.5" font-family="Helvetica,sans-Serif" font-size="10.00">interpolation</text>
</a>
</g>
</g>
<!-- Node1&#45;&gt;Node2 -->
<g id="edge1_Node000001_Node000002" class="edge">
<title>Node1&#45;&gt;Node2</title>
<g id="a_edge1_Node000001_Node000002"><a xlink:title=" ">
<path fill="none" stroke="#63b8ff" d="M135.37,-10C143.57,-10 151.79,-10 159.56,-10"/>
<polygon fill="#63b8ff" stroke="#63b8ff" points="159.43,-13.5 169.43,-10 159.43,-6.5 159.43,-13.5"/>
</a>
</g>
</g>
<!-- Node2&#45;&gt;Node2 -->
<g id="edge4_Node000002_Node000002" class="edge">
<title>Node2&#45;&gt;Node2</title>
<g id="a_edge4_Node000002_Node000002"><a xlink:title=" ">
<path fill="none" stroke="#63b8ff" d="M189.61,-20.34C182.82,-28.98 188.12,-38 205.5,-38 215.01,-38 220.9,-35.3 223.17,-31.44"/>
<polygon fill="#63b8ff" stroke="#63b8ff" points="226.67,-31.15 221.63,-21.83 219.76,-32.26 226.67,-31.15"/>
</a>
</g>
</g>
<!-- Node3 -->
<g id="Node000003" class="node">
<title>Node3</title>
<g id="a_Node000003"><a xlink:href="class_grille.html#a55235882a3d7897067449ef76fb64287" target="_top" xlink:title=" ">
<polygon fill="white" stroke="#666666" points="335.25,-20 275.75,-20 275.75,0 335.25,0 335.25,-20"/>
<text text-anchor="middle" x="305.5" y="-6.5" font-family="Helvetica,sans-Serif" font-size="10.00">Grille::find</text>
</a>
</g>
</g>
<!-- Node2&#45;&gt;Node3 -->
<g id="edge2_Node000002_Node000003" class="edge">
<title>Node2&#45;&gt;Node3</title>
<g id="a_edge2_Node000002_Node000003"><a xlink:title=" ">
<path fill="none" stroke="#63b8ff" d="M240.23,-3.55C247.89,-3.24 256.11,-3.17 264.02,-3.34"/>
<polygon fill="#63b8ff" stroke="#63b8ff" points="263.65,-6.83 273.78,-3.71 263.92,0.16 263.65,-6.83"/>
</a>
</g>
</g>
<!-- Node3&#45;&gt;Node2 -->
<g id="edge3_Node000003_Node000002" class="edge">
<title>Node3&#45;&gt;Node2</title>
<g id="a_edge3_Node000003_Node000002"><a xlink:title=" ">
<path fill="none" stroke="#63b8ff" d="M275.29,-16.23C267.8,-16.65 259.56,-16.81 251.47,-16.73"/>
<polygon fill="#63b8ff" stroke="#63b8ff" points="251.82,-13.24 241.74,-16.49 251.65,-20.24 251.82,-13.24"/>
</a>
</g>
</g>
</g>
</svg>
