<?xml version="1.0" encoding="UTF-8" standalone="no"?>
<!DOCTYPE svg PUBLIC "-//W3C//DTD SVG 1.1//EN"
 "http://www.w3.org/Graphics/SVG/1.1/DTD/svg11.dtd">
<!-- Generated by graphviz version 10.0.1 (20240210.2158)
 -->
<!-- Title: Flux::calcul Pages: 1 -->
<svg width="637pt" height="279pt"
 viewBox="0.00 0.00 636.50 279.25" xmlns="http://www.w3.org/2000/svg" xmlns:xlink="http://www.w3.org/1999/xlink">
<g id="graph0" class="graph" transform="scale(1 1) rotate(0) translate(4 275.25)">
<title>Flux::calcul</title>
<!-- Node1 -->
<g id="Node000001" class="node">
<title>Node1</title>
<g id="a_Node000001"><a xlink:title=" ">
<polygon fill="#999999" stroke="#666666" points="66.25,-162 0,-162 0,-142 66.25,-142 66.25,-162"/>
<text text-anchor="middle" x="33.12" y="-148.5" font-family="Helvetica,sans-Serif" font-size="10.00">Flux::calcul</text>
</a>
</g>
</g>
<!-- Node2 -->
<g id="Node000002" class="node">
<title>Node2</title>
<g id="a_Node000002"><a xlink:href="class_dynamique__voile.html#a4a6c57e20d6b4f6f2775ee79d6bedf0f" target="_top" xlink:title=" ">
<polygon fill="white" stroke="#666666" points="199.25,-162 102.25,-162 102.25,-142 199.25,-142 199.25,-162"/>
<text text-anchor="middle" x="150.75" y="-148.5" font-family="Helvetica,sans-Serif" font-size="10.00">Dynamique_voile::f</text>
</a>
</g>
</g>
<!-- Node1&#45;&gt;Node2 -->
<g id="edge1_Node000001_Node000002" class="edge">
<title>Node1&#45;&gt;Node2</title>
<g id="a_edge1_Node000001_Node000002"><a xlink:title=" ">
<path fill="none" stroke="#63b8ff" d="M66.64,-152C74.17,-152 82.42,-152 90.69,-152"/>
<polygon fill="#63b8ff" stroke="#63b8ff" points="90.43,-155.5 100.43,-152 90.43,-148.5 90.43,-155.5"/>
</a>
</g>
</g>
<!-- Node4 -->
<g id="Node000004" class="node">
<title>Node4</title>
<g id="a_Node000004"><a xlink:href="_fonction__externes_8hpp.html#a8bf9651680a69ef9b57e88861dbc2b7c" target="_top" xlink:title=" ">
<polygon fill="white" stroke="#666666" points="533,-143 464.5,-143 464.5,-123 533,-123 533,-143"/>
<text text-anchor="middle" x="498.75" y="-129.5" font-family="Helvetica,sans-Serif" font-size="10.00">interpolation</text>
</a>
</g>
</g>
<!-- Node1&#45;&gt;Node4 -->
<g id="edge19_Node000001_Node000004" class="edge">
<title>Node1&#45;&gt;Node4</title>
<g id="a_edge19_Node000001_Node000004"><a xlink:title=" ">
<path fill="none" stroke="#63b8ff" d="M48.4,-162.38C101.91,-199.9 294.39,-322.45 428.5,-247 463.68,-227.21 483.06,-181.52 491.84,-154.37"/>
<polygon fill="#63b8ff" stroke="#63b8ff" points="495.19,-155.4 494.72,-144.81 488.48,-153.38 495.19,-155.4"/>
</a>
</g>
</g>
<!-- Node5 -->
<g id="Node000005" class="node">
<title>Node5</title>
<g id="a_Node000005"><a xlink:href="class_grille.html#a55235882a3d7897067449ef76fb64287" target="_top" xlink:title=" ">
<polygon fill="white" stroke="#666666" points="628.5,-143 569,-143 569,-123 628.5,-123 628.5,-143"/>
<text text-anchor="middle" x="598.75" y="-129.5" font-family="Helvetica,sans-Serif" font-size="10.00">Grille::find</text>
</a>
</g>
</g>
<!-- Node1&#45;&gt;Node5 -->
<g id="edge18_Node000001_Node000005" class="edge">
<title>Node1&#45;&gt;Node5</title>
<g id="a_edge18_Node000001_Node000005"><a xlink:title=" ">
<path fill="none" stroke="#63b8ff" d="M42.19,-141.55C69.71,-107.21 163.97,0 268.12,0 268.12,0 268.12,0 384.75,0 469.95,0 549.2,-77.52 581.93,-114.19"/>
<polygon fill="#63b8ff" stroke="#63b8ff" points="579.03,-116.18 588.23,-121.42 584.3,-111.58 579.03,-116.18"/>
</a>
</g>
</g>
<!-- Node3 -->
<g id="Node000003" class="node">
<title>Node3</title>
<g id="a_Node000003"><a xlink:href="_fonction__externes_8hpp.html#aaee29cb287929b30dcc528e78183ad83" target="_top" xlink:title=" ">
<polygon fill="white" stroke="#666666" points="288.75,-162 249.5,-162 249.5,-142 288.75,-142 288.75,-162"/>
<text text-anchor="middle" x="269.12" y="-148.5" font-family="Helvetica,sans-Serif" font-size="10.00">angle</text>
</a>
</g>
</g>
<!-- Node2&#45;&gt;Node3 -->
<g id="edge2_Node000002_Node000003" class="edge">
<title>Node2&#45;&gt;Node3</title>
<g id="a_edge2_Node000002_Node000003"><a xlink:title=" ">
<path fill="none" stroke="#63b8ff" d="M199.42,-152C212.37,-152 226.04,-152 237.75,-152"/>
<polygon fill="#63b8ff" stroke="#63b8ff" points="237.61,-155.5 247.61,-152 237.61,-148.5 237.61,-155.5"/>
</a>
</g>
</g>
<!-- Node2&#45;&gt;Node4 -->
<g id="edge15_Node000002_Node000004" class="edge">
<title>Node2&#45;&gt;Node4</title>
<g id="a_edge15_Node000002_Node000004"><a xlink:title=" ">
<path fill="none" stroke="#63b8ff" d="M159.05,-141.71C172.04,-124.41 201.04,-90.11 235.25,-77 261.15,-67.07 402.87,-74.03 428.5,-83 447.65,-89.7 466.11,-103.52 479.14,-114.93"/>
<polygon fill="#63b8ff" stroke="#63b8ff" points="476.76,-117.49 486.49,-121.66 481.48,-112.33 476.76,-117.49"/>
</a>
</g>
</g>
<!-- Node7 -->
<g id="Node000007" class="node">
<title>Node7</title>
<g id="a_Node000007"><a xlink:href="_fonction__externes_8hpp.html#ae0695e70efed4cbd92fba2e3029dc528" target="_top" xlink:title=" ">
<polygon fill="white" stroke="#666666" points="303,-106 235.25,-106 235.25,-86 303,-86 303,-106"/>
<text text-anchor="middle" x="269.12" y="-92.5" font-family="Helvetica,sans-Serif" font-size="10.00">angle_relatif</text>
</a>
</g>
</g>
<!-- Node2&#45;&gt;Node7 -->
<g id="edge9_Node000002_Node000007" class="edge">
<title>Node2&#45;&gt;Node7</title>
<g id="a_edge9_Node000002_Node000007"><a xlink:title=" ">
<path fill="none" stroke="#63b8ff" d="M173.37,-141.6C191.08,-133.07 216.41,-120.88 236.42,-111.25"/>
<polygon fill="#63b8ff" stroke="#63b8ff" points="237.77,-114.49 245.26,-107 234.73,-108.18 237.77,-114.49"/>
</a>
</g>
</g>
<!-- Node8 -->
<g id="Node000008" class="node">
<title>Node8</title>
<g id="a_Node000008"><a xlink:href="_fonction__externes_8hpp.html#a1ebdc2a1af6cd0b37eb88f47efd98926" target="_top" xlink:title=" ">
<polygon fill="white" stroke="#666666" points="428.5,-238 339,-238 339,-218 428.5,-218 428.5,-238"/>
<text text-anchor="middle" x="383.75" y="-224.5" font-family="Helvetica,sans-Serif" font-size="10.00">controle_position</text>
</a>
</g>
</g>
<!-- Node2&#45;&gt;Node8 -->
<g id="edge13_Node000002_Node000008" class="edge">
<title>Node2&#45;&gt;Node8</title>
<g id="a_edge13_Node000002_Node000008"><a xlink:title=" ">
<path fill="none" stroke="#63b8ff" d="M172.65,-162.37C189.32,-170.37 213.41,-181.33 235.25,-189 265.23,-199.53 299.51,-208.76 327.47,-215.59"/>
<polygon fill="#63b8ff" stroke="#63b8ff" points="326.62,-218.99 337.16,-217.92 328.26,-212.18 326.62,-218.99"/>
</a>
</g>
</g>
<!-- Node9 -->
<g id="Node000009" class="node">
<title>Node9</title>
<g id="a_Node000009"><a xlink:href="class_voilier.html#a809fae1f38f08e604bc07fc28a9e71e5" target="_top" xlink:title=" ">
<polygon fill="white" stroke="#666666" points="416.88,-200 350.62,-200 350.62,-180 416.88,-180 416.88,-200"/>
<text text-anchor="middle" x="383.75" y="-186.5" font-family="Helvetica,sans-Serif" font-size="10.00">Voilier::V_b</text>
</a>
</g>
</g>
<!-- Node2&#45;&gt;Node9 -->
<g id="edge16_Node000002_Node000009" class="edge">
<title>Node2&#45;&gt;Node9</title>
<g id="a_edge16_Node000002_Node000009"><a xlink:title=" ">
<path fill="none" stroke="#63b8ff" d="M194.07,-162.45C207.21,-165.48 221.78,-168.61 235.25,-171 270.03,-177.18 309.78,-182.18 339.24,-185.5"/>
<polygon fill="#63b8ff" stroke="#63b8ff" points="338.56,-188.95 348.88,-186.57 339.33,-181.99 338.56,-188.95"/>
</a>
</g>
</g>
<!-- Node3&#45;&gt;Node4 -->
<g id="edge3_Node000003_Node000004" class="edge">
<title>Node3&#45;&gt;Node4</title>
<g id="a_edge3_Node000003_Node000004"><a xlink:title=" ">
<path fill="none" stroke="#63b8ff" d="M289.14,-150.41C324.85,-147.43 402.83,-140.92 452.67,-136.76"/>
<polygon fill="#63b8ff" stroke="#63b8ff" points="452.9,-140.26 462.58,-135.94 452.32,-133.28 452.9,-140.26"/>
</a>
</g>
</g>
<!-- Node6 -->
<g id="Node000006" class="node">
<title>Node6</title>
<g id="a_Node000006"><a xlink:href="_fonction__externes_8hpp.html#a1ab31b90bc584c635ec159468ceed9b2" target="_top" xlink:title=" ">
<polygon fill="white" stroke="#666666" points="399.62,-124 367.88,-124 367.88,-104 399.62,-104 399.62,-124"/>
<text text-anchor="middle" x="383.75" y="-110.5" font-family="Helvetica,sans-Serif" font-size="10.00">sgn</text>
</a>
</g>
</g>
<!-- Node3&#45;&gt;Node6 -->
<g id="edge7_Node000003_Node000006" class="edge">
<title>Node3&#45;&gt;Node6</title>
<g id="a_edge7_Node000003_Node000006"><a xlink:title=" ">
<path fill="none" stroke="#63b8ff" d="M289.23,-145.55C307.78,-139.29 336.09,-129.74 356.7,-122.79"/>
<polygon fill="#63b8ff" stroke="#63b8ff" points="357.74,-126.13 366.1,-119.62 355.5,-119.5 357.74,-126.13"/>
</a>
</g>
</g>
<!-- Node4&#45;&gt;Node4 -->
<g id="edge6_Node000004_Node000004" class="edge">
<title>Node4&#45;&gt;Node4</title>
<g id="a_edge6_Node000004_Node000004"><a xlink:title=" ">
<path fill="none" stroke="#63b8ff" d="M482.86,-143.34C476.07,-151.98 481.37,-161 498.75,-161 508.26,-161 514.15,-158.3 516.42,-154.44"/>
<polygon fill="#63b8ff" stroke="#63b8ff" points="519.92,-154.15 514.88,-144.83 513.01,-155.26 519.92,-154.15"/>
</a>
</g>
</g>
<!-- Node4&#45;&gt;Node5 -->
<g id="edge4_Node000004_Node000005" class="edge">
<title>Node4&#45;&gt;Node5</title>
<g id="a_edge4_Node000004_Node000005"><a xlink:title=" ">
<path fill="none" stroke="#63b8ff" d="M533.48,-126.55C541.14,-126.24 549.36,-126.17 557.27,-126.34"/>
<polygon fill="#63b8ff" stroke="#63b8ff" points="556.9,-129.83 567.03,-126.71 557.17,-122.84 556.9,-129.83"/>
</a>
</g>
</g>
<!-- Node5&#45;&gt;Node4 -->
<g id="edge5_Node000005_Node000004" class="edge">
<title>Node5&#45;&gt;Node4</title>
<g id="a_edge5_Node000005_Node000004"><a xlink:title=" ">
<path fill="none" stroke="#63b8ff" d="M568.54,-139.23C561.05,-139.65 552.81,-139.81 544.72,-139.73"/>
<polygon fill="#63b8ff" stroke="#63b8ff" points="545.07,-136.24 534.99,-139.49 544.9,-143.24 545.07,-136.24"/>
</a>
</g>
</g>
<!-- Node6&#45;&gt;Node4 -->
<g id="edge8_Node000006_Node000004" class="edge">
<title>Node6&#45;&gt;Node4</title>
<g id="a_edge8_Node000006_Node000004"><a xlink:title=" ">
<path fill="none" stroke="#63b8ff" d="M399.99,-116.56C413.62,-118.85 434.3,-122.33 453.14,-125.5"/>
<polygon fill="#63b8ff" stroke="#63b8ff" points="452.31,-128.91 462.76,-127.12 453.47,-122.01 452.31,-128.91"/>
</a>
</g>
</g>
<!-- Node7&#45;&gt;Node4 -->
<g id="edge11_Node000007_Node000004" class="edge">
<title>Node7&#45;&gt;Node4</title>
<g id="a_edge11_Node000007_Node000004"><a xlink:title=" ">
<path fill="none" stroke="#63b8ff" d="M303.48,-90.93C335.95,-87.12 386.42,-84.21 428.5,-95 444.85,-99.19 461.49,-108.14 474.36,-116.3"/>
<polygon fill="#63b8ff" stroke="#63b8ff" points="472.27,-119.11 482.53,-121.73 476.14,-113.28 472.27,-119.11"/>
</a>
</g>
</g>
<!-- Node7&#45;&gt;Node6 -->
<g id="edge12_Node000007_Node000006" class="edge">
<title>Node7&#45;&gt;Node6</title>
<g id="a_edge12_Node000007_Node000006"><a xlink:title=" ">
<path fill="none" stroke="#63b8ff" d="M303.31,-101.3C320.27,-104.01 340.61,-107.27 356.47,-109.8"/>
<polygon fill="#63b8ff" stroke="#63b8ff" points="355.67,-113.22 366.1,-111.34 356.77,-106.3 355.67,-113.22"/>
</a>
</g>
</g>
<!-- Node7&#45;&gt;Node7 -->
<g id="edge10_Node000007_Node000007" class="edge">
<title>Node7&#45;&gt;Node7</title>
<g id="a_edge10_Node000007_Node000007"><a xlink:title=" ">
<path fill="none" stroke="#63b8ff" d="M250.91,-106.34C243.13,-114.98 249.2,-124 269.12,-124 280.02,-124 286.77,-121.3 289.38,-117.44"/>
<polygon fill="#63b8ff" stroke="#63b8ff" points="292.87,-117.03 287.61,-107.83 285.98,-118.3 292.87,-117.03"/>
</a>
</g>
</g>
<!-- Node8&#45;&gt;Node4 -->
<g id="edge14_Node000008_Node000004" class="edge">
<title>Node8&#45;&gt;Node4</title>
<g id="a_edge14_Node000008_Node000004"><a xlink:title=" ">
<path fill="none" stroke="#63b8ff" d="M413.47,-217.61C418.69,-215.15 423.92,-212.28 428.5,-209 450.71,-193.12 471.11,-169.08 483.92,-152.3"/>
<polygon fill="#63b8ff" stroke="#63b8ff" points="486.49,-154.71 489.65,-144.6 480.87,-150.54 486.49,-154.71"/>
</a>
</g>
</g>
<!-- Node9&#45;&gt;Node4 -->
<g id="edge17_Node000009_Node000004" class="edge">
<title>Node9&#45;&gt;Node4</title>
<g id="a_edge17_Node000009_Node000004"><a xlink:title=" ">
<path fill="none" stroke="#63b8ff" d="M405.48,-179.55C422.68,-170.87 447.4,-158.4 466.92,-148.55"/>
<polygon fill="#63b8ff" stroke="#63b8ff" points="468.45,-151.7 475.8,-144.07 465.3,-145.45 468.45,-151.7"/>
</a>
</g>
</g>
</g>
</svg>
