<?xml version="1.0" encoding="UTF-8" standalone="no"?>
<!DOCTYPE svg PUBLIC "-//W3C//DTD SVG 1.1//EN"
 "http://www.w3.org/Graphics/SVG/1.1/DTD/svg11.dtd">
<!-- Generated by graphviz version 10.0.1 (20240210.2158)
 -->
<!-- Title: Graphical Class Hierarchy Pages: 1 -->
<svg width="198pt" height="66pt"
 viewBox="0.00 0.00 197.50 66.00" xmlns="http://www.w3.org/2000/svg" xmlns:xlink="http://www.w3.org/1999/xlink">
<g id="graph0" class="graph" transform="scale(1 1) rotate(0) translate(4 62)">
<title>Graphical Class Hierarchy</title>
<!-- Node0 -->
<g id="Node000000" class="node">
<title>Node0</title>
<g id="a_Node000000"><a xlink:href="class_dynamique.html" target="_top" xlink:title=" ">
<polygon fill="white" stroke="#666666" points="64.75,-39 0,-39 0,-19 64.75,-19 64.75,-39"/>
<text text-anchor="middle" x="32.38" y="-25.5" font-family="Helvetica,sans-Serif" font-size="10.00">Dynamique</text>
</a>
</g>
</g>
<!-- Node1 -->
<g id="Node000001" class="node">
<title>Node1</title>
<g id="a_Node000001"><a xlink:href="class_dynamique__test.html" target="_top" xlink:title=" ">
<polygon fill="white" stroke="#666666" points="188.38,-58 101.88,-58 101.88,-38 188.38,-38 188.38,-58"/>
<text text-anchor="middle" x="145.12" y="-44.5" font-family="Helvetica,sans-Serif" font-size="10.00">Dynamique_test</text>
</a>
</g>
</g>
<!-- Node0&#45;&gt;Node1 -->
<g id="edge1_Node000000_Node000001" class="edge">
<title>Node0&#45;&gt;Node1</title>
<g id="a_edge1_Node000000_Node000001"><a xlink:title=" ">
<path fill="none" stroke="#63b8ff" d="M76.18,-36.34C84.54,-37.78 93.3,-39.28 101.65,-40.71"/>
<polygon fill="#63b8ff" stroke="#63b8ff" points="77.05,-32.94 66.6,-34.7 75.87,-39.84 77.05,-32.94"/>
</a>
</g>
</g>
<!-- Node2 -->
<g id="Node000002" class="node">
<title>Node2</title>
<g id="a_Node000002"><a xlink:href="class_dynamique__voile.html" target="_top" xlink:title=" ">
<polygon fill="white" stroke="#666666" points="189.5,-20 100.75,-20 100.75,0 189.5,0 189.5,-20"/>
<text text-anchor="middle" x="145.12" y="-6.5" font-family="Helvetica,sans-Serif" font-size="10.00">Dynamique_voile</text>
</a>
</g>
</g>
<!-- Node0&#45;&gt;Node2 -->
<g id="edge2_Node000000_Node000002" class="edge">
<title>Node0&#45;&gt;Node2</title>
<g id="a_edge2_Node000000_Node000002"><a xlink:title=" ">
<path fill="none" stroke="#63b8ff" d="M76.35,-21.63C84.25,-20.27 92.5,-18.86 100.42,-17.5"/>
<polygon fill="#63b8ff" stroke="#63b8ff" points="75.87,-18.16 66.6,-23.3 77.05,-25.06 75.87,-18.16"/>
</a>
</g>
</g>
</g>
</svg>
