<?xml version="1.0" encoding="UTF-8" standalone="no"?>
<!DOCTYPE svg PUBLIC "-//W3C//DTD SVG 1.1//EN"
 "http://www.w3.org/Graphics/SVG/1.1/DTD/svg11.dtd">
<!-- Generated by graphviz version 10.0.1 (20240210.2158)
 -->
<!-- Title: Graphical Class Hierarchy Pages: 1 -->
<svg width="223pt" height="180pt"
 viewBox="0.00 0.00 223.00 180.00" xmlns="http://www.w3.org/2000/svg" xmlns:xlink="http://www.w3.org/1999/xlink">
<g id="graph0" class="graph" transform="scale(1 1) rotate(0) translate(4 176)">
<title>Graphical Class Hierarchy</title>
<!-- Node0 -->
<g id="Node000000" class="node">
<title>Node0</title>
<g id="a_Node000000"><a xlink:title=" ">
<polygon fill="#e0e0e0" stroke="#999999" points="41.5,-96 0,-96 0,-76 41.5,-76 41.5,-96"/>
<text text-anchor="middle" x="20.75" y="-82.5" font-family="Helvetica,sans-Serif" font-size="10.00">vector</text>
</a>
</g>
</g>
<!-- Node1 -->
<g id="Node000001" class="node">
<title>Node1</title>
<g id="a_Node000001"><a xlink:href="class_vecteur.html" target="_top" xlink:title=" ">
<polygon fill="white" stroke="#666666" points="189.12,-172 103.38,-172 103.38,-152 189.12,-152 189.12,-172"/>
<text text-anchor="middle" x="146.25" y="-158.5" font-family="Helvetica,sans-Serif" font-size="10.00">Vecteur&lt; float &gt;</text>
</a>
</g>
</g>
<!-- Node0&#45;&gt;Node1 -->
<g id="edge3_Node000000_Node000001" class="edge">
<title>Node0&#45;&gt;Node1</title>
<g id="a_edge3_Node000000_Node000001"><a xlink:title=" ">
<path fill="none" stroke="#63b8ff" d="M36.1,-105.22C46.35,-117.67 61.18,-133.33 77.5,-143 85.28,-147.61 94.22,-151.14 103,-153.83"/>
<polygon fill="#63b8ff" stroke="#63b8ff" points="39.08,-103.34 30.14,-97.65 33.58,-107.67 39.08,-103.34"/>
</a>
</g>
</g>
<!-- Node2 -->
<g id="Node000002" class="node">
<title>Node2</title>
<g id="a_Node000002"><a xlink:href="class_vecteur.html" target="_top" xlink:title=" ">
<polygon fill="white" stroke="#666666" points="215,-134 77.5,-134 77.5,-114 215,-114 215,-134"/>
<text text-anchor="middle" x="146.25" y="-120.5" font-family="Helvetica,sans-Serif" font-size="10.00">Vecteur&lt; Vecteur&lt; float &gt; &gt;</text>
</a>
</g>
</g>
<!-- Node0&#45;&gt;Node2 -->
<g id="edge4_Node000000_Node000002" class="edge">
<title>Node0&#45;&gt;Node2</title>
<g id="a_edge4_Node000000_Node000002"><a xlink:title=" ">
<path fill="none" stroke="#63b8ff" d="M52.64,-96.86C60.7,-99.61 69.4,-102.49 77.5,-105 86.83,-107.9 96.95,-110.84 106.45,-113.51"/>
<polygon fill="#63b8ff" stroke="#63b8ff" points="53.82,-93.57 43.22,-93.62 51.54,-100.19 53.82,-93.57"/>
</a>
</g>
</g>
<!-- Node3 -->
<g id="Node000003" class="node">
<title>Node3</title>
<g id="a_Node000003"><a xlink:href="class_vecteur.html" target="_top" xlink:title=" ">
<polygon fill="white" stroke="#666666" points="208.62,-96 83.88,-96 83.88,-76 208.62,-76 208.62,-96"/>
<text text-anchor="middle" x="146.25" y="-82.5" font-family="Helvetica,sans-Serif" font-size="10.00">Vecteur&lt; Vecteur&lt; T &gt; &gt;</text>
</a>
</g>
</g>
<!-- Node0&#45;&gt;Node3 -->
<g id="edge5_Node000000_Node000003" class="edge">
<title>Node0&#45;&gt;Node3</title>
<g id="a_edge5_Node000000_Node000003"><a xlink:title=" ">
<path fill="none" stroke="#63b8ff" d="M53.26,-86C62.54,-86 73.02,-86 83.51,-86"/>
<polygon fill="#63b8ff" stroke="#63b8ff" points="53.38,-82.5 43.38,-86 53.38,-89.5 53.38,-82.5"/>
</a>
</g>
</g>
<!-- Node4 -->
<g id="Node000004" class="node">
<title>Node4</title>
<g id="a_Node000004"><a xlink:href="class_vecteur.html" target="_top" xlink:title=" ">
<polygon fill="white" stroke="#666666" points="211.25,-58 81.25,-58 81.25,-38 211.25,-38 211.25,-58"/>
<text text-anchor="middle" x="146.25" y="-44.5" font-family="Helvetica,sans-Serif" font-size="10.00">Vecteur&lt; Vecteur&lt; T2 &gt; &gt;</text>
</a>
</g>
</g>
<!-- Node0&#45;&gt;Node4 -->
<g id="edge6_Node000000_Node000004" class="edge">
<title>Node0&#45;&gt;Node4</title>
<g id="a_edge6_Node000000_Node000004"><a xlink:title=" ">
<path fill="none" stroke="#63b8ff" d="M52.64,-75.14C60.7,-72.39 69.4,-69.51 77.5,-67 86.83,-64.1 96.95,-61.16 106.45,-58.49"/>
<polygon fill="#63b8ff" stroke="#63b8ff" points="51.54,-71.81 43.22,-78.38 53.82,-78.43 51.54,-71.81"/>
</a>
</g>
</g>
<!-- Node5 -->
<g id="Node000005" class="node">
<title>Node5</title>
<g id="a_Node000005"><a xlink:href="class_vecteur.html" target="_top" xlink:title=" ">
<polygon fill="white" stroke="#666666" points="182.75,-20 109.75,-20 109.75,0 182.75,0 182.75,-20"/>
<text text-anchor="middle" x="146.25" y="-6.5" font-family="Helvetica,sans-Serif" font-size="10.00">Vecteur&lt; T &gt;</text>
</a>
</g>
</g>
<!-- Node0&#45;&gt;Node5 -->
<g id="edge7_Node000000_Node000005" class="edge">
<title>Node0&#45;&gt;Node5</title>
<g id="a_edge7_Node000000_Node000005"><a xlink:title=" ">
<path fill="none" stroke="#63b8ff" d="M36.1,-66.78C46.35,-54.33 61.18,-38.67 77.5,-29 87.17,-23.27 98.64,-19.21 109.36,-16.35"/>
<polygon fill="#63b8ff" stroke="#63b8ff" points="33.58,-64.33 30.14,-74.35 39.08,-68.66 33.58,-64.33"/>
</a>
</g>
</g>
</g>
</svg>
