<?xml version="1.0" encoding="UTF-8" standalone="no"?>
<!DOCTYPE svg PUBLIC "-//W3C//DTD SVG 1.1//EN"
 "http://www.w3.org/Graphics/SVG/1.1/DTD/svg11.dtd">
<!-- Generated by graphviz version 10.0.1 (20240210.2158)
 -->
<!-- Title: main Pages: 1 -->
<svg width="341pt" height="104pt"
 viewBox="0.00 0.00 341.25 104.00" xmlns="http://www.w3.org/2000/svg" xmlns:xlink="http://www.w3.org/1999/xlink">
<g id="graph0" class="graph" transform="scale(1 1) rotate(0) translate(4 100)">
<title>main</title>
<!-- Node1 -->
<g id="Node000001" class="node">
<title>Node1</title>
<g id="a_Node000001"><a xlink:title=" ">
<polygon fill="#999999" stroke="#666666" points="37,-58 0,-58 0,-38 37,-38 37,-58"/>
<text text-anchor="middle" x="18.5" y="-44.5" font-family="Helvetica,sans-Serif" font-size="10.00">main</text>
</a>
</g>
</g>
<!-- Node2 -->
<g id="Node000002" class="node">
<title>Node2</title>
<g id="a_Node000002"><a xlink:href="_fonction__externes_8hpp.html#a4fcdf83367f4a5648a2df01fbac70627" target="_top" xlink:title=" ">
<polygon fill="white" stroke="#666666" points="131.75,-96 74.5,-96 74.5,-76 131.75,-76 131.75,-96"/>
<text text-anchor="middle" x="103.12" y="-82.5" font-family="Helvetica,sans-Serif" font-size="10.00">create_v0</text>
</a>
</g>
</g>
<!-- Node1&#45;&gt;Node2 -->
<g id="edge1_Node000001_Node000002" class="edge">
<title>Node1&#45;&gt;Node2</title>
<g id="a_edge1_Node000001_Node000002"><a xlink:title=" ">
<path fill="none" stroke="#63b8ff" d="M37.43,-56.25C46.68,-60.5 58.27,-65.83 69.08,-70.8"/>
<polygon fill="#63b8ff" stroke="#63b8ff" points="67.58,-73.96 78.13,-74.96 70.51,-67.61 67.58,-73.96"/>
</a>
</g>
</g>
<!-- Node3 -->
<g id="Node000003" class="node">
<title>Node3</title>
<g id="a_Node000003"><a xlink:href="_fonction__externes_8hpp.html#a8bf9651680a69ef9b57e88861dbc2b7c" target="_top" xlink:title=" ">
<polygon fill="white" stroke="#666666" points="237.75,-58 169.25,-58 169.25,-38 237.75,-38 237.75,-58"/>
<text text-anchor="middle" x="203.5" y="-44.5" font-family="Helvetica,sans-Serif" font-size="10.00">interpolation</text>
</a>
</g>
</g>
<!-- Node1&#45;&gt;Node3 -->
<g id="edge6_Node000001_Node000003" class="edge">
<title>Node1&#45;&gt;Node3</title>
<g id="a_edge6_Node000001_Node000003"><a xlink:title=" ">
<path fill="none" stroke="#63b8ff" d="M37.38,-48C64.93,-48 118.61,-48 157.3,-48"/>
<polygon fill="#63b8ff" stroke="#63b8ff" points="157.27,-51.5 167.27,-48 157.27,-44.5 157.27,-51.5"/>
</a>
</g>
</g>
<!-- Node5 -->
<g id="Node000005" class="node">
<title>Node5</title>
<g id="a_Node000005"><a xlink:href="_fonction__externes_8hpp.html#aa770b9ea17155cabe435ccd50ad3125a" target="_top" xlink:title=" ">
<polygon fill="white" stroke="#666666" points="133.25,-20 73,-20 73,0 133.25,0 133.25,-20"/>
<text text-anchor="middle" x="103.12" y="-6.5" font-family="Helvetica,sans-Serif" font-size="10.00">print_grille</text>
</a>
</g>
</g>
<!-- Node1&#45;&gt;Node5 -->
<g id="edge7_Node000001_Node000005" class="edge">
<title>Node1&#45;&gt;Node5</title>
<g id="a_edge7_Node000001_Node000005"><a xlink:title=" ">
<path fill="none" stroke="#63b8ff" d="M37.43,-39.75C46.68,-35.5 58.27,-30.17 69.08,-25.2"/>
<polygon fill="#63b8ff" stroke="#63b8ff" points="70.51,-28.39 78.13,-21.04 67.58,-22.04 70.51,-28.39"/>
</a>
</g>
</g>
<!-- Node2&#45;&gt;Node3 -->
<g id="edge2_Node000002_Node000003" class="edge">
<title>Node2&#45;&gt;Node3</title>
<g id="a_edge2_Node000002_Node000003"><a xlink:title=" ">
<path fill="none" stroke="#63b8ff" d="M131.27,-75.52C141.7,-71.49 153.79,-66.81 165.03,-62.48"/>
<polygon fill="#63b8ff" stroke="#63b8ff" points="165.97,-65.86 174.03,-59 163.45,-59.33 165.97,-65.86"/>
</a>
</g>
</g>
<!-- Node3&#45;&gt;Node3 -->
<g id="edge5_Node000003_Node000003" class="edge">
<title>Node3&#45;&gt;Node3</title>
<g id="a_edge5_Node000003_Node000003"><a xlink:title=" ">
<path fill="none" stroke="#63b8ff" d="M187.61,-58.34C180.82,-66.98 186.12,-76 203.5,-76 213.01,-76 218.9,-73.3 221.17,-69.44"/>
<polygon fill="#63b8ff" stroke="#63b8ff" points="224.67,-69.15 219.63,-59.83 217.76,-70.26 224.67,-69.15"/>
</a>
</g>
</g>
<!-- Node4 -->
<g id="Node000004" class="node">
<title>Node4</title>
<g id="a_Node000004"><a xlink:href="class_grille.html#a55235882a3d7897067449ef76fb64287" target="_top" xlink:title=" ">
<polygon fill="white" stroke="#666666" points="333.25,-58 273.75,-58 273.75,-38 333.25,-38 333.25,-58"/>
<text text-anchor="middle" x="303.5" y="-44.5" font-family="Helvetica,sans-Serif" font-size="10.00">Grille::find</text>
</a>
</g>
</g>
<!-- Node3&#45;&gt;Node4 -->
<g id="edge3_Node000003_Node000004" class="edge">
<title>Node3&#45;&gt;Node4</title>
<g id="a_edge3_Node000003_Node000004"><a xlink:title=" ">
<path fill="none" stroke="#63b8ff" d="M238.23,-41.55C245.89,-41.24 254.11,-41.17 262.02,-41.34"/>
<polygon fill="#63b8ff" stroke="#63b8ff" points="261.65,-44.83 271.78,-41.71 261.92,-37.84 261.65,-44.83"/>
</a>
</g>
</g>
<!-- Node4&#45;&gt;Node3 -->
<g id="edge4_Node000004_Node000003" class="edge">
<title>Node4&#45;&gt;Node3</title>
<g id="a_edge4_Node000004_Node000003"><a xlink:title=" ">
<path fill="none" stroke="#63b8ff" d="M273.29,-54.23C265.8,-54.65 257.56,-54.81 249.47,-54.73"/>
<polygon fill="#63b8ff" stroke="#63b8ff" points="249.82,-51.24 239.74,-54.49 249.65,-58.24 249.82,-51.24"/>
</a>
</g>
</g>
<!-- Node5&#45;&gt;Node3 -->
<g id="edge9_Node000005_Node000003" class="edge">
<title>Node5&#45;&gt;Node3</title>
<g id="a_edge9_Node000005_Node000003"><a xlink:title=" ">
<path fill="none" stroke="#63b8ff" d="M131.27,-20.48C141.7,-24.51 153.79,-29.19 165.03,-33.52"/>
<polygon fill="#63b8ff" stroke="#63b8ff" points="163.45,-36.67 174.03,-37 165.97,-30.14 163.45,-36.67"/>
</a>
</g>
</g>
<!-- Node5&#45;&gt;Node4 -->
<g id="edge8_Node000005_Node000004" class="edge">
<title>Node5&#45;&gt;Node4</title>
<g id="a_edge8_Node000005_Node000004"><a xlink:title=" ">
<path fill="none" stroke="#63b8ff" d="M133.54,-12.95C160.76,-15.97 202.25,-21.31 237.75,-29 245.86,-30.76 254.43,-32.99 262.6,-35.31"/>
<polygon fill="#63b8ff" stroke="#63b8ff" points="261.36,-38.6 271.95,-38.06 263.34,-31.88 261.36,-38.6"/>
</a>
</g>
</g>
</g>
</svg>
